<?xml version="1.0" encoding="utf-8"?>
<!-- Generator: Adobe Illustrator 21.1.0, SVG Export Plug-In . SVG Version: 6.00 Build 0)  -->
<svg version="1.1" id="Layer_1" xmlns="http://www.w3.org/2000/svg" xmlns:xlink="http://www.w3.org/1999/xlink" x="0px" y="0px"
	 viewBox="0 0 48 48" style="enable-background:new 0 0 48 48;" xml:space="preserve">
<style type="text/css">
	.st0{fill:#FBBB1B;}
	.st1{fill:#F79920;}
</style>
<path class="st0" d="M32,18.1l13.6-5.7c1.5-0.6,1.9-1.5,1-2.9c-1.2-1.9-1.9-2.8-3.1-4c-1.2-1.2-2.1-2-4-3.1
	c-1.4-0.9-2.3-0.5-2.9,1.1L31,17.1C30.5,18.3,30.7,18.6,32,18.1z"/>
<path class="st1" d="M22.3,19.5c0.5,1.3,0.9,1.3,1.5,0l5.7-13.9c0.6-1.6,0.3-2.5-1.4-2.9C26,2.2,24.8,2.1,23,2.1
	c-1.8,0-3,0.1-5.1,0.6c-1.7,0.4-2,1.3-1.4,2.9L22.3,19.5z"/>
<path class="st1" d="M5.4,15.6l13.9,5.7c1.3,0.5,1.6,0.2,1-1L14.5,6.4c-0.7-1.6-1.6-2-3-1.1c-1.9,1.2-2.8,2-4,3.2
	c-1.2,1.2-2,2.1-3.2,4.1C3.4,14.1,3.8,15,5.4,15.6z"/>
<path class="st1" d="M19.3,26.8L5.4,32.6c-1.6,0.7-2,1.6-1.1,3c1.2,1.9,2,2.8,3.2,4c1.2,1.2,2.1,2,4.1,3.2c1.5,0.9,2.3,0.5,3-1.1
	l5.7-13.9C20.9,26.6,20.6,26.3,19.3,26.8z"/>
<path class="st1" d="M18.5,24.8c1.3-0.5,1.3-0.9,0-1.5L4.5,17.6C2.9,17,2,17.4,1.7,19c-0.5,2.1-0.6,3.4-0.6,5.1c0,1.8,0.1,3,0.6,5.1
	c0.4,1.7,1.3,2,2.9,1.4L18.5,24.8z"/>
<path class="st1" d="M23.8,28.7c-0.5-1.3-0.9-1.3-1.5,0l-5.7,13.9c-0.6,1.6-0.3,2.5,1.4,2.9c2.1,0.5,3.4,0.6,5.1,0.6
	c1.8,0,3-0.1,5.1-0.6c1.7-0.4,2-1.3,1.4-2.9L23.8,28.7z"/>
<path class="st0" d="M46.4,18.3c-0.3-1.3-1.1-1.6-2.3-1.1l-11.2,4.7c-1,0.4-1,0.8,0,1.2l11.2,4.6c1.3,0.5,2,0.2,2.3-1.1
	c0.4-1.7,0.5-2.7,0.5-4.1C46.9,21,46.8,20,46.4,18.3z"/>
<path class="st1" d="M40.8,32.6l-13.9-5.7c-1.3-0.5-1.6-0.2-1,1l5.8,13.9c0.7,1.6,1.5,2,3,1.1c1.9-1.2,2.8-2,4-3.2
	c1.2-1.2,2-2.1,3.2-4.1C42.8,34.1,42.4,33.2,40.8,32.6z"/>
</svg>
