<?xml version="1.0" standalone="no"?>
<!DOCTYPE svg PUBLIC "-//W3C//DTD SVG 20010904//EN"
 "http://www.w3.org/TR/2001/REC-SVG-20010904/DTD/svg10.dtd">
<svg version="1.0" xmlns="http://www.w3.org/2000/svg"
 width="128.000000pt" height="128.000000pt" viewBox="0 0 128.000000 128.000000"
 preserveAspectRatio="xMidYMid meet">

<g transform="translate(0.000000,128.000000) scale(0.100000,-0.100000)"
fill="#000000" stroke="none">
<path d="M0 1043 c1 -151 5 -242 12 -250 7 -9 7 -13 -1 -13 -6 0 -11 -5 -11
-11 0 -5 4 -7 10 -4 5 3 10 2 10 -4 0 -5 -5 -11 -12 -13 -7 -3 -6 -7 5 -11 12
-5 17 -1 17 12 0 10 7 21 15 25 9 3 15 0 15 -9 0 -8 3 -14 8 -14 26 4 32 -2
22 -20 -13 -25 -13 -41 1 -21 8 12 10 12 8 -5 -3 -43 2 -53 42 -81 l42 -29 -5
-160 c-3 -92 -2 -143 3 -120 4 22 8 65 9 95 1 83 12 160 22 160 6 0 7 -7 4
-16 -5 -13 -1 -15 20 -10 18 5 24 3 19 -5 -5 -8 -1 -8 14 1 19 10 25 8 41 -10
11 -13 20 -16 22 -9 3 8 9 6 21 -5 9 -9 13 -24 10 -33 -4 -11 -3 -14 5 -9 7 4
12 1 13 -6 0 -7 4 -4 9 7 7 15 9 16 9 4 1 -19 -23 -42 -32 -32 -4 3 -7 1 -7
-6 0 -7 -5 -9 -12 -5 -7 4 -8 3 -4 -4 10 -16 43 2 78 42 15 17 27 25 28 18 0
-7 -7 -15 -15 -18 -8 -3 -17 -14 -20 -23 -5 -18 -53 -46 -63 -37 -2 3 -18 -2
-34 -10 -16 -8 -34 -12 -41 -8 -7 4 -9 3 -4 -1 4 -5 -9 -18 -30 -29 -20 -12
-38 -27 -41 -34 -3 -11 1 -11 19 1 13 8 54 17 90 20 61 4 66 3 62 -14 -3 -11
-13 -19 -22 -20 -10 0 -11 -2 -3 -6 23 -9 12 -23 -20 -23 -53 0 -111 -20 -136
-46 -23 -24 -49 -33 -36 -12 4 6 3 8 -3 5 -6 -4 -13 -21 -16 -39 -4 -27 2 -40
29 -71 19 -20 34 -42 34 -49 0 -6 -15 6 -34 28 -19 21 -37 36 -40 33 -3 -3 11
-22 32 -42 33 -33 42 -36 63 -28 17 7 19 10 7 10 -10 1 -18 5 -18 10 0 11 120
40 198 48 l54 6 -6 58 c-4 38 -3 59 4 59 5 0 9 -3 9 -7 -4 -22 2 -80 9 -90 6
-9 22 -10 60 -4 50 8 75 -4 30 -13 -13 -3 -32 -7 -43 -9 -11 -3 0 -6 25 -7 25
-1 38 -4 30 -7 -8 -2 -22 -7 -30 -10 -17 -7 -28 -9 -51 -11 -14 -2 -15 -9 -8
-44 4 -24 8 -47 9 -51 0 -8 210 -6 210 2 0 3 -7 12 -15 21 -14 15 -14 18 -2
23 10 4 17 -4 21 -24 5 -25 10 -29 40 -29 38 0 45 10 52 78 l5 42 -55 0 c-34
0 -56 4 -56 11 0 7 20 10 55 7 30 -1 55 0 55 5 0 4 -27 7 -60 7 -36 0 -60 4
-60 11 0 6 23 9 61 8 59 -2 62 -2 75 27 l13 29 -2 -30 -2 -30 84 -8 c46 -4
109 -13 140 -20 71 -15 151 -11 151 8 0 20 47 71 57 62 4 -5 -4 -18 -20 -29
-15 -11 -27 -24 -27 -30 0 -5 13 1 29 14 l28 23 2 548 2 547 -641 0 -641 0 1
-237z m481 -129 c11 -13 10 -21 -6 -51 -11 -19 -21 -30 -23 -24 -2 6 -8 11
-13 11 -6 0 -8 -4 -4 -9 9 -16 -11 -21 -29 -8 -21 15 -25 75 -5 88 22 14 65
10 80 -7z m139 -83 c0 -5 -7 -11 -15 -15 -9 -3 -15 0 -15 9 0 8 7 15 15 15 8
0 15 -4 15 -9z m-132 -98 c-2 -10 -10 -17 -16 -15 -7 1 -12 -2 -12 -8 0 -5 -4
-10 -10 -10 -11 0 -14 33 -3 43 3 4 15 7 25 7 13 0 18 -6 16 -17z m109 -25
c-3 -8 -6 -5 -6 6 -1 11 2 17 5 13 3 -3 4 -12 1 -19z m-50 -70 c-3 -7 -5 -2
-5 12 0 14 2 19 5 13 2 -7 2 -19 0 -25z m129 -3 c-3 -8 0 -15 7 -15 7 0 -1 -9
-17 -19 -17 -11 -34 -17 -39 -14 -5 3 -13 -1 -18 -8 -11 -19 -23 -4 -12 16 10
16 61 53 77 54 4 1 6 -6 2 -14z m101 -7 c-3 -8 -6 -5 -6 6 -1 11 2 17 5 13 3
-3 4 -12 1 -19z m141 -27 c-1 -22 -4 -39 -7 -39 -21 2 -20 -5 0 -23 13 -11 3
-7 -23 10 -26 17 -60 31 -76 31 -19 0 -29 5 -29 15 0 8 4 15 9 15 4 0 8 -4 8
-9 0 -5 11 -8 25 -8 14 0 34 -8 44 -17 16 -14 20 -15 30 -2 7 8 12 23 11 33
-3 24 -1 33 5 33 3 0 5 -18 3 -39z m59 -3 c-3 -8 -6 -5 -6 6 -1 11 2 17 5 13
3 -3 4 -12 1 -19z m66 -18 c-3 -12 -8 -19 -11 -16 -5 6 5 36 12 36 2 0 2 -9
-1 -20z m-23 -9 c0 -10 -26 -9 -36 2 -4 4 2 7 14 7 12 0 22 -4 22 -9z m-212
-36 c-3 -3 -9 2 -12 12 -6 14 -5 15 5 6 7 -7 10 -15 7 -18z m172 -19 c0 -26
-6 -18 -14 19 -5 22 -4 26 4 15 5 -8 10 -24 10 -34z m27 -6 c-1 -11 -5 -20 -9
-20 -10 0 -10 4 -2 24 8 22 13 20 11 -4z m171 -34 c-1 -14 -5 -23 -9 -20 -7 4
0 44 7 44 2 0 3 -11 2 -24z m-345 -6 c3 -11 1 -18 -4 -15 -4 3 -16 -9 -25 -27
-9 -18 -27 -44 -39 -58 -13 -14 -45 -64 -71 -111 -34 -60 -53 -84 -64 -81 -20
7 -30 22 -30 48 0 12 -16 53 -36 93 -19 39 -37 82 -40 96 -4 23 -2 25 15 16
53 -29 250 3 276 43 12 20 12 20 18 -4z m250 6 c36 6 32 -4 -4 -11 -32 -7
-130 5 -124 15 3 4 26 4 51 -1 26 -5 60 -6 77 -3z m44 -20 c0 -8 -6 -12 -15
-9 -11 5 -11 7 0 14 7 5 13 9 14 9 0 0 1 -6 1 -14z m37 -14 c3 -5 -1 -9 -9 -9
-8 0 -15 4 -15 9 0 4 4 8 9 8 6 0 12 -4 15 -8z m41 -32 c3 -6 -1 -7 -9 -4 -18
7 -21 14 -7 14 6 0 13 -4 16 -10z m-738 -22 c-3 -8 -6 -5 -6 6 -1 11 2 17 5
13 3 -3 4 -12 1 -19z m711 -29 c43 -18 71 -44 59 -55 -1 -2 -31 6 -66 16 -34
11 -77 19 -94 19 l-32 -2 30 -4 c48 -7 171 -45 158 -50 -6 -2 -37 3 -70 11
-32 8 -89 18 -128 22 -47 5 -63 10 -50 15 19 6 18 8 -5 18 -20 9 -7 11 65 7
50 -2 99 -7 110 -11 19 -6 19 -6 1 5 -10 7 -59 15 -110 20 l-91 7 86 2 c67 1
97 -4 137 -20z m62 -4 c13 -14 19 -25 14 -25 -8 1 -50 50 -41 50 2 0 14 -11
27 -25z m-393 -27 c-3 -7 -5 -2 -5 12 0 14 2 19 5 13 2 -7 2 -19 0 -25z m-385
-28 c-2 -16 -6 -30 -8 -30 -2 0 -4 14 -4 30 0 17 4 30 8 30 5 0 7 -13 4 -30z
m687 -26 c35 -7 69 -18 75 -25 8 -9 4 -10 -19 -4 -16 4 -76 15 -133 24 -57 9
-100 20 -95 24 8 9 73 2 172 -19z m-619 12 c0 -2 -9 -6 -20 -9 -11 -3 -20 -1
-20 4 0 5 9 9 20 9 11 0 20 -2 20 -4z m-174 -23 c-4 -4 -35 -13 -68 -20 -41
-8 -71 -21 -90 -39 -15 -15 -30 -25 -34 -22 -11 11 51 62 91 74 44 14 113 18
101 7z m494 -13 c0 -11 -4 -20 -9 -20 -6 0 -9 9 -8 20 1 11 5 20 9 20 4 0 8
-9 8 -20z m-170 -160 c11 -7 11 -10 2 -10 -8 0 -10 -5 -6 -12 5 -8 2 -9 -11
-4 -10 4 -21 2 -25 -4 -4 -7 -18 -8 -34 -4 -21 5 -24 9 -16 20 7 7 24 15 38
17 15 2 29 5 32 5 3 1 12 -3 20 -8z"/>
<path d="M308 333 c12 -2 30 -2 40 0 9 3 -1 5 -23 4 -22 0 -30 -2 -17 -4z"/>
<path d="M220 295 c-32 -18 -25 -18 25 0 22 8 31 14 20 14 -11 0 -31 -6 -45
-14z"/>
<path d="M1246 139 c-14 -11 -26 -17 -26 -12 0 4 -4 3 -8 -4 -11 -17 -95 -17
-192 1 -47 9 -110 15 -140 15 -47 -2 -42 -3 32 -10 49 -5 114 -14 145 -21 32
-7 82 -11 111 -8 38 4 52 2 52 -7 0 -18 -101 -17 -205 1 -44 8 -105 16 -135
17 l-55 3 -5 -47 c-5 -40 -3 -47 11 -47 10 0 20 -6 22 -12 4 -10 6 -10 6 0 1
14 61 17 61 2 0 -6 67 -10 180 -10 l180 0 0 80 c0 44 -2 80 -4 80 -2 0 -15 -9
-30 -21z"/>
<path d="M110 88 c0 -21 5 -49 12 -63 l11 -25 175 0 175 0 -7 47 c-3 25 -7 47
-9 48 -5 5 -196 -29 -239 -41 -11 -3 -15 -11 -11 -22 3 -9 -20 8 -51 38 l-56
54 0 -36z"/>
<path d="M393 113 c9 -2 25 -2 35 0 9 3 1 5 -18 5 -19 0 -27 -2 -17 -5z"/>
<path d="M290 98 c-25 -6 -40 -12 -35 -14 6 -2 35 3 65 10 64 16 37 19 -30 4z"/>
<path d="M0 33 c0 -26 4 -33 20 -33 25 0 25 8 0 40 l-20 25 0 -32z"/>
</g>
</svg>
