<svg id="svg" version="1.1" xmlns="http://www.w3.org/2000/svg" xmlns:xlink="http://www.w3.org/1999/xlink" width="400" height="400" viewBox="0, 0, 400,400"><g id="svgg"><path id="path0" d="M271.800 109.603 C 248.454 113.140,233.808 136.865,238.963 162.800 C 240.360 169.830,242.024 173.593,251.260 190.600 C 251.857 191.700,252.861 193.590,253.492 194.800 C 255.876 199.377,258.490 204.215,258.787 204.600 C 258.957 204.820,259.323 205.720,259.600 206.600 C 259.877 207.480,260.244 208.380,260.414 208.600 C 260.585 208.820,261.023 210.080,261.387 211.400 C 261.751 212.720,262.209 214.160,262.404 214.600 C 263.847 217.858,264.415 234.593,263.259 239.800 C 262.300 244.115,259.656 252.216,258.335 254.884 C 257.931 255.700,257.600 256.485,257.600 256.629 C 257.600 257.051,265.874 255.391,272.800 253.579 C 274.450 253.147,276.970 252.530,278.400 252.206 C 282.909 251.185,292.476 248.522,296.488 247.170 C 297.753 246.744,298.925 246.425,299.094 246.461 C 299.262 246.497,299.760 246.389,300.200 246.221 C 305.040 244.369,317.750 239.989,318.267 239.995 C 318.523 239.998,318.805 240.216,318.893 240.479 C 319.103 241.109,321.842 240.333,321.705 239.681 C 321.652 239.431,321.875 239.331,322.205 239.457 C 322.532 239.583,322.800 239.474,322.800 239.216 C 322.800 238.928,323.110 238.844,323.600 239.000 C 324.049 239.142,324.400 239.072,324.400 238.840 C 324.400 238.612,324.670 238.529,325.000 238.655 C 325.330 238.782,325.600 238.701,325.600 238.476 C 325.600 238.251,325.384 237.995,325.120 237.907 C 324.820 237.807,324.895 237.649,325.320 237.486 C 325.767 237.315,326.000 237.424,326.000 237.804 C 326.000 238.276,326.184 238.299,327.000 237.927 C 327.550 237.677,328.000 237.299,328.000 237.089 C 328.000 236.879,328.360 236.801,328.801 236.916 C 329.310 237.049,329.504 236.969,329.335 236.695 C 329.162 236.416,329.323 236.362,329.791 236.541 C 330.401 236.775,330.435 236.724,330.008 236.209 C 329.692 235.829,329.662 235.600,329.927 235.600 C 330.161 235.600,330.460 235.773,330.590 235.984 C 330.726 236.204,331.582 235.948,332.591 235.384 C 333.561 234.843,334.654 234.400,335.020 234.400 C 335.437 234.400,335.603 234.183,335.463 233.820 C 335.324 233.459,335.433 233.315,335.751 233.437 C 336.032 233.544,336.788 233.416,337.431 233.152 C 338.074 232.887,338.735 232.700,338.900 232.735 C 339.065 232.771,339.200 232.632,339.200 232.427 C 339.200 232.222,339.563 231.939,340.006 231.798 C 340.450 231.657,340.691 231.348,340.543 231.108 C 340.368 230.825,340.575 230.753,341.137 230.900 C 341.612 231.024,342.000 230.943,342.000 230.720 C 342.000 230.497,342.270 230.418,342.600 230.545 C 342.930 230.671,343.200 230.616,343.200 230.421 C 343.200 230.226,342.984 229.995,342.720 229.907 C 342.425 229.808,342.510 229.643,342.941 229.478 C 343.416 229.296,343.549 229.358,343.355 229.673 C 343.161 229.986,343.294 230.049,343.767 229.868 C 344.151 229.721,344.551 229.600,344.656 229.600 C 344.761 229.600,344.737 229.422,344.603 229.205 C 344.464 228.979,344.621 228.910,344.969 229.043 C 345.669 229.312,346.904 228.264,346.481 227.761 C 346.326 227.577,346.515 227.667,346.900 227.962 C 347.366 228.319,347.600 228.348,347.600 228.049 C 347.600 227.802,347.870 227.600,348.200 227.600 C 348.530 227.600,348.755 227.375,348.700 227.100 C 348.643 226.814,348.912 226.653,349.330 226.724 C 350.229 226.878,351.285 226.061,350.930 225.487 C 350.767 225.223,350.920 225.160,351.334 225.319 C 351.700 225.460,352.000 225.422,352.000 225.234 C 352.000 225.047,352.378 224.794,352.840 224.674 C 353.303 224.553,353.562 224.262,353.417 224.027 C 353.272 223.792,353.343 223.600,353.576 223.600 C 353.809 223.600,354.000 223.787,354.000 224.016 C 354.000 224.256,354.236 224.213,354.558 223.916 C 354.865 223.632,355.045 223.282,354.957 223.137 C 354.870 222.993,355.159 222.969,355.599 223.084 C 356.065 223.206,356.400 223.096,356.400 222.823 C 356.400 222.564,356.581 222.465,356.803 222.602 C 357.024 222.739,357.314 222.569,357.446 222.225 C 357.578 221.881,357.893 221.600,358.147 221.600 C 358.401 221.600,359.098 221.146,359.696 220.591 C 360.294 220.037,360.872 219.632,360.979 219.691 C 361.086 219.751,361.495 219.525,361.887 219.190 C 362.279 218.854,362.780 218.494,363.000 218.390 C 363.220 218.285,363.379 217.998,363.353 217.751 C 363.327 217.503,363.640 217.390,364.053 217.498 C 364.464 217.605,364.804 217.537,364.809 217.347 C 364.814 217.156,365.176 216.550,365.614 216.000 C 366.191 215.276,366.336 215.210,366.139 215.761 C 365.897 216.441,366.003 216.422,367.134 215.586 C 368.406 214.645,368.656 214.210,368.100 213.899 C 367.935 213.807,368.051 213.796,368.358 213.875 C 369.027 214.048,370.400 212.889,370.400 212.151 C 370.400 211.862,370.637 211.716,370.927 211.827 C 371.217 211.938,372.280 211.226,373.290 210.245 C 374.300 209.263,375.262 208.581,375.427 208.730 C 375.592 208.878,375.615 208.687,375.478 208.305 C 375.341 207.922,375.357 207.629,375.514 207.652 C 376.196 207.754,376.792 207.577,376.700 207.300 C 376.645 207.135,376.716 207.000,376.858 207.000 C 377.359 207.000,378.767 205.499,378.684 205.052 C 378.638 204.804,378.847 204.652,379.149 204.716 C 379.497 204.790,379.612 204.609,379.463 204.221 C 379.334 203.885,379.357 203.629,379.514 203.652 C 380.377 203.781,380.861 203.537,380.680 203.064 C 380.565 202.763,380.940 202.252,381.537 201.899 C 382.122 201.553,383.140 200.516,383.800 199.596 C 384.460 198.676,385.491 197.336,386.091 196.619 C 386.691 195.902,387.066 195.199,386.924 195.058 C 386.783 194.916,386.877 194.800,387.133 194.800 C 387.390 194.800,387.600 194.549,387.600 194.243 C 387.600 193.936,387.872 193.581,388.204 193.454 C 388.536 193.327,388.774 193.082,388.734 192.911 C 388.615 192.407,389.697 190.400,390.088 190.400 C 390.285 190.400,390.336 190.220,390.200 190.000 C 390.064 189.780,390.173 189.600,390.443 189.600 C 390.713 189.600,390.829 189.495,390.701 189.367 C 390.573 189.240,390.900 188.498,391.428 187.720 C 391.957 186.942,392.291 186.147,392.171 185.953 C 392.051 185.759,392.154 185.600,392.400 185.600 C 392.646 185.600,392.736 185.420,392.600 185.200 C 392.464 184.980,392.557 184.800,392.806 184.800 C 393.055 184.800,393.195 184.485,393.118 184.100 C 393.040 183.715,393.302 183.046,393.698 182.614 C 394.095 182.182,394.325 181.597,394.210 181.314 C 393.916 180.593,393.697 179.739,393.899 180.100 C 394.236 180.703,394.878 180.380,394.629 179.732 C 394.488 179.364,394.604 178.915,394.886 178.732 C 395.302 178.463,395.298 178.334,394.866 178.056 C 394.436 177.778,394.456 177.664,394.966 177.468 C 395.315 177.335,395.600 176.870,395.600 176.436 C 395.600 176.002,395.769 175.543,395.975 175.415 C 396.182 175.288,396.237 174.782,396.097 174.292 C 395.600 172.542,395.538 161.864,396.019 160.964 C 396.359 160.329,396.365 159.882,396.041 159.276 C 395.798 158.823,395.600 158.094,395.600 157.655 C 395.600 157.216,395.331 156.588,395.001 156.258 C 394.672 155.929,394.511 155.376,394.644 155.030 C 394.779 154.679,394.679 154.400,394.419 154.400 C 394.163 154.400,394.055 154.235,394.180 154.032 C 394.305 153.830,394.094 153.351,393.710 152.967 C 393.327 152.584,393.004 152.074,392.994 151.835 C 392.957 150.983,390.929 147.247,389.864 146.071 C 389.499 145.667,389.200 145.218,389.200 145.072 C 389.200 144.779,388.094 143.402,386.107 141.220 C 383.294 138.130,381.765 136.805,381.000 136.797 C 380.420 136.790,380.344 136.696,380.724 136.455 C 381.104 136.215,380.883 135.943,379.924 135.471 C 379.196 135.112,378.780 134.811,379.000 134.803 C 379.457 134.786,378.371 134.015,377.876 134.006 C 377.698 134.003,377.681 134.208,377.838 134.462 C 378.011 134.741,377.948 134.815,377.679 134.649 C 377.435 134.498,377.327 134.133,377.440 133.839 C 377.654 133.283,376.571 132.647,376.006 132.996 C 375.829 133.106,375.581 132.926,375.454 132.598 C 375.328 132.269,375.029 132.000,374.789 132.000 C 374.549 132.000,374.482 132.225,374.641 132.500 C 374.808 132.790,374.776 132.860,374.564 132.667 C 374.364 132.483,374.199 132.123,374.198 131.867 C 374.197 131.610,373.783 131.395,373.277 131.390 C 372.772 131.384,372.190 131.114,371.985 130.790 C 371.710 130.355,371.611 130.338,371.606 130.724 C 371.603 131.012,371.417 131.134,371.193 130.996 C 370.970 130.858,370.902 130.558,371.044 130.330 C 371.207 130.064,370.994 130.012,370.453 130.183 C 369.771 130.400,369.656 130.321,369.863 129.780 C 370.071 129.237,369.955 129.160,369.261 129.381 C 368.758 129.540,368.400 129.482,368.400 129.240 C 368.400 129.012,368.130 128.929,367.800 129.055 C 367.470 129.182,367.200 129.117,367.200 128.910 C 367.200 128.304,364.475 127.595,364.250 128.143 C 364.147 128.394,364.049 128.306,364.032 127.947 C 363.995 127.188,363.049 126.867,361.264 127.008 C 360.569 127.062,360.000 126.948,360.000 126.753 C 360.000 126.559,359.460 126.400,358.800 126.400 C 358.140 126.400,357.600 126.608,357.600 126.862 C 357.600 127.138,357.306 127.058,356.869 126.662 C 356.078 125.946,348.133 125.644,348.567 126.346 C 348.685 126.537,348.065 126.610,347.190 126.509 C 346.194 126.394,345.600 126.489,345.600 126.763 C 345.600 127.003,345.409 127.200,345.176 127.200 C 344.943 127.200,344.863 127.022,344.997 126.805 C 345.240 126.412,344.208 126.658,343.400 127.185 C 343.180 127.329,342.593 127.415,342.096 127.378 C 341.356 127.321,341.278 127.412,341.666 127.880 C 342.064 128.359,341.953 128.409,340.970 128.193 C 340.042 127.989,339.924 128.030,340.400 128.392 C 340.870 128.750,340.709 128.791,339.650 128.581 C 338.777 128.409,338.389 128.458,338.551 128.720 C 338.704 128.969,338.467 129.038,337.938 128.900 C 337.347 128.745,337.165 128.820,337.361 129.137 C 337.537 129.422,337.369 129.602,336.924 129.606 C 336.426 129.610,336.353 129.709,336.689 129.923 C 337.013 130.129,336.745 130.391,335.889 130.705 C 334.722 131.131,334.674 131.120,335.376 130.588 C 335.804 130.265,335.951 130.000,335.705 130.000 C 335.459 130.000,334.987 130.270,334.657 130.600 C 334.327 130.930,333.889 131.200,333.683 131.200 C 333.476 131.200,332.858 131.554,332.308 131.987 C 331.757 132.420,331.178 132.645,331.020 132.487 C 330.862 132.329,330.793 132.470,330.867 132.800 C 330.940 133.130,330.775 133.355,330.500 133.300 C 330.225 133.245,329.997 133.515,329.994 133.900 C 329.989 134.436,329.909 134.475,329.649 134.066 C 329.386 133.650,329.144 133.739,328.556 134.468 C 328.140 134.983,327.260 135.752,326.600 136.176 C 325.940 136.601,325.071 137.366,324.669 137.876 C 324.267 138.387,323.691 139.052,323.388 139.355 C 323.086 139.657,322.920 140.016,323.019 140.152 C 323.119 140.289,323.082 140.312,322.937 140.203 C 322.792 140.095,322.432 140.207,322.137 140.452 C 321.711 140.805,321.600 140.685,321.600 139.873 C 321.600 139.309,321.428 138.741,321.217 138.611 C 321.007 138.481,320.937 138.108,321.062 137.782 C 321.187 137.456,321.044 136.888,320.745 136.518 C 320.294 135.962,320.293 135.902,320.740 136.171 C 321.183 136.438,321.193 136.335,320.797 135.594 C 320.414 134.878,320.242 134.806,319.963 135.246 C 319.734 135.608,319.610 135.635,319.606 135.324 C 319.603 135.062,319.773 134.740,319.985 134.609 C 320.434 134.331,319.672 132.400,319.112 132.400 C 318.915 132.400,318.864 132.220,319.000 132.000 C 319.136 131.780,319.037 131.600,318.781 131.600 C 318.524 131.600,318.418 131.330,318.545 131.000 C 318.671 130.670,318.571 130.400,318.321 130.400 C 318.071 130.400,317.979 130.288,318.116 130.151 C 318.253 130.013,317.902 129.293,317.335 128.551 C 316.769 127.808,316.441 127.200,316.606 127.200 C 316.772 127.200,316.434 126.827,315.854 126.371 C 315.274 125.915,314.800 125.294,314.800 124.991 C 314.800 124.688,314.561 124.296,314.270 124.120 C 313.978 123.944,313.609 123.445,313.448 123.011 C 313.216 122.383,313.087 122.335,312.815 122.776 C 312.559 123.190,312.438 123.087,312.336 122.365 C 312.242 121.699,311.901 121.358,311.235 121.264 C 310.470 121.156,310.387 121.045,310.835 120.729 C 311.261 120.428,311.179 120.379,310.499 120.528 C 310.004 120.637,309.692 120.575,309.806 120.390 C 309.920 120.206,309.827 119.940,309.600 119.800 C 309.373 119.660,309.309 119.332,309.458 119.072 C 309.606 118.813,309.594 118.720,309.431 118.867 C 309.267 119.013,308.807 118.833,308.409 118.467 C 306.366 116.587,305.431 115.979,304.898 116.184 C 304.495 116.338,304.384 116.219,304.543 115.805 C 304.738 115.295,304.301 114.966,303.871 115.300 C 303.801 115.355,303.436 115.093,303.060 114.717 C 302.670 114.328,302.096 114.142,301.723 114.285 C 301.285 114.453,301.165 114.381,301.358 114.068 C 301.532 113.787,301.398 113.600,301.024 113.600 C 300.681 113.600,300.400 113.390,300.400 113.133 C 300.400 112.877,300.283 112.784,300.140 112.927 C 299.996 113.070,299.654 112.880,299.380 112.505 C 298.946 111.912,298.749 111.892,297.890 112.352 C 297.205 112.719,296.669 112.762,296.150 112.493 C 291.436 110.048,278.779 108.546,271.800 109.603 M396.000 162.776 C 396.000 163.669,396.175 164.400,396.388 164.400 C 396.857 164.400,396.808 161.652,396.335 161.360 C 396.151 161.246,396.000 161.883,396.000 162.776 M396.006 171.500 C 396.003 172.435,396.180 173.200,396.400 173.200 C 396.910 173.200,396.910 171.190,396.400 170.400 C 396.116 169.961,396.011 170.255,396.006 171.500 " stroke="none" fill="#e3203c" fill-rule="evenodd"></path><path id="path1" d="M154.200 39.600 C 154.064 39.820,154.278 40.014,154.676 40.032 C 155.111 40.051,155.197 40.145,154.891 40.268 C 154.612 40.380,153.834 40.281,153.163 40.047 C 151.935 39.619,143.604 40.245,143.596 40.766 C 143.594 40.895,142.219 41.028,140.539 41.063 C 138.860 41.098,137.106 41.315,136.643 41.545 C 136.179 41.776,133.917 42.252,131.615 42.604 C 129.313 42.956,127.243 43.390,127.015 43.569 C 126.787 43.748,125.340 44.120,123.800 44.395 C 122.260 44.671,120.460 45.135,119.800 45.427 C 119.140 45.720,117.430 46.254,116.000 46.615 C 114.570 46.976,113.218 47.422,112.995 47.606 C 112.772 47.790,111.692 48.157,110.595 48.420 C 109.498 48.684,108.240 49.120,107.800 49.389 C 107.360 49.657,106.010 50.201,104.800 50.598 C 103.590 50.994,102.510 51.434,102.400 51.576 C 102.290 51.718,101.411 52.088,100.447 52.398 C 99.483 52.709,98.485 53.173,98.228 53.429 C 97.972 53.685,97.321 54.025,96.781 54.185 C 94.598 54.832,90.000 57.332,90.000 57.871 C 90.000 58.188,89.836 58.346,89.636 58.222 C 89.214 57.961,86.508 59.135,84.200 60.579 C 83.320 61.130,81.900 61.962,81.044 62.427 C 80.188 62.893,79.119 63.617,78.668 64.037 C 78.218 64.457,77.716 64.800,77.553 64.800 C 77.390 64.800,76.142 65.565,74.779 66.500 C 73.416 67.435,71.939 68.409,71.497 68.664 C 71.054 68.919,70.581 69.283,70.446 69.473 C 70.311 69.663,69.660 70.162,69.000 70.581 C 68.340 71.001,66.720 72.216,65.400 73.282 C 64.080 74.348,62.820 75.361,62.600 75.532 C 57.372 79.600,47.669 89.038,42.586 95.000 C 41.086 96.760,39.620 98.344,39.329 98.520 C 39.038 98.696,38.800 99.049,38.800 99.306 C 38.800 99.562,38.429 100.138,37.976 100.586 C 37.523 101.034,36.442 102.390,35.575 103.600 C 34.707 104.810,33.773 106.063,33.499 106.385 C 33.224 106.707,32.820 107.268,32.600 107.632 C 32.380 107.995,31.316 109.622,30.235 111.246 C 29.154 112.871,27.763 115.010,27.145 116.000 C 26.527 116.990,25.834 118.020,25.605 118.289 C 25.376 118.559,25.006 119.189,24.784 119.689 C 24.562 120.190,23.771 121.680,23.027 123.000 C 20.191 128.030,16.000 136.839,16.000 137.769 C 16.000 138.116,15.853 138.400,15.673 138.400 C 15.493 138.400,15.022 139.429,14.625 140.687 C 14.229 141.945,13.678 143.340,13.402 143.787 C 13.126 144.234,12.684 145.498,12.420 146.595 C 12.157 147.692,11.779 148.784,11.581 149.022 C 11.384 149.261,10.933 150.701,10.580 152.224 C 10.227 153.747,9.791 155.175,9.612 155.397 C 9.434 155.618,8.985 157.240,8.616 159.000 C 8.246 160.760,7.789 162.560,7.599 163.000 C 7.290 163.717,5.991 170.347,5.818 172.092 C 5.781 172.472,5.626 172.907,5.475 173.059 C 5.005 173.528,5.173 175.523,5.700 175.735 C 6.026 175.867,5.979 175.948,5.566 175.968 C 5.051 175.994,4.843 176.920,4.456 180.904 C 4.195 183.602,3.877 186.450,3.749 187.235 C 3.591 188.213,3.703 188.846,4.109 189.252 C 4.549 189.691,4.622 190.246,4.396 191.421 C 4.094 192.990,4.092 192.991,4.046 191.676 C 4.019 190.905,3.833 190.456,3.600 190.600 C 3.058 190.935,3.058 208.665,3.600 209.000 C 3.840 209.149,4.021 208.559,4.053 207.524 L 4.107 205.800 4.383 207.799 C 4.588 209.288,4.513 209.944,4.088 210.369 C 3.704 210.754,3.593 211.403,3.749 212.365 C 3.877 213.150,4.195 215.998,4.456 218.696 C 4.875 223.014,5.020 223.600,5.666 223.600 C 6.070 223.600,6.400 223.774,6.400 223.987 C 6.400 224.201,6.130 224.271,5.800 224.145 C 5.130 223.888,4.917 225.924,5.541 226.620 C 5.728 226.829,6.107 228.575,6.382 230.500 C 6.658 232.425,7.027 234.000,7.204 234.000 C 7.381 234.000,7.428 234.372,7.309 234.826 C 7.190 235.281,7.286 236.046,7.523 236.526 C 7.759 237.007,8.242 238.750,8.596 240.400 C 9.232 243.366,10.005 245.598,10.398 245.602 C 10.509 245.604,10.625 246.289,10.655 247.126 C 10.686 247.963,11.071 249.447,11.510 250.424 C 11.950 251.401,12.437 252.830,12.594 253.600 C 12.750 254.370,13.109 255.366,13.391 255.813 C 13.673 256.260,14.229 257.655,14.625 258.913 C 15.022 260.171,15.493 261.200,15.673 261.200 C 15.853 261.200,16.000 261.487,16.000 261.838 C 16.000 262.763,22.829 277.015,23.553 277.600 C 23.689 277.710,24.158 278.520,24.596 279.400 C 25.034 280.280,25.504 281.090,25.640 281.200 C 25.777 281.310,26.186 281.980,26.549 282.689 C 27.161 283.883,28.778 286.468,29.497 287.400 C 29.667 287.620,30.604 289.015,31.579 290.500 C 32.554 291.985,33.486 293.200,33.649 293.200 C 33.812 293.200,34.059 293.557,34.198 293.994 C 34.336 294.430,35.524 296.095,36.837 297.694 C 38.150 299.292,39.533 300.985,39.912 301.457 C 42.814 305.070,44.588 307.008,50.381 312.900 C 54.005 316.585,57.097 319.600,57.254 319.600 C 57.410 319.600,58.057 320.095,58.690 320.700 C 61.722 323.595,69.262 329.599,69.867 329.600 C 70.123 329.600,70.393 329.765,70.467 329.966 C 70.647 330.460,81.391 337.600,81.955 337.600 C 82.200 337.600,82.400 337.762,82.400 337.960 C 82.400 338.159,83.209 338.654,84.199 339.060 C 85.188 339.467,85.998 339.957,85.999 340.149 C 85.999 340.341,86.274 340.270,86.609 339.992 C 87.111 339.576,87.179 339.590,86.995 340.069 C 86.845 340.459,87.292 340.905,88.353 341.425 C 95.233 344.796,97.087 345.710,97.681 346.024 C 98.100 346.245,98.456 346.232,98.605 345.992 C 98.738 345.776,99.062 345.614,99.324 345.632 C 99.667 345.654,99.661 345.719,99.300 345.865 C 98.711 346.103,98.627 346.800,99.188 346.800 C 99.402 346.800,100.533 347.237,101.702 347.772 C 102.871 348.307,104.541 349.004,105.414 349.322 C 106.286 349.639,108.530 350.483,110.400 351.196 C 112.270 351.910,114.250 352.517,114.800 352.547 C 115.350 352.576,116.038 352.825,116.329 353.100 C 116.619 353.375,117.216 353.600,117.655 353.600 C 118.094 353.600,118.812 353.792,119.252 354.028 C 119.829 354.337,120.205 354.328,120.606 353.995 C 120.912 353.741,121.485 353.618,121.881 353.721 C 122.446 353.867,122.407 353.917,121.700 353.954 C 119.897 354.047,120.866 354.722,123.500 355.208 C 124.985 355.482,126.505 355.863,126.878 356.055 C 127.539 356.396,133.152 357.489,140.000 358.610 C 148.554 360.011,163.502 360.710,163.300 359.700 C 163.153 358.967,164.672 359.089,164.957 359.833 C 165.167 360.380,165.862 360.434,170.100 360.233 C 180.270 359.752,181.597 359.595,181.632 358.870 C 181.651 358.454,181.740 358.389,181.865 358.700 C 182.229 359.602,185.200 359.335,185.200 358.400 C 185.200 357.902,185.465 357.602,185.900 357.606 C 186.487 357.611,186.505 357.672,186.012 357.984 C 184.862 358.711,186.050 358.940,188.706 358.503 C 194.873 357.489,200.487 356.382,201.122 356.055 C 201.495 355.863,203.015 355.482,204.500 355.208 C 205.985 354.934,207.200 354.588,207.200 354.440 C 207.200 354.292,207.515 354.150,207.900 354.124 C 210.348 353.959,214.039 352.519,213.255 352.034 C 212.844 351.780,212.867 351.660,213.366 351.468 C 213.767 351.314,214.000 351.441,214.000 351.813 C 214.000 352.458,214.625 352.607,214.972 352.045 C 215.093 351.850,215.823 351.572,216.596 351.427 C 217.368 351.282,218.000 350.998,218.000 350.794 C 218.000 350.591,218.253 350.522,218.561 350.640 C 218.870 350.759,219.853 350.483,220.745 350.028 C 221.638 349.573,222.551 349.200,222.774 349.200 C 222.997 349.200,224.359 348.660,225.800 348.000 C 227.241 347.340,228.596 346.800,228.810 346.800 C 229.365 346.800,229.294 346.098,228.720 345.907 C 228.419 345.806,228.491 345.650,228.915 345.488 C 229.337 345.326,229.555 345.411,229.495 345.714 C 229.443 345.981,229.670 346.144,230.000 346.075 C 231.590 345.745,245.264 338.566,245.533 337.920 C 245.607 337.744,245.897 337.600,246.179 337.600 C 246.461 337.600,247.125 337.259,247.654 336.843 C 248.184 336.427,249.170 335.752,249.847 335.343 C 252.872 333.516,257.600 330.208,257.600 329.918 C 257.600 329.743,257.825 329.600,258.100 329.600 C 258.508 329.599,262.427 326.686,265.206 324.317 C 265.540 324.033,267.430 322.423,269.406 320.739 C 273.054 317.633,282.826 307.849,285.926 304.200 C 287.823 301.966,289.398 300.092,290.107 299.221 C 290.671 298.529,293.213 295.082,294.400 293.400 C 297.740 288.666,299.103 286.677,299.796 285.524 C 300.233 284.796,300.953 283.632,301.396 282.937 C 304.937 277.376,313.200 260.924,313.200 259.433 C 313.200 259.277,313.626 258.215,314.147 257.074 C 314.669 255.933,315.229 254.370,315.394 253.600 C 315.558 252.830,315.835 252.020,316.008 251.800 C 316.182 251.580,316.623 250.320,316.987 249.000 C 317.351 247.680,317.811 246.240,318.008 245.800 C 318.810 244.010,319.285 241.428,318.839 241.280 C 318.597 241.199,318.400 240.859,318.400 240.524 C 318.400 240.098,318.189 240.003,317.700 240.209 C 315.079 241.312,310.219 243.091,305.600 244.637 C 299.317 246.741,299.699 246.429,298.048 250.800 C 297.341 252.670,296.601 254.560,296.403 255.000 C 296.205 255.440,295.480 257.060,294.794 258.600 C 292.812 263.043,290.627 267.388,290.300 267.533 C 290.135 267.607,290.000 267.850,290.000 268.073 C 290.000 269.031,283.234 279.665,279.074 285.246 C 275.581 289.932,274.680 291.073,272.476 293.600 C 269.562 296.940,260.771 305.731,258.273 307.802 C 257.212 308.681,256.039 309.670,255.665 310.000 C 254.102 311.379,249.403 315.009,247.281 316.477 C 243.203 319.299,237.031 323.290,236.408 323.509 C 236.074 323.626,235.530 323.944,235.200 324.217 C 233.748 325.415,216.470 333.600,215.393 333.600 C 215.244 333.600,214.554 333.854,213.860 334.165 C 213.167 334.475,211.610 335.028,210.400 335.393 C 209.190 335.758,207.840 336.219,207.400 336.416 C 206.378 336.874,201.379 338.205,196.000 339.451 C 175.280 344.252,152.996 344.249,132.000 339.442 C 126.680 338.224,121.634 336.881,120.600 336.409 C 120.160 336.208,118.090 335.475,116.000 334.780 C 109.726 332.695,103.005 329.698,95.200 325.505 C 93.710 324.704,89.635 322.271,85.803 319.894 C 83.784 318.643,76.359 313.263,74.200 311.487 C 68.846 307.086,67.204 305.603,62.801 301.190 C 57.637 296.015,54.526 292.500,50.520 287.316 C 47.799 283.794,45.517 280.591,43.599 277.600 C 43.388 277.270,42.799 276.370,42.291 275.600 C 38.879 270.432,31.430 255.404,30.196 251.200 C 30.034 250.650,29.770 250.020,29.608 249.800 C 29.446 249.580,28.644 247.240,27.827 244.600 C 27.009 241.960,26.005 238.720,25.595 237.400 C 25.185 236.080,24.646 233.830,24.395 232.400 C 24.145 230.970,23.785 229.412,23.596 228.937 C 23.406 228.463,22.965 225.943,22.615 223.337 C 22.266 220.732,21.802 217.700,21.585 216.600 C 20.452 210.852,20.432 187.370,21.557 183.200 C 21.765 182.430,22.238 179.370,22.609 176.400 C 22.979 173.430,23.422 170.820,23.592 170.600 C 23.762 170.380,24.113 168.940,24.370 167.400 C 24.628 165.860,25.177 163.520,25.590 162.200 C 26.002 160.880,27.013 157.640,27.836 155.000 C 28.659 152.360,29.476 149.930,29.653 149.600 C 29.829 149.270,30.450 147.740,31.032 146.200 C 35.300 134.917,46.049 116.887,53.407 108.670 C 53.766 108.268,55.068 106.738,56.300 105.270 C 58.832 102.251,66.464 94.613,69.361 92.200 C 70.417 91.320,71.848 90.116,72.540 89.525 C 76.219 86.384,80.665 83.075,84.803 80.400 C 90.008 77.036,99.048 71.854,101.600 70.773 C 102.150 70.540,103.320 70.010,104.200 69.594 C 106.590 68.466,111.262 66.530,112.400 66.196 C 112.950 66.034,113.580 65.773,113.800 65.615 C 114.151 65.363,118.585 63.914,125.600 61.761 C 129.165 60.666,134.244 59.586,139.800 58.742 C 142.660 58.307,145.851 57.767,146.890 57.541 C 151.802 56.475,176.198 56.475,181.110 57.541 C 182.149 57.767,185.340 58.307,188.200 58.741 C 194.034 59.628,200.591 61.000,201.800 61.588 C 202.240 61.802,203.848 62.258,205.372 62.600 C 206.897 62.942,208.337 63.375,208.572 63.563 C 208.808 63.750,210.080 64.212,211.400 64.590 C 212.720 64.967,213.980 65.415,214.200 65.586 C 214.420 65.756,215.320 66.122,216.200 66.398 C 217.839 66.913,219.814 67.738,223.480 69.439 C 224.625 69.970,225.975 70.589,226.480 70.813 C 229.854 72.312,240.196 78.193,241.825 79.540 C 242.059 79.734,242.687 80.126,243.222 80.412 C 244.410 81.048,249.022 84.352,252.000 86.702 C 253.210 87.657,254.815 88.924,255.568 89.519 C 260.507 93.423,272.633 105.540,273.939 107.877 C 274.284 108.496,275.112 108.637,279.671 108.858 C 285.034 109.119,291.305 110.318,295.227 111.835 C 298.135 112.959,298.740 112.423,297.122 110.154 C 296.395 109.134,295.530 107.884,295.200 107.377 C 293.795 105.218,290.932 101.410,290.100 100.593 C 289.605 100.106,289.200 99.536,289.200 99.326 C 289.200 99.116,288.795 98.578,288.300 98.130 C 287.805 97.682,286.591 96.344,285.603 95.158 C 281.557 90.300,269.153 78.000,268.300 78.000 C 268.184 78.000,267.275 77.235,266.280 76.300 C 265.285 75.365,264.050 74.288,263.536 73.907 C 263.021 73.526,261.674 72.491,260.543 71.607 C 259.411 70.723,258.286 70.000,258.043 70.000 C 257.799 70.000,257.600 69.856,257.600 69.680 C 257.600 69.503,255.845 68.214,253.700 66.813 C 251.555 65.413,249.051 63.757,248.135 63.134 C 247.219 62.510,246.274 62.000,246.035 62.000 C 245.796 62.000,245.600 61.832,245.600 61.627 C 245.600 61.422,245.195 61.128,244.700 60.974 C 244.205 60.821,243.350 60.381,242.800 59.996 C 240.520 58.402,227.253 52.000,226.231 52.000 C 225.884 52.000,225.600 51.853,225.600 51.673 C 225.600 51.493,224.571 51.022,223.313 50.625 C 222.055 50.229,220.660 49.680,220.213 49.406 C 219.766 49.132,218.500 48.676,217.400 48.392 C 216.300 48.108,215.220 47.743,215.000 47.581 C 214.780 47.419,213.430 46.977,212.000 46.599 C 210.570 46.221,208.860 45.684,208.200 45.404 C 207.540 45.125,205.740 44.671,204.200 44.395 C 202.660 44.120,201.215 43.750,200.989 43.573 C 200.764 43.395,198.874 42.959,196.789 42.603 C 194.705 42.246,192.730 41.907,192.400 41.849 C 192.070 41.791,191.518 41.614,191.173 41.457 C 190.828 41.299,189.208 41.132,187.573 41.085 C 185.938 41.038,184.510 40.899,184.400 40.775 C 183.909 40.223,176.101 39.637,174.634 40.042 C 173.804 40.271,173.022 40.355,172.896 40.229 C 172.770 40.103,172.977 40.000,173.357 40.000 C 173.737 40.000,173.936 39.820,173.800 39.600 C 173.646 39.351,169.937 39.200,164.000 39.200 C 158.063 39.200,154.354 39.351,154.200 39.600 M351.507 125.890 C 352.226 125.979,353.306 125.977,353.907 125.886 C 354.508 125.795,353.920 125.722,352.600 125.724 C 351.280 125.726,350.788 125.801,351.507 125.890 M119.863 135.419 C 118.358 135.718,116.918 136.125,116.663 136.324 C 116.408 136.522,115.655 136.867,114.989 137.090 C 102.771 141.189,95.501 158.845,100.664 171.878 C 110.339 196.298,145.810 194.466,152.674 169.191 C 154.485 162.520,153.026 152.476,149.510 147.417 C 148.666 146.202,145.211 142.112,144.557 141.553 C 142.800 140.051,139.479 137.946,137.899 137.333 C 136.964 136.970,135.996 136.517,135.747 136.326 C 133.989 134.982,124.726 134.453,119.863 135.419 M201.262 135.249 C 186.359 137.726,176.005 155.083,180.609 169.868 C 188.678 195.785,224.384 196.121,233.028 170.362 C 237.224 157.858,230.183 141.906,218.400 137.222 C 217.630 136.916,216.820 136.532,216.600 136.369 C 214.929 135.127,205.941 134.471,201.262 135.249 M199.239 219.676 C 196.012 221.437,194.905 225.537,196.853 228.516 C 198.518 231.065,201.050 231.683,212.800 232.411 C 219.815 232.845,220.837 232.942,231.600 234.196 C 239.260 235.089,239.416 235.415,233.200 237.536 C 228.767 239.049,220.567 242.036,219.400 242.563 C 218.740 242.862,217.508 243.326,216.661 243.597 C 215.815 243.867,214.645 244.337,214.061 244.641 C 213.478 244.946,212.866 245.196,212.702 245.198 C 210.786 245.213,202.572 250.162,200.848 252.340 C 195.923 258.558,201.026 264.790,212.522 266.600 C 214.765 266.953,216.960 267.335,217.400 267.448 C 218.105 267.630,231.387 269.315,236.500 269.871 C 238.199 270.055,239.409 271.200,237.906 271.200 C 237.634 271.200,236.509 271.640,235.406 272.177 C 232.865 273.415,228.107 275.421,226.800 275.804 C 226.250 275.966,225.620 276.232,225.400 276.397 C 225.180 276.561,224.280 276.920,223.400 277.195 C 222.520 277.470,221.260 277.936,220.600 278.231 C 218.921 278.981,214.184 280.720,211.800 281.460 C 210.700 281.802,209.620 282.225,209.400 282.400 C 209.180 282.575,208.100 282.986,207.000 283.314 C 198.227 285.925,195.606 290.807,200.474 295.471 C 202.038 296.969,206.343 297.101,209.200 295.737 C 210.190 295.265,211.810 294.663,212.800 294.400 C 213.790 294.137,214.780 293.783,215.000 293.614 C 215.220 293.444,216.390 292.996,217.600 292.618 C 218.810 292.239,220.340 291.697,221.000 291.412 C 221.660 291.127,222.920 290.670,223.800 290.395 C 224.680 290.120,225.580 289.763,225.800 289.601 C 226.020 289.439,227.190 288.984,228.400 288.592 C 229.610 288.199,230.960 287.655,231.400 287.383 C 231.840 287.111,232.920 286.666,233.800 286.392 C 234.680 286.119,235.596 285.742,235.835 285.553 C 236.074 285.365,237.064 284.931,238.035 284.589 C 240.658 283.665,247.880 280.022,250.444 278.329 C 261.728 270.882,259.807 261.566,246.464 259.036 C 244.630 258.688,243.004 258.326,242.850 258.231 C 242.697 258.137,239.878 257.767,236.586 257.411 C 233.294 257.055,229.790 256.600,228.800 256.400 C 227.810 256.200,225.866 255.920,224.481 255.777 C 222.042 255.525,221.231 254.788,223.033 254.461 C 223.455 254.384,224.340 254.075,225.000 253.775 C 226.529 253.079,236.765 249.341,239.400 248.517 C 240.500 248.173,241.755 247.646,242.189 247.346 C 242.623 247.046,243.203 246.800,243.477 246.800 C 244.063 246.800,247.403 245.339,251.547 243.271 C 261.489 238.308,260.790 228.309,250.294 225.366 C 249.142 225.043,247.887 224.603,247.504 224.389 C 247.122 224.174,244.554 223.632,241.797 223.184 C 239.041 222.736,236.564 222.287,236.293 222.185 C 236.022 222.084,232.020 221.640,227.400 221.198 C 222.780 220.756,217.380 220.225,215.400 220.017 C 208.347 219.279,200.278 219.108,199.239 219.676 " stroke="none" fill="#390404" fill-rule="evenodd"></path><path id="path2" d="M152.400 57.461 C 107.995 60.735,64.986 87.328,41.879 125.798 C 41.616 126.237,41.086 127.073,40.703 127.656 C 37.494 132.532,31.094 146.724,28.551 154.600 C 26.176 161.955,25.686 163.673,25.032 166.936 C 24.686 168.661,24.306 170.229,24.187 170.420 C 23.829 171.001,21.964 183.910,21.590 188.400 C 20.521 201.245,21.856 219.999,24.638 231.200 C 26.451 238.501,28.022 244.137,28.373 244.600 C 28.539 244.820,28.911 245.900,29.199 247.000 C 29.486 248.100,29.948 249.450,30.225 250.000 C 30.502 250.550,30.952 251.630,31.224 252.400 C 33.254 258.135,39.221 269.793,43.763 276.901 C 45.533 279.670,46.049 280.411,48.300 283.416 C 49.015 284.371,49.600 285.277,49.600 285.430 C 49.600 285.583,50.005 286.118,50.500 286.619 C 50.995 287.120,51.760 288.019,52.200 288.617 C 56.193 294.041,68.274 306.201,74.636 311.200 C 79.565 315.073,86.263 319.669,92.000 323.116 C 95.558 325.254,109.660 332.020,112.200 332.808 C 113.080 333.081,113.980 333.443,114.200 333.613 C 114.420 333.783,115.410 334.136,116.400 334.397 C 117.390 334.658,118.740 335.117,119.400 335.416 C 124.230 337.608,140.288 340.902,151.800 342.063 C 156.839 342.572,178.357 342.261,180.800 341.644 C 181.790 341.394,184.940 340.844,187.800 340.421 C 193.453 339.584,200.016 338.224,201.112 337.663 C 201.490 337.469,203.150 336.990,204.800 336.600 C 206.450 336.210,207.980 335.752,208.200 335.583 C 208.420 335.414,209.680 334.967,211.000 334.590 C 212.320 334.212,213.580 333.769,213.800 333.604 C 214.020 333.439,214.920 333.081,215.800 332.808 C 217.556 332.263,218.497 331.851,225.000 328.777 C 227.420 327.633,229.940 326.444,230.600 326.135 C 231.260 325.826,232.610 325.103,233.600 324.529 C 234.590 323.955,235.940 323.190,236.600 322.828 C 238.944 321.543,247.573 315.692,250.960 313.091 C 258.206 307.528,268.150 297.970,273.735 291.200 C 275.459 289.110,277.169 287.040,277.535 286.600 C 277.901 286.160,278.380 285.501,278.600 285.136 C 278.959 284.539,282.707 279.211,283.486 278.188 C 283.659 277.961,284.146 277.151,284.570 276.388 C 284.993 275.625,285.456 274.910,285.599 274.800 C 285.741 274.690,286.642 273.160,287.600 271.400 C 288.558 269.640,289.445 268.110,289.571 268.000 C 290.133 267.509,296.400 254.253,296.400 253.557 C 296.400 253.373,296.829 252.273,297.353 251.112 C 299.321 246.752,298.991 246.486,294.000 248.400 C 293.010 248.779,291.210 249.308,290.000 249.574 C 288.790 249.840,287.440 250.218,287.000 250.414 C 286.184 250.778,282.393 251.758,275.600 253.360 C 273.510 253.853,271.530 254.371,271.200 254.512 C 270.870 254.653,268.800 255.124,266.600 255.559 C 264.400 255.993,261.430 256.618,260.000 256.948 C 256.932 257.657,256.399 257.354,257.504 255.529 C 257.946 254.798,258.439 253.750,258.599 253.200 C 258.758 252.650,259.126 251.660,259.417 251.000 C 260.436 248.682,262.356 241.769,262.806 238.800 C 263.057 237.150,263.427 235.045,263.631 234.123 C 264.109 231.953,264.106 225.631,263.626 223.477 C 263.421 222.555,263.032 220.360,262.762 218.600 C 261.952 213.311,257.499 201.499,255.600 199.600 C 255.490 199.490,255.041 198.680,254.603 197.800 C 254.164 196.920,253.155 195.030,252.360 193.600 C 251.564 192.170,249.917 189.110,248.700 186.800 C 247.483 184.490,245.858 181.430,245.091 180.000 C 242.231 174.672,241.542 173.121,240.151 168.877 C 234.994 153.141,237.466 136.077,246.652 124.008 C 250.426 119.050,257.047 113.907,261.713 112.308 C 262.421 112.066,263.360 111.647,263.800 111.378 C 264.240 111.108,266.690 110.380,269.245 109.760 L 273.889 108.632 271.880 106.216 C 267.651 101.129,258.710 92.678,251.200 86.670 C 250.093 85.784,243.818 81.381,242.100 80.285 C 241.165 79.688,239.725 78.766,238.900 78.236 C 237.336 77.232,228.006 72.000,227.778 72.000 C 227.706 72.000,226.062 71.266,224.124 70.370 C 219.345 68.159,218.603 67.838,215.600 66.679 C 196.725 59.396,173.027 55.940,152.400 57.461 M129.701 134.408 C 157.910 137.640,163.128 176.439,136.882 187.812 C 125.161 192.892,107.555 187.385,102.681 177.115 C 102.295 176.300,101.817 175.534,101.620 175.412 C 101.423 175.290,100.954 174.248,100.578 173.095 C 100.202 171.943,99.755 170.820,99.584 170.600 C 98.081 168.661,98.061 156.730,99.556 153.400 C 102.855 146.051,108.878 138.400,111.366 138.400 C 111.570 138.400,112.021 138.150,112.369 137.844 C 113.655 136.710,119.434 134.741,122.399 134.425 C 124.050 134.250,125.580 134.084,125.800 134.056 C 126.020 134.029,127.775 134.187,129.701 134.408 M213.200 134.869 C 214.410 135.099,215.580 135.416,215.800 135.574 C 216.020 135.733,217.100 136.194,218.200 136.598 C 222.140 138.049,226.875 141.970,229.909 146.297 C 233.953 152.061,235.922 161.382,234.368 167.400 C 234.140 168.280,233.781 169.687,233.569 170.528 C 232.688 174.021,229.301 179.466,226.143 182.467 C 224.496 184.032,219.340 187.600,218.725 187.600 C 218.522 187.600,217.588 187.950,216.650 188.377 C 209.852 191.474,198.825 190.167,191.338 185.378 C 189.190 184.004,184.400 179.431,184.400 178.755 C 184.400 178.591,184.165 178.219,183.878 177.929 C 175.958 169.911,177.862 151.196,187.528 142.057 C 190.746 139.015,190.725 139.031,193.609 137.544 C 200.207 134.144,205.547 133.415,213.200 134.869 M211.800 219.208 C 213.780 219.388,218.640 219.822,222.600 220.173 C 226.560 220.524,231.060 220.985,232.600 221.198 C 238.907 222.068,245.642 223.178,246.014 223.409 C 246.232 223.544,247.626 223.991,249.111 224.402 C 255.464 226.163,259.200 229.914,259.200 234.534 C 259.200 239.655,254.914 243.096,242.703 247.778 C 241.219 248.347,238.879 249.254,237.502 249.794 C 234.988 250.780,232.089 251.817,228.000 253.194 C 226.790 253.601,225.185 254.197,224.434 254.519 L 223.068 255.103 224.634 255.320 C 225.495 255.440,229.440 255.904,233.400 256.352 C 237.360 256.800,241.230 257.343,242.000 257.559 C 242.770 257.774,244.840 258.219,246.600 258.546 C 260.157 261.069,262.374 271.127,251.020 278.596 C 248.422 280.305,238.899 285.200,238.172 285.200 C 238.073 285.200,237.228 285.551,236.296 285.980 C 234.458 286.825,231.367 288.061,228.200 289.218 C 227.100 289.620,224.760 290.516,223.000 291.210 C 221.240 291.904,218.810 292.808,217.600 293.220 C 216.390 293.632,213.690 294.617,211.600 295.409 C 206.174 297.466,205.223 297.708,203.493 297.476 C 196.680 296.563,195.863 286.807,202.400 284.418 C 203.170 284.136,204.340 283.674,205.000 283.391 C 205.660 283.108,207.010 282.647,208.000 282.368 C 208.990 282.088,209.980 281.735,210.200 281.583 C 210.420 281.431,211.590 280.988,212.800 280.600 C 214.010 280.212,215.180 279.763,215.400 279.603 C 215.620 279.443,216.970 278.902,218.400 278.401 C 223.640 276.564,225.818 275.749,226.600 275.332 C 227.040 275.097,228.120 274.678,229.000 274.401 C 229.880 274.123,230.782 273.753,231.005 273.578 C 231.228 273.403,232.426 272.880,233.668 272.415 C 238.313 270.677,237.394 270.268,226.400 269.184 C 205.958 267.167,198.800 264.007,198.800 257.000 C 198.800 252.888,200.924 250.397,207.270 247.065 C 210.445 245.398,212.405 244.574,217.800 242.637 C 219.120 242.163,220.380 241.670,220.600 241.541 C 220.820 241.412,221.990 240.989,223.200 240.600 C 224.410 240.212,225.580 239.755,225.800 239.585 C 226.020 239.415,227.280 238.967,228.600 238.590 C 229.920 238.212,231.180 237.764,231.400 237.593 C 231.620 237.422,232.970 236.920,234.400 236.477 C 235.830 236.035,236.730 235.583,236.400 235.471 C 235.271 235.092,225.406 233.982,218.000 233.402 C 200.504 232.031,199.119 231.808,197.527 230.106 C 194.437 226.804,194.552 222.874,197.823 220.049 C 199.785 218.353,201.353 218.259,211.800 219.208 " stroke="none" fill="#fcd3cb" fill-rule="evenodd"></path><path id="path3" d="M163.100 56.682 C 163.595 56.778,164.405 56.778,164.900 56.682 C 165.395 56.587,164.990 56.509,164.000 56.509 C 163.010 56.509,162.605 56.587,163.100 56.682 M149.600 57.200 C 147.411 57.468,147.409 57.470,149.200 57.500 C 150.190 57.516,151.900 57.390,153.000 57.218 C 155.672 56.802,152.965 56.788,149.600 57.200 M175.200 57.202 C 177.032 57.547,180.670 57.722,180.367 57.451 C 180.275 57.370,178.670 57.204,176.800 57.083 C 174.330 56.924,173.892 56.957,175.200 57.202 M135.896 59.184 C 135.068 59.344,134.281 59.586,134.146 59.721 C 133.839 60.028,136.722 59.590,137.800 59.166 C 138.779 58.780,137.935 58.788,135.896 59.184 M190.200 59.190 C 190.964 59.528,193.514 59.757,193.167 59.456 C 193.075 59.376,192.190 59.204,191.200 59.073 C 189.998 58.914,189.666 58.953,190.200 59.190 M127.400 61.200 C 126.896 61.417,126.822 61.544,127.200 61.544 C 127.530 61.544,128.160 61.389,128.600 61.200 C 129.104 60.983,129.178 60.856,128.800 60.856 C 128.470 60.856,127.840 61.011,127.400 61.200 M198.800 60.911 C 198.910 61.024,199.705 61.309,200.566 61.544 C 201.427 61.779,201.967 61.817,201.766 61.628 C 201.380 61.266,198.456 60.559,198.800 60.911 M206.000 62.884 C 206.110 62.993,206.826 63.293,207.591 63.551 C 208.356 63.810,208.806 63.850,208.591 63.639 C 208.376 63.429,207.660 63.129,207.000 62.972 C 206.340 62.816,205.890 62.776,206.000 62.884 M114.500 65.212 C 113.161 65.751,113.411 66.024,114.800 65.540 C 115.460 65.310,116.000 65.049,116.000 64.961 C 116.000 64.724,115.513 64.805,114.500 65.212 M212.000 64.934 C 212.000 65.037,212.581 65.324,213.291 65.572 C 214.001 65.819,214.406 65.857,214.191 65.656 C 213.735 65.229,212.000 64.658,212.000 64.934 M217.200 66.934 C 217.200 67.037,217.781 67.324,218.491 67.572 C 219.201 67.819,219.606 67.857,219.391 67.656 C 218.935 67.229,217.200 66.658,217.200 66.934 M256.689 90.830 C 257.178 91.339,257.678 91.655,257.801 91.532 C 257.924 91.409,257.524 90.992,256.912 90.606 L 255.800 89.904 256.689 90.830 M68.175 93.300 L 67.000 94.600 68.300 93.425 C 69.512 92.330,69.784 92.000,69.475 92.000 C 69.406 92.000,68.821 92.585,68.175 93.300 M258.400 92.125 C 258.400 92.194,258.985 92.779,259.700 93.425 L 261.000 94.600 259.825 93.300 C 258.730 92.088,258.400 91.816,258.400 92.125 M265.200 98.600 C 267.281 100.690,269.074 102.400,269.184 102.400 C 269.294 102.400,267.681 100.690,265.600 98.600 C 263.519 96.510,261.726 94.800,261.616 94.800 C 261.506 94.800,263.119 96.510,265.200 98.600 M62.388 98.700 L 59.800 101.400 62.500 98.812 C 63.985 97.388,65.200 96.173,65.200 96.112 C 65.200 95.817,64.793 96.192,62.388 98.700 M56.975 104.500 L 55.800 105.800 57.100 104.625 C 57.815 103.979,58.400 103.394,58.400 103.325 C 58.400 103.016,58.070 103.288,56.975 104.500 M269.600 103.325 C 269.600 103.394,270.185 103.979,270.900 104.625 L 272.200 105.800 271.025 104.500 C 269.930 103.288,269.600 103.016,269.600 103.325 M274.400 108.900 C 274.400 109.065,276.065 109.202,278.100 109.203 C 280.135 109.205,282.790 109.321,284.000 109.460 C 285.210 109.598,286.071 109.573,285.913 109.402 C 285.536 108.996,274.399 108.510,274.400 108.900 M290.600 110.741 C 291.828 111.286,294.324 111.713,293.600 111.254 C 293.270 111.044,292.280 110.763,291.400 110.629 C 290.308 110.463,290.054 110.498,290.600 110.741 M121.676 134.740 C 121.168 134.883,123.204 135.000,126.200 135.000 C 129.196 135.000,131.232 134.883,130.724 134.740 C 130.216 134.597,128.180 134.480,126.200 134.480 C 124.220 134.480,122.184 134.597,121.676 134.740 M202.400 134.771 C 201.850 134.932,203.290 134.990,205.600 134.901 C 207.910 134.812,209.980 134.677,210.200 134.601 C 211.008 134.323,203.367 134.489,202.400 134.771 M195.200 137.000 C 194.650 137.314,194.380 137.572,194.600 137.572 C 194.820 137.572,195.450 137.314,196.000 137.000 C 196.550 136.686,196.820 136.428,196.600 136.428 C 196.380 136.428,195.750 136.686,195.200 137.000 M322.368 139.889 C 321.836 140.487,321.687 140.758,322.037 140.491 C 322.387 140.225,322.821 140.140,323.001 140.303 C 323.181 140.467,323.208 140.390,323.062 140.134 C 322.915 139.878,323.021 139.588,323.298 139.489 C 323.574 139.390,323.696 139.196,323.568 139.056 C 323.441 138.917,322.901 139.292,322.368 139.889 M188.115 141.900 C 186.137 143.801,186.075 143.894,187.761 142.437 C 190.624 139.960,191.003 139.600,190.740 139.600 C 190.613 139.600,189.432 140.635,188.115 141.900 M227.797 144.500 C 228.872 145.765,229.823 146.800,229.910 146.800 C 230.183 146.800,227.729 143.836,226.764 143.000 C 226.256 142.560,226.721 143.235,227.797 144.500 M184.723 145.500 C 184.018 146.321,183.490 147.200,183.701 147.200 C 183.783 147.200,184.249 146.660,184.737 146.000 C 185.701 144.696,185.692 144.372,184.723 145.500 M29.179 150.655 C 28.958 151.236,28.852 151.785,28.943 151.876 C 29.033 151.967,29.299 151.492,29.533 150.820 C 30.053 149.328,29.739 149.182,29.179 150.655 M233.048 154.200 C 233.191 154.860,233.466 155.670,233.659 156.000 C 233.884 156.384,233.918 156.168,233.752 155.400 C 233.609 154.740,233.334 153.930,233.141 153.600 C 232.916 153.216,232.882 153.432,233.048 154.200 M153.068 157.000 C 153.371 158.977,153.602 159.314,153.594 157.767 C 153.591 157.125,153.416 156.330,153.205 156.000 C 152.945 155.591,152.901 155.910,153.068 157.000 M98.562 160.154 C 98.445 160.459,98.410 161.494,98.483 162.454 C 98.613 164.144,98.623 164.126,98.809 161.899 C 99.003 159.565,98.945 159.156,98.562 160.154 M153.720 162.000 C 153.720 163.210,153.795 163.705,153.887 163.100 C 153.978 162.495,153.978 161.505,153.887 160.900 C 153.795 160.295,153.720 160.790,153.720 162.000 M179.324 162.200 C 179.326 163.520,179.401 164.012,179.490 163.293 C 179.579 162.574,179.577 161.494,179.486 160.893 C 179.395 160.292,179.322 160.880,179.324 162.200 M25.029 163.829 C 24.881 164.415,24.838 164.972,24.932 165.066 C 25.027 165.160,25.224 164.758,25.371 164.171 C 25.519 163.585,25.562 163.028,25.468 162.934 C 25.373 162.840,25.176 163.242,25.029 163.829 M153.254 166.000 C 153.219 166.550,153.096 167.450,152.983 168.000 L 152.777 169.000 153.207 168.015 C 153.443 167.474,153.565 166.574,153.478 166.015 L 153.320 165.000 153.254 166.000 M233.246 169.267 C 233.221 169.634,233.096 170.264,232.970 170.667 C 232.752 171.362,232.763 171.363,233.197 170.687 C 233.448 170.296,233.573 169.666,233.473 169.287 C 233.311 168.668,233.288 168.666,233.246 169.267 M23.419 170.900 C 23.085 171.969,22.741 174.588,22.964 174.367 C 23.247 174.086,23.965 170.400,23.736 170.400 C 23.647 170.400,23.505 170.625,23.419 170.900 M100.218 171.700 C 100.368 172.195,100.655 172.776,100.856 172.991 C 101.057 173.206,101.019 172.801,100.772 172.091 C 100.265 170.638,99.797 170.308,100.218 171.700 M151.000 173.600 C 150.659 174.260,150.469 174.800,150.579 174.800 C 150.689 174.800,151.059 174.260,151.400 173.600 C 151.741 172.940,151.931 172.400,151.821 172.400 C 151.711 172.400,151.341 172.940,151.000 173.600 M102.015 175.400 C 102.017 175.620,102.386 176.250,102.836 176.800 C 103.379 177.464,103.515 177.531,103.240 177.000 C 102.566 175.695,102.012 174.972,102.015 175.400 M184.399 178.300 C 184.922 179.015,185.413 179.600,185.489 179.600 C 185.793 179.600,184.801 178.100,184.145 177.567 C 183.713 177.216,183.810 177.496,184.399 178.300 M145.000 181.894 C 143.460 183.357,142.740 184.174,143.400 183.710 C 144.570 182.886,148.348 179.183,147.983 179.217 C 147.882 179.227,146.540 180.431,145.000 181.894 M226.100 181.634 C 224.571 183.096,224.166 183.600,224.517 183.600 C 224.581 183.600,225.428 182.790,226.400 181.800 C 228.601 179.558,228.392 179.443,226.100 181.634 M21.442 183.653 C 21.168 184.966,20.783 191.492,21.008 191.000 C 21.237 190.501,21.922 183.054,21.759 182.853 C 21.693 182.772,21.550 183.132,21.442 183.653 M115.200 187.400 C 115.750 187.714,116.380 187.972,116.600 187.972 C 116.820 187.972,116.550 187.714,116.000 187.400 C 115.450 187.086,114.820 186.828,114.600 186.828 C 114.380 186.828,114.650 187.086,115.200 187.400 M121.276 189.260 C 121.784 189.403,124.000 189.520,126.200 189.520 C 128.400 189.520,130.616 189.403,131.124 189.260 C 131.632 189.117,129.416 189.000,126.200 189.000 C 122.984 189.000,120.768 189.117,121.276 189.260 M201.000 189.197 C 201.764 189.528,204.714 189.755,204.367 189.456 C 204.275 189.377,203.300 189.209,202.200 189.082 C 200.913 188.933,200.485 188.974,201.000 189.197 M211.000 189.200 L 209.400 189.486 210.800 189.537 C 211.570 189.565,212.470 189.413,212.800 189.200 C 213.455 188.777,213.362 188.777,211.000 189.200 M20.524 199.800 C 20.526 201.120,20.601 201.612,20.690 200.893 C 20.779 200.174,20.777 199.094,20.686 198.493 C 20.595 197.892,20.522 198.480,20.524 199.800 M21.089 211.800 C 21.208 213.780,21.372 215.475,21.453 215.567 C 21.724 215.874,21.544 211.819,21.206 210.000 C 20.970 208.731,20.936 209.263,21.089 211.800 M201.505 219.083 C 202.002 219.179,202.722 219.175,203.105 219.075 C 203.487 218.975,203.080 218.896,202.200 218.901 C 201.320 218.905,201.007 218.987,201.505 219.083 M197.241 221.014 C 196.559 221.792,196.000 222.548,196.000 222.694 C 196.000 222.840,196.136 222.789,196.303 222.580 C 196.470 222.371,197.133 221.615,197.778 220.900 C 198.422 220.185,198.845 219.600,198.716 219.600 C 198.588 219.600,197.924 220.236,197.241 221.014 M219.200 220.392 C 219.970 220.565,222.130 220.802,224.000 220.918 C 226.150 221.052,226.812 221.015,225.800 220.818 C 223.595 220.387,217.402 219.988,219.200 220.392 M238.500 222.676 C 238.885 222.776,239.515 222.776,239.900 222.676 C 240.285 222.575,239.970 222.493,239.200 222.493 C 238.430 222.493,238.115 222.575,238.500 222.676 M247.427 224.355 C 247.852 224.744,250.329 225.396,249.954 225.020 C 249.819 224.886,249.111 224.604,248.381 224.395 C 247.651 224.185,247.222 224.168,247.427 224.355 M23.062 226.600 C 23.196 227.480,23.372 228.275,23.453 228.367 C 23.756 228.710,23.529 226.568,23.181 225.800 C 22.929 225.242,22.893 225.485,23.062 226.600 M256.197 228.801 C 258.093 231.018,258.120 231.042,257.686 230.200 C 257.459 229.760,256.762 228.951,256.137 228.401 L 255.000 227.403 256.197 228.801 M198.000 230.176 C 198.000 230.590,200.391 231.599,201.280 231.559 C 202.032 231.526,201.981 231.465,201.000 231.229 C 200.340 231.069,199.395 230.721,198.900 230.455 C 198.405 230.189,198.000 230.064,198.000 230.176 M220.200 233.214 C 221.784 233.550,225.888 233.735,225.567 233.455 C 225.475 233.375,223.870 233.212,222.000 233.092 C 219.627 232.940,219.083 232.977,220.200 233.214 M24.856 234.800 C 24.856 235.130,25.011 235.760,25.200 236.200 C 25.417 236.704,25.544 236.778,25.544 236.400 C 25.544 236.070,25.389 235.440,25.200 235.000 C 24.983 234.496,24.856 234.422,24.856 234.800 M235.000 236.614 C 233.995 237.098,233.963 237.153,234.800 236.951 C 235.350 236.819,235.971 236.550,236.180 236.355 C 236.698 235.871,236.414 235.933,235.000 236.614 M229.400 238.614 C 228.400 239.096,228.366 239.151,229.200 238.948 C 230.333 238.671,231.607 238.021,231.000 238.030 C 230.780 238.033,230.060 238.296,229.400 238.614 M315.000 241.014 C 314.000 241.496,313.966 241.551,314.800 241.348 C 315.933 241.071,317.207 240.421,316.600 240.430 C 316.380 240.433,315.660 240.696,315.000 241.014 M218.600 242.614 C 217.595 243.098,217.563 243.153,218.400 242.951 C 218.950 242.819,219.571 242.550,219.780 242.355 C 220.298 241.871,220.014 241.933,218.600 242.614 M310.230 242.631 C 309.367 242.948,308.557 243.310,308.431 243.436 C 308.054 243.812,310.521 243.131,311.600 242.561 C 312.907 241.870,312.211 241.906,310.230 242.631 M213.400 244.614 C 212.395 245.098,212.363 245.153,213.200 244.951 C 213.750 244.819,214.371 244.550,214.580 244.355 C 215.098 243.871,214.814 243.933,213.400 244.614 M304.258 244.652 C 303.190 244.980,302.413 245.346,302.532 245.465 C 302.757 245.691,306.800 244.462,306.800 244.168 C 306.800 243.918,306.397 243.995,304.258 244.652 M29.018 248.500 C 29.168 248.995,29.455 249.576,29.656 249.791 C 29.857 250.006,29.819 249.601,29.572 248.891 C 29.065 247.438,28.597 247.108,29.018 248.500 M298.379 249.055 C 298.158 249.636,298.052 250.185,298.143 250.276 C 298.233 250.367,298.499 249.892,298.733 249.220 C 299.253 247.728,298.939 247.582,298.379 249.055 M231.400 251.414 C 230.400 251.896,230.366 251.951,231.200 251.748 C 232.333 251.471,233.607 250.821,233.000 250.830 C 232.780 250.833,232.060 251.096,231.400 251.414 M226.100 253.212 C 224.761 253.751,225.011 254.024,226.400 253.540 C 227.060 253.310,227.600 253.049,227.600 252.961 C 227.600 252.724,227.113 252.805,226.100 253.212 M230.300 256.682 C 230.795 256.778,231.605 256.778,232.100 256.682 C 232.595 256.587,232.190 256.509,231.200 256.509 C 230.210 256.509,229.805 256.587,230.300 256.682 M243.400 258.381 C 244.168 258.729,246.310 258.956,245.967 258.653 C 245.875 258.572,245.080 258.396,244.200 258.262 C 243.085 258.093,242.842 258.129,243.400 258.381 M256.724 264.600 C 256.926 265.040,257.192 265.670,257.314 266.000 C 257.507 266.518,257.541 266.515,257.568 265.976 C 257.586 265.634,257.320 265.004,256.978 264.576 C 256.366 263.812,256.362 263.813,256.724 264.600 M214.200 267.197 C 214.964 267.528,217.914 267.755,217.567 267.456 C 217.475 267.377,216.500 267.209,215.400 267.082 C 214.113 266.933,213.685 266.974,214.200 267.197 M229.200 269.198 C 230.188 269.516,233.889 269.735,233.567 269.456 C 233.475 269.377,232.230 269.214,230.800 269.094 C 229.240 268.963,228.600 269.005,229.200 269.198 M256.900 271.700 C 256.470 272.875,256.480 272.926,257.012 272.224 C 257.521 271.552,257.821 270.400,257.488 270.400 C 257.426 270.400,257.161 270.985,256.900 271.700 M229.200 274.600 C 228.650 274.914,228.380 275.172,228.600 275.172 C 228.820 275.172,229.450 274.914,230.000 274.600 C 230.550 274.286,230.820 274.028,230.600 274.028 C 230.380 274.028,229.750 274.286,229.200 274.600 M224.200 276.614 C 223.195 277.098,223.163 277.153,224.000 276.951 C 224.550 276.819,225.171 276.550,225.380 276.355 C 225.898 275.871,225.614 275.933,224.200 276.614 M219.000 278.614 C 217.995 279.098,217.963 279.153,218.800 278.951 C 219.350 278.819,219.971 278.550,220.180 278.355 C 220.698 277.871,220.414 277.933,219.000 278.614 M245.500 281.029 C 243.949 281.870,244.125 282.161,245.700 281.359 C 247.208 280.593,247.475 280.394,246.967 280.416 C 246.765 280.425,246.105 280.701,245.500 281.029 M208.200 282.614 C 207.195 283.098,207.163 283.153,208.000 282.951 C 208.550 282.819,209.171 282.550,209.380 282.355 C 209.898 281.871,209.614 281.933,208.200 282.614 M202.900 284.412 C 201.561 284.951,201.811 285.224,203.200 284.740 C 203.860 284.510,204.400 284.249,204.400 284.161 C 204.400 283.924,203.913 284.005,202.900 284.412 M199.436 286.831 C 198.866 287.508,198.405 288.273,198.412 288.531 C 198.419 288.789,198.623 288.640,198.867 288.200 C 199.110 287.760,199.676 286.995,200.124 286.500 C 200.573 286.005,200.834 285.600,200.705 285.600 C 200.576 285.600,200.005 286.154,199.436 286.831 M198.412 293.106 C 198.405 293.384,198.985 294.202,199.700 294.924 C 200.415 295.646,200.619 295.779,200.154 295.219 C 199.688 294.658,199.108 293.840,198.866 293.400 C 198.623 292.960,198.419 292.828,198.412 293.106 M215.700 293.212 C 214.361 293.751,214.611 294.024,216.000 293.540 C 216.660 293.310,217.200 293.049,217.200 292.961 C 217.200 292.724,216.713 292.805,215.700 293.212 M210.100 295.212 C 208.761 295.751,209.011 296.024,210.400 295.540 C 211.060 295.310,211.600 295.049,211.600 294.961 C 211.600 294.724,211.113 294.805,210.100 295.212 M265.000 301.200 C 262.367 303.840,260.303 306.000,260.413 306.000 C 260.523 306.000,262.767 303.840,265.400 301.200 C 268.033 298.560,270.097 296.400,269.987 296.400 C 269.877 296.400,267.633 298.560,265.000 301.200 M203.500 297.082 C 203.995 297.178,204.805 297.178,205.300 297.082 C 205.795 296.987,205.390 296.909,204.400 296.909 C 203.410 296.909,203.005 296.987,203.500 297.082 M77.200 313.746 C 77.200 313.856,77.740 314.330,78.400 314.800 C 79.060 315.270,79.600 315.564,79.600 315.454 C 79.600 315.344,79.060 314.870,78.400 314.400 C 77.740 313.930,77.200 313.636,77.200 313.746 M249.400 314.650 C 248.681 315.262,248.534 315.505,249.033 315.257 C 249.766 314.893,251.141 313.576,250.749 313.614 C 250.667 313.622,250.060 314.088,249.400 314.650 M82.800 317.746 C 82.800 317.856,83.340 318.330,84.000 318.800 C 84.660 319.270,85.200 319.564,85.200 319.454 C 85.200 319.344,84.660 318.870,84.000 318.400 C 83.340 317.930,82.800 317.636,82.800 317.746 M243.800 318.635 L 242.600 319.666 243.900 318.806 C 244.615 318.333,245.200 317.868,245.200 317.773 C 245.200 317.473,245.031 317.578,243.800 318.635 M237.700 322.446 C 236.337 323.319,235.895 323.906,237.100 323.243 C 238.018 322.739,239.456 321.627,239.200 321.619 C 239.090 321.616,238.415 321.988,237.700 322.446 M233.900 324.629 C 232.405 325.440,232.496 325.778,234.000 325.000 C 234.660 324.659,235.200 324.294,235.200 324.190 C 235.200 323.932,235.157 323.947,233.900 324.629 M110.000 332.600 C 110.550 332.914,111.180 333.172,111.400 333.172 C 111.620 333.172,111.350 332.914,110.800 332.600 C 110.250 332.286,109.620 332.028,109.400 332.028 C 109.180 332.028,109.450 332.286,110.000 332.600 M120.627 336.355 C 121.052 336.744,123.529 337.396,123.154 337.020 C 123.019 336.886,122.311 336.604,121.581 336.395 C 120.851 336.185,120.422 336.168,120.627 336.355 M206.100 336.448 C 205.385 336.654,204.800 336.911,204.800 337.019 C 204.800 337.309,206.938 336.753,207.380 336.348 C 207.816 335.949,207.830 335.948,206.100 336.448 M127.600 338.349 C 127.930 338.546,128.830 338.820,129.600 338.956 C 130.544 339.123,130.740 339.092,130.200 338.861 C 128.963 338.332,126.890 337.923,127.600 338.349 M197.800 338.800 C 196.781 339.238,197.832 339.238,199.200 338.800 C 200.004 338.543,200.043 338.477,199.400 338.468 C 198.960 338.462,198.240 338.611,197.800 338.800 M136.200 340.356 C 136.640 340.535,137.810 340.792,138.800 340.926 C 139.875 341.072,140.278 341.039,139.800 340.844 C 139.360 340.665,138.190 340.408,137.200 340.274 C 136.125 340.128,135.722 340.161,136.200 340.356 M189.645 340.432 C 188.679 340.622,187.786 340.881,187.660 341.007 C 187.363 341.304,190.753 340.779,191.800 340.366 C 192.828 339.961,191.902 339.989,189.645 340.432 M157.694 342.943 C 161.407 343.133,167.195 343.133,170.694 342.943 C 176.445 342.630,175.855 342.600,164.000 342.600 C 151.843 342.600,151.434 342.622,157.694 342.943 " stroke="none" fill="#841c1e" fill-rule="evenodd"></path><path id="path4" d="" stroke="none" fill="#e06c5c" fill-rule="evenodd"></path><path id="path5" d="M249.578 120.700 L 248.200 122.200 249.700 120.822 C 251.096 119.538,251.384 119.200,251.078 119.200 C 251.012 119.200,250.337 119.875,249.578 120.700 M178.914 161.800 C 178.917 162.900,178.995 163.303,179.087 162.695 C 179.179 162.086,179.177 161.186,179.082 160.695 C 178.987 160.203,178.911 160.700,178.914 161.800 " stroke="none" fill="#ec8172" fill-rule="evenodd"></path><path id="path6" d="M156.915 57.096 C 158.188 57.176,160.168 57.175,161.315 57.094 C 162.462 57.014,161.420 56.949,159.000 56.950 C 156.580 56.951,155.642 57.016,156.915 57.096 M167.315 57.096 C 168.588 57.176,170.568 57.175,171.715 57.094 C 172.862 57.014,171.820 56.949,169.400 56.950 C 166.980 56.951,166.042 57.016,167.315 57.096 M262.200 96.000 C 263.059 96.880,263.852 97.600,263.962 97.600 C 264.072 97.600,263.459 96.880,262.600 96.000 C 261.741 95.120,260.948 94.400,260.838 94.400 C 260.728 94.400,261.341 95.120,262.200 96.000 M60.975 100.500 L 59.800 101.800 61.100 100.625 C 62.312 99.530,62.584 99.200,62.275 99.200 C 62.206 99.200,61.621 99.785,60.975 100.500 M268.000 101.800 C 268.746 102.570,269.447 103.200,269.557 103.200 C 269.667 103.200,269.146 102.570,268.400 101.800 C 267.654 101.030,266.953 100.400,266.843 100.400 C 266.733 100.400,267.254 101.030,268.000 101.800 M212.033 134.944 C 212.125 135.023,212.740 135.208,213.400 135.356 C 214.276 135.552,214.438 135.515,214.000 135.218 C 213.460 134.853,211.632 134.598,212.033 134.944 M234.501 162.200 C 234.505 163.080,234.587 163.393,234.683 162.895 C 234.779 162.398,234.775 161.678,234.675 161.295 C 234.575 160.913,234.496 161.320,234.501 162.200 M187.400 182.000 C 188.259 182.880,189.052 183.600,189.162 183.600 C 189.272 183.600,188.659 182.880,187.800 182.000 C 186.941 181.120,186.148 180.400,186.038 180.400 C 185.928 180.400,186.541 181.120,187.400 182.000 M20.970 199.800 C 20.971 204.640,21.029 206.565,21.099 204.078 C 21.169 201.591,21.169 197.631,21.098 195.278 C 21.028 192.925,20.970 194.960,20.970 199.800 M204.500 219.087 C 205.105 219.178,206.095 219.178,206.700 219.087 C 207.305 218.995,206.810 218.920,205.600 218.920 C 204.390 218.920,203.895 218.995,204.500 219.087 M227.905 221.083 C 228.402 221.179,229.122 221.175,229.505 221.075 C 229.887 220.975,229.480 220.896,228.600 220.901 C 227.720 220.905,227.407 220.987,227.905 221.083 M216.105 233.087 C 216.714 233.179,217.614 233.177,218.105 233.082 C 218.597 232.987,218.100 232.911,217.000 232.914 C 215.900 232.917,215.497 232.995,216.105 233.087 M256.175 240.500 L 255.000 241.800 256.300 240.625 C 257.015 239.979,257.600 239.394,257.600 239.325 C 257.600 239.016,257.270 239.288,256.175 240.500 M198.964 254.951 C 198.847 255.254,198.811 256.379,198.884 257.451 L 199.015 259.400 199.208 256.899 C 199.402 254.373,199.349 253.947,198.964 254.951 M235.700 257.076 C 236.085 257.176,236.715 257.176,237.100 257.076 C 237.485 256.975,237.170 256.893,236.400 256.893 C 235.630 256.893,235.315 256.975,235.700 257.076 M226.305 269.083 C 226.802 269.179,227.522 269.175,227.905 269.075 C 228.287 268.975,227.880 268.896,227.000 268.901 C 226.120 268.905,225.807 268.987,226.305 269.083 M59.600 297.800 C 60.346 298.570,61.047 299.200,61.157 299.200 C 61.267 299.200,60.746 298.570,60.000 297.800 C 59.254 297.030,58.553 296.400,58.443 296.400 C 58.333 296.400,58.854 297.030,59.600 297.800 M65.800 304.000 C 66.659 304.880,67.452 305.600,67.562 305.600 C 67.672 305.600,67.059 304.880,66.200 304.000 C 65.341 303.120,64.548 302.400,64.438 302.400 C 64.328 302.400,64.941 303.120,65.800 304.000 M159.300 342.687 C 159.905 342.778,160.895 342.778,161.500 342.687 C 162.105 342.595,161.610 342.520,160.400 342.520 C 159.190 342.520,158.695 342.595,159.300 342.687 M166.300 342.689 C 167.015 342.778,168.185 342.778,168.900 342.689 C 169.615 342.601,169.030 342.528,167.600 342.528 C 166.170 342.528,165.585 342.601,166.300 342.689 " stroke="none" fill="#dc6e64" fill-rule="evenodd"></path><path id="path7" d="M125.700 134.276 C 126.085 134.376,126.715 134.376,127.100 134.276 C 127.485 134.175,127.170 134.093,126.400 134.093 C 125.630 134.093,125.315 134.175,125.700 134.276 M206.100 134.276 C 206.485 134.376,207.115 134.376,207.500 134.276 C 207.885 134.175,207.570 134.093,206.800 134.093 C 206.030 134.093,205.715 134.175,206.100 134.276 M237.293 152.800 C 237.293 153.570,237.375 153.885,237.476 153.500 C 237.576 153.115,237.576 152.485,237.476 152.100 C 237.375 151.715,237.293 152.030,237.293 152.800 M154.093 162.000 C 154.093 162.770,154.175 163.085,154.276 162.700 C 154.376 162.315,154.376 161.685,154.276 161.300 C 154.175 160.915,154.093 161.230,154.093 162.000 M263.301 221.400 C 263.305 222.280,263.387 222.593,263.483 222.095 C 263.579 221.598,263.575 220.878,263.475 220.495 C 263.375 220.113,263.296 220.520,263.301 221.400 M204.705 232.283 C 205.202 232.379,205.922 232.375,206.305 232.275 C 206.687 232.175,206.280 232.096,205.400 232.101 C 204.520 232.105,204.207 232.187,204.705 232.283 M263.301 236.200 C 263.305 237.080,263.387 237.393,263.483 236.895 C 263.579 236.398,263.575 235.678,263.475 235.295 C 263.375 234.913,263.296 235.320,263.301 236.200 M257.196 256.008 C 256.726 256.885,256.966 257.604,257.724 257.594 C 258.043 257.590,258.022 257.475,257.659 257.245 C 257.236 256.977,257.218 256.715,257.573 256.051 C 257.823 255.583,257.938 255.200,257.828 255.200 C 257.718 255.200,257.433 255.564,257.196 256.008 M258.093 268.400 C 258.093 269.170,258.175 269.485,258.276 269.100 C 258.376 268.715,258.376 268.085,258.276 267.700 C 258.175 267.315,258.093 267.630,258.093 268.400 M57.600 295.325 C 57.600 295.394,58.185 295.979,58.900 296.625 L 60.200 297.800 59.025 296.500 C 57.930 295.288,57.600 295.016,57.600 295.325 " stroke="none" fill="#f9a697" fill-rule="evenodd"></path><path id="path8" d="M264.000 97.725 C 264.000 97.794,264.585 98.379,265.300 99.025 L 266.600 100.200 265.425 98.900 C 264.330 97.688,264.000 97.416,264.000 97.725 M125.500 189.882 C 125.995 189.978,126.805 189.978,127.300 189.882 C 127.795 189.787,127.390 189.709,126.400 189.709 C 125.410 189.709,125.005 189.787,125.500 189.882 M211.305 219.487 C 211.914 219.579,212.814 219.577,213.305 219.482 C 213.797 219.387,213.300 219.311,212.200 219.314 C 211.100 219.317,210.697 219.395,211.305 219.487 " stroke="none" fill="#f49c8c" fill-rule="evenodd"></path></g></svg>