<?xml version="1.0" encoding="UTF-8"?>
<!-- Generator: Adobe Illustrator 15.1.0, SVG Export Plug-In . SVG Version: 6.00 Build 0)  -->
<!DOCTYPE svg PUBLIC "-//W3C//DTD SVG 1.1//EN" "http://www.w3.org/Graphics/SVG/1.1/DTD/svg11.dtd">
<svg version="1.1" id="Layer_1" xmlns="http://www.w3.org/2000/svg" xmlns:xlink="http://www.w3.org/1999/xlink" x="0px" y="0px" width="160px" height="161.782px" viewBox="0 0 160 161.782" enable-background="new 0 0 160 161.782" xml:space="preserve">
<g>
	<path fill="#5EBD6D" d="M79.999,161.782C35.886,161.782,0,125.894,0,81.781S35.886,1.78,79.999,1.78S160,37.667,160,81.781   S124.112,161.782,79.999,161.782z M79.999,12.282c-38.321,0-69.497,31.177-69.497,69.499s31.176,69.499,69.497,69.499   c38.322,0,69.499-31.177,69.499-69.499S118.321,12.282,79.999,12.282z"/>
</g>
<g>
	<path fill="#5EBD6D" d="M63.5,99.159c2.295-0.98,4.257-2.593,5.661-4.665c1.45-2.136,2.213-4.625,2.213-7.207v-1.389   c0-1.71-0.353-3.445-1.023-5.015c-0.976-2.298-2.591-4.256-4.661-5.661c-2.136-1.447-4.622-2.212-7.195-2.212h-20.6   c-0.506,0-0.976-0.095-1.438-0.289c-0.663-0.281-1.258-0.769-1.666-1.377c-0.421-0.631-0.634-1.325-0.641-2.07v-1.393   c0.005-0.512,0.101-0.979,0.294-1.437c0.281-0.666,0.768-1.258,1.375-1.668c0.631-0.419,1.326-0.635,2.071-0.637h31.216v-9.148   H37.895c-1.719,0-3.446,0.354-5.019,1.021c-2.297,0.979-4.255,2.591-5.659,4.664c-1.452,2.134-2.215,4.626-2.21,7.205v1.387   c0,1.712,0.351,3.448,1.017,5.015c0.978,2.301,2.594,4.259,4.667,5.664c2.131,1.447,4.617,2.212,7.189,2.212h20.601   c0.506,0.001,0.975,0.096,1.438,0.29c0.663,0.279,1.258,0.769,1.666,1.376c0.426,0.632,0.638,1.326,0.638,2.073v1.389   c0,0.508-0.094,0.977-0.292,1.438c-0.278,0.666-0.769,1.258-1.374,1.668c-0.634,0.419-1.324,0.633-2.072,0.638H20.159v9.144h38.327   C60.223,100.175,61.906,99.833,63.5,99.159z"/>
	<path fill="#5EBD6D" d="M102.409,130.746H93.26v-30.57h-5.428c-2.575,0-5.064-0.762-7.196-2.208   c-2.074-1.406-3.689-3.362-4.663-5.664c-0.672-1.568-1.021-3.304-1.021-5.016V32.815h9.146v54.474c0,0.746,0.215,1.44,0.638,2.072   c0.41,0.608,0.999,1.099,1.664,1.376c0.46,0.196,0.934,0.292,1.44,0.294h5.419V77.217c0-2.58,0.761-5.072,2.211-7.205   c1.404-2.072,3.364-3.687,5.661-4.665c1.591-0.678,3.277-1.021,5.019-1.021h20.813c2.575,0,5.063,0.766,7.192,2.211   c2.075,1.406,3.693,3.363,4.667,5.662c0.666,1.571,1.017,3.306,1.017,5.018v10.07c0.005,2.582-0.757,5.073-2.21,7.207   c-1.404,2.072-3.364,3.685-5.657,4.665c-1.596,0.674-3.277,1.017-5.019,1.017h-22.065v-9.144h22.065   c0.748-0.005,1.445-0.218,2.074-0.638c0.607-0.411,1.094-1.003,1.376-1.668c0.197-0.466,0.287-0.933,0.292-1.438V77.211   c-0.005-0.741-0.219-1.435-0.638-2.071c-0.412-0.606-1.003-1.096-1.668-1.376c-0.461-0.194-0.93-0.288-1.437-0.289h-20.812   c-0.739,0.002-1.437,0.216-2.065,0.637c-0.606,0.408-1.099,1-1.381,1.669c-0.191,0.461-0.287,0.931-0.287,1.436V130.746z"/>
</g>
</svg>