<?xml version="1.0" encoding="UTF-8" standalone="no"?>
<svg
   xmlns:dc="http://purl.org/dc/elements/1.1/"
   xmlns:cc="http://creativecommons.org/ns#"
   xmlns:rdf="http://www.w3.org/1999/02/22-rdf-syntax-ns#"
   xmlns:svg="http://www.w3.org/2000/svg"
   xmlns="http://www.w3.org/2000/svg"
   viewBox="0 0 1600 1600"
   height="1600"
   width="1600"
   xml:space="preserve"
   id="svg2"
   version="1.1">
   <metadata id="metadata8">
    <rdf:RDF>
      <cc:Work rdf:about="">
        <dc:format>image/svg+xml
        </dc:format>
        <dc:type rdf:resource="http://purl.org/dc/dcmitype/StillImage" />
      </cc:Work>
    </rdf:RDF>
   </metadata>
   <defs id="defs6">
    <mask id="CircleMask">
      <circle cx="6000" cy="6000" r="6000" stroke="none" fill="white" />
    </mask>
   </defs>
   <g transform="matrix(1.3333333,0,0,-1.3333333,0,1600)" id="g10">
    <g transform="scale(0.1)" id="g12">
      <circle cx="6000" cy="6000" r="6000" stroke="none" fill="#3baea0" />   
      <path
         id="path16"
         mask="url(#CircleMask)"
         style="fill:#308e87;fill-opacity:1;fill-rule:nonzero;stroke:none"
         d="M 12000,0 H 7271.13 L 5087.47,2183.65 c 89.52,-84.19 209.98,-135.83 342.27,-135.83 H 6000 6570.25 c 275.71,0 500,224.3 500,500 v 6904.36 0 c 0,132.25 -51.62,252.68 -135.75,342.19 L 12000,4728.88 V 0 M 4929.83,2538.72 v 0.01 -0.01 m -0.02,0.81 c 0,0 0,0.02 0,0.03 0,-0.02 0,-0.02 0,-0.03 m -0.01,0.79 c 0,0.02 0,0.05 0,0.07 0,-0.03 0,-0.04 0,-0.07 m -0.01,0.8 c 0,0.03 0,0.07 0,0.11 0,-0.04 0,-0.08 0,-0.11 m -0.01,0.79 c 0,0.05 0,0.1 0,0.15 0,-0.05 0,-0.1 0,-0.15 m -0.01,0.81 c 0,0.05 0,0.11 0,0.16 0,-0.05 0,-0.11 0,-0.16 m 0,0.77 c -0.01,0.07 -0.01,0.16 -0.01,0.23 0,-0.09 0,-0.15 0.01,-0.23 m -0.01,0.79 c 0,0.09 0,0.18 0,0.26 0,-0.08 0,-0.18 0,-0.26 m -0.01,0.8 c 0,0.1 0,0.19 0,0.28 0,-0.08 0,-0.19 0,-0.28 m 0,0.83 c 0,0.09 0,0.18 0,0.27 0,-0.1 0,-0.17 0,-0.27 m 0,0.85 c 0,0.08 0,0.17 0,0.24 0,-0.08 0,-0.15 0,-0.24 m 1648.81,7405.35 c -0.02,0 -0.03,0 -0.05,0 0.02,0 0.03,0 0.05,0 m -0.77,0.01 c -0.05,0 -0.07,0 -0.12,0 0.04,0 0.08,0 0.12,0 m -0.82,0.01 c -0.03,0 -0.09,0 -0.13,0 0.05,0 0.09,0 0.13,0 m -0.76,0.01 c -0.07,0 -0.14,0 -0.2,0 0.06,0 0.13,0 0.2,0 m -0.81,0.01 c -0.07,0 -0.15,0 -0.22,0 0.07,0 0.15,0 0.22,0 m -0.78,0.01 c -0.1,0 -0.17,0 -0.27,0 0.1,0 0.17,0 0.27,0 m -0.81,0 c -0.1,0 -0.18,0.01 -0.28,0.01 0.09,0 0.19,-0.01 0.28,-0.01 m -0.84,0.01 c -0.09,0 -0.17,0 -0.25,0 0.08,0 0.16,0 0.25,0 m -0.83,0 c -0.07,0 -0.18,0 -0.25,0 0.09,0 0.16,0 0.25,0 m -0.84,0.01 c -0.09,0 -0.14,0 -0.23,0 0.07,0 0.16,0 0.23,0" /><path
         id="path18"
         style="fill:#e9eae9;fill-opacity:1;fill-rule:nonzero;stroke:none"
         d="m 5429.74,2047.82 c -275.7,0 -499.99,224.3 -499.99,500 v 6904.36 c 0,275.7 224.29,500 499.99,500 h 1140.51 c 275.71,0 500,-224.3 500,-500 V 2547.82 c 0,-275.7 -224.29,-500 -500,-500 H 5429.74" /><path
         id="path20"
         style="fill:#ffffff;fill-opacity:1;fill-rule:nonzero;stroke:none"
         d="m 6990.25,2547.82 c 0,-231 -189,-420 -420,-420 H 5429.74 c -230.99,0 -419.99,189 -419.99,420 v 6904.36 c 0,231 189,420 419.99,420 h 1140.51 c 231,0 420,-189 420,-420 V 2547.82" /><path
         id="path22"
         style="fill:#3e3d3f;fill-opacity:1;fill-rule:nonzero;stroke:none"
         d="m 5748.49,3774.84 -282.43,-0.02 v -59.96 h 282.44 l -0.01,59.98" /><path
         id="path24"
         style="fill:#3e3d3f;fill-opacity:1;fill-rule:nonzero;stroke:none"
         d="m 5748.5,4112.89 h -447.32 l -0.01,-59.96 447.33,0.02 v 59.94" /><path
         id="path26"
         style="fill:#3e3d3f;fill-opacity:1;fill-rule:nonzero;stroke:none"
         d="m 5748.5,4450.96 -282.45,0.02 0.02,-60 h 282.42 l 0.01,59.98" /><path
         id="path28"
         style="fill:#3e3d3f;fill-opacity:1;fill-rule:nonzero;stroke:none"
         d="m 5748.5,4789 -447.34,0.02 0.01,-59.94 447.33,-0.02 V 4789" /><path
         id="path30"
         style="fill:#3e3d3f;fill-opacity:1;fill-rule:nonzero;stroke:none"
         d="m 5748.5,5127.09 h -282.44 v -59.98 l 282.44,0.02 v 59.96" /><path
         id="path32"
         style="fill:#3e3d3f;fill-opacity:1;fill-rule:nonzero;stroke:none"
         d="m 5748.5,5465.18 -447.32,-0.02 v -59.98 h 447.32 v 60" /><path
         id="path34"
         style="fill:#3e3d3f;fill-opacity:1;fill-rule:nonzero;stroke:none"
         d="m 5748.5,5803.22 h -282.44 l -0.01,-59.96 282.44,-0.02 0.01,59.98" /><path
         id="path36"
         style="fill:#3e3d3f;fill-opacity:1;fill-rule:nonzero;stroke:none"
         d="m 5748.5,6141.28 h -447.34 l 0.01,-59.96 h 447.33 v 59.96" /><path
         id="path38"
         style="fill:#3e3d3f;fill-opacity:1;fill-rule:nonzero;stroke:none"
         d="m 5748.5,6479.34 -282.44,0.02 v -59.95 l 282.43,-0.01 0.01,59.94" /><path
         id="path40"
         style="fill:#3e3d3f;fill-opacity:1;fill-rule:nonzero;stroke:none"
         d="m 5748.5,6817.42 -447.34,-0.02 0.01,-59.95 447.33,0.01 v 59.96" /><path
         id="path42"
         style="fill:#3e3d3f;fill-opacity:1;fill-rule:nonzero;stroke:none"
         d="m 5748.5,6817.42 h -447.32 l -0.02,-59.95 447.34,-0.01 v 59.96" /><path
         id="path44"
         style="fill:#3e3d3f;fill-opacity:1;fill-rule:nonzero;stroke:none"
         d="m 5748.5,7155.48 -282.45,0.02 0.01,-59.96 282.42,-0.01 0.02,59.95" /><path
         id="path46"
         style="fill:#3e3d3f;fill-opacity:1;fill-rule:nonzero;stroke:none"
         d="m 5748.5,7493.55 -447.34,-0.02 0.02,-59.94 h 447.32 v 59.96" /><path
         id="path48"
         style="fill:#3e3d3f;fill-opacity:1;fill-rule:nonzero;stroke:none"
         d="m 5748.5,7493.56 h -447.32 l -0.01,-59.95 447.33,-0.02 v 59.97" /><path
         id="path50"
         style="fill:#3e3d3f;fill-opacity:1;fill-rule:nonzero;stroke:none"
         d="m 5748.5,7831.61 -282.43,0.02 -0.01,-59.96 282.43,-0.01 0.01,59.95" /><path
         id="path52"
         style="fill:#3e3d3f;fill-opacity:1;fill-rule:nonzero;stroke:none"
         d="m 5748.5,8169.69 h -447.34 l 0.02,-59.96 h 447.32 v 59.96" /><path
         id="path54"
         style="fill:#3e3d3f;fill-opacity:1;fill-rule:nonzero;stroke:none"
         d="m 5748.5,8169.71 -447.32,-0.01 -0.02,-59.96 447.34,-0.01 v 59.98" /><path
         id="path56"
         style="fill:#3e3d3f;fill-opacity:1;fill-rule:nonzero;stroke:none"
         d="m 5748.5,8507.75 -282.44,0.01 0.01,-59.95 282.42,-0.01 0.01,59.95" /><path
         id="path58"
         style="fill:#3e3d3f;fill-opacity:1;fill-rule:nonzero;stroke:none"
         d="m 5748.5,8845.83 -447.34,-0.01 0.01,-59.96 447.33,0.01 v 59.96" /><path
         id="path60"
         style="fill:#3e3d3f;fill-opacity:1;fill-rule:nonzero;stroke:none"
         d="m 6533.92,3774.84 -282.43,-0.01 v -59.97 h 282.44 l -0.01,59.98" /><path
         id="path62"
         style="fill:#3e3d3f;fill-opacity:1;fill-rule:nonzero;stroke:none"
         d="m 6698.83,4112.89 h -447.32 l -0.02,-59.96 447.34,0.02 v 59.94" /><path
         id="path64"
         style="fill:#3e3d3f;fill-opacity:1;fill-rule:nonzero;stroke:none"
         d="m 6533.93,4450.96 -282.44,0.02 0.02,-60 h 282.42 v 59.98" /><path
         id="path66"
         style="fill:#3e3d3f;fill-opacity:1;fill-rule:nonzero;stroke:none"
         d="m 6698.83,4789 -447.34,0.02 0.01,-59.94 447.33,-0.02 V 4789" /><path
         id="path68"
         style="fill:#3e3d3f;fill-opacity:1;fill-rule:nonzero;stroke:none"
         d="m 6533.93,5127.09 h -282.44 v -59.98 l 282.44,0.02 v 59.96" /><path
         id="path70"
         style="fill:#3e3d3f;fill-opacity:1;fill-rule:nonzero;stroke:none"
         d="m 6698.82,5465.18 -447.33,-0.02 v -59.98 h 447.33 v 60" /><path
         id="path72"
         style="fill:#3e3d3f;fill-opacity:1;fill-rule:nonzero;stroke:none"
         d="M 6533.93,5803.22 H 6251.5 l -0.01,-59.96 282.44,-0.02 v 59.98" /><path
         id="path74"
         style="fill:#3e3d3f;fill-opacity:1;fill-rule:nonzero;stroke:none"
         d="m 6698.83,6141.29 h -447.34 l 0.01,-59.97 h 447.33 v 59.97" /><path
         id="path76"
         style="fill:#3e3d3f;fill-opacity:1;fill-rule:nonzero;stroke:none"
         d="m 6533.93,6479.34 -282.44,0.01 v -59.94 l 282.43,-0.01 0.01,59.94" /><path
         id="path78"
         style="fill:#3e3d3f;fill-opacity:1;fill-rule:nonzero;stroke:none"
         d="m 6698.83,6817.42 -447.34,-0.02 0.01,-59.95 447.33,0.01 v 59.96" /><path
         id="path80"
         style="fill:#3e3d3f;fill-opacity:1;fill-rule:nonzero;stroke:none"
         d="m 6698.83,6817.42 h -447.32 l -0.02,-59.95 447.34,-0.01 v 59.96" /><path
         id="path82"
         style="fill:#3e3d3f;fill-opacity:1;fill-rule:nonzero;stroke:none"
         d="m 6533.93,7155.48 -282.44,0.02 0.01,-59.96 282.42,-0.01 0.01,59.95" /><path
         id="path84"
         style="fill:#3e3d3f;fill-opacity:1;fill-rule:nonzero;stroke:none"
         d="m 6698.83,7493.55 -447.34,-0.02 0.02,-59.94 h 447.32 v 59.96" /><path
         id="path86"
         style="fill:#3e3d3f;fill-opacity:1;fill-rule:nonzero;stroke:none"
         d="M 6698.83,7493.56 H 6251.5 l -0.01,-59.95 447.34,-0.02 v 59.97" /><path
         id="path88"
         style="fill:#3e3d3f;fill-opacity:1;fill-rule:nonzero;stroke:none"
         d="m 6533.93,7831.61 -282.43,0.02 -0.01,-59.96 282.44,-0.01 v 59.95" /><path
         id="path90"
         style="fill:#3e3d3f;fill-opacity:1;fill-rule:nonzero;stroke:none"
         d="m 6698.83,8169.69 h -447.34 l 0.02,-59.96 h 447.32 v 59.96" /><path
         id="path92"
         style="fill:#3e3d3f;fill-opacity:1;fill-rule:nonzero;stroke:none"
         d="m 6698.83,8169.71 -447.32,-0.01 -0.02,-59.96 447.34,-0.01 v 59.98" /><path
         id="path94"
         style="fill:#3e3d3f;fill-opacity:1;fill-rule:nonzero;stroke:none"
         d="m 6533.93,8507.75 -282.44,0.01 0.01,-59.95 282.42,-0.01 0.01,59.95" /><path
         id="path96"
         style="fill:#3e3d3f;fill-opacity:1;fill-rule:nonzero;stroke:none"
         d="m 6698.83,8845.83 -447.34,-0.01 0.01,-59.95 h 447.33 v 59.96" /><path
         id="path98"
         style="fill:#f1485c;fill-opacity:1;fill-rule:nonzero;stroke:none"
         d="m 6076.5,3176.45 v 2710.11 h -152.99 v -2710.1 c -93.57,-38.28 -161.33,-144.54 -161.35,-268.86 v -181.18 c 0.01,-156.28 107.03,-284.14 237.84,-284.14 130.82,-0.01 237.85,127.86 237.83,284.13 v 181.19 c 0,124.32 -67.77,230.58 -161.33,268.85" /><path
         id="path100"
         style="fill:#e9eae9;fill-opacity:1;fill-rule:nonzero;stroke:none"
         d="m 6076.49,5886.56 h -153 l 0.02,3671.16 h 152.99 l -0.01,-3671.16" /><path
         id="path102"
         style="fill:#d3d4d3;fill-opacity:1;fill-rule:nonzero;stroke:none"
         d="m 6251.19,9086.71 c 0,-36.62 -29.97,-66.58 -66.58,-66.58 H 5815.4 c -36.62,0 -66.59,29.96 -66.59,66.58 v 66.58 c 0,36.62 29.97,66.58 66.59,66.58 h 369.21 c 36.61,0 66.58,-29.96 66.58,-66.58 v -66.58" /><path
         id="path104"
         style="fill:#d3d4d3;fill-opacity:1;fill-rule:nonzero;stroke:none"
         d="m 6251.19,3407.4 c 0,-36.62 -29.97,-66.58 -66.58,-66.58 H 5815.4 c -36.62,0 -66.59,29.96 -66.59,66.58 v 66.59 c 0,36.62 29.97,66.58 66.59,66.58 h 369.21 c 36.61,0 66.58,-29.96 66.58,-66.58 v -66.59" /><path
         id="path106"
         style="fill:#d1d2d3;fill-opacity:1;fill-rule:nonzero;stroke:none"
         d="M 6570.25,2047.82 H 6000 v 80 h 570.25 c 231,0 420,189 420,420 v 6904.36 c 0,231 -189,420 -420,420 H 6000 v 80 h 570.25 c 275.71,0 500,-224.3 500,-500 V 2547.82 c 0,-275.7 -224.29,-500 -500,-500" /><path
         id="path108"
         style="fill:#e9eae9;fill-opacity:1;fill-rule:nonzero;stroke:none"
         d="M 6570.25,2127.82 H 6000 v 314.46 0 c 0.01,0 0.03,0 0.03,0 130.81,0 237.82,127.87 237.8,284.13 v 181.19 c 0,124.32 -67.77,230.58 -161.33,268.85 v 164.37 h 108.11 c 36.61,0 66.58,29.96 66.58,66.58 v 66.59 c 0,36.62 -29.97,66.58 -66.58,66.58 H 6076.5 v 2345.99 h -0.01 l 0.01,3133.57 h 108.11 c 36.61,0 66.58,29.96 66.58,66.58 v 66.58 c 0,36.62 -29.97,66.58 -66.58,66.58 H 6076.5 v 337.85 H 6000 v 314.46 h 570.25 c 231,0 420,-189 420,-420 V 2547.82 c 0,-231 -189,-420 -420,-420 m -36.33,1647.02 -282.43,-0.01 v -59.97 h 282.44 l -0.01,59.98 m -282.41,338.05 -0.02,-59.96 447.34,0.02 v 59.94 h -447.32 m -0.02,338.09 0.02,-60 h 282.42 v 59.98 l -282.44,0.02 m 0,338.04 0.01,-59.94 447.33,-0.02 V 4789 l -447.34,0.02 m 0,338.07 v -59.98 l 282.44,0.02 v 59.96 h -282.44 m 447.33,338.09 -447.33,-0.02 v -59.98 h 447.33 v 60 m -447.32,338.04 -0.01,-59.96 282.44,-0.02 v 59.98 H 6251.5 m -0.01,338.07 0.01,-59.97 h 447.33 v 59.97 h -447.34 m 0,338.06 v -59.94 l 282.43,-0.01 0.01,59.94 -282.44,0.01 m 0.01,278.12 v -0.02 l 447.33,0.01 v 59.96 h -447.32 v -0.02 h -0.02 l 0.01,-39.95 -0.01,-19.98 m 0,398.03 0.01,-59.96 282.42,-0.01 0.01,59.95 -282.44,0.02 m 447.34,278.09 v 0 59.97 H 6251.5 v -0.03 h -0.01 l 0.01,-19.97 -0.01,-39.95 h 0.02 v -0.02 h 447.32 m -447.33,398.04 -0.01,-59.96 282.44,-0.01 v 59.95 l -282.43,0.02 m 447.33,278.1 v 0 59.98 l -447.32,-0.01 v -0.01 h -0.02 l 0.01,-29.97 -0.01,-29.98 h 0.02 v -0.01 h 447.32 m -447.34,398.03 0.01,-59.95 282.42,-0.01 0.01,59.95 -282.44,0.01 m 447.34,338.07 -447.34,-0.01 0.01,-59.95 h 447.33 v 59.96" /><path
         id="path110"
         style="fill:#373838;fill-opacity:1;fill-rule:nonzero;stroke:none"
         d="m 6533.93,3714.86 h -282.44 v 59.97 l 282.43,0.01 0.01,-59.98" /><path
         id="path112"
         style="fill:#373838;fill-opacity:1;fill-rule:nonzero;stroke:none"
         d="m 6251.49,4052.93 0.02,59.96 h 447.32 v -59.94 l -447.34,-0.02" /><path
         id="path114"
         style="fill:#373838;fill-opacity:1;fill-rule:nonzero;stroke:none"
         d="m 6533.93,4390.98 h -282.42 l -0.02,60 282.44,-0.02 v -59.98" /><path
         id="path116"
         style="fill:#373838;fill-opacity:1;fill-rule:nonzero;stroke:none"
         d="m 6698.83,4729.06 -447.33,0.02 -0.01,59.94 447.34,-0.02 v -59.94" /><path
         id="path118"
         style="fill:#373838;fill-opacity:1;fill-rule:nonzero;stroke:none"
         d="m 6251.49,5067.11 v 59.98 h 282.44 v -59.96 l -282.44,-0.02" /><path
         id="path120"
         style="fill:#373838;fill-opacity:1;fill-rule:nonzero;stroke:none"
         d="m 6698.82,5405.18 h -447.33 v 59.98 l 447.33,0.02 v -60" /><path
         id="path122"
         style="fill:#373838;fill-opacity:1;fill-rule:nonzero;stroke:none"
         d="m 6533.93,5743.24 -282.44,0.02 0.01,59.96 h 282.43 v -59.98" /><path
         id="path124"
         style="fill:#373838;fill-opacity:1;fill-rule:nonzero;stroke:none"
         d="M 6698.83,6081.32 H 6251.5 l -0.01,59.97 h 447.34 v -59.97" /><path
         id="path126"
         style="fill:#373838;fill-opacity:1;fill-rule:nonzero;stroke:none"
         d="m 6533.92,6419.4 -282.43,0.01 v 59.94 l 282.44,-0.01 -0.01,-59.94" /><path
         id="path128"
         style="fill:#373838;fill-opacity:1;fill-rule:nonzero;stroke:none"
         d="m 6251.5,6757.45 v 0.02 l 447.33,-0.01 -447.33,-0.01 m 0,20 -0.01,39.95 h 0.02 l -0.01,-39.95" /><path
         id="path130"
         style="fill:#373838;fill-opacity:1;fill-rule:nonzero;stroke:none"
         d="m 6698.83,6757.46 v 0 l -447.34,0.01 0.01,19.98 0.01,39.95 v 0.02 h 447.32 v -59.96" /><path
         id="path132"
         style="fill:#373838;fill-opacity:1;fill-rule:nonzero;stroke:none"
         d="m 6533.92,7095.53 -282.42,0.01 -0.01,59.96 282.44,-0.02 -0.01,-59.95" /><path
         id="path134"
         style="fill:#373838;fill-opacity:1;fill-rule:nonzero;stroke:none"
         d="m 6698.83,7433.59 h -447.32 v 0.02 l 447.32,-0.02 m -447.33,39.97 -0.01,19.97 0.01,-19.97" /><path
         id="path136"
         style="fill:#373838;fill-opacity:1;fill-rule:nonzero;stroke:none"
         d="m 6698.83,7433.59 v 0 l -447.32,0.02 h -0.02 l 0.01,39.95 v 19.97 0.03 h 447.33 v -59.97" /><path
         id="path138"
         style="fill:#373838;fill-opacity:1;fill-rule:nonzero;stroke:none"
         d="m 6533.93,7771.66 -282.44,0.01 0.01,59.96 282.43,-0.02 v -59.95" /><path
         id="path140"
         style="fill:#373838;fill-opacity:1;fill-rule:nonzero;stroke:none"
         d="m 6698.83,8109.73 h -447.32 v 0.01 l 447.32,-0.01 m -447.33,29.99 -0.01,29.97 h 0.02 l -0.01,-29.97" /><path
         id="path142"
         style="fill:#373838;fill-opacity:1;fill-rule:nonzero;stroke:none"
         d="m 6698.83,8109.73 v 0 l -447.32,0.01 h -0.02 l 0.01,29.98 0.01,29.97 v 0.01 l 447.32,0.01 v -59.98" /><path
         id="path144"
         style="fill:#373838;fill-opacity:1;fill-rule:nonzero;stroke:none"
         d="m 6533.92,8447.8 -282.42,0.01 -0.01,59.95 282.44,-0.01 -0.01,-59.95" /><path
         id="path146"
         style="fill:#373838;fill-opacity:1;fill-rule:nonzero;stroke:none"
         d="m 6251.5,8785.87 -0.01,59.95 447.34,0.01 v -59.96 H 6251.5" /><path
         id="path148"
         style="fill:#e74151;fill-opacity:1;fill-rule:nonzero;stroke:none"
         d="m 6000.03,2442.28 c 0,0 -0.02,0 -0.03,0 v 0 898.54 h 76.5 v -164.37 c 93.56,-38.27 161.33,-144.53 161.33,-268.85 v -181.19 c 0.02,-156.26 -106.99,-284.13 -237.8,-284.13 m 76.47,1098.29 H 6000 v 2345.99 h 76.49 0.01 V 3540.57" /><path
         id="path150"
         style="fill:#d1d2d3;fill-opacity:1;fill-rule:nonzero;stroke:none"
         d="M 6076.49,5886.56 H 6000 v 3133.57 h 76.5 l -0.01,-3133.57 m 0.01,3333.31 H 6000 v 337.85 h 76.5 v -337.85" /><path
         id="path152"
         style="fill:#bdbebe;fill-opacity:1;fill-rule:nonzero;stroke:none"
         d="M 6184.61,9020.13 H 6000 v 199.74 h 184.61 c 36.61,0 66.58,-29.96 66.58,-66.58 v -66.58 c 0,-36.62 -29.97,-66.58 -66.58,-66.58" /><path
         id="path154"
         style="fill:#bdbebe;fill-opacity:1;fill-rule:nonzero;stroke:none"
         d="M 6184.61,3340.82 H 6000 v 199.75 h 184.61 c 36.61,0 66.58,-29.96 66.58,-66.58 v -66.59 c 0,-36.62 -29.97,-66.58 -66.58,-66.58" /></g></g></svg>