<svg id="svg" version="1.1" xmlns="http://www.w3.org/2000/svg" xmlns:xlink="http://www.w3.org/1999/xlink" width="400" height="403.3264033264033" viewBox="0, 0, 400,403.3264033264033"><g id="svgg"><path id="path0" d="M149.200 79.632 C 144.962 81.551,144.419 82.629,141.766 94.386 C 137.371 113.871,135.672 121.439,135.408 122.700 L 135.136 124.000 201.468 124.001 C 263.821 124.001,267.884 124.043,269.192 124.701 C 273.418 126.824,273.431 132.574,269.215 134.700 L 267.430 135.600 189.815 135.601 C 112.673 135.603,112.192 135.608,110.876 136.410 C 107.651 138.376,107.704 143.655,110.968 145.646 C 112.076 146.321,113.098 146.397,121.100 146.399 L 130.000 146.400 129.992 147.300 C 129.988 147.795,129.541 149.910,129.000 152.000 C 128.459 154.090,128.012 156.115,128.008 156.500 C 128.000 157.164,131.402 157.200,193.906 157.200 C 257.286 157.200,259.865 157.228,261.193 157.941 C 265.409 160.202,265.405 165.736,261.186 167.900 L 259.430 168.800 181.774 168.800 L 104.118 168.800 102.759 169.713 C 99.929 171.614,99.683 175.852,102.263 178.285 L 103.657 179.600 112.805 179.600 C 118.561 179.600,122.046 179.750,122.204 180.006 C 122.342 180.229,121.992 182.473,121.427 184.991 C 120.862 187.510,120.400 189.757,120.400 189.985 C 120.400 190.270,141.210 190.403,186.700 190.409 C 251.214 190.417,253.046 190.438,254.692 191.186 C 259.036 193.158,259.108 198.935,254.815 201.100 L 253.030 202.000 175.695 202.000 C 108.199 202.000,98.215 202.075,97.215 202.592 C 92.751 204.901,93.668 211.673,98.600 212.812 C 99.480 213.015,103.587 213.185,107.727 213.190 C 114.709 213.199,115.238 213.251,115.038 213.900 C 114.919 214.285,113.745 219.550,112.430 225.600 C 111.114 231.650,109.576 238.580,109.012 241.000 C 108.448 243.420,106.725 251.070,105.182 258.000 C 100.834 277.533,97.849 290.843,95.223 302.400 C 92.071 316.272,92.178 319.323,95.927 322.477 C 98.760 324.861,98.503 324.840,122.800 324.715 L 145.000 324.600 146.764 323.600 C 149.931 321.805,150.727 320.370,152.237 313.732 C 152.978 310.470,154.215 305.100,154.985 301.800 C 156.020 297.363,164.110 261.120,165.891 252.941 L 166.078 252.081 190.139 251.887 C 215.055 251.686,216.644 251.592,228.000 249.648 C 246.380 246.501,264.321 239.328,278.400 229.497 C 282.334 226.750,284.482 225.051,291.156 219.408 C 311.224 202.437,325.492 167.679,323.211 141.315 C 320.166 106.118,298.190 84.938,259.800 80.200 C 246.056 78.503,152.751 78.025,149.200 79.632 " stroke="none" fill="#141c44" fill-rule="evenodd"></path><path id="path1" d="M189.200 12.631 C 188.210 12.712,184.970 12.974,182.000 13.212 C 169.071 14.250,142.694 19.447,141.616 21.170 C 141.497 21.360,139.780 22.013,137.800 22.623 C 133.768 23.865,126.098 26.747,122.889 28.227 C 121.728 28.762,120.678 29.200,120.557 29.200 C 119.492 29.200,97.429 41.468,96.800 42.409 C 96.690 42.574,95.610 43.287,94.400 43.994 C 92.026 45.381,83.010 51.741,81.958 52.771 C 81.604 53.117,79.469 54.930,77.212 56.800 C 71.225 61.762,61.411 71.397,56.913 76.731 C 54.761 79.283,52.640 81.748,52.200 82.209 C 51.242 83.214,45.086 91.460,43.398 94.000 C 42.740 94.990,42.090 95.890,41.952 96.000 C 41.467 96.387,37.141 103.290,35.729 105.929 C 32.792 111.419,31.420 113.815,30.917 114.329 C 30.633 114.619,30.400 115.001,30.400 115.176 C 30.400 115.352,29.230 117.952,27.800 120.955 C 26.370 123.957,25.200 126.518,25.200 126.647 C 25.200 126.910,21.793 135.561,20.966 137.400 C 17.169 145.831,11.975 169.517,10.965 183.000 C 10.817 184.980,10.494 186.853,10.248 187.161 C 9.643 187.919,9.622 215.908,10.226 216.317 C 10.456 216.473,10.863 219.088,11.132 222.129 C 12.292 235.262,17.715 259.825,20.641 265.200 C 21.140 266.115,22.830 270.438,24.865 276.000 C 26.817 281.338,35.530 297.858,39.772 304.267 C 43.603 310.055,50.900 320.173,51.983 321.200 C 52.331 321.530,54.049 323.510,55.800 325.600 C 60.097 330.729,71.201 341.735,76.784 346.400 C 79.285 348.490,81.527 350.382,81.766 350.604 C 82.678 351.454,89.556 356.399,93.000 358.681 C 94.980 359.994,97.727 361.824,99.104 362.749 C 101.410 364.298,104.676 366.117,114.800 371.491 C 116.890 372.600,119.950 374.079,121.600 374.778 C 123.250 375.476,124.960 376.203,125.400 376.394 C 127.106 377.132,134.709 379.941,136.800 380.605 C 138.010 380.989,140.049 381.738,141.331 382.270 C 167.531 393.133,221.093 393.750,253.576 383.562 C 255.019 383.110,256.533 382.670,256.941 382.585 C 257.348 382.500,257.888 382.268,258.141 382.069 C 258.393 381.870,260.670 381.024,263.200 380.188 C 269.949 377.960,278.758 374.288,284.000 371.519 C 292.379 367.092,297.367 364.283,300.139 362.431 C 301.646 361.424,303.986 359.888,305.339 359.019 C 308.267 357.137,315.150 352.115,317.400 350.218 C 318.280 349.476,320.890 347.297,323.200 345.375 C 329.325 340.279,337.366 332.226,342.930 325.614 C 345.609 322.432,348.036 319.552,348.325 319.214 C 350.316 316.887,356.800 307.772,356.800 307.301 C 356.800 307.108,357.157 306.567,357.594 306.098 C 358.376 305.260,362.800 298.574,362.800 298.232 C 362.800 298.135,364.264 295.389,366.054 292.128 C 371.133 282.875,377.017 269.519,378.180 264.604 C 378.336 263.946,378.604 263.316,378.775 263.204 C 379.127 262.974,381.032 256.913,382.550 251.200 C 391.256 218.420,390.566 177.179,380.795 146.200 C 380.101 144.000,379.437 141.795,379.320 141.300 C 379.203 140.805,378.971 140.400,378.805 140.400 C 378.640 140.400,378.273 139.545,377.990 138.500 C 376.810 134.140,372.090 122.941,368.760 116.600 C 362.282 104.263,359.064 98.683,358.042 98.014 C 357.863 97.896,356.991 96.602,356.106 95.138 C 349.473 84.170,333.810 66.906,320.485 55.877 C 314.903 51.256,306.841 45.200,306.273 45.200 C 305.942 45.200,302.280 42.723,301.800 42.175 C 301.413 41.733,295.340 38.000,295.007 38.000 C 294.917 38.000,293.798 37.396,292.521 36.658 C 283.155 31.246,272.816 26.574,262.800 23.229 C 260.050 22.311,257.350 21.322,256.800 21.032 C 252.749 18.897,232.209 14.718,219.200 13.383 C 213.446 12.793,193.350 12.289,189.200 12.631 M257.200 79.335 C 304.070 85.036,328.130 113.512,323.157 157.400 C 317.852 204.220,279.663 241.225,227.400 250.189 C 217.758 251.843,213.466 252.081,189.698 252.280 L 166.396 252.475 166.194 253.338 C 165.317 257.066,159.189 284.479,155.783 299.912 C 149.646 327.711,152.985 325.179,122.446 325.191 C 97.925 325.201,98.437 325.255,95.530 322.360 C 92.445 319.288,91.823 316.114,93.170 310.315 C 93.594 308.492,95.409 300.250,97.203 292.000 C 98.997 283.750,101.090 274.390,101.855 271.200 C 102.619 268.010,105.040 257.210,107.234 247.200 C 109.429 237.190,112.028 225.550,113.012 221.333 C 113.995 217.116,114.800 213.561,114.800 213.433 C 114.800 213.305,111.065 213.199,106.500 213.199 C 98.923 213.197,98.086 213.128,96.896 212.402 C 92.959 210.002,93.144 204.383,97.228 202.301 C 98.520 201.642,103.114 201.601,176.200 201.599 C 251.417 201.597,253.838 201.574,255.032 200.846 C 258.339 198.829,258.327 193.656,255.010 191.606 C 253.716 190.806,253.182 190.800,186.919 190.800 C 150.187 190.800,120.043 190.710,119.932 190.599 C 119.822 190.489,120.240 188.194,120.860 185.499 C 121.481 182.805,121.992 180.465,121.995 180.300 C 121.998 180.135,117.995 179.999,113.100 179.999 C 104.925 179.997,104.094 179.932,102.896 179.202 C 98.946 176.794,99.120 171.154,103.208 169.101 C 104.519 168.442,109.117 168.401,182.140 168.401 C 253.742 168.400,259.787 168.349,261.087 167.732 C 264.776 165.982,265.005 160.533,261.481 158.384 C 260.224 157.618,258.952 157.603,193.900 157.601 C 138.134 157.600,127.600 157.513,127.600 157.054 C 127.600 156.753,128.050 154.514,128.600 152.078 C 129.150 149.641,129.600 147.457,129.600 147.224 C 129.600 146.939,126.818 146.800,121.100 146.799 C 113.798 146.799,112.407 146.700,111.228 146.099 C 107.246 144.069,106.991 138.626,110.759 136.108 L 112.118 135.200 189.733 135.200 C 266.252 135.200,267.370 135.189,268.982 134.408 C 272.920 132.503,273.191 127.446,269.478 125.182 C 268.225 124.418,266.907 124.403,201.457 124.401 L 134.713 124.400 134.930 123.500 C 135.049 123.005,135.896 119.180,136.812 115.000 C 144.557 79.650,144.047 81.091,149.600 78.834 C 151.452 78.081,250.689 78.543,257.200 79.335 " stroke="none" fill="#accc3b" fill-rule="evenodd"></path><path id="path2" d="M153.532 190.700 C 171.864 190.758,201.744 190.758,219.932 190.700 C 238.119 190.642,223.120 190.595,186.600 190.595 C 150.080 190.595,135.199 190.642,153.532 190.700 M137.100 201.900 C 158.275 201.957,192.925 201.957,214.100 201.900 C 235.275 201.843,217.950 201.796,175.600 201.796 C 133.250 201.796,115.925 201.843,137.100 201.900 M111.272 325.100 C 117.141 325.162,126.861 325.162,132.872 325.100 C 138.882 325.038,134.080 324.987,122.200 324.986 C 110.320 324.986,105.402 325.037,111.272 325.100 " stroke="none" fill="#5c743c" fill-rule="evenodd"></path><path id="path3" d="M240.500 78.694 C 241.545 78.776,243.255 78.776,244.300 78.694 C 245.345 78.612,244.490 78.544,242.400 78.544 C 240.310 78.544,239.455 78.612,240.500 78.694 M250.705 79.083 C 251.202 79.179,251.922 79.175,252.305 79.075 C 252.687 78.975,252.280 78.896,251.400 78.901 C 250.520 78.905,250.207 78.987,250.705 79.083 M134.806 123.700 C 134.800 124.364,138.175 124.395,200.900 124.301 L 267.000 124.202 201.223 124.100 C 149.211 124.019,135.379 123.893,135.129 123.499 C 134.904 123.144,134.810 123.202,134.806 123.700 M323.737 147.000 C 323.739 148.760,323.809 149.430,323.893 148.489 C 323.978 147.549,323.977 146.109,323.891 145.289 C 323.805 144.470,323.736 145.240,323.737 147.000 M160.300 157.500 C 178.395 157.558,208.005 157.558,226.100 157.500 C 244.195 157.442,229.390 157.395,193.200 157.395 C 157.010 157.395,142.205 157.442,160.300 157.500 M100.114 174.200 C 100.117 175.300,100.195 175.703,100.287 175.095 C 100.379 174.486,100.377 173.586,100.282 173.095 C 100.187 172.603,100.111 173.100,100.114 174.200 M294.589 216.100 L 291.800 219.000 294.700 216.211 C 297.394 213.620,297.783 213.200,297.489 213.200 C 297.428 213.200,296.123 214.505,294.589 216.100 M166.267 252.267 C 166.120 252.413,166.003 252.728,166.006 252.967 C 166.010 253.226,166.139 253.201,166.327 252.904 C 166.570 252.521,171.412 252.383,187.421 252.300 L 208.200 252.193 187.367 252.096 C 175.908 252.043,166.413 252.120,166.267 252.267 " stroke="none" fill="#72873c" fill-rule="evenodd"></path><path id="path4" d="M173.500 78.700 C 185.435 78.759,204.965 78.759,216.900 78.700 C 228.835 78.641,219.070 78.593,195.200 78.593 C 171.330 78.593,161.565 78.641,173.500 78.700 M244.300 79.089 C 245.015 79.178,246.185 79.178,246.900 79.089 C 247.615 79.001,247.030 78.928,245.600 78.928 C 244.170 78.928,243.585 79.001,244.300 79.089 M252.100 79.476 C 252.485 79.576,253.115 79.576,253.500 79.476 C 253.885 79.375,253.570 79.293,252.800 79.293 C 252.030 79.293,251.715 79.375,252.100 79.476 M145.775 81.700 L 144.600 83.000 145.900 81.825 C 147.112 80.730,147.384 80.400,147.075 80.400 C 147.006 80.400,146.421 80.985,145.775 81.700 M151.700 135.500 C 172.985 135.557,207.815 135.557,229.100 135.500 C 250.385 135.443,232.970 135.396,190.400 135.396 C 147.830 135.396,130.415 135.443,151.700 135.500 M323.309 142.000 C 323.309 142.990,323.387 143.395,323.482 142.900 C 323.578 142.405,323.578 141.595,323.482 141.100 C 323.387 140.605,323.309 141.010,323.309 142.000 M116.878 146.698 C 119.231 146.769,123.191 146.769,125.678 146.699 C 128.165 146.629,126.240 146.571,121.400 146.570 C 116.560 146.570,114.525 146.628,116.878 146.698 M323.309 152.000 C 323.309 152.990,323.387 153.395,323.482 152.900 C 323.578 152.405,323.578 151.595,323.482 151.100 C 323.387 150.605,323.309 151.010,323.309 152.000 M143.268 168.700 C 164.536 168.757,199.456 168.757,220.868 168.700 C 242.281 168.643,224.880 168.596,182.200 168.596 C 139.520 168.596,122.001 168.643,143.268 168.700 M108.878 179.898 C 111.231 179.969,115.191 179.969,117.678 179.899 C 120.165 179.829,118.240 179.771,113.400 179.770 C 108.560 179.770,106.525 179.828,108.878 179.898 M296.975 213.300 L 295.800 214.600 297.100 213.425 C 297.815 212.779,298.400 212.194,298.400 212.125 C 298.400 211.816,298.070 212.088,296.975 213.300 M209.305 251.887 C 209.914 251.979,210.814 251.977,211.305 251.882 C 211.797 251.787,211.300 251.711,210.200 251.714 C 209.100 251.717,208.697 251.795,209.305 251.887 " stroke="none" fill="#546c44" fill-rule="evenodd"></path></g></svg>