 <svg version="1.0" xmlns="http://www.w3.org/2000/svg" width="700.000000pt" height="670.000000pt" viewBox="0 0 700.000000 670.000000" preserveAspectRatio="xMidYMid meet">
<metadata>
Created by potrace 1.12, written by Peter Selinger 2001-2015
</metadata>
<g transform="translate(0.000000,670.000000) scale(0.100000,-0.100000)" fill="#000000" stroke="none">
<path d="M1238 6533 l-3 -148 -147 -3 -148 -3 0 -149 0 -149 -152 -3 -152 -3
-3 -140 c-2 -77 -6 -146 -8 -152 -3 -10 -72 -13 -300 -13 l-295 0 2 -452 3
-453 145 0 145 0 5 150 5 150 300 0 300 0 3 -152 3 -153 299 0 300 0 0 -150 0
-150 -150 0 -150 0 0 -608 0 -607 150 4 150 3 2 -303 3 -304 148 -3 147 -3 0
-149 0 -150 155 0 155 0 0 -452 -1 -453 150 -3 150 -3 3 -152 3 -152 148 -3
147 -3 0 -449 0 -450 -302 -2 -301 -3 2 -145 c1 -80 6 -148 10 -153 4 -4 207
-6 452 -5 l444 3 3 147 3 148 134 1 c74 1 141 2 148 3 9 1 13 40 15 153 l3
153 -151 0 -150 0 0 455 0 456 148 -3 147 -3 5 -150 5 -150 147 -3 147 -3 3
-437 c2 -240 1 -443 0 -449 -3 -9 -45 -13 -150 -15 l-147 -3 0 -150 0 -150
300 0 300 0 3 148 c2 131 4 147 20 147 9 0 145 1 301 3 l284 2 0 150 -1 150
-301 3 -301 2 0 150 0 149 148 3 147 3 0 149 0 149 -145 1 -145 1 -3 153 -3
152 150 0 150 0 3 147 3 148 150 3 150 3 0 -148 0 -148 153 -3 152 -3 0 151
c0 173 7 163 -111 159 -35 -1 -92 -1 -126 -1 l-62 2 -3 147 -3 147 -35 8 c-53
12 -563 -2 -572 -16 -4 -6 -8 -143 -8 -304 l0 -293 -142 3 -143 3 -5 145 -5
145 -139 3 c-82 1 -145 7 -153 14 -10 8 -13 47 -13 154 l0 143 -147 3 -148 3
-5 145 -5 145 -450 5 -450 5 -3 146 -3 146 -61 7 c-33 3 -101 6 -149 6 l-89 0
-2 298 -3 297 -148 3 -147 3 2 452 3 452 145 0 145 0 0 -150 0 -150 300 0 300
0 5 150 5 150 147 3 148 3 2 -608 3 -607 150 -1 150 0 5 -150 5 -150 148 -3
147 -3 0 -149 0 -150 458 -2 c251 -1 518 -2 594 -3 75 0 140 -3 144 -8 4 -4
11 -47 15 -95 4 -48 11 -106 15 -129 l7 -42 92 6 c174 11 225 -33 225 -195 0
-42 4 -82 8 -89 5 -8 83 -12 262 -15 247 -3 256 -4 287 -26 20 -14 36 -37 43
-60 14 -53 12 -167 -4 -206 -13 -30 -18 -33 -71 -40 -32 -3 -168 -6 -303 -6
-135 1 -249 -3 -254 -8 -5 -5 -7 -73 -6 -153 l3 -144 605 0 605 0 0 455 0 455
-135 2 c-74 1 -140 2 -146 2 -13 1 -30 247 -19 280 6 20 14 21 156 21 l149 0
0 150 0 150 301 2 302 3 1 145 1 145 130 2 c194 4 175 -13 175 157 0 141 0
144 -22 150 -13 3 -150 6 -305 6 l-283 0 0 150 0 150 -452 2 -453 3 -3 147 -3
147 -147 3 -147 3 -5 150 -5 150 -300 5 -300 5 -1 145 -1 145 -151 3 -151 3
-3 147 -3 147 -300 5 -300 5 -1 150 -2 150 -301 3 -301 2 -2 301 -3 301 -150
2 -150 1 -3 302 -2 302 -148 3 -147 3 -3 148 -3 147 -604 0 -604 0 -3 -147z
m607 -912 l0 -154 -150 1 -150 1 -1 148 c0 81 1 151 3 156 3 4 71 6 151 5
l147 -3 0 -154z m2387 -1098 c15 -14 18 -32 18 -133 0 -78 4 -121 13 -132 9
-13 38 -17 139 -20 71 -2 132 -8 138 -14 11 -11 16 -241 5 -252 -8 -8 -547 -4
-555 4 -3 3 -7 65 -8 137 -2 73 -8 137 -13 143 -6 7 -61 13 -136 16 -107 4
-128 8 -140 23 -17 25 -18 216 -1 233 9 9 82 12 267 12 223 0 257 -2 273 -17z
m-291 -590 c15 -15 15 -201 0 -216 -6 -6 -54 -13 -114 -15 -56 -1 -125 -9
-152 -18 -55 -16 -278 -24 -292 -11 -4 5 -10 62 -12 127 -4 163 -26 152 302
147 165 -2 261 -7 268 -14z m1207 -1 c9 -7 12 -40 10 -133 l-3 -124 -120 -3
c-104 -2 -121 0 -132 15 -9 11 -13 56 -13 135 l0 118 123 0 c67 0 128 -4 135
-8z m-290 -427 c2 -104 0 -121 -15 -132 -13 -10 -107 -13 -397 -13 -210 0
-386 4 -392 8 -24 15 -34 54 -34 125 0 41 3 89 6 106 l7 31 411 -2 411 -3 3
-120z m1510 -304 c1 -68 -1 -128 -6 -133 -11 -11 -1143 -11 -1154 0 -11 11
-14 234 -4 251 5 8 156 10 584 9 l577 -3 3 -124z m-3323 -1371 l0 -285 -137
-3 -138 -3 0 134 c0 91 -4 138 -12 150 -11 14 -36 17 -153 19 l-140 3 -3 124
c-1 69 0 131 2 138 4 11 62 13 293 11 l288 -3 0 -285z"></path>
<path d="M4274 2407 c-9 -24 1 -237 11 -237 16 1 20 38 17 148 -3 92 -14 126
-28 89z"></path>
</g>
</svg>