<?xml version="1.0" standalone="no"?>
<!DOCTYPE svg PUBLIC "-//W3C//DTD SVG 20010904//EN"
 "http://www.w3.org/TR/2001/REC-SVG-20010904/DTD/svg10.dtd">
<svg version="1.0" xmlns="http://www.w3.org/2000/svg"
 width="921.000000pt" height="861.000000pt" viewBox="0 0 921.000000 861.000000"
 preserveAspectRatio="xMidYMid meet">

<g transform="translate(0.000000,861.000000) scale(0.100000,-0.100000)"
fill="#000000" stroke="none">
<path d="M4408 8189 c-777 -35 -1535 -307 -2163 -774 -360 -267 -686 -610
-932 -980 -348 -523 -552 -1074 -640 -1730 -14 -103 -17 -202 -17 -475 0 -325
2 -356 28 -525 34 -227 76 -419 132 -608 42 -140 112 -335 137 -383 11 -20 78
127 617 1342 333 750 607 1363 610 1363 3 0 100 -217 217 -482 117 -265 280
-635 363 -823 l152 -341 -523 -1174 c-287 -646 -523 -1183 -525 -1194 -4 -23
94 -113 284 -264 901 -716 2072 -1003 3202 -787 539 104 1087 337 1526 650
149 107 306 232 402 322 l73 69 -74 165 c-41 91 -341 764 -667 1495 -326 732
-745 1672 -931 2089 l-339 760 254 570 c140 314 305 685 367 824 62 139 116
249 120 245 4 -5 179 -395 389 -868 210 -473 688 -1548 1062 -2390 375 -841
687 -1546 696 -1565 l14 -35 20 50 c96 239 166 473 218 725 126 616 94 1327
-86 1908 -127 409 -284 742 -510 1078 -629 939 -1636 1565 -2752 1713 -132 18
-209 23 -477 35 -44 2 -155 0 -247 -5z m-1141 -937 c518 -1170 1327 -2988
1332 -2994 4 -4 117 240 251 542 134 302 245 548 246 547 1 -1 131 -292 289
-647 159 -355 323 -723 366 -819 58 -131 75 -180 69 -195 -12 -31 -451 -1022
-665 -1501 -103 -231 -232 -521 -287 -645 -55 -124 -104 -229 -108 -235 -5 -6
-68 -9 -163 -7 l-154 3 -38 87 c-21 48 -115 263 -210 477 -95 215 -354 800
-575 1300 -541 1225 -659 1491 -961 2173 l-258 584 331 741 c182 408 344 775
361 815 17 39 33 72 36 72 3 0 65 -134 138 -298z"/>
</g>
</svg>
