<svg height="392pt" preserveAspectRatio="xMidYMid meet" viewBox="0 0 450 392" width="450pt" xmlns="http://www.w3.org/2000/svg"><g transform="matrix(.1 0 0 -.1 0 392)"><path d="m1960 3913c-68-10-70-12-70-51 0-46-25-155-42-182-7-11-71-73-141-137-135-122-152-146-202-280-37-99-111-232-154-276-20-22-60-49-88-62-62-28-66-44-22-87 28-28 34-30 79-25 64 8 155 53 188 94 15 18 52 63 82 100 78 96 118 135 132 131 7-2 31-39 52-83 29-58 41-97 44-140 2-33 9-64 14-70 6-7 8-5 6 5-2 8 4 15 12 15s23 8 33 18 22 15 27 12c6-4 10-1 10 5s4 9 9 6 24 1 42 9c19 8 28 14 21 15-7 0-10 5-6 11 3 6 17 8 30 5 17-5 26-2 30 9 5 11 10 12 27 4 17-10 19-9 14 5-4 10-3 14 2 11s13 0 16 6c4 5 13 8 21 5s14-1 14 5 7 6 20-1c19-10 24-6 21 14-1 5 5 6 13 3s17-3 20 1c7 6 12 7 91 17 28 3 51 9 52 13 2 4 23 7 48 6 25 0 45 3 45 6 0 4 28 7 63 6 57-1 62-3 68-26 10-39 10 76-1 250-10 159-44 329-90 448-13 35-20 76-20 122v70l-242-1c-134-1-254-3-268-6z"/><path d="m990 1610c-16-16-20-33-20-92 0-50-8-98-26-153-14-44-32-129-39-190-8-60-24-155-36-210-35-166-10-352 65-475 19-30 37-76 41-102l7-48 127-64c138-70 288-130 426-170 49-14 93-26 97-26s8 50 8 110c0 119 10 153 65 219 21 24 23 31 11 31-9 0-16 4-16 9s-9 11-21 14-19 10-16 15c4 4-3 16-14 25-10 9-19 14-19 11s-12 8-26 23c-15 15-20 19-13 8 11-16 8-15-13 4-15 13-26 29-25 35s-3 10-10 9c-6-1-17 4-23 12-7 8-9 15-5 15s2 7-5 15-16 12-21 9c-8-5-13 9-10 28 0 5-4 7-10 5-6-1-16 7-22 18-7 11-19 26-27 33-13 12-13 13 0 6 8-4-2 9-23 29-22 20-36 40-33 45 3 6-1 12-9 16-8 3-15 13-15 22s-8 23-17 30c-13 10-14 13-4 14 10 0 8 5-6 18-11 9-19 25-17 35 1 9-1 15-6 12-4-3-14 3-21 12-12 14-12 16 1 8s13-7 1 8c-7 9-10 17-6 17 5 0 1 8-8 18-8 9-17 24-19 32s-9 21-16 29c-7 7-11 20-8 28s1 11-4 8c-9-5-14 16-13 52 1 7-4 10-9 7s-9 2-7 12c3 26-11 74-22 74-5 0-9-4-9-10 0-5-7-10-15-10-13 0-14 16-8 104 7 122-4 176-49 230-43 53-63 61-88 36z"/><path d="m422 828c60-74 197-216 228-238l26-19v55c-1 30-5 54-9 54-5 0-5 5-1 11 3 6 3 14-2 18-5 3-16 22-26 42-12 27-30 42-70 62-44 21-171 67-186 67-2 0 16-24 40-52z"/><path d="m3998 772c-15-10-36-28-47-41-12-13-21-21-21-18 0 9-69-22-103-46-44-32-102-91-99-100 1-5-1-6-6-3-11 7-70-48-114-107-42-55-69-78-118-97-31-13-90-62-90-76 0-15 265 155 364 234 167 133 347 329 234 254z"/></g></svg>