<?xml version="1.0" standalone="no"?>
<!DOCTYPE svg PUBLIC "-//W3C//DTD SVG 20010904//EN"
 "http://www.w3.org/TR/2001/REC-SVG-20010904/DTD/svg10.dtd">
<svg version="1.0" xmlns="http://www.w3.org/2000/svg"
 width="220.000000pt" height="220.000000pt" viewBox="0 0 220.000000 220.000000"
 preserveAspectRatio="xMidYMid meet">
<metadata>
Created by potrace 1.16, written by Peter Selinger 2001-2019
</metadata>
<g transform="translate(0.000000,220.000000) scale(0.100000,-0.100000)"
fill="#000000" stroke="none">
<path d="M146 2186 c-50 -16 -115 -70 -132 -112 -20 -48 -19 -206 2 -247 20
-38 55 -71 109 -100 39 -21 52 -22 455 -27 305 -4 421 -8 437 -17 61 -35 83
-118 43 -161 -53 -57 -51 -57 -500 -62 -458 -6 -441 -3 -507 -72 -17 -18 -37
-46 -42 -61 -16 -41 -14 -191 3 -230 17 -42 89 -104 135 -117 21 -6 189 -10
397 -10 l361 0 69 -81 c38 -45 83 -97 99 -117 17 -20 48 -57 70 -82 22 -25 58
-68 80 -95 22 -26 58 -69 80 -95 22 -25 60 -70 85 -100 25 -29 62 -74 84 -99
21 -25 60 -70 85 -100 117 -138 153 -171 204 -186 93 -28 151 -21 252 30 140
71 185 122 185 210 0 49 -17 90 -54 133 -63 72 -115 133 -151 177 -22 26 -44
53 -50 59 -20 22 -81 94 -120 141 -22 26 -73 87 -113 134 l-73 85 63 22 c151
52 266 126 349 227 48 57 104 160 115 211 23 106 26 185 8 248 -3 9 -7 25 -9
35 -13 65 -82 177 -155 253 -53 54 -200 147 -255 161 -5 1 -25 8 -44 16 -93
39 -173 43 -861 42 -487 -1 -675 -4 -704 -13z"/>
</g>
</svg>
