<?xml version="1.0" standalone="no"?>
<!DOCTYPE svg PUBLIC "-//W3C//DTD SVG 20010904//EN"
 "http://www.w3.org/TR/2001/REC-SVG-20010904/DTD/svg10.dtd">
<svg version="1.0" xmlns="http://www.w3.org/2000/svg"
 width="640.000000pt" height="640.000000pt" viewBox="0 0 640.000000 640.000000"
 preserveAspectRatio="xMidYMid meet">
<metadata>
Created by potrace 1.15, written by Peter Selinger 2001-2017
</metadata>
<g transform="translate(0.000000,640.000000) scale(0.100000,-0.100000)"
fill="#000000" stroke="none">
<path d="M3449 5397 c-100 -28 -166 -84 -217 -181 -22 -43 -26 -64 -27 -136 0
-72 4 -94 27 -142 120 -255 474 -255 600 1 32 65 33 205 1 273 -65 141 -240
226 -384 185z m191 -317 c0 -65 -47 -113 -110 -113 -61 0 -110 50 -110 112 l0
31 110 0 110 0 0 -30z"/>
<path d="M4991 5394 c-66 -17 -104 -40 -153 -91 -92 -94 -117 -241 -63 -362
74 -165 269 -240 434 -166 146 66 227 229 188 379 -31 116 -124 211 -238 241
-66 18 -99 18 -168 -1z m197 -311 c2 -12 -4 -35 -13 -52 -45 -89 -171 -83
-201 9 -22 66 -15 71 105 68 100 -3 106 -4 109 -25z"/>
<path d="M3568 4271 l-33 -29 0 -199 c1 -158 4 -211 19 -262 95 -344 397 -580
744 -581 364 -1 660 232 758 595 10 38 18 122 21 226 6 183 -1 225 -44 259
-25 20 -39 20 -729 20 l-704 0 -32 -29z"/>
<path d="M554 3220 c-169 -24 -306 -95 -386 -201 -82 -108 -117 -217 -125
-390 -12 -251 48 -435 189 -578 66 -68 148 -121 308 -201 276 -139 356 -218
368 -366 9 -117 -46 -210 -145 -243 -57 -19 -230 -25 -308 -12 -109 19 -247
70 -308 113 -21 15 -28 16 -31 6 -18 -55 -106 -349 -106 -352 0 -12 131 -58
215 -75 311 -64 648 -46 828 45 104 53 194 176 219 301 8 40 15 53 29 53 10 0
21 -10 25 -22 14 -47 97 -159 164 -221 42 -39 99 -79 144 -101 152 -75 371
-109 561 -86 359 43 559 203 664 530 17 52 33 108 36 123 4 20 11 27 23 25 13
-3 20 -22 29 -93 47 -333 189 -508 468 -571 119 -27 359 -25 479 5 161 39 269
108 341 216 37 57 87 179 105 259 22 98 29 347 31 1051 l3 740 -193 0 -193 0
-2 -800 c-1 -705 -4 -808 -18 -866 -33 -133 -98 -221 -198 -268 -45 -21 -70
-26 -135 -26 -199 0 -300 128 -326 417 -8 85 -9 329 -5 793 3 369 7 688 9 710
l2 40 -195 0 -195 0 0 -105 c0 -58 2 -213 5 -345 4 -215 3 -240 -11 -243 -9
-2 -19 5 -22 15 -3 10 -15 50 -26 89 -96 333 -293 542 -581 617 -120 31 -328
30 -450 -2 -242 -63 -388 -191 -510 -447 -81 -168 -140 -447 -140 -659 0 -144
-8 -151 -81 -71 -61 67 -173 143 -324 222 -61 31 -132 68 -158 82 -74 38 -151
114 -177 173 -27 64 -25 172 5 233 68 140 365 154 590 27 l51 -29 19 67 c10
36 35 117 56 179 l37 113 -21 14 c-47 30 -158 75 -238 95 -95 24 -296 34 -395
20z m1601 -380 c131 -34 222 -111 293 -247 74 -144 103 -293 103 -533 1 -436
-103 -696 -321 -803 -61 -30 -70 -32 -180 -32 -106 0 -119 2 -173 28 -169 83
-272 298 -298 623 -21 252 19 527 101 699 97 203 293 312 475 265z"/>
<path d="M1993 2776 c-23 -6 -45 -14 -48 -18 -4 -4 -13 -4 -21 -1 -8 3 -14 1
-14 -5 0 -5 -10 -12 -23 -16 -27 -6 -93 -66 -74 -66 6 -1 2 -6 -10 -13 -23
-12 -82 -85 -83 -101 0 -4 -11 -29 -24 -55 -13 -26 -31 -83 -41 -127 -9 -43
-22 -97 -28 -119 -16 -53 -16 -426 0 -480 6 -22 19 -74 28 -115 19 -89 63
-187 114 -251 37 -48 71 -60 71 -26 0 12 -4 16 -12 11 -10 -5 -10 -4 -2 5 8 9
8 26 2 56 -10 47 -6 426 6 485 3 19 11 51 16 70 66 248 134 361 274 454 64 42
183 66 246 49 23 -6 43 -7 46 -2 3 5 10 7 15 3 21 -13 -59 118 -97 159 -50 54
-99 81 -182 102 -72 17 -99 17 -159 1z"/>
<path d="M4665 3189 c-120 -10 -234 -31 -243 -44 -4 -5 -4 -109 -1 -230 4
-121 7 -619 8 -1107 l1 -888 185 0 185 0 2 383 3 382 109 0 110 0 29 -49 c15
-27 100 -191 189 -364 88 -173 166 -325 175 -338 l15 -23 201 6 c111 3 203 7
205 9 2 1 -91 191 -207 421 -116 231 -211 425 -211 431 0 6 24 29 53 50 203
151 289 371 274 707 -10 224 -60 362 -171 470 -101 99 -249 161 -441 184 -100
12 -333 12 -470 0z m536 -416 c80 -37 123 -86 149 -172 36 -115 16 -272 -45
-361 -64 -92 -205 -142 -387 -138 l-113 3 -3 340 c-1 187 0 346 3 354 4 11 36
13 168 9 155 -4 165 -6 228 -35z"/>
<path d="M4855 2746 c-19 -13 -20 -29 -24 -300 l-3 -286 90 0 c51 0 94 4 97
10 4 6 11 7 17 4 7 -4 8 -2 4 4 -4 7 -4 12 1 12 4 0 9 17 9 38 4 109 88 242
147 233 4 0 7 4 7 10 0 5 5 7 11 4 5 -4 21 5 35 20 16 18 32 25 44 22 16 -4
20 0 20 21 0 66 -25 112 -90 166 -49 39 -325 72 -365 42z"/>
<path d="M1180 2851 c0 -11 -4 -22 -9 -25 -4 -3 -14 -34 -21 -68 -15 -71 -26
-98 -41 -98 -6 0 -30 13 -54 29 -24 16 -54 32 -67 36 -12 4 -32 13 -44 20 -23
15 -174 45 -225 45 -55 0 -173 -32 -190 -52 -9 -10 -19 -15 -23 -13 -3 3 -4 2
-1 -1 2 -4 -2 -16 -10 -28 -19 -26 -20 -135 -2 -179 15 -35 101 -117 123 -117
8 0 14 -4 14 -9 0 -5 14 -12 30 -16 16 -4 30 -10 30 -13 0 -4 13 -8 30 -8 25
-1 28 1 20 16 -7 13 2 27 44 68 64 61 117 84 199 86 84 1 177 -7 177 -16 0 -5
4 -8 10 -8 14 0 45 65 65 135 10 33 21 65 25 70 4 6 14 29 23 53 l17 42 -55
35 c-63 41 -65 41 -65 16z"/>
<path d="M3347 2803 c-4 -3 -7 -259 -7 -567 0 -530 7 -702 30 -744 5 -9 17
-39 26 -66 21 -58 81 -122 127 -134 29 -8 33 -7 34 9 1 11 -2 19 -6 19 -5 0
-9 174 -10 388 -3 506 -9 823 -17 897 -7 60 -34 136 -57 159 -33 34 -103 56
-120 39z"/>
<path d="M5810 2691 c-7 -17 -16 -31 -20 -31 -4 0 -7 -80 -7 -177 0 -98 -5
-209 -12 -248 -17 -102 -59 -211 -109 -285 -44 -65 -155 -180 -173 -180 -21 0
-7 -33 96 -220 25 -47 53 -100 61 -117 16 -36 24 -42 19 -15 -1 9 0 21 3 27 4
5 7 22 8 36 2 29 47 126 120 259 59 108 78 170 90 294 3 27 8 54 11 59 4 6 1
7 -7 2 -9 -6 -12 -4 -7 6 100 231 100 234 100 299 0 57 -5 76 -43 152 -24 48
-60 106 -80 128 l-37 41 -13 -30z"/>
<path d="M443 1819 c9 -5 17 -15 17 -20 0 -6 6 -16 13 -24 78 -84 101 -106
143 -137 27 -19 78 -50 114 -69 36 -19 67 -37 68 -42 2 -4 8 -5 13 -1 5 3 9 0
9 -6 0 -6 5 -8 10 -5 6 3 10 1 10 -4 0 -6 4 -11 9 -11 13 0 7 30 -14 70 -25
48 -85 101 -159 139 -36 19 -66 38 -66 42 0 4 -16 10 -35 13 -19 4 -35 11 -35
16 0 4 -13 11 -29 15 -16 3 -35 13 -42 21 -6 8 -19 14 -28 14 -14 -1 -14 -2 2
-11z"/>
<path d="M4837 1623 c-4 -3 -7 -174 -7 -380 l0 -373 -222 2 -223 3 -5 245 c-3
135 -7 232 -8 217 -1 -16 -8 -43 -16 -60 -8 -18 -21 -53 -30 -78 -32 -99 -132
-212 -237 -269 -88 -48 -122 -60 -209 -72 -84 -12 -367 -14 -447 -3 -45 6 -53
4 -53 -9 0 -9 5 -16 11 -16 5 0 7 5 3 12 -5 7 -3 8 5 4 7 -5 10 -14 7 -22 -3
-9 0 -11 11 -7 9 4 14 2 10 -3 -3 -6 2 -10 11 -11 9 -1 42 -13 72 -26 83 -36
234 -59 387 -58 66 1 84 -2 80 -12 -4 -11 12 -13 76 -9 119 6 260 36 355 77
46 19 90 35 98 35 8 0 14 4 14 8 0 4 17 9 37 9 30 1 42 -5 67 -33 16 -19 34
-34 40 -34 6 0 37 16 68 35 42 25 68 34 97 32 23 -1 37 -5 33 -11 -3 -5 9 0
26 13 35 25 56 56 47 71 -3 5 -1 11 5 15 6 4 7 11 4 17 -4 5 27 44 69 87 41
42 82 91 91 109 9 18 22 30 27 26 8 -4 8 -1 0 13 -8 16 -6 24 12 40 13 11 28
18 33 16 6 -2 17 3 24 12 8 10 9 15 1 15 -6 0 -11 5 -11 11 0 11 -96 206 -137
279 -54 96 -45 90 -132 90 -43 0 -81 -3 -84 -7z"/>
<path d="M2882 1346 c-46 -133 -161 -288 -274 -370 -38 -27 -149 -80 -203 -98
-133 -42 -534 -41 -672 1 -18 5 -33 7 -33 4 0 -3 -6 0 -13 6 -8 6 -17 8 -20 4
-4 -3 -9 2 -13 11 -4 12 -13 15 -28 10 -11 -4 -18 -3 -14 1 4 4 -25 28 -65 54
-73 48 -193 172 -215 224 -14 34 -28 35 -36 2 -33 -132 -173 -270 -321 -317
-85 -27 -546 -51 -568 -29 -5 5 -15 7 -23 4 -33 -13 33 -81 98 -100 110 -32
475 -42 658 -17 78 10 177 50 286 115 94 56 154 80 154 61 0 -4 14 -8 31 -9
17 -1 37 -8 45 -14 8 -6 14 -8 14 -4 0 4 6 2 13 -4 8 -6 17 -8 20 -4 4 3 7 -2
7 -13 0 -16 2 -17 11 -4 8 11 12 12 16 3 2 -7 11 -13 19 -13 9 0 12 -4 9 -10
-4 -6 1 -7 11 -3 11 4 15 3 10 -5 -7 -11 29 -28 52 -24 6 2 12 -2 12 -8 0 -5
6 -10 13 -10 6 0 32 -14 57 -31 39 -26 53 -30 110 -29 189 3 472 -9 485 -20
12 -10 87 -7 135 5 3 1 20 5 38 9 21 5 32 14 32 25 0 12 21 27 63 46 34 15 85
45 112 65 28 20 67 42 88 49 42 14 87 54 87 76 0 8 4 15 10 15 14 0 1 31 -26
60 -44 48 -134 254 -134 307 -1 47 -17 37 -38 -21z"/>
</g>
</svg>
