<?xml version="1.0" encoding="UTF-8"?>
<svg width="620" height="620" version="1.1" viewBox="0 0 620 620" xml:space="preserve" xmlns="http://www.w3.org/2000/svg" xmlns:cc="http://creativecommons.org/ns#" xmlns:dc="http://purl.org/dc/elements/1.1/" xmlns:rdf="http://www.w3.org/1999/02/22-rdf-syntax-ns#" xmlns:xlink="http://www.w3.org/1999/xlink"><metadata><rdf:RDF><cc:Work rdf:about=""><dc:format>image/svg+xml</dc:format><dc:type rdf:resource="http://purl.org/dc/dcmitype/StillImage"/><dc:title/></cc:Work></rdf:RDF></metadata><defs><clipPath id="clipPath999"><path d="m0 1080h1920v-1080h-1920z"/></clipPath><linearGradient id="linearGradient1879" x1="617.81" x2="1617.8" y1="212.01" y2="1207.9" gradientTransform="matrix(.6 0 0 .6 -360.47 -115.57)" gradientUnits="userSpaceOnUse"><stop stop-color="#562dde" offset="0"/><stop stop-color="#ac38e1" offset="1"/></linearGradient></defs><g><circle cx="311.56" cy="309.75" r="300" fill="url(#linearGradient1879)"/></g><g transform="matrix(1.3333 0 0 -1.3333 0 1440)"><g transform="matrix(.5023 0 0 .50742 -185.78 566.78)" fill="#fff" stroke="#fff" stroke-linejoin="round" stroke-width="5.3481"><g clip-path="url(#clipPath999)" fill="#fff" stroke="#fff" stroke-linejoin="round" stroke-width="5.3481"><g transform="translate(1036.8 741.72)"><path d="m0 0c-53.534 49.02-122.31 73.536-206.35 73.536h-185.34v-75.787h177.84c66.033 0 117.3-16.766 153.82-50.274 37.014-34.024 55.527-79.539 55.527-136.57 0-57.028-18.513-102.55-55.527-136.57-36.522-33.519-87.792-50.273-153.82-50.273h-177.84v-75.787h185.34c84.533 0 153.32 24.258 206.35 72.785 53.521 49.019 80.289 112.3 80.289 189.84 0 77.029-26.768 140.06-80.289 189.09" fill="#fff" stroke="#fff" stroke-linejoin="round" stroke-width="5.3481"/></g><g><path d="m645.07 576.9h82.54v-222.2l-82.54 11.084z"/><path d="m1160.9 564.9h-191.07v31.894h191.07z"/><path d="m1188.4 508.73h-218.66v31.894h218.66z"/></g></g></g></g></svg>
