<?xml version="1.0" encoding="utf-8"?>
<!-- Generator: Adobe Illustrator 25.2.3, SVG Export Plug-In . SVG Version: 6.00 Build 0)  -->
<svg version="1.1" id="Layer_1" xmlns="http://www.w3.org/2000/svg" xmlns:xlink="http://www.w3.org/1999/xlink" x="0px" y="0px"
	 viewBox="0 0 143.13 142.57" style="enable-background:new 0 0 143.13 142.57;" xml:space="preserve">
<style type="text/css">
	.st0{fill:#58595B;}
</style>
<g>
	<path class="st0" d="M0,94.47C0,62.98,0,31.49,0,0c20.57,0,41.14,0,61.71,0C72.81,15.07,83.91,30.14,95,45.21
		c0,12.9,0,25.8,0,38.71C80.21,63.98,65.41,44.04,50.62,24.1c-8.75,0-17.51,0-26.26,0c0,34.28,0,68.57,0,102.85
		C16.24,116.13,8.12,105.3,0,94.47z"/>
	<path class="st0" d="M143.13,48.1c0,31.49,0,62.98,0,94.47c-20.57,0-41.14,0-61.71,0c-11.1-15.07-22.19-30.14-33.29-45.21
		c0-12.9,0-25.8,0-38.71c14.8,19.94,29.59,39.88,44.39,59.82c8.75,0,17.51,0,26.26,0c0-34.28,0-68.57,0-102.85
		C126.89,26.45,135.01,37.27,143.13,48.1z"/>
</g>
</svg>
