<?xml version="1.0" standalone="no"?>
<!DOCTYPE svg PUBLIC "-//W3C//DTD SVG 20010904//EN"
 "http://www.w3.org/TR/2001/REC-SVG-20010904/DTD/svg10.dtd">
<svg version="1.0" xmlns="http://www.w3.org/2000/svg"
 width="384.000000pt" height="384.000000pt" viewBox="0 0 384.000000 384.000000"
 preserveAspectRatio="xMidYMid meet">
<metadata>
Created by potrace 1.10, written by Peter Selinger 2001-2011
</metadata>
<g transform="translate(0.000000,384.000000) scale(0.100000,-0.100000)"
fill="#cd853f" stroke="none">
<path d="M1760 3751 c-88 -4 -144 -11 -160 -20 -13 -8 -43 -13 -65 -13 -22 1
-53 -5 -69 -13 -15 -8 -40 -15 -55 -15 -15 0 -36 -7 -47 -15 -10 -8 -28 -15
-39 -15 -11 0 -37 -9 -58 -20 -20 -11 -43 -20 -51 -20 -7 0 -19 -7 -26 -15 -7
-8 -23 -15 -35 -15 -12 0 -28 -7 -35 -15 -7 -8 -18 -15 -25 -15 -6 0 -32 -11
-56 -25 -24 -13 -53 -29 -64 -34 -32 -15 -146 -93 -200 -136 -61 -49 -236
-223 -289 -287 -47 -57 -136 -186 -136 -198 0 -5 -6 -15 -13 -22 -22 -23 -147
-285 -147 -308 0 -7 -9 -28 -21 -46 -12 -20 -18 -42 -14 -53 3 -11 -3 -33 -14
-52 -11 -18 -18 -36 -15 -40 2 -4 -3 -34 -12 -66 -9 -32 -21 -98 -27 -148 -19
-169 -11 -508 14 -575 5 -14 14 -48 19 -75 13 -73 37 -151 61 -204 11 -25 28
-62 36 -81 9 -19 20 -43 24 -52 5 -10 9 -23 9 -30 0 -35 113 -224 209 -353 60
-79 230 -250 305 -306 78 -58 167 -119 173 -119 3 0 24 -13 47 -28 22 -15 62
-38 88 -51 27 -12 50 -27 54 -32 3 -5 13 -9 23 -9 10 0 24 -7 31 -15 7 -8 25
-15 40 -15 15 0 33 -7 40 -15 7 -8 25 -15 40 -15 15 0 33 -7 40 -15 7 -9 29
-15 55 -15 26 0 48 -6 55 -15 8 -10 30 -15 65 -15 32 0 57 -5 64 -14 31 -38
651 -38 706 0 11 8 40 14 66 14 29 0 51 6 59 15 7 8 29 15 50 15 21 0 43 7 50
15 7 8 28 15 47 15 21 0 36 6 39 15 4 8 16 15 29 15 12 0 28 7 35 15 7 8 20
15 30 15 20 0 185 83 210 105 9 8 20 15 24 15 5 0 25 14 46 30 21 17 41 30 44
30 9 0 15 5 126 103 89 80 218 214 249 261 8 12 31 44 52 71 21 28 43 61 49
75 6 14 24 43 40 65 16 22 29 48 30 57 0 9 4 19 9 22 11 7 51 88 51 103 0 6 7
16 15 23 8 7 15 24 15 39 0 14 7 35 15 45 8 11 15 32 15 47 0 14 7 32 15 39 9
8 15 30 15 60 0 30 6 52 15 60 9 8 15 30 15 60 0 26 7 64 15 83 21 52 21 550
0 587 -8 14 -15 48 -15 75 0 28 -7 61 -15 75 -8 14 -15 39 -15 55 0 17 -7 39
-15 49 -8 11 -15 32 -15 47 0 14 -7 32 -15 39 -8 7 -15 25 -15 40 0 15 -7 33
-15 40 -8 7 -15 20 -15 30 0 10 -7 23 -15 30 -8 7 -15 19 -15 27 0 36 -89 182
-206 339 -65 87 -263 279 -339 329 -30 21 -55 40 -55 43 0 4 -20 16 -45 27
-24 10 -47 25 -49 32 -3 7 -12 13 -20 13 -8 0 -21 6 -28 13 -7 6 -31 20 -53
31 -22 10 -47 22 -55 27 -8 5 -22 12 -30 15 -8 3 -27 12 -42 20 -14 8 -35 14
-46 14 -11 0 -25 6 -31 14 -7 8 -28 17 -48 21 -20 3 -47 13 -59 22 -14 9 -35
13 -52 10 -17 -3 -34 1 -45 11 -10 9 -34 16 -55 17 -20 1 -62 8 -92 17 -64 19
-277 27 -480 19z m430 -61 c8 -4 53 -11 100 -15 46 -4 93 -13 104 -21 11 -8
33 -14 47 -14 27 0 109 -46 109 -62 0 -4 14 -8 30 -8 17 0 30 -4 30 -10 0 -5
6 -10 14 -10 8 0 22 -8 32 -17 9 -10 28 -16 41 -15 55 8 203 -73 297 -162 28
-25 53 -46 57 -46 4 0 22 -14 40 -31 18 -17 51 -44 74 -59 47 -32 163 -154
178 -187 6 -13 14 -23 19 -23 4 0 8 -6 8 -13 0 -8 14 -33 30 -55 17 -23 30
-44 30 -47 0 -3 14 -24 30 -47 17 -22 30 -49 30 -60 0 -10 5 -18 10 -18 6 0
15 -12 21 -27 6 -16 32 -73 59 -128 51 -103 75 -175 71 -210 -1 -12 5 -34 13
-50 9 -17 16 -40 16 -52 0 -12 12 -68 26 -123 24 -92 25 -112 20 -228 -3 -70
-8 -154 -11 -187 -3 -33 -7 -94 -9 -135 -4 -79 -35 -231 -56 -269 -6 -12 -20
-31 -31 -42 -10 -10 -19 -28 -19 -38 0 -11 -4 -23 -10 -26 -6 -3 -10 -17 -10
-29 0 -13 -6 -29 -14 -35 -7 -6 -16 -28 -20 -49 -8 -55 -81 -194 -130 -250
-23 -26 -57 -67 -76 -92 -155 -204 -203 -248 -415 -386 -27 -18 -55 -38 -62
-43 -6 -6 -47 -27 -90 -46 -43 -20 -85 -40 -93 -45 -66 -40 -174 -80 -275
-100 -33 -6 -82 -18 -110 -25 -163 -44 -333 -63 -407 -46 -29 6 -116 16 -193
22 -190 14 -235 20 -235 30 0 4 -16 11 -37 15 -20 4 -48 13 -62 20 -14 8 -32
14 -39 14 -7 0 -15 7 -18 15 -4 8 -14 15 -23 15 -9 0 -25 7 -35 15 -11 8 -30
15 -43 15 -13 0 -23 4 -23 9 0 5 -17 12 -37 15 -62 11 -264 135 -317 195 -11
11 -23 21 -28 21 -5 0 -15 6 -22 12 -7 7 -39 36 -72 63 -62 53 -142 133 -175
175 -29 37 -159 239 -170 263 -5 12 -13 30 -19 40 -21 36 -30 54 -55 107 -14
30 -30 63 -35 72 -6 10 -10 26 -10 35 0 10 -7 27 -15 37 -8 11 -15 29 -15 40
0 12 -6 41 -14 66 -15 47 -34 133 -63 290 -20 108 -21 307 -1 343 6 12 12 68
13 127 0 61 6 114 13 127 7 12 12 40 12 63 0 27 5 43 15 46 9 4 15 19 15 35 0
16 9 38 20 49 11 11 20 31 20 45 0 14 7 28 15 31 8 4 15 18 15 34 0 15 7 33
15 40 8 7 15 20 15 29 0 9 7 25 15 35 8 11 15 28 15 37 0 25 93 177 137 225
21 22 64 71 95 110 127 154 241 255 356 313 15 7 36 22 47 32 12 10 93 54 180
97 151 74 258 112 322 112 15 0 37 7 47 15 11 8 37 15 59 15 21 0 53 7 70 15
18 8 57 16 87 18 81 6 443 -4 460 -13z"/>
<path d="M1935 3670 c-4 -6 -37 -10 -73 -10 -87 1 -192 -10 -192 -20 0 -4 17
-19 38 -34 22 -15 56 -51 78 -81 45 -63 75 -72 93 -27 19 45 38 75 70 111 36
40 41 71 12 71 -11 0 -23 -5 -26 -10z"/>
<path d="M2214 3645 c-3 -7 7 -33 22 -57 46 -71 74 -132 68 -151 -9 -29 26
-34 48 -6 30 40 92 99 104 99 15 0 56 45 47 53 -3 4 -16 7 -28 7 -13 0 -28 7
-35 15 -8 10 -28 14 -61 13 -35 -2 -52 2 -61 14 -17 21 -97 31 -104 13z"/>
<path d="M2057 3577 c-20 -29 -50 -68 -67 -87 -17 -19 -29 -39 -27 -44 3 -10
111 -25 202 -30 34 -1 46 24 23 51 -7 9 -25 48 -39 87 -15 39 -33 72 -41 74
-8 1 -31 -21 -51 -51z"/>
<path d="M1540 3576 c-11 -26 -20 -56 -20 -67 0 -10 -13 -40 -29 -66 -22 -35
-27 -51 -19 -60 15 -18 44 -16 87 6 41 22 103 36 144 32 53 -5 44 25 -31 97
-123 118 -108 112 -132 58z"/>
<path d="M1370 3570 c-19 -11 -43 -20 -52 -20 -10 0 -26 -4 -36 -9 -9 -6 -29
-12 -43 -15 -15 -3 -37 -14 -50 -25 l-24 -19 50 -24 c28 -13 76 -40 107 -61
32 -21 62 -36 68 -32 5 3 10 33 10 66 0 45 5 67 21 88 23 31 22 65 -1 68 -8 1
-31 -7 -50 -17z"/>
<path d="M2563 3472 c-11 -15 -48 -43 -82 -61 -66 -35 -77 -57 -33 -67 40 -11
134 -53 153 -70 9 -8 24 -12 33 -8 14 5 16 14 12 38 -4 17 -11 63 -17 101 -5
39 -11 76 -14 83 -7 20 -30 14 -52 -16z"/>
<path d="M2727 3473 c-12 -11 -7 -86 8 -128 8 -22 15 -57 15 -77 0 -21 5 -38
11 -38 6 0 43 16 83 35 40 19 83 35 95 35 15 0 21 6 21 23 0 17 -14 31 -57 56
-32 19 -81 49 -109 68 -55 36 -57 36 -67 26z"/>
<path d="M1010 3405 c-9 -11 -9 -37 -1 -102 5 -48 9 -101 8 -117 -3 -42 14
-42 68 3 27 22 68 50 92 63 32 17 43 28 41 43 -2 11 -11 21 -21 23 -10 2 -46
23 -80 46 -77 53 -93 58 -107 41z"/>
<path d="M1725 3373 c-16 -3 -61 -15 -100 -28 -38 -12 -95 -26 -125 -29 -55
-7 -103 -23 -170 -55 -72 -36 -156 -84 -176 -102 -11 -11 -23 -19 -26 -19 -4
0 -30 -15 -59 -32 -103 -64 -268 -228 -349 -348 -8 -12 -25 -36 -38 -53 -20
-28 -40 -67 -96 -192 -8 -16 -22 -50 -31 -74 -9 -25 -25 -57 -36 -72 -11 -16
-19 -44 -19 -66 0 -21 -6 -47 -14 -58 -9 -14 -13 -49 -13 -112 0 -62 -4 -97
-13 -108 -9 -11 -14 -52 -15 -128 -1 -91 2 -119 17 -147 11 -20 18 -56 18 -87
0 -52 15 -79 27 -47 3 9 0 56 -7 103 -7 47 -12 111 -11 141 3 110 11 216 21
260 38 179 53 241 66 257 7 10 14 27 14 39 0 20 20 70 40 104 5 8 18 35 30 60
23 52 18 43 93 154 104 152 289 320 442 401 39 21 77 44 86 51 8 8 20 14 26
14 6 0 16 7 23 15 7 8 25 15 40 15 15 0 33 7 40 15 7 8 27 15 45 15 18 0 38 6
44 14 6 7 34 16 62 19 28 4 57 12 65 18 14 12 157 21 314 20 47 0 120 -1 163
-1 44 0 94 -7 111 -14 18 -8 53 -17 77 -21 24 -4 56 -14 71 -21 15 -8 39 -14
53 -14 14 0 28 -7 31 -15 4 -8 19 -15 34 -15 16 0 31 -4 34 -9 4 -5 27 -19 54
-31 26 -12 54 -25 62 -30 77 -46 111 -69 150 -100 25 -21 59 -45 75 -55 64
-38 257 -277 319 -395 7 -14 27 -51 44 -83 18 -31 32 -66 32 -76 0 -10 7 -24
15 -31 8 -7 15 -27 15 -45 0 -18 9 -42 20 -55 13 -15 20 -37 20 -65 0 -24 7
-60 17 -81 24 -57 23 -476 -1 -525 -9 -18 -16 -48 -16 -68 0 -20 -7 -49 -15
-65 -8 -15 -15 -36 -15 -45 0 -10 -7 -26 -15 -37 -8 -10 -15 -27 -15 -38 0
-22 -64 -157 -94 -201 -12 -16 -29 -46 -40 -65 -10 -19 -26 -44 -36 -55 -10
-11 -31 -38 -47 -61 -38 -56 -236 -238 -292 -268 -9 -5 -42 -26 -73 -47 -32
-22 -61 -39 -65 -39 -5 0 -28 -14 -52 -30 -24 -17 -54 -30 -66 -30 -12 0 -33
-8 -46 -18 -13 -11 -39 -22 -57 -25 -28 -6 -34 -3 -42 18 -6 17 -5 34 3 55 10
22 11 50 4 111 -6 53 -6 84 1 91 14 14 50 0 57 -23 8 -23 41 -43 61 -35 11 4
13 16 8 46 l-7 41 41 -7 c41 -6 41 -6 64 40 12 25 28 46 35 46 7 0 22 9 33 20
16 16 19 29 15 53 -5 26 1 43 30 87 19 30 35 65 35 78 0 14 14 40 31 59 27 31
30 40 24 75 -7 39 -41 83 -80 103 -10 6 -22 25 -26 43 -4 18 -18 50 -33 72
-14 22 -26 49 -26 60 0 25 -22 35 -47 22 -14 -8 -25 -3 -53 25 -81 81 -236
183 -278 183 -11 0 -25 7 -32 15 -7 8 -18 15 -25 15 -15 0 -109 27 -145 42
-38 16 -89 28 -158 38 -35 4 -66 11 -70 14 -29 29 124 42 156 13 14 -12 28
-15 52 -11 l32 7 -58 33 c-57 32 -93 42 -107 27 -4 -4 -50 -8 -101 -9 -82 -2
-102 -7 -156 -33 -34 -17 -67 -31 -74 -31 -6 0 -23 -12 -37 -27 -14 -16 -48
-39 -75 -52 -27 -14 -67 -42 -89 -63 -28 -27 -47 -37 -62 -35 -15 3 -23 -1
-23 -9 0 -8 -9 -19 -20 -26 -11 -7 -20 -18 -20 -25 0 -18 -42 -45 -54 -33 -19
19 33 140 60 140 8 0 43 29 79 65 36 36 73 65 83 65 9 0 23 9 30 21 13 20 14
20 32 4 19 -17 20 -17 29 7 9 24 28 43 61 63 10 5 38 22 62 37 34 21 59 28
109 31 35 1 70 6 77 11 7 4 47 4 90 1 74 -7 128 -27 145 -52 10 -16 43 -17 52
-3 16 26 -94 100 -149 100 -14 0 -28 5 -31 10 -10 16 -82 12 -89 -5 -3 -9 -18
-15 -36 -15 -17 0 -40 -5 -51 -11 -18 -9 -20 -8 -17 13 2 13 11 24 23 27 36 6
75 41 75 67 0 22 4 24 50 24 27 0 62 -5 77 -11 56 -23 134 -62 139 -70 3 -5
15 -9 26 -9 12 0 46 -12 75 -26 52 -24 56 -25 74 -8 12 11 19 30 19 54 0 20 7
45 15 56 8 10 15 28 15 39 0 11 8 28 18 36 11 9 33 41 51 72 29 51 33 55 59
48 25 -7 27 -11 27 -63 0 -63 5 -73 33 -64 16 5 20 15 18 45 -1 22 -8 46 -15
55 -15 18 -6 38 16 34 8 -2 22 7 30 20 14 21 14 22 -6 22 -12 0 -24 -7 -27
-15 -10 -26 -48 -17 -67 15 -22 36 -35 38 -43 6 -7 -29 -46 -50 -63 -33 -17
17 -13 52 9 72 11 10 20 28 20 41 0 30 37 114 50 114 5 0 10 6 10 13 0 19 79
169 109 206 l28 34 45 -21 c49 -25 68 -28 50 -10 -7 7 -12 20 -12 30 0 42 -75
50 -125 12 -38 -29 -95 -112 -95 -138 0 -10 -9 -29 -20 -43 -11 -14 -20 -32
-20 -40 0 -7 -11 -31 -24 -52 -14 -21 -28 -56 -32 -77 -4 -22 -14 -55 -22 -74
l-15 -35 -12 34 c-6 19 -20 37 -30 41 -16 6 -14 10 18 36 23 18 37 38 37 52 0
26 -7 28 -29 8 -26 -24 -48 -4 -33 29 7 14 12 42 12 61 0 38 15 74 30 74 5 0
13 -18 16 -40 6 -34 10 -40 30 -40 25 0 32 18 14 36 -5 5 -11 31 -13 57 -3 25
-10 54 -17 62 -11 13 -10 21 5 48 16 31 16 34 -1 75 -11 24 -25 42 -35 42 -30
0 -57 -43 -65 -100 -3 -30 -15 -64 -24 -75 -15 -16 -17 -28 -10 -65 5 -25 6
-58 3 -75 -9 -54 -11 -57 -33 -45 -31 16 -41 -18 -12 -38 26 -17 28 -35 7 -52
-8 -7 -17 -27 -21 -46 -6 -33 -39 -64 -68 -64 -22 0 -25 21 -10 59 8 18 14 49
14 68 0 47 28 154 46 174 8 8 14 29 14 45 0 17 10 38 24 51 16 15 25 38 29 73
5 42 13 56 44 85 21 19 48 35 60 35 26 0 35 12 27 34 -13 33 -64 15 -121 -41
-41 -41 -64 -85 -66 -128 -2 -19 -8 -40 -15 -47 -7 -7 -12 -19 -12 -29 0 -9
-9 -28 -21 -43 -20 -26 -21 -48 -4 -88 5 -13 3 -18 -9 -18 -24 0 -38 -36 -28
-73 10 -35 6 -57 -13 -72 -25 -20 -27 -53 -5 -75 17 -17 21 -32 19 -73 -1 -29
2 -60 6 -69 4 -10 0 -31 -8 -48 -9 -17 -11 -32 -6 -36 14 -8 11 -34 -4 -34
-40 0 -62 71 -29 96 16 13 16 15 0 28 -10 7 -18 27 -18 44 0 38 -9 62 -22 62
-7 0 -9 -18 -5 -49 4 -35 1 -54 -9 -70 -10 -14 -13 -32 -9 -50 4 -21 2 -30 -9
-34 -42 -16 -74 41 -50 88 8 15 14 34 14 42 0 8 9 27 21 41 12 16 18 34 15 48
-4 13 0 27 9 34 8 7 15 21 15 32 0 10 6 21 13 24 20 7 15 73 -6 89 -25 18 -21
31 18 54 20 12 35 28 35 39 0 25 -41 62 -70 62 -21 0 -22 1 -8 18 9 9 19 38
22 64 8 52 24 71 58 66 18 -2 23 -9 23 -32 0 -16 5 -31 12 -33 15 -5 26 31 18
57 -3 10 -1 29 5 41 12 22 6 69 -9 69 -5 0 -14 -13 -20 -30 -6 -20 -17 -30
-30 -30 -11 0 -32 -5 -46 -12 -42 -19 -41 0 4 40 l42 38 -23 27 c-23 26 -58
37 -58 17 0 -5 -7 -10 -15 -10 -9 0 -15 9 -15 25 0 19 7 26 33 33 24 7 35 6
43 -4 15 -18 44 -18 44 0 0 29 -29 45 -78 42 -35 -2 -48 -7 -50 -19 -2 -9 -7
-17 -12 -17 -4 0 -24 -28 -44 -62 -33 -55 -37 -68 -37 -132 0 -39 -6 -93 -14
-121 -8 -27 -13 -85 -13 -128 1 -42 -1 -80 -5 -83 -3 -3 -19 4 -36 17 -28 20
-31 28 -31 75 0 41 5 58 21 73 16 15 19 24 11 37 -9 15 -11 14 -25 -11 -14
-29 -14 -29 -26 -7 -10 18 -9 28 6 53 17 29 17 31 0 43 -13 10 -15 21 -11 45
4 18 2 37 -5 45 -6 7 -8 26 -5 44 5 24 2 32 -14 41 -18 9 -22 8 -28 -12 -8
-25 -8 -133 1 -257 11 -146 9 -290 -2 -301 -7 -7 -9 -18 -6 -25 7 -20 -4 -17
-26 5 -15 15 -18 28 -14 61 4 25 1 51 -7 65 -11 21 -10 31 5 65 18 40 18 41
-2 62 -14 14 -27 18 -42 13 -27 -8 -28 -35 -1 -35 26 0 25 -11 -1 -44 -23 -29
-22 -31 12 -98 14 -27 11 -38 -11 -38 -11 0 -20 4 -20 9 0 5 -8 17 -17 26 -12
13 -14 21 -6 33 7 12 5 20 -10 32 -19 15 -19 17 -2 34 15 15 16 21 5 41 -7 13
-10 35 -8 49 4 18 1 26 -8 26 -17 0 -15 -9 -20 83 -2 43 -11 91 -19 108 -18
34 -5 39 27 9 45 -41 52 -16 11 36 -33 41 -74 45 -115 11 -25 -21 -32 -36 -29
-64 1 -18 28 -16 35 2 9 23 28 18 21 -5 -4 -13 2 -37 15 -63 16 -30 20 -51 16
-77 -4 -26 0 -48 14 -75 21 -41 19 -55 -8 -55 -33 1 -53 46 -57 125 -4 89 -8
98 -40 83 -27 -12 -31 -23 -15 -33 7 -4 8 -24 5 -50 -5 -27 -3 -45 4 -49 7 -4
11 -40 11 -87 0 -62 -3 -81 -15 -85 -28 -11 -40 13 -43 83 -4 100 -24 188 -42
188 -21 0 -25 -70 -6 -114 8 -20 17 -79 21 -131 3 -52 6 -111 8 -130 2 -30 -1
-35 -20 -38 -18 -3 -23 -10 -23 -33 0 -34 -14 -38 -30 -9 -16 31 -33 13 -25
-27 4 -21 2 -40 -6 -49 -18 -22 -29 -17 -29 15 0 21 -6 32 -19 36 -18 5 -19
14 -15 93 3 65 9 90 21 99 12 10 14 22 9 61 -5 38 -3 52 9 62 22 19 29 6 25
-47 -5 -80 -3 -104 9 -116 16 -16 43 13 41 44 0 13 -3 56 -6 94 -3 39 -5 98
-5 131 0 41 -4 66 -13 73 -16 14 -19 10 -36 -42 -9 -30 -9 -41 1 -53 11 -14
10 -18 -6 -30 -10 -8 -25 -14 -32 -14 -7 0 -17 -25 -25 -61 -11 -55 -16 -63
-43 -75 -33 -14 -60 -70 -44 -95 4 -7 4 -20 0 -28 -5 -9 -11 -33 -15 -55 -6
-29 -3 -42 10 -57 14 -16 15 -23 5 -45 -9 -20 -9 -41 -2 -78 5 -28 13 -86 16
-128 4 -43 11 -80 16 -84 5 -3 9 -18 9 -33 0 -15 7 -36 15 -47 8 -10 15 -28
15 -39 0 -11 6 -29 14 -40 20 -30 44 -143 44 -210 0 -44 7 -75 25 -112 22 -46
23 -57 14 -103 -7 -36 -7 -58 1 -75 6 -14 9 -32 6 -40 -4 -8 1 -27 11 -41 13
-20 15 -37 10 -70 -4 -30 -2 -53 8 -71 26 -49 47 -103 47 -118 0 -19 29 -19
54 0 11 8 23 15 27 15 8 0 24 -119 21 -157 -2 -25 23 -89 38 -98 5 -3 10 -13
10 -22 0 -9 7 -24 16 -34 15 -16 18 -45 22 -196 2 -50 3 -52 40 -64 20 -6 43
-16 49 -21 7 -6 25 -8 40 -5 15 3 41 -2 56 -10 18 -9 71 -16 140 -20 62 -2
126 -8 142 -13 17 -4 53 -5 80 -2 47 7 50 9 47 35 -4 35 4 34 24 -4 15 -29 18
-31 57 -25 23 4 66 6 95 6 30 -1 59 3 66 9 7 6 48 15 92 21 73 10 139 31 206
66 14 8 33 14 42 14 9 0 16 3 16 8 0 4 23 21 51 37 158 93 205 128 304 229
119 121 161 169 181 208 8 15 19 28 24 28 6 0 10 6 10 14 0 7 6 19 14 25 7 6
28 46 46 89 17 42 38 89 46 104 8 14 14 33 14 41 0 8 9 26 20 40 11 14 20 35
20 47 0 12 7 28 15 36 9 10 15 34 15 63 0 26 5 52 10 57 6 6 12 64 14 130 1
65 8 131 14 147 6 15 10 46 7 70 -7 74 -32 220 -50 292 -9 39 -21 90 -25 115
-5 25 -15 59 -24 75 -9 17 -16 35 -16 41 0 6 -7 17 -15 24 -8 7 -15 19 -15 26
0 16 -37 79 -128 218 -75 114 -157 205 -251 278 -36 29 -74 59 -83 67 -9 9
-23 21 -30 26 -20 16 -118 75 -124 75 -3 0 -31 12 -62 26 -31 14 -68 30 -82
36 -14 5 -43 19 -65 31 -22 11 -62 26 -90 33 -27 7 -75 19 -105 27 -56 16
-452 31 -515 20z m210 -279 c0 -14 -6 -18 -22 -16 -18 2 -24 -4 -31 -30 -10
-37 -7 -48 14 -48 9 0 14 -11 14 -32 0 -40 -9 -55 -35 -59 -27 -6 -30 -31 -5
-59 23 -27 27 -82 5 -100 -12 -10 -19 -1 -45 54 -16 37 -30 71 -30 76 0 4 11
17 25 28 26 20 33 46 15 57 -17 10 -11 98 8 122 28 35 87 40 87 7z m35 -299
c0 -8 -7 -15 -15 -15 -8 0 -15 7 -15 15 0 8 7 15 15 15 8 0 15 -7 15 -15z
m-150 -18 c0 -8 7 -28 16 -46 15 -30 19 -86 12 -156 -2 -24 -8 -31 -30 -33
-33 -4 -40 14 -32 88 3 30 6 69 5 85 0 43 8 75 19 75 6 0 10 -6 10 -13z m-388
-128 c2 -24 -1 -44 -9 -50 -7 -6 -15 -37 -19 -70 -4 -40 -11 -59 -20 -59 -19
0 -27 42 -21 111 3 34 0 72 -6 90 -10 27 -9 32 7 45 18 12 22 12 42 -7 14 -13
24 -36 26 -60z m776 -6 c-4 -22 -22 -20 -26 1 -2 10 3 16 13 16 10 0 15 -7 13
-17z m-884 -32 c17 -31 6 -51 -26 -51 -23 0 -32 22 -24 55 8 33 32 32 50 -4z
m409 1 c22 -50 72 -121 90 -127 18 -7 24 -35 7 -35 -5 0 -18 -9 -29 -21 -15
-17 -29 -20 -67 -17 -31 2 -49 -1 -51 -9 -3 -8 4 -13 16 -13 22 0 22 -7 4 -72
-4 -18 -47 -25 -57 -10 -9 15 -8 117 3 167 6 28 13 70 17 95 11 74 44 95 67
42z m502 -79 c14 -30 17 -53 12 -121 -4 -47 -13 -94 -21 -106 -12 -20 -12 -24
1 -32 12 -8 12 -13 -2 -42 -21 -42 -51 -40 -48 3 1 16 -2 34 -7 40 -7 8 -5 27
5 55 8 23 15 60 15 81 0 21 5 41 10 44 13 8 13 42 0 50 -16 10 -53 -74 -46
-106 4 -22 1 -31 -14 -39 -17 -9 -20 -21 -20 -75 0 -35 -4 -66 -8 -69 -4 -2
-18 4 -31 13 l-23 18 16 65 c9 35 16 78 16 96 0 17 4 33 9 36 5 3 12 18 15 33
8 33 64 92 87 92 10 1 24 -15 34 -36z m-745 17 c0 -5 11 -12 24 -16 18 -4 22
-11 18 -26 -2 -11 -11 -22 -18 -25 -20 -8 -17 -23 5 -23 30 0 62 -65 62 -124
0 -11 4 -27 9 -36 13 -24 -26 -62 -41 -40 -26 40 -32 58 -33 100 -1 38 -4 45
-22 48 -26 4 -38 -22 -23 -49 5 -11 11 -46 12 -77 2 -55 1 -57 -25 -60 l-28
-3 -2 78 c-3 132 3 217 18 241 14 22 44 31 44 12z m-159 -48 c3 -32 12 -58 23
-71 7 -9 18 -56 24 -106 7 -49 15 -100 18 -112 4 -15 0 -24 -15 -33 -32 -17
-41 -4 -41 60 0 38 -5 64 -14 73 -8 8 -16 34 -18 57 -4 51 -28 69 -28 21 0
-36 -15 -41 -23 -9 -7 25 11 117 25 135 10 13 47 1 49 -15z m-291 -76 c0 -8
-4 -18 -10 -21 -5 -3 -10 3 -10 14 0 12 5 21 10 21 6 0 10 -6 10 -14z m159
-35 c12 -16 21 -44 21 -61 l0 -33 45 6 45 7 0 -56 c0 -47 -3 -57 -20 -61 -23
-6 -24 -9 -9 -52 23 -65 -19 -111 -55 -59 -12 17 -18 19 -30 9 -12 -10 -12
-16 1 -42 18 -35 11 -59 -16 -59 -35 0 -70 87 -41 105 6 3 10 14 10 24 0 10 6
24 14 30 11 10 17 7 29 -10 15 -21 16 -21 19 12 2 29 7 35 31 37 19 2 27 9 27
23 0 26 -26 24 -66 -6 -18 -14 -35 -25 -38 -25 -4 0 -3 17 0 39 5 33 3 39 -15
44 -22 5 -29 31 -11 42 6 3 10 28 10 54 0 70 15 80 49 32z m609 -4 c13 -15 1
-79 -15 -84 -14 -5 -43 24 -43 43 0 43 36 68 58 41z m-708 -69 c0 -7 -4 -19
-9 -26 -6 -10 -10 -10 -20 2 -7 8 -10 20 -6 26 9 14 35 13 35 -2z m683 -54 c4
-4 -27 -27 -68 -51 -41 -24 -75 -48 -75 -53 0 -18 -40 -32 -55 -20 -19 16 -69
4 -134 -32 -52 -29 -81 -31 -81 -6 0 17 61 78 78 78 8 0 26 6 40 14 38 20 158
56 187 56 13 0 27 5 30 10 7 11 68 14 78 4z m-263 -188 c0 -7 -8 -17 -17 -20
-30 -11 -66 -33 -92 -59 -15 -13 -45 -36 -68 -50 -23 -15 -50 -38 -59 -52 -9
-14 -22 -25 -30 -25 -7 0 -19 -10 -25 -22 -7 -13 -18 -29 -26 -36 -7 -7 -13
-20 -13 -28 0 -8 -7 -14 -15 -14 -17 0 -21 45 -5 55 6 3 10 16 10 28 0 15 18
37 54 66 30 23 67 60 82 82 22 32 33 39 59 39 32 0 90 23 100 41 9 14 45 11
45 -5z m-200 -26 c-12 -23 -30 -27 -30 -6 0 8 8 17 18 19 9 3 18 5 20 6 1 0
-2 -8 -8 -19z m-40 -35 c0 -8 -4 -15 -8 -15 -5 0 -14 -11 -20 -25 -6 -14 -18
-25 -26 -25 -9 0 -20 -9 -26 -19 -13 -25 -47 -36 -65 -21 -22 18 -18 30 8 30
28 0 67 26 67 45 0 8 12 20 28 28 36 20 42 20 42 2z m450 -85 c0 -16 -41 -33
-52 -22 -6 6 -7 15 -4 21 9 14 56 15 56 1z m-30 -59 c0 -14 -18 -23 -30 -16
-6 4 -8 11 -5 16 8 12 35 12 35 0z m156 -15 c20 -21 18 -26 -12 -26 -19 0 -25
-5 -22 -17 5 -25 39 -29 55 -7 13 17 15 17 58 -4 31 -15 45 -28 45 -42 0 -23
1 -24 34 -8 21 9 29 8 44 -5 10 -10 27 -17 38 -17 10 0 30 -16 43 -35 23 -34
41 -38 41 -9 0 8 7 14 15 14 8 0 15 -9 15 -20 0 -33 28 -90 43 -90 21 0 47
-44 47 -78 0 -33 45 -142 59 -142 5 0 26 17 47 38 45 43 74 44 74 5 0 -15 7
-35 16 -45 15 -16 16 -26 5 -90 -13 -80 -37 -135 -82 -186 -16 -18 -29 -38
-29 -44 0 -18 -31 -48 -50 -48 -11 0 -20 10 -24 25 -4 14 -13 25 -21 25 -26 0
-17 -42 16 -76 24 -25 30 -37 23 -51 -4 -10 -8 -34 -9 -53 0 -30 -4 -36 -25
-38 -39 -6 -45 -19 -18 -44 21 -20 25 -33 26 -92 1 -39 -3 -75 -9 -82 -6 -8
-9 -27 -6 -43 6 -27 4 -29 -34 -34 -22 -3 -48 -12 -58 -21 -30 -28 -51 -20
-49 17 3 29 1 32 -27 33 -50 2 -78 21 -71 50 5 20 3 24 -18 24 -23 0 -24 -2
-14 -32 6 -18 15 -41 19 -50 8 -15 5 -17 -24 -12 -57 10 -59 12 -52 43 7 34
-12 52 -30 28 -6 -8 -44 -27 -84 -41 -68 -24 -75 -24 -108 -11 -19 8 -39 12
-44 10 -9 -6 -65 20 -91 42 -11 10 -18 11 -23 4 -6 -10 -45 -16 -45 -7 0 2 -3
11 -6 20 -4 10 -1 16 9 16 19 0 59 36 76 68 6 12 18 22 25 22 8 0 19 7 26 15
14 17 53 20 81 5 16 -9 25 -6 51 21 25 25 29 34 21 48 -6 9 -17 14 -25 12 -38
-12 -137 -12 -158 -1 -20 11 -25 10 -37 -6 -13 -17 -12 -20 11 -28 14 -6 26
-13 26 -16 0 -3 -20 -28 -45 -54 -25 -27 -45 -53 -45 -57 0 -10 -31 -12 -54
-3 -21 8 -32 89 -16 118 10 20 8 27 -14 50 -15 18 -30 25 -38 20 -7 -4 -3 4
10 18 31 35 28 51 -18 83 -38 26 -39 29 -24 46 16 17 15 20 -7 38 -13 11 -27
20 -31 21 -10 0 -10 34 -1 44 4 4 8 15 8 24 1 9 2 27 3 39 1 12 11 24 22 28
25 8 27 35 3 35 -21 0 -43 -42 -43 -83 0 -22 -4 -28 -17 -25 -10 2 -19 12 -21
23 -2 11 -11 28 -20 38 -13 15 -14 24 -3 67 8 31 9 55 3 67 -5 10 -12 42 -15
72 -4 29 -11 59 -17 66 -8 9 -8 15 0 20 5 3 10 20 10 36 0 17 6 32 15 35 8 4
15 9 15 13 0 10 -61 8 -78 -2 -14 -9 -22 6 -25 49 -2 24 2 30 21 32 28 4 59
33 64 58 4 21 30 29 56 19 15 -5 14 -9 -8 -25 -23 -18 -23 -20 -5 -20 11 0 30
-3 43 -6 15 -5 22 -2 22 8 0 8 10 19 22 25 l23 10 -23 12 c-26 14 -29 46 -5
55 16 7 43 -16 43 -35 0 -16 29 -16 66 2 21 10 44 18 51 19 23 0 63 23 63 36
0 22 20 26 45 10 32 -21 42 -20 50 4 5 17 12 20 39 15 24 -5 36 -2 50 14 23
25 23 25 42 7z m-272 -27 c-3 -5 -14 -9 -25 -9 -21 0 -26 26 -6 33 15 5 39
-12 31 -24z m560 -45 c8 -22 8 -24 -8 -24 -18 0 -29 16 -21 30 9 15 22 12 29
-6z m126 -69 c0 -23 20 -28 34 -9 19 25 29 2 14 -31 -9 -21 -9 -31 0 -46 18
-28 15 -51 -5 -47 -10 2 -30 28 -45 58 -28 54 -34 81 -22 93 10 9 24 -2 24
-18z m159 -107 c39 -40 48 -85 27 -127 -15 -27 -19 -29 -41 -19 -31 14 -43 63
-21 87 22 24 20 31 -8 31 -16 0 -26 7 -29 22 -13 48 27 52 72 6z m79 -16 c2
-7 -6 -12 -17 -12 -21 0 -27 11 -14 24 9 9 26 2 31 -12z m58 -48 c4 -15 22
-49 40 -78 25 -37 34 -62 34 -93 0 -51 -10 -59 -50 -38 -35 18 -37 24 -10 55
22 25 20 35 -10 43 -14 3 -24 -1 -31 -15 -10 -19 -12 -19 -30 11 -22 36 -26
66 -5 39 7 -10 20 -18 29 -18 24 0 32 21 14 35 -22 16 -23 85 -2 85 8 0 18
-12 21 -26z m154 -200 c0 -8 6 -24 13 -35 11 -18 8 -24 -21 -48 -21 -19 -30
-33 -26 -44 6 -17 -34 -107 -47 -107 -4 0 -14 -13 -22 -29 -13 -26 -13 -31 1
-44 13 -14 12 -19 -7 -51 -16 -25 -30 -36 -47 -36 -13 0 -24 2 -24 5 0 7 19
31 43 53 9 9 17 23 17 30 0 23 -52 4 -80 -29 -31 -35 -50 -37 -50 -6 0 12 -3
38 -6 57 -5 32 -2 36 28 50 23 11 36 25 43 50 5 19 14 41 18 48 5 7 7 32 5 55
-3 37 0 42 20 45 13 2 22 -2 22 -10 1 -28 28 -51 53 -44 33 8 41 42 15 66 -15
13 -19 26 -14 44 6 24 7 24 36 10 16 -9 30 -22 30 -30z m-1478 -86 c-9 -9 -12
-7 -12 12 0 19 3 21 12 12 9 -9 9 -15 0 -24z m1183 -281 c0 -26 -20 -25 -23 2
-3 16 1 22 10 19 7 -3 13 -12 13 -21z m5 -67 c0 -24 -26 -38 -42 -22 -16 16
-2 42 22 42 13 0 20 -7 20 -20z m-1022 -1 c-2 -6 -8 -10 -13 -10 -5 0 -11 4
-13 10 -2 6 4 11 13 11 9 0 15 -5 13 -11z m532 -394 c0 -16 -35 -21 -44 -6 -8
12 4 21 26 21 10 0 18 -7 18 -15z"/>
<path d="M1710 2480 c0 -14 7 -20 21 -20 15 0 19 4 15 16 -3 9 -6 18 -6 20 0
2 -7 4 -15 4 -8 0 -15 -9 -15 -20z"/>
<path d="M1644 1746 c-9 -24 27 -76 53 -76 32 0 36 15 7 28 -20 10 -23 17 -18
37 5 21 3 25 -15 25 -12 0 -24 -7 -27 -14z"/>
<path d="M2032 1669 c2 -7 10 -15 17 -17 8 -3 12 1 9 9 -2 7 -10 15 -17 17 -8
3 -12 -1 -9 -9z"/>
<path d="M1555 1620 c-22 -10 -50 -19 -63 -19 -12 -1 -25 -8 -28 -16 -4 -10
-20 -15 -50 -15 -33 0 -46 -5 -54 -19 -16 -32 -11 -48 8 -25 24 30 50 37 61
16 8 -14 13 -15 30 -5 11 7 22 9 25 4 3 -5 19 -11 36 -14 20 -5 30 -12 30 -25
0 -15 -9 -18 -55 -19 -45 -1 -57 2 -70 20 -18 25 -20 23 -29 -25 -6 -30 -4
-38 8 -38 9 0 20 -9 26 -21 10 -17 14 -18 27 -8 8 7 19 23 24 36 15 40 69 23
69 -21 -1 -27 -62 -66 -103 -66 -59 0 -75 10 -82 46 -3 19 -10 32 -16 29 -16
-11 -10 -54 11 -72 11 -10 29 -26 41 -36 19 -17 22 -17 44 -3 14 9 42 16 65
16 38 0 40 -1 41 -32 4 -73 -3 -114 -23 -142 -23 -32 -26 -69 -8 -91 19 -23
30 -18 30 14 0 15 14 53 30 84 32 61 37 106 19 171 -9 34 -8 42 5 52 15 10 16
24 9 108 -7 77 -6 99 5 108 10 9 11 13 0 19 -16 11 -15 11 -63 -11z"/>
<path d="M1819 1613 c-34 -5 -99 -65 -99 -91 0 -12 -4 -24 -10 -27 -14 -9 -13
-72 2 -81 7 -5 21 5 36 24 l25 32 23 -25 c13 -15 24 -32 24 -40 0 -21 16 -27
30 -10 9 11 8 23 -7 54 -10 22 -23 41 -28 41 -6 0 -16 10 -23 21 -12 18 -11
24 1 36 18 19 37 9 37 -18 0 -13 10 -24 30 -30 18 -7 30 -18 30 -28 0 -23 45
-65 60 -56 6 4 15 18 20 31 12 31 59 34 67 4 3 -13 14 -20 28 -20 12 0 28 -7
35 -15 13 -16 50 -21 50 -6 0 5 -7 14 -15 21 -8 7 -15 18 -15 26 0 14 -13 19
-72 29 -23 5 -43 16 -53 31 -15 23 -15 23 17 18 68 -11 78 -15 104 -39 28 -26
64 -34 64 -14 0 16 -68 90 -100 110 -25 16 -204 31 -261 22z m130 -92 c17 -11
5 -31 -19 -31 -24 0 -36 20 -19 31 8 5 16 9 19 9 3 0 11 -4 19 -9z"/>
<path d="M2190 1430 c0 -16 -7 -33 -16 -38 -11 -6 -13 -11 -5 -16 15 -10 27
-1 45 36 21 41 20 48 -4 48 -15 0 -20 -7 -20 -30z"/>
<path d="M2013 1393 c-13 -2 -29 -13 -37 -24 -13 -19 -16 -20 -44 -5 -40 21
-52 20 -52 -2 0 -41 80 -73 94 -37 3 9 19 15 41 15 61 0 102 38 59 54 -16 6
-24 6 -61 -1z"/>
<path d="M1670 1365 c0 -8 7 -15 15 -15 9 0 12 6 9 15 -4 8 -10 15 -15 15 -5
0 -9 -7 -9 -15z"/>
<path d="M2403 1331 c-27 -32 -30 -40 -17 -45 22 -8 24 -8 24 8 0 8 9 18 20
21 13 4 20 15 20 31 0 33 -10 30 -47 -15z"/>
<path d="M2315 1330 c-3 -5 3 -10 14 -10 12 0 21 5 21 10 0 6 -6 10 -14 10 -8
0 -18 -4 -21 -10z"/>
<path d="M1701 1281 c-10 -7 -11 -13 -2 -30 14 -24 31 -19 31 9 0 23 -12 31
-29 21z"/>
<path d="M1762 1264 c4 -21 22 -23 26 -1 2 10 -3 17 -13 17 -10 0 -15 -6 -13
-16z"/>
<path d="M2414 1265 c-4 -8 -14 -15 -24 -15 -26 0 -32 -14 -19 -46 9 -25 7
-31 -15 -47 -33 -24 -34 -47 -2 -47 27 0 66 52 66 88 0 11 5 24 10 27 13 8 13
55 0 55 -6 0 -13 -7 -16 -15z"/>
<path d="M2270 1266 c0 -20 22 -56 35 -56 18 0 19 19 1 43 -12 15 -36 24 -36
13z"/>
<path d="M1838 1249 c-24 -13 -23 -29 2 -29 13 0 20 7 20 20 0 23 1 23 -22 9z"/>
<path d="M2255 1208 c-4 -10 -15 -20 -26 -23 -22 -7 -26 -35 -5 -35 17 0 49
47 43 63 -3 8 -7 6 -12 -5z"/>
<path d="M1826 1164 c-10 -27 -7 -64 9 -88 14 -21 14 -24 0 -36 -8 -7 -15 -16
-15 -21 0 -15 48 -10 64 7 19 19 36 10 36 -19 1 -20 1 -21 11 -4 8 13 18 17
35 13 14 -4 24 -2 24 4 0 5 -6 10 -14 10 -7 0 -19 7 -26 15 -7 8 -20 15 -29
15 -18 0 -57 93 -46 110 3 6 -5 10 -18 10 -14 0 -28 -7 -31 -16z"/>
<path d="M2070 1140 c0 -13 7 -20 18 -20 26 0 34 11 21 27 -17 20 -39 16 -39
-7z"/>
<path d="M2270 1141 c0 -19 17 -38 25 -29 7 7 -7 48 -16 48 -5 0 -9 -9 -9 -19z"/>
<path d="M1942 1123 c5 -25 28 -28 28 -4 0 12 -6 21 -16 21 -9 0 -14 -7 -12
-17z"/>
<path d="M1612 1101 c-6 -16 -20 -32 -31 -36 -32 -10 -15 -25 30 -25 32 0 41
-4 51 -25 14 -31 36 -32 40 -3 2 17 14 27 43 36 51 17 60 32 32 54 -29 23 -36
22 -64 -8 -27 -30 -48 -26 -65 11 -15 33 -24 32 -36 -4z"/>
<path d="M2040 1101 c0 -12 6 -21 16 -21 9 0 14 7 12 17 -5 25 -28 28 -28 4z"/>
<path d="M1402 1093 c5 -25 28 -28 28 -4 0 12 -6 21 -16 21 -9 0 -14 -7 -12
-17z"/>
<path d="M2095 1049 c-11 -17 0 -20 21 -4 17 13 17 14 2 15 -9 0 -20 -5 -23
-11z"/>
<path d="M2205 1037 c-16 -13 -16 -14 -1 -20 10 -4 19 -1 23 9 8 21 -1 26 -22
11z"/>
<path d="M1485 1020 c-7 -12 2 -30 16 -30 5 0 9 9 9 20 0 21 -15 27 -25 10z"/>
<path d="M2130 966 c0 -7 -9 -16 -20 -19 -22 -6 -24 -14 -10 -37 6 -10 12 -11
19 -5 11 12 25 75 17 75 -3 0 -6 -6 -6 -14z"/>
<path d="M1513 935 c-13 -19 -23 -39 -23 -45 0 -13 37 -13 45 -1 3 6 65 10
138 10 74 0 150 3 170 6 23 5 42 3 51 -4 11 -9 15 -7 19 10 12 45 -26 76 -53
44 -15 -18 -33 -18 -84 0 -34 12 -43 12 -68 -1 -20 -10 -34 -12 -46 -5 -10 5
-36 7 -59 4 -25 -3 -43 -1 -47 6 -11 18 -20 13 -43 -24z"/>
<path d="M1950 954 c0 -17 22 -14 28 4 2 7 -3 12 -12 12 -9 0 -16 -7 -16 -16z"/>
<path d="M2007 903 c-13 -12 -7 -63 6 -63 9 0 12 11 9 35 -4 37 -5 39 -15 28z"/>
<path d="M1903 863 c-18 -12 -21 -19 -12 -34 5 -10 19 -19 29 -19 15 0 20 7
20 29 0 37 -9 43 -37 24z"/>
<path d="M2171 816 c12 -10 59 -15 59 -6 0 5 -14 10 -32 10 -17 0 -29 -2 -27
-4z"/>
<path d="M1527 787 c-29 -12 -33 -40 -7 -45 19 -3 63 36 55 49 -7 11 -11 10
-48 -4z"/>
<path d="M1930 765 c-17 -21 -8 -50 17 -53 12 -2 25 -12 28 -23 8 -25 18 -24
52 6 27 24 28 25 9 40 -25 19 -36 19 -36 0 0 -8 -5 -15 -11 -15 -6 0 -8 7 -5
16 7 19 -10 44 -29 44 -7 0 -18 -7 -25 -15z"/>
<path d="M2185 755 c-102 -74 -124 -105 -76 -105 22 0 41 19 41 43 0 15 5 18
24 15 18 -4 30 2 45 22 28 39 7 55 -34 25z"/>
<path d="M1880 675 c0 -16 6 -25 15 -25 9 0 15 9 15 25 0 16 -6 25 -15 25 -9
0 -15 -9 -15 -25z"/>
<path d="M2204 623 c-22 -21 -22 -22 -3 -39 26 -24 43 -7 32 32 l-8 29 -21
-22z"/>
<path d="M2607 1193 c-11 -10 -8 -61 3 -68 6 -3 10 1 10 10 0 9 9 19 20 22 24
6 26 28 4 37 -20 8 -29 8 -37 -1z"/>
<path d="M767 3235 c-37 -36 -72 -65 -77 -65 -6 0 -10 -8 -10 -19 0 -16 11
-19 82 -26 46 -4 97 -13 115 -20 17 -7 34 -11 37 -7 11 11 6 40 -9 45 -10 4
-15 26 -17 79 -3 70 -4 73 -28 76 -19 2 -41 -13 -93 -63z"/>
<path d="M3015 3233 c-11 -3 -29 -12 -40 -19 -11 -8 -29 -14 -41 -14 -12 0
-27 -7 -34 -15 -7 -8 -23 -15 -36 -15 -14 0 -24 -6 -24 -14 0 -15 71 -76 88
-76 6 0 26 -19 45 -41 34 -42 57 -46 57 -10 0 9 4 21 9 27 6 5 15 36 20 69 6
33 14 72 17 88 6 24 3 27 -17 26 -13 -1 -33 -4 -44 -6z"/>
<path d="M1584 3195 c-4 -9 -22 -34 -40 -54 -19 -20 -34 -40 -34 -44 0 -18 22
-47 35 -47 25 0 17 -39 -12 -65 l-28 -24 -17 22 c-15 20 -17 20 -23 4 -5 -12
2 -25 24 -44 22 -19 31 -36 31 -58 0 -16 4 -36 9 -43 12 -19 33 43 25 74 -4
13 -2 30 4 37 14 18 20 77 12 109 -5 15 -4 45 2 67 9 37 13 40 37 35 18 -4 32
0 40 10 17 20 13 24 -27 32 -25 5 -33 3 -38 -11z"/>
<path d="M1670 3160 c0 -5 6 -13 13 -17 8 -4 16 -16 20 -25 7 -20 32 -24 42
-7 9 14 -34 59 -57 59 -10 0 -18 -4 -18 -10z"/>
<path d="M3149 3168 c0 -2 -3 -46 -5 -98 -4 -62 -10 -100 -20 -111 -37 -41 -5
-50 64 -19 31 14 55 18 81 14 27 -4 41 -2 50 10 11 13 5 25 -43 81 -31 37 -63
80 -71 96 -9 17 -24 29 -35 29 -11 0 -20 -1 -21 -2z"/>
<path d="M2340 3095 c0 -8 6 -15 14 -15 8 0 16 -6 19 -12 2 -7 7 -10 11 -6 8
7 -23 48 -36 48 -5 0 -8 -7 -8 -15z"/>
<path d="M593 3054 c-3 -9 1 -29 11 -44 9 -16 16 -37 16 -48 0 -11 7 -25 15
-32 8 -7 15 -27 15 -44 0 -18 5 -37 12 -44 16 -16 48 -15 48 2 0 8 27 42 60
76 61 63 72 92 35 98 -11 2 -34 10 -52 18 -17 8 -47 14 -66 14 -20 0 -39 5
-42 10 -10 16 -45 12 -52 -6z"/>
<path d="M2388 3022 c-22 -4 -30 -29 -18 -52 5 -10 7 -33 4 -52 l-6 -33 25 25
c23 22 25 30 19 70 -5 35 -11 45 -24 42z"/>
<path d="M1157 2994 c-5 -30 15 -43 38 -24 12 10 16 9 21 -4 7 -18 54 -22 54
-6 0 21 -53 60 -80 60 -22 0 -29 -6 -33 -26z"/>
<path d="M488 2938 c-7 -12 -32 -50 -55 -86 -24 -36 -43 -70 -43 -76 0 -6 -7
-20 -15 -30 -36 -47 -9 -61 66 -35 30 10 76 18 102 19 60 0 68 17 37 79 -13
25 -27 54 -31 63 -5 10 -9 26 -9 37 0 51 -30 68 -52 29z"/>
<path d="M2546 2865 c-9 -13 -16 -35 -16 -48 0 -16 -9 -28 -25 -35 -30 -14
-31 -22 -6 -70 12 -24 17 -50 13 -74 -5 -44 -15 -48 -38 -13 -35 54 -55 20
-34 -56 16 -58 70 -55 70 3 0 8 14 26 31 41 30 26 31 28 15 46 -15 16 -15 23
-6 41 7 13 10 35 6 50 -4 20 -1 30 11 34 14 6 14 8 -1 25 -15 17 -15 18 9 29
22 10 24 15 15 32 -14 26 -24 25 -44 -5z"/>
<path d="M2645 2850 c-8 -26 1 -40 26 -40 14 0 19 7 19 30 0 23 -5 30 -19 30
-11 0 -22 -9 -26 -20z"/>
<path d="M2763 2807 c-46 -36 -73 -83 -73 -128 0 -17 -6 -32 -15 -35 -8 -4
-15 -16 -15 -28 -1 -11 -14 -37 -30 -56 -17 -19 -30 -42 -30 -52 0 -10 -11
-43 -25 -74 -30 -68 -30 -74 -7 -74 25 0 31 -7 25 -31 -3 -10 -16 -22 -29 -25
-13 -3 -28 -12 -35 -20 -16 -19 -45 -18 -53 2 -4 9 -9 14 -13 11 -3 -4 0 -13
7 -22 10 -13 10 -19 -4 -33 -9 -10 -16 -22 -16 -27 0 -5 -9 -18 -20 -30 -17
-18 -19 -27 -11 -48 8 -20 6 -31 -10 -51 -18 -22 -18 -26 -4 -38 9 -7 25 -21
36 -30 10 -10 24 -18 29 -18 6 0 10 -4 10 -9 0 -5 23 -30 51 -57 28 -27 76
-72 105 -101 30 -28 62 -71 73 -95 10 -24 26 -49 35 -57 9 -7 16 -24 16 -37 0
-12 5 -26 10 -29 15 -9 12 -65 -3 -65 -7 0 -25 27 -40 60 -15 32 -32 62 -37
65 -6 3 -10 14 -10 24 0 10 -41 61 -90 112 -50 52 -96 101 -103 109 -18 23
-77 70 -88 70 -24 0 -3 -34 57 -92 67 -64 174 -189 174 -203 0 -4 14 -27 30
-52 17 -24 30 -48 30 -52 0 -4 9 -16 20 -26 16 -14 20 -31 20 -82 0 -37 4 -63
10 -63 12 0 49 76 50 101 0 9 7 22 15 29 11 9 14 22 10 41 -4 19 2 43 24 84
17 32 31 62 31 68 0 6 6 18 14 26 19 21 24 63 9 68 -7 3 -16 -4 -20 -14 -4
-10 -17 -33 -30 -52 -13 -19 -23 -49 -23 -67 0 -40 -25 -46 -53 -14 -16 19
-16 22 -1 46 13 19 14 30 6 48 -9 21 -6 28 23 56 19 18 32 37 29 41 -3 5 3 21
13 36 19 28 27 141 8 122 -5 -5 -22 -9 -37 -9 -30 0 -38 -14 -13 -24 8 -3 15
-12 15 -19 0 -19 -59 -129 -76 -143 -8 -6 -14 -17 -14 -23 0 -22 -25 -5 -28
18 -4 25 19 80 52 124 19 26 20 30 5 40 -15 11 -13 16 16 50 24 28 40 37 64
37 28 0 31 3 31 30 0 23 5 30 18 30 27 0 102 57 102 77 0 13 -3 14 -12 5 -7
-7 -25 -12 -41 -12 l-29 0 20 34 c11 18 16 39 12 45 -4 7 -3 31 2 54 5 23 11
56 12 72 2 17 1 19 -1 6 -3 -13 -13 -26 -24 -28 -15 -4 -19 -14 -19 -49 0 -30
-5 -46 -14 -50 -8 -3 -18 -19 -21 -35 -4 -16 -11 -31 -16 -34 -5 -4 -9 -21 -9
-39 0 -26 -5 -35 -22 -39 -32 -9 -42 2 -22 24 12 13 15 29 12 57 -6 43 5 72
27 72 8 0 15 9 15 20 0 18 18 67 42 113 46 91 51 97 74 97 18 0 25 -8 33 -37
7 -24 7 -41 1 -47 -16 -16 -12 -86 5 -86 8 0 17 11 21 25 9 36 -4 126 -21 145
-8 9 -15 21 -15 27 0 14 -24 23 -61 23 -28 0 -29 1 -29 50 0 35 5 52 14 56 12
5 11 9 -5 25 -21 21 -25 44 -9 54 17 11 11 37 -10 42 -11 3 -20 9 -20 14 0 22
-67 6 -107 -24z m102 -7 c3 -5 1 -18 -4 -29 -8 -15 -6 -24 8 -42 14 -18 16
-30 10 -57 -4 -19 -3 -46 2 -59 11 -29 4 -59 -27 -131 -13 -29 -21 -59 -18
-67 4 -8 -1 -18 -10 -21 -9 -3 -16 -17 -16 -30 0 -12 -8 -27 -17 -32 -11 -7
-17 -23 -17 -51 -1 -43 -19 -58 -24 -21 -2 12 -14 26 -28 32 -33 15 -30 37 6
45 28 5 29 7 13 19 -17 13 -16 15 8 37 19 17 28 38 33 75 6 48 5 52 -14 52
-11 0 -29 9 -41 21 -11 11 -23 18 -26 15 -3 -3 0 -34 7 -70 15 -78 9 -90 -36
-81 -30 5 -35 3 -44 -20 -5 -14 -14 -25 -20 -25 -15 0 -12 26 5 44 8 8 15 28
15 45 0 26 33 106 49 121 11 9 31 45 42 73 6 15 17 27 24 27 18 0 36 -49 33
-94 -2 -24 2 -41 9 -43 19 -7 36 44 39 115 2 55 0 62 -17 62 -11 0 -22 -7 -25
-15 -9 -22 -34 -18 -34 5 0 20 82 110 100 110 5 0 12 -4 15 -10z m-175 -551
c3 -28 -1 -63 -11 -94 -17 -47 -17 -50 2 -63 24 -17 24 -34 -1 -57 -11 -10
-20 -24 -20 -30 0 -21 -40 -105 -50 -105 -14 0 -50 38 -50 53 0 22 29 55 53
60 l22 4 -22 8 c-27 9 -28 13 -7 36 13 14 13 21 3 37 -11 18 -10 24 4 40 19
21 23 57 7 67 -19 12 -39 -16 -46 -63 -3 -26 -12 -56 -19 -68 -7 -11 -15 -31
-17 -45 -4 -32 -34 -36 -58 -7 -21 25 -26 48 -10 48 6 0 10 15 10 34 0 23 9
43 29 65 15 16 34 44 41 60 19 46 80 84 115 71 15 -5 21 -19 25 -51z m63 -118
c7 -28 -4 -71 -18 -71 -12 0 -25 56 -17 79 6 18 29 13 35 -8z"/>
<path d="M3177 2823 c-15 -14 -5 -37 34 -81 23 -26 52 -69 66 -95 27 -54 38
-53 68 6 9 18 25 46 35 62 40 61 54 95 44 105 -6 6 -39 6 -88 1 -46 -5 -91 -5
-109 0 -38 11 -42 11 -50 2z"/>
<path d="M3455 2585 c-16 -36 -39 -75 -52 -87 -34 -32 -29 -45 20 -51 23 -3
69 -14 101 -26 53 -19 62 -20 75 -6 13 13 12 17 -7 38 -12 13 -22 36 -22 50 0
15 -6 38 -14 50 -8 12 -17 39 -20 60 -6 30 -11 37 -29 37 -18 0 -28 -13 -52
-65z"/>
<path d="M445 2615 c-22 -8 -57 -15 -77 -15 -44 0 -47 -8 -15 -41 13 -13 32
-37 43 -54 48 -78 65 -95 85 -84 12 6 19 20 19 39 0 16 5 32 11 35 10 7 59
110 59 126 0 14 -81 10 -125 -6z"/>
<path d="M2566 2594 c-9 -23 -8 -24 14 -24 13 0 20 7 20 20 0 24 -25 27 -34 4z"/>
<path d="M1102 2545 c2 -14 8 -26 13 -26 6 0 11 12 13 26 2 18 -1 25 -13 25
-12 0 -15 -7 -13 -25z"/>
<path d="M240 2463 c-16 -21 -20 -35 -15 -63 4 -24 1 -41 -9 -55 -9 -11 -16
-36 -16 -55 0 -19 -7 -44 -15 -54 -17 -23 -20 -52 -5 -61 6 -4 24 8 41 25 40
39 116 80 150 80 15 0 32 7 39 16 11 13 4 24 -48 77 -33 34 -66 74 -71 90 -13
34 -24 34 -51 0z"/>
<path d="M3394 2338 c3 -18 14 -43 23 -57 11 -17 18 -52 20 -101 2 -41 7 -78
11 -82 14 -14 172 149 172 176 0 25 -34 41 -63 31 -7 -3 -20 1 -27 10 -7 8
-22 15 -35 15 -12 0 -30 9 -40 20 -10 11 -29 20 -43 20 -22 0 -24 -3 -18 -32z"/>
<path d="M2378 2335 c-10 -13 -18 -30 -18 -38 0 -8 -7 -20 -15 -27 -8 -7 -15
-27 -15 -46 0 -23 -8 -41 -26 -58 -28 -25 -25 -46 6 -46 10 0 22 -4 25 -10 10
-17 34 -11 45 11 8 14 8 24 1 33 -8 10 -4 20 15 42 15 15 23 29 18 31 -37 13
-39 22 -16 62 12 22 22 47 22 55 0 24 -23 19 -42 -9z"/>
<path d="M2987 2323 c-12 -11 -8 -23 8 -23 8 0 15 7 15 15 0 16 -12 20 -23 8z"/>
<path d="M346 2165 c-11 -8 -27 -15 -37 -15 -9 0 -22 -6 -28 -14 -7 -8 -27
-17 -46 -20 -29 -6 -35 -11 -35 -31 0 -19 5 -25 23 -25 13 0 36 -13 53 -28 41
-39 110 -92 121 -92 4 0 9 54 10 120 3 118 2 120 -20 120 -12 0 -31 -7 -41
-15z"/>
<path d="M3217 2174 c-13 -13 -7 -42 9 -48 24 -9 26 -8 22 21 -3 26 -18 39
-31 27z"/>
<path d="M3644 2148 c-55 -61 -118 -118 -130 -118 -12 0 -34 -29 -34 -44 0 -3
19 -15 42 -27 23 -12 65 -39 94 -60 28 -22 53 -39 57 -39 8 0 5 300 -3 305 -4
3 -16 -5 -26 -17z"/>
<path d="M2950 2127 c-14 -12 -31 -33 -36 -47 -11 -27 -11 -117 0 -128 13 -12
27 23 22 55 -3 20 1 36 10 44 8 6 14 23 14 38 0 15 5 32 12 39 22 22 3 21 -22
-1z"/>
<path d="M2242 2108 c6 -18 28 -21 28 -4 0 9 -7 16 -16 16 -9 0 -14 -5 -12
-12z"/>
<path d="M672 2048 c6 -17 56 -53 64 -45 12 11 -26 57 -47 57 -12 0 -19 -5
-17 -12z"/>
<path d="M3110 2017 c0 -17 38 -53 46 -44 8 8 -23 57 -36 57 -6 0 -10 -6 -10
-13z"/>
<path d="M2246 1983 c-14 -14 -5 -41 17 -47 13 -3 29 -17 37 -31 7 -14 20 -25
28 -25 7 0 27 -12 44 -27 47 -43 162 -163 171 -179 10 -18 37 -18 37 -1 0 7
-11 28 -25 47 -36 49 -215 220 -231 220 -7 0 -17 6 -21 14 -10 17 -49 37 -57
29z"/>
<path d="M732 1963 c2 -10 13 -19 26 -21 24 -4 29 7 10 26 -18 18 -40 15 -36
-5z"/>
<path d="M167 1963 c-6 -10 11 -295 18 -301 9 -9 36 8 45 30 15 38 43 65 87
88 49 25 70 47 57 59 -5 5 -31 21 -59 36 -27 15 -66 42 -85 61 -35 33 -54 41
-63 27z"/>
<path d="M2883 1915 c-3 -9 -3 -18 0 -21 9 -9 27 6 27 22 0 19 -19 18 -27 -1z"/>
<path d="M560 1870 c0 -11 5 -20 10 -20 6 0 10 9 10 20 0 11 -4 20 -10 20 -5
0 -10 -9 -10 -20z"/>
<path d="M3450 1887 c-1 -1 -2 -57 -4 -124 -2 -133 2 -142 51 -108 12 9 51 26
85 39 78 30 87 53 28 79 -22 10 -60 38 -84 61 -36 36 -75 62 -76 53z"/>
<path d="M305 1644 c-44 -47 -80 -90 -79 -95 1 -5 2 -13 3 -19 0 -5 16 -10 34
-10 18 0 42 -7 53 -15 10 -8 28 -15 39 -15 11 0 29 -7 39 -15 29 -22 76 -20
76 3 0 10 -5 23 -12 30 -18 18 -40 101 -43 162 -2 37 -7 56 -16 57 -8 1 -50
-36 -94 -83z"/>
<path d="M2967 1713 c-3 -5 -2 -15 2 -22 7 -10 10 -10 16 -1 4 6 3 16 -3 22
-5 5 -12 6 -15 1z"/>
<path d="M3620 1615 c-30 -32 -106 -75 -132 -75 -28 0 -58 -18 -58 -35 0 -8 4
-15 9 -15 17 0 110 -99 117 -124 6 -25 39 -44 52 -31 4 4 8 19 9 33 5 66 23
146 42 183 41 78 14 121 -39 64z"/>
<path d="M513 1538 c7 -56 25 -138 36 -163 42 -95 69 -147 97 -186 19 -26 34
-50 34 -54 0 -4 14 -24 30 -45 17 -21 30 -41 30 -45 0 -13 89 -121 142 -171
29 -28 85 -76 123 -107 39 -31 78 -63 88 -72 9 -8 19 -15 22 -15 7 0 67 -42
75 -51 3 -4 32 -15 65 -25 33 -10 62 -21 65 -24 10 -13 40 -19 45 -9 4 5 -2
12 -12 16 -10 4 -31 16 -48 28 -16 12 -61 39 -100 61 -139 75 -282 193 -363
299 -25 33 -50 63 -54 66 -5 3 -18 23 -30 45 -11 21 -24 41 -28 44 -23 16
-140 245 -140 274 0 9 -6 29 -14 44 -7 15 -16 44 -19 65 -11 72 -52 95 -44 25z"/>
<path d="M862 1468 c3 -23 48 -41 48 -20 0 24 -14 42 -32 42 -14 0 -19 -6 -16
-22z"/>
<path d="M257 1413 c-12 -11 -8 -38 13 -78 11 -22 20 -46 20 -55 0 -8 7 -24
15 -34 8 -11 15 -35 15 -53 0 -30 3 -33 30 -33 27 0 30 3 30 34 0 18 7 39 15
46 8 7 15 17 15 23 0 5 16 29 35 53 46 56 39 79 -20 71 -29 -4 -58 0 -94 13
-56 22 -64 23 -74 13z"/>
<path d="M3372 1408 c-14 -18 -42 -87 -42 -105 0 -7 -9 -27 -21 -42 -25 -34
-22 -67 6 -63 11 2 49 6 85 8 128 9 131 13 69 95 -23 30 -48 69 -55 87 -15 34
-26 39 -42 20z"/>
<path d="M684 1389 c-4 -7 1 -18 11 -26 27 -19 37 -16 25 6 -14 27 -27 34 -36
20z"/>
<path d="M951 1386 c-9 -10 -9 -16 -1 -21 17 -10 37 12 24 25 -8 8 -15 6 -23
-4z"/>
<path d="M2940 1374 c0 -9 5 -14 12 -12 18 6 21 28 4 28 -9 0 -16 -7 -16 -16z"/>
<path d="M732 1298 c5 -15 28 -18 29 -3 0 6 -7 12 -17 13 -10 3 -15 -1 -12
-10z"/>
<path d="M495 1143 c-22 -36 -50 -78 -63 -93 -34 -43 -21 -64 37 -55 25 4 79
8 119 10 98 3 105 12 52 72 -24 26 -51 67 -62 91 -10 23 -24 42 -31 42 -7 -1
-30 -30 -52 -67z"/>
<path d="M1010 1161 c0 -12 5 -21 10 -21 6 0 10 6 10 14 0 8 -4 18 -10 21 -5
3 -10 -3 -10 -14z"/>
<path d="M3442 1114 c-16 -11 -49 -17 -104 -18 -51 -1 -83 -6 -85 -13 -4 -11
63 -178 78 -196 11 -14 49 2 49 20 0 9 6 24 13 32 33 39 108 172 102 181 -9
14 -27 12 -53 -6z"/>
<path d="M960 1036 c0 -9 7 -16 16 -16 17 0 14 22 -4 28 -7 2 -12 -3 -12 -12z"/>
<path d="M3136 968 c-17 -39 -52 -78 -89 -103 -30 -19 -35 -50 -11 -59 9 -3
31 -6 49 -6 18 0 52 -9 76 -20 113 -51 126 -15 48 132 -5 10 -9 26 -9 37 0 58
-41 70 -64 19z"/>
<path d="M687 890 c-25 -14 -56 -20 -96 -20 -91 0 -89 -13 19 -134 56 -63 69
-76 79 -76 14 0 21 28 14 60 -3 19 3 57 17 101 27 83 20 97 -33 69z"/>
<path d="M1216 837 c-3 -13 1 -28 9 -37 13 -13 15 -10 15 17 0 38 -15 52 -24
20z"/>
<path d="M816 788 c-9 -12 -16 -41 -16 -63 0 -23 -7 -50 -15 -61 -16 -21 -21
-94 -6 -94 5 0 22 7 37 15 16 8 37 15 46 15 9 0 19 4 23 9 3 6 32 18 65 28 80
23 79 41 -5 94 -36 23 -70 50 -76 60 -13 25 -34 24 -53 -3z"/>
<path d="M2952 712 c-10 -7 -9 -20 4 -68 9 -32 18 -72 19 -88 5 -47 20 -52 58
-20 19 16 62 51 96 78 74 60 78 78 19 75 -24 -1 -70 5 -103 14 -67 19 -75 20
-93 9z"/>
<path d="M2787 647 c-26 -29 -104 -80 -132 -87 -27 -8 -25 -42 3 -56 13 -6 29
-17 35 -23 6 -6 18 -11 27 -11 8 0 32 -16 53 -35 64 -59 67 -54 67 100 0 115
-2 135 -15 135 -9 0 -26 -11 -38 -23z"/>
<path d="M1051 576 c-7 -8 -26 -18 -42 -21 -16 -4 -31 -11 -34 -16 -4 -5 -21
-9 -39 -9 -69 0 -68 -45 3 -77 26 -12 56 -31 66 -43 10 -11 23 -20 30 -20 6 0
26 -11 45 -25 33 -25 70 -33 70 -17 0 5 -8 24 -17 43 -12 22 -18 59 -19 104
-1 39 -2 76 -3 83 -1 17 -46 15 -60 -2z"/>
<path d="M1218 448 c5 -126 18 -145 67 -98 17 16 34 30 38 30 14 0 97 65 97
76 0 6 -18 19 -39 27 -22 9 -42 21 -46 27 -3 5 -16 10 -29 10 -12 0 -31 7 -42
15 -10 8 -26 15 -35 15 -14 0 -15 -13 -11 -102z"/>
<path d="M2472 448 c-7 -7 -12 -21 -12 -31 0 -24 -18 -94 -32 -124 -15 -32 -3
-57 25 -49 12 4 42 12 67 19 25 6 58 20 73 30 14 9 35 17 45 17 10 0 27 6 37
14 26 19 7 41 -40 49 -18 3 -59 24 -89 46 -63 47 -58 45 -74 29z"/>
<path d="M2317 430 c-18 -15 -34 -19 -52 -14 -16 4 -34 0 -49 -9 -16 -11 -36
-14 -60 -10 -57 9 -46 -18 45 -108 l81 -81 24 23 c15 14 24 34 24 53 0 17 7
40 15 50 8 11 15 27 15 37 0 9 7 22 15 29 8 7 15 21 15 31 0 26 -40 25 -73 -1z"/>
<path d="M1670 396 c-13 -17 -4 -60 16 -77 8 -6 14 -21 14 -33 0 -11 7 -30 15
-40 8 -11 15 -28 15 -38 0 -10 6 -18 13 -18 15 0 47 31 47 44 0 9 55 82 82
109 19 19 24 42 9 51 -4 3 -33 0 -63 -6 -46 -10 -61 -9 -96 5 -34 14 -42 14
-52 3z"/>
<path d="M1465 350 c-27 -27 -64 -55 -83 -61 -26 -8 -32 -16 -30 -32 2 -18 13
-24 55 -32 28 -5 55 -13 59 -17 4 -5 23 -8 43 -8 20 -1 47 -7 61 -15 33 -19
80 -19 80 -1 0 8 -15 32 -33 54 -32 38 -43 60 -63 127 -5 16 -16 31 -24 33 -9
1 -37 -20 -65 -48z"/>
<path d="M1976 323 c-13 -27 -43 -72 -65 -102 -23 -30 -41 -60 -41 -67 0 -9
24 -11 98 -7 53 3 105 10 114 14 9 5 32 9 51 9 18 0 37 3 40 7 4 3 -22 35 -57
69 -36 35 -72 77 -81 93 -8 17 -20 31 -25 31 -5 0 -21 -21 -34 -47z"/>
</g>
</svg>
