<?xml version="1.0" encoding="utf-8"?>
<!-- Generator: Adobe Illustrator 16.0.0, SVG Export Plug-In . SVG Version: 6.00 Build 0)  -->
<!DOCTYPE svg PUBLIC "-//W3C//DTD SVG 1.1//EN" "http://www.w3.org/Graphics/SVG/1.1/DTD/svg11.dtd">
<svg version="1.1" id="圖層_1" xmlns="http://www.w3.org/2000/svg" xmlns:xlink="http://www.w3.org/1999/xlink" x="0px" y="0px"
	 width="500px" height="500px" viewBox="0 0 500 500" enable-background="new 0 0 500 500" xml:space="preserve">
<g>
	<g>
		<linearGradient id="SVGID_1_" gradientUnits="userSpaceOnUse" x1="318.6777" y1="480.5195" x2="180.7339" y2="17.5069">
			<stop  offset="0" style="stop-color:#489F90"/>
			<stop  offset="0.344" style="stop-color:#5DB496"/>
			<stop  offset="0.713" style="stop-color:#6DC49B"/>
			<stop  offset="1" style="stop-color:#72CA9D"/>
		</linearGradient>
		<circle fill="url(#SVGID_1_)" cx="250" cy="250" r="250"/>
		<g>
			<polygon fill="#FFFFFF" points="249.999,50.691 287.654,123.472 250,142.364 217.387,126.001 199.339,160.881 192.397,162.025 
							"/>
			<polygon fill="#FFFFFF" points="300.659,160.881 289.615,139.537 294.658,137.006 307.603,162.025 			"/>
			<polygon fill="#FFFFFF" points="294.147,375.237 313.508,337.822 349.509,331.89 343.605,293.064 348.552,288.058 
				367.391,411.986 			"/>
			<polygon fill="#FFFFFF" points="255.35,355.772 261.641,352.617 283.12,363.394 280.526,368.405 			"/>
			<polygon fill="#FFFFFF" points="60.056,188.694 140.909,175.372 147.24,217.022 121.602,242.982 149.199,270.924 
				148.142,277.882 			"/>
			<polygon fill="#FFFFFF" points="155.946,172.894 183.741,168.314 180.507,174.565 156.794,178.472 			"/>
			<polygon fill="#FFFFFF" points="350.8,270.924 367.689,253.823 371.654,257.838 351.857,277.883 			"/>
			<polygon fill="#FFFFFF" points="352.759,217.022 358.243,180.95 319.493,174.565 316.259,168.314 439.943,188.694 
				382.361,246.996 			"/>
			<polygon fill="#FFFFFF" points="147.215,315.906 151.449,288.058 156.394,293.064 152.781,316.825 			"/>
			<polygon fill="#FFFFFF" points="144.924,330.972 186.492,337.821 203.259,370.228 238.361,352.617 244.65,355.772 
				132.611,411.986 			"/>
			<path fill="#FFFFFF" d="M213.97,377.876l2.897-1.453l33.132,64.038l55.573-107.412l-11.81,1.95l-12.249,12.399l-17.2-2.835
				L250,351.746l-14.313-7.181l-17.201,2.833l-12.249-12.4l-11.812-1.948l14.336,27.708l-2.898,1.454l-15.427-29.82L62.539,311.319
				l55.1-55.789l2.279,2.308L69.251,309.14l119.328,19.66l-5.501-10.63l-15.583-7.818l-2.62-17.234l-11.251-11.391l2.407-15.835
				l-8.011-15.483l8.01-15.48l-1.803-11.832l-21.916,22.193l-2.28-2.308l23.59-23.887l-19.48-128.149l70.085,35.163l-1.49,2.879
				l-64.445-32.335l18.175,119.567l8.409-8.519l2.619-17.234l15.583-7.817l7.358-14.224l15.801-2.602l12.25-12.404l17.202,2.834
				l10.697-5.369l-27.883-13.988l1.489-2.879L250,149.074l115.858-58.128l-11.784,77.521l-3.199-0.527l10.837-71.283
				l-108.098,54.232l10.698,5.366l17.2-2.833l12.252,12.404l15.8,2.603l7.358,14.222l15.581,7.817l2.619,17.236l8.412,8.518
				l4.688-30.842l3.2,0.527l-5.046,33.191l91.084,92.226l-77.368,12.746l-0.487-3.206l71.145-11.722l-84.982-86.046l-1.797,11.832
				l8.012,15.483l-8.013,15.486l2.406,15.832l-11.252,11.391l-2.62,17.234l-15.581,7.818l-5.504,10.63l30.782-5.069l0.487,3.205
				l-33.125,5.457l-59.564,115.125L213.97,377.876z M221.594,162.982l-25.734,12.909l-20.233,20.488l-13.228,25.564l-4.326,28.467
				l4.326,28.462l13.231,25.571l20.231,20.484l25.731,12.91L250,342.52l28.41-4.681l25.73-12.909l20.228-20.48l13.236-25.582
				l4.323-28.451l-4.327-28.473l-13.229-25.569l-20.229-20.483l-25.731-12.909L250,158.3L221.594,162.982z"/>
		</g>
		<circle fill="none" stroke="#FFFFFF" stroke-width="2" stroke-miterlimit="10" cx="250" cy="250" r="235.606"/>
	</g>
	<g>
		
			<rect x="186.541" y="243.772" transform="matrix(0.2276 0.9738 -0.9738 0.2276 424.6471 -23.799)" fill="#FFFFFF" width="81.567" height="23.99"/>
		<polygon fill="#FFFFFF" points="273.432,286.873 244.839,251.674 254.869,207.446 279.073,201.79 266.295,246.659 
			297.637,281.216 		"/>
	</g>
</g>
<g>
</g>
<g>
</g>
<g>
</g>
<g>
</g>
<g>
</g>
<g>
</g>
<g>
</g>
<g>
</g>
<g>
</g>
<g>
</g>
<g>
</g>
<g>
</g>
<g>
</g>
<g>
</g>
<g>
</g>
</svg>
