<?xml version="1.0" encoding="UTF-8" standalone="no"?>
<svg
   xmlns:dc="http://purl.org/dc/elements/1.1/"
   xmlns:cc="http://creativecommons.org/ns#"
   xmlns:rdf="http://www.w3.org/1999/02/22-rdf-syntax-ns#"
   xmlns:svg="http://www.w3.org/2000/svg"
   xmlns="http://www.w3.org/2000/svg"
   xmlns:sodipodi="http://sodipodi.sourceforge.net/DTD/sodipodi-0.dtd"
   xmlns:inkscape="http://www.inkscape.org/namespaces/inkscape"
   version="1.0"
   width="769.000000pt"
   height="769.000000pt"
   viewBox="0 0 769.000000 769.000000"
   preserveAspectRatio="xMidYMid meet"
   id="svg26"
   sodipodi:docname="تخطيط_اسم_أبو_عبيدة_بن_الجراح.svg"
   inkscape:export-filename="/home/blank/Pictures/128.png"
   inkscape:export-xdpi="12.376019"
   inkscape:export-ydpi="12.376019"
   inkscape:version="1.0.1 (0767f8302a, 2020-10-17)">
  <metadata
     id="metadata32">
    <rdf:RDF>
      <cc:Work
         rdf:about="">
        <dc:format>image/svg+xml</dc:format>
        <dc:type
           rdf:resource="http://purl.org/dc/dcmitype/StillImage" />
        <dc:title></dc:title>
      </cc:Work>
    </rdf:RDF>
  </metadata>
  <defs
     id="defs30">
    <rect
       x="5649.9394"
       y="5380.9884"
       width="3250.0904"
       height="2479.5191"
       id="rect36" />
    <clipPath
       clipPathUnits="userSpaceOnUse"
       id="clipPath261">
      <circle
         cx="3846.0757"
         cy="-3842.4736"
         r="3723.3298"
         fill="#cc0000"
         id="circle263"
         style="fill:#008000;fill-opacity:1;stroke-width:10.951" />
    </clipPath>
  </defs>
  <sodipodi:namedview
     pagecolor="#ffffff"
     bordercolor="#666666"
     borderopacity="1"
     objecttolerance="10"
     gridtolerance="10"
     guidetolerance="10"
     inkscape:pageopacity="0"
     inkscape:pageshadow="2"
     inkscape:window-width="1600"
     inkscape:window-height="851"
     id="namedview28"
     showgrid="false"
     inkscape:zoom="0.33355007"
     inkscape:cx="593.54285"
     inkscape:cy="649.37772"
     inkscape:window-x="0"
     inkscape:window-y="25"
     inkscape:window-maximized="1"
     inkscape:current-layer="g24" />
  <g
     transform="translate(0.000000,769.000000) scale(0.100000,-0.100000)"
     fill="#000000"
     stroke="none"
     id="g24">
    <circle
       cx="3868.4792"
       cy="-3830.2402"
       r="3723.3298"
       fill="#cc0000"
       id="circle4"
       transform="scale(1,-1)"
       style="fill:#2b0000;fill-opacity:1;stroke-width:10.951" />
    <circle
       cx="4963.5757"
       cy="-3830.2402"
       fill="#ffffff"
       id="circle6"
       transform="rotate(-180,3868.4792,0)"
       style="stroke-width:10.951"
       r="3066.2717"
       clip-path="url(#clipPath261)" />
    <text
       xml:space="preserve"
       id="text34"
       style="font-style:normal;font-variant:normal;font-weight:normal;font-stretch:normal;font-size:300px;line-height:1.25;font-family:Vibes;-inkscape-font-specification:Vibes;white-space:pre;shape-inside:url(#rect36);fill:#000000;fill-opacity:1;stroke:none;"
       transform="matrix(1.1399022,0,0,1.1399022,-568.30834,-493.03693)" />
    <g
       id="g271"
       transform="translate(-11142.038,3338.7295)"
       style="fill:#2b0000">
      <text
         xml:space="preserve"
         style="font-style:normal;font-variant:normal;font-weight:normal;font-stretch:normal;font-size:3110.65px;line-height:1.25;font-family:Vibes;-inkscape-font-specification:Vibes;fill:#2b0000;fill-opacity:1;stroke:none;stroke-width:77.7661"
         x="11858.693"
         y="681.61066"
         id="text42"
         transform="scale(1,-1)"><tspan
           id="tspan40"
           x="11858.693"
           y="681.61066"
           style="font-style:normal;font-variant:normal;font-weight:normal;font-stretch:normal;font-family:'Noto Nastaliq Urdu';-inkscape-font-specification:'Noto Nastaliq Urdu';fill:#2b0000;stroke-width:77.7661"
           sodipodi:role="line">ليرة</tspan></text>
      <path
         style="fill:#2b0000;fill-opacity:1;stroke-width:25.6311"
         d="m 12434.29,-1991.5224 c -22.51,22.5098 18.125,80.411 167.884,239.2215 246.393,261.2848 427.511,513.2145 740.934,1030.61713 435.471,718.8808042 622.436,951.9616 866.36,1080.0538 117.002,61.4414 157.941,67.9045 470.376,74.2597 535.399,10.8908 555.231,38.3657 580.001,803.48927 24.761,764.8206 53.028,1009.0445 148.419,1282.2788 94.445,270.5252 162.412,337.5522 136.625,134.7346 -8.729,-68.6547 -38.9,-465.08 -67.047,-880.9451 -77.935,-1151.49947 -157.936,-1469.54227 -451.344,-1794.308966 -146.406,-162.054604 -289.871,-206.689704 -647.106,-201.328804 -287.855,4.3199 -311.844,0.725 -420.667,-63.0505 -120.604,-70.6784 -274.834,-261.2691 -687.509,-849.59523 -185.09,-263.8702 -739.696,-885.1242 -790.169,-885.1242 -9.382,0 -30.423,13.364 -46.757,29.698 z"
         id="path198" />
      <path
         style="fill:#2b0000;fill-opacity:1;stroke-width:25.6311"
         d="m 12015.389,-655.47507 c -49.49,33.2756 -100.429,96.9061 -117.983,147.379 -59.996,172.5031 14.152,475.717404 171.132,699.8145 63.703,90.9386 94.602,159.8652 86.151,192.179 -17.902,68.4601 68.017,254.777 172.218,373.4552 77.571,88.349 94.874,96.2739 184.077,84.3092 197.07,-26.4326 382.186,-233.5934 435.388,-487.2376 79.443,-378.747096 -150.404,-871.2129 -475.513,-1018.8251 -151.206,-68.6534 -345.758,-64.8408 -455.47,8.9258 z m 540.559,315.0619 c 154.435,29.8127 223.55,210.5981 141.311,369.631304 -65.49,126.642696 -316.171,276.054796 -405.591,241.741396 -57.934,-22.2313 -168.628,-220.274696 -185.314,-331.545596 -21.679,-144.562904 36.829,-259.138204 149.063,-291.910904 79.213,-23.1301 128.352,-21.1544 300.531,12.0838 z"
         id="path200" />
      <path
         style="fill:#2b0000;fill-opacity:1;stroke-width:25.6311"
         d="m 12073.783,1230.2778 -136.457,122.2806 134.083,158.5522 c 73.746,87.2037 147.983,158.5522 164.972,158.5522 16.988,0 74.429,-34.602 127.646,-76.8935 53.217,-42.2913 100.701,-76.8933 105.521,-76.8933 4.82,0 56.348,51.6236 114.508,114.7192 l 105.744,114.7192 112.264,-77.2394 c 205.171,-141.1612 213.363,-227.4422 37.237,-392.1874 -69.882,-65.3661 -136.928,-118.8475 -148.992,-118.8475 -12.063,0 -55.084,34.602 -95.602,76.8934 -40.518,42.2914 -81.125,76.8934 -90.239,76.8934 -9.115,0 -66.546,-46.136 -127.626,-102.5246 -61.079,-56.3884 -123.552,-102.0251 -138.828,-101.4148 -15.276,0.6104 -89.18,56.136 -164.231,123.3903 z"
         id="path202" />
      <path
         style="fill:#2b0000;fill-opacity:1;stroke-width:25.6311"
         d="m 13957.999,-1572.3221 -148.945,135.9218 151.747,161.445 c 168.866,179.6575 133.161,176.2678 333.312,31.6431 57.356,-41.4445 62.173,-39.5406 171.551,67.8051 l 112.537,110.447 71.945,-45.7432 c 236.18,-150.1642 248.679,-247.8341 54.986,-429.6826 l -132.3,-124.2093 -98.381,96.066 -98.38,96.0661 -96.117,-89.8859 c -171.109,-160.0169 -157.871,-159.6109 -321.955,-9.8731 z"
         id="path204" />
    </g>
  </g>
</svg>
