<?xml version="1.0" standalone="no"?>
<!DOCTYPE svg PUBLIC "-//W3C//DTD SVG 20010904//EN"
 "http://www.w3.org/TR/2001/REC-SVG-20010904/DTD/svg10.dtd">
<svg version="1.0" xmlns="http://www.w3.org/2000/svg"
 width="256.000000pt" height="256.000000pt" viewBox="0 0 256.000000 256.000000"
 preserveAspectRatio="xMidYMid meet">
<metadata>
Created by potrace 1.16, written by Peter Selinger 2001-2019
</metadata>
<g transform="translate(0.000000,256.000000) scale(0.100000,-0.100000)"
fill="#000000" stroke="none">
<path d="M732 2333 c280 -2 736 -2 1015 0 280 1 51 2 -507 2 -558 0 -787 -1
-508 -2z"/>
<path d="M1664 2199 l-81 -81 -89 23 c-78 20 -113 23 -279 23 -182 0 -194 -1
-275 -28 -47 -16 -107 -40 -135 -54 -228 -114 -399 -327 -466 -577 -30 -113
-31 -326 -1 -438 46 -170 161 -356 280 -452 34 -28 62 -52 62 -55 0 -3 -25
-30 -55 -60 -30 -30 -55 -61 -55 -69 0 -9 29 13 65 49 60 59 66 63 90 52 32
-15 32 -22 -5 -57 -31 -30 -39 -55 -18 -55 7 0 29 17 50 37 37 36 39 36 68 22
l30 -14 -85 -85 c-46 -47 -85 -89 -85 -95 0 -5 42 32 93 82 l92 92 80 -25
c152 -49 433 -43 610 13 77 25 175 68 175 78 0 3 -23 -6 -51 -21 -28 -14 -53
-23 -56 -20 -3 2 15 15 38 27 47 23 121 77 181 131 101 89 197 249 244 403 24
78 27 108 28 230 1 117 -3 155 -23 230 -45 171 -157 351 -279 451 -50 41 -67
66 -37 56 6 -2 7 0 2 4 -4 4 16 32 45 61 28 29 49 56 45 60 -4 4 -31 -17 -61
-46 -50 -49 -54 -51 -79 -40 -32 15 -33 20 -7 44 22 20 27 45 8 45 -7 0 -23
-11 -37 -24 -15 -13 -37 -27 -51 -31 -20 -5 -22 -4 -10 5 12 9 9 11 -15 6 -16
-3 -24 -3 -17 0 6 3 10 10 6 15 -3 5 18 31 46 57 45 41 107 112 98 112 -2 0
-40 -36 -84 -81z m-228 -84 c230 -67 417 -221 528 -436 73 -138 91 -217 91
-394 0 -176 -12 -227 -85 -380 -132 -273 -400 -455 -710 -481 -79 -7 -191 11
-265 42 -19 7 -42 11 -51 7 -11 -4 -15 -2 -11 4 4 6 0 14 -9 17 -8 3 -12 2 -9
-4 10 -17 -4 -12 -85 31 -202 104 -357 295 -426 524 -24 81 -27 106 -28 240 0
135 3 159 27 238 49 159 127 288 240 394 90 85 255 183 304 181 10 -1 50 8 88
20 39 12 79 23 90 26 49 12 224 -4 311 -29z m279 -67 c14 -6 25 -15 25 -20 0
-13 -13 -9 -40 12 -28 22 -23 25 15 8z m-1222 -285 c-159 -248 -181 -577 -58
-848 19 -41 33 -75 30 -75 -11 0 -67 116 -90 190 -21 66 -28 112 -33 209 -9
215 33 364 150 539 43 63 43 51 1 -15z m1513 -78 c107 -199 125 -488 44 -696
-30 -76 -82 -179 -91 -179 -4 0 6 24 21 53 72 132 103 258 103 417 1 170 -30
293 -109 440 -20 36 -27 54 -15 40 11 -13 32 -47 47 -75z m-1511 -881 c9 -15
12 -23 6 -20 -11 7 -35 46 -28 46 3 0 12 -12 22 -26z"/>
<path d="M804 2014 c-18 -14 -18 -15 4 -4 12 6 22 13 22 15 0 8 -5 6 -26 -11z"/>
<path d="M759 1983 c-13 -16 -12 -17 4 -4 9 7 17 15 17 17 0 8 -8 3 -21 -13z"/>
<path d="M675 1908 l-40 -43 43 40 c39 36 47 45 39 45 -2 0 -21 -19 -42 -42z"/>
<path d="M714 1869 c-10 -17 13 -36 27 -22 12 12 4 33 -11 33 -5 0 -12 -5 -16
-11z"/>
<path d="M540 1740 c-6 -11 -8 -20 -6 -20 3 0 10 9 16 20 6 11 8 20 6 20 -3 0
-10 -9 -16 -20z"/>
<path d="M772 1593 l3 -98 127 -3 128 -3 2 -272 c3 -265 4 -272 23 -275 18 -2
20 2 17 38 -4 40 -4 40 31 40 36 0 52 -19 45 -51 -2 -7 8 -15 22 -19 20 -5 25
-12 25 -35 0 -27 -3 -30 -30 -30 -27 0 -30 4 -33 33 -2 17 -9 32 -15 32 -9 0
-11 -13 -9 -40 l4 -40 84 0 84 0 0 310 0 310 90 0 c87 0 91 -1 100 -24 14 -38
46 -49 165 -56 103 -7 99 -7 -77 -8 -104 -1 -188 -6 -188 -10 0 -11 383 -2
395 9 20 20 -15 28 -133 31 -109 3 -125 5 -138 22 -21 29 -17 36 15 36 28 0
30 2 33 48 l3 47 140 7 c204 11 212 15 25 16 l-165 0 -3 41 -3 41 -385 0 -385
0 3 -97z"/>
<path d="M1584 1519 c-10 -17 16 -29 61 -27 40 1 40 1 5 5 -92 10 -48 18 120
23 l185 6 -182 2 c-125 1 -184 -1 -189 -9z"/>
<path d="M1823 1490 c16 -5 35 -17 44 -27 13 -17 13 -17 4 3 -11 23 -32 35
-59 33 -9 0 -4 -5 11 -9z"/>
<path d="M921 1451 c-6 -11 -25 -59 -42 -108 -18 -48 -35 -91 -38 -96 -4 -4
-25 34 -47 84 -29 68 -46 94 -67 105 -16 9 -31 14 -33 11 -2 -2 14 -43 36 -92
22 -48 40 -91 40 -96 0 -5 -43 -30 -95 -56 -52 -26 -95 -51 -95 -54 0 -4 12
-10 27 -14 21 -5 49 4 125 42 54 27 98 46 98 42 0 -4 -11 -37 -26 -74 -25 -68
-23 -84 11 -85 6 0 39 77 73 171 58 161 61 173 45 186 -17 13 -17 14 3 8 16
-4 23 0 27 14 9 35 -25 45 -42 12z"/>
<path d="M1882 1410 c0 -14 2 -19 5 -12 2 6 2 18 0 25 -3 6 -5 1 -5 -13z"/>
<path d="M1866 1365 c-3 -9 -20 -22 -38 -30 -25 -11 -28 -14 -12 -15 21 0 72
45 62 55 -3 3 -8 -1 -12 -10z"/>
<path d="M1423 1313 c71 -2 183 -2 250 0 67 1 10 3 -128 3 -137 0 -192 -2
-122 -3z"/>
<path d="M1040 810 c0 -25 4 -30 24 -30 19 0 25 6 28 30 4 27 2 30 -24 30 -24
0 -28 -4 -28 -30z"/>
<path d="M580 771 c5 -11 15 -23 21 -27 6 -3 3 5 -6 20 -20 30 -30 35 -15 7z"/>
<path d="M1100 745 c0 -22 4 -26 23 -23 14 2 22 10 22 23 0 13 -8 21 -22 23
-19 3 -23 -1 -23 -23z"/>
<path d="M990 724 c0 -34 1 -35 33 -32 28 3 32 7 35 36 3 31 2 32 -32 32 -35
0 -36 -1 -36 -36z"/>
<path d="M670 668 c24 -27 45 -48 47 -48 8 0 0 9 -44 50 l-48 45 45 -47z"/>
<path d="M964 655 c-8 -20 4 -35 27 -35 14 0 19 7 19 25 0 18 -5 25 -20 25
-11 0 -23 -7 -26 -15z"/>
<path d="M1079 651 c10 -7 11 -13 1 -31 -6 -12 -10 -24 -7 -26 2 -3 10 9 17
25 6 17 19 32 28 34 10 3 1 5 -18 6 -23 0 -30 -2 -21 -8z"/>
<path d="M1131 626 c-19 -20 -31 -36 -27 -36 5 0 20 12 33 28 l24 27 -7 -30
c-5 -23 -4 -27 5 -19 7 6 11 24 9 38 l-3 27 -34 -35z"/>
<path d="M1209 644 c-10 -13 -10 -17 2 -24 11 -8 11 -12 1 -22 -10 -10 -15
-10 -23 2 -9 12 -10 12 -7 1 6 -21 21 -23 43 -7 20 14 20 15 1 29 -14 11 -16
16 -6 22 7 4 16 2 21 -6 7 -11 9 -10 9 4 0 21 -23 22 -41 1z"/>
<path d="M1257 625 c-18 -39 -23 -61 -6 -32 5 9 14 17 19 17 5 0 11 -8 13 -17
3 -12 5 -8 6 9 1 15 10 33 23 42 12 9 18 16 12 16 -5 0 -16 -6 -22 -12 -10
-10 -14 -10 -21 0 -5 8 -13 1 -24 -23z"/>
<path d="M1366 645 c4 -8 -1 -26 -10 -40 -9 -14 -13 -25 -8 -25 11 0 42 66 35
74 -12 12 -22 6 -17 -9z"/>
<path d="M1417 632 c-23 -25 -22 -52 1 -52 23 0 52 30 52 53 0 23 -33 22 -53
-1z m43 2 c0 -16 -23 -44 -35 -44 -18 0 -20 21 -3 38 12 12 38 17 38 6z"/>
<path d="M1493 638 c-6 -7 -16 -24 -23 -38 l-13 -25 22 19 c19 17 21 17 21 3
0 -10 4 -17 9 -17 5 0 7 8 4 19 -3 12 3 24 18 35 13 9 18 16 12 16 -7 0 -15
-4 -18 -10 -3 -5 -11 -10 -16 -10 -6 0 -7 5 -4 10 9 14 -1 12 -12 -2z"/>
<path d="M1548 616 c-15 -31 -15 -35 -1 -40 9 -4 18 -4 21 -1 3 3 0 5 -6 5
-23 0 -12 30 11 31 17 1 18 2 4 6 -22 6 -12 23 15 23 14 0 18 -5 14 -15 -17
-42 -17 -48 0 -25 l19 25 5 -30 6 -30 22 43 c12 23 20 42 18 42 -3 0 -12 -12
-19 -26 l-14 -27 -6 24 c-5 20 -14 25 -40 27 -29 2 -35 -2 -49 -32z"/>
<path d="M745 600 c10 -11 20 -20 23 -20 3 0 -3 9 -13 20 -10 11 -20 20 -23
20 -3 0 3 -9 13 -20z"/>
<path d="M780 576 c0 -2 8 -10 18 -17 15 -13 16 -12 3 4 -13 16 -21 21 -21 13z"/>
<path d="M1505 2211 c-8 -15 3 -31 21 -31 9 0 14 7 12 17 -4 20 -24 28 -33 14z"/>
<path d="M1790 2006 c0 -2 8 -10 18 -17 15 -13 16 -12 3 4 -13 16 -21 21 -21
13z"/>
<path d="M1850 1955 c13 -14 26 -25 28 -25 3 0 -5 11 -18 25 -13 14 -26 25
-28 25 -3 0 5 -11 18 -25z"/>
<path d="M1930 1877 c0 -2 15 -16 33 -33 l32 -29 -29 33 c-28 30 -36 37 -36
29z"/>
<path d="M1989 763 c-13 -16 -12 -17 4 -4 16 13 21 21 13 21 -2 0 -10 -8 -17
-17z"/>
<path d="M1954 718 l-19 -23 23 19 c21 18 27 26 19 26 -2 0 -12 -10 -23 -22z"/>
<path d="M1859 623 c-26 -21 -59 -48 -75 -61 -16 -13 -9 -9 16 7 48 33 118 90
110 91 -3 0 -26 -17 -51 -37z"/>
<path d="M865 371 c-8 -15 3 -31 21 -31 9 0 14 7 12 17 -4 20 -24 28 -33 14z"/>
</g>
</svg>
