<?xml version="1.0" encoding="UTF-8"?>
<svg width="500px" height="500px" viewBox="0 0 500 500" version="1.1" xmlns="http://www.w3.org/2000/svg" xmlns:xlink="http://www.w3.org/1999/xlink">
    <!-- Generator: Sketch 53.2 (72643) - https://sketchapp.com -->
    <title>BFT 2</title>
    <desc>Created with Sketch.</desc>
    <g id="Page-1" stroke="none" stroke-width="1" fill="none" fill-rule="evenodd">
        <g id="BFT" fill-rule="nonzero">
            <rect id="Blue-Tile" fill="#43B5EF" x="0" y="0" width="500" height="500"></rect>
            <g id="[BFT:SLP]" transform="translate(126.000000, 116.000000)" fill="#FFFFFF">
                <polygon id="B-Dot" points="289.174531 201.165733 289.174531 256.269551 233.037113 256.269551 233.037113 201.165733"></polygon>
                <path d="M120.497166,0.730449169 C132.637332,0.730449169 143.733772,1.78521649 153.743497,3.94178907 C163.749243,6.0943755 172.321159,9.60548294 179.477559,14.4974342 C186.622814,19.3885889 192.162277,25.8997635 196.091967,34.0182034 C200.025639,42.123089 201.988892,52.1238456 201.988892,64.0667136 C201.988892,76.9463551 199.07745,87.681383 193.246604,96.2805662 C187.380728,104.877358 178.750694,111.908343 167.322268,117.386277 C183.050584,121.94657 194.798258,129.862508 202.510357,141.198665 C210.269427,152.535619 214.141,166.210921 214.141,182.199056 C214.141,195.085075 211.649117,206.226703 206.630323,215.639086 C201.638595,225.107277 194.913697,232.795996 186.431743,238.747498 C177.995964,244.718932 168.336535,249.102236 157.486894,251.967567 C146.664322,254.832899 135.515336,256.269551 124.08691,256.269551 L0.401162389,256.269551 L0.401162389,0.730449169 L120.497166,0.731246469 L120.497166,0.730449169 Z M113.351912,104.151857 C123.373578,104.151857 131.577684,101.775242 138.011199,96.9965005 C144.440735,92.243271 147.667444,84.4708405 147.667444,73.7230568 C147.667444,67.7882963 146.579136,62.8803999 144.440735,59.0655381 C142.306314,55.2658248 139.432289,52.2569871 135.876779,50.1044013 C132.291015,47.9892853 128.174234,46.4760976 123.543951,45.6389801 C118.879433,44.8178085 114.074001,44.3872915 109.04804,44.3872915 L56.5338036,44.3872915 L56.5338036,104.151857 L113.351912,104.151857 L113.351912,104.151857 Z M116.558718,212.610317 C122.044044,212.610317 127.291328,212.068981 132.287035,211.014214 C137.297869,209.924368 141.707625,208.133735 145.517896,205.62637 C149.304284,203.126978 152.355846,199.736256 154.618443,195.43507 C156.873079,191.125911 158.039408,185.651964 158.039408,178.967785 C158.039408,165.844981 154.339002,156.482825 146.937394,150.853413 C139.567631,145.266256 129.784006,142.45992 117.630306,142.45992 L56.5346001,142.45992 L56.5346001,212.610317 L116.558718,212.610317 L116.558718,212.610317 Z" id="Blockfreight™"></path>
            </g>
        </g>
    </g>
</svg>