<svg xmlns="http://www.w3.org/2000/svg" xmlns:xlink="http://www.w3.org/1999/xlink" viewBox="0 0 447 447"><defs><style>.cls-1{stroke:#6e8eba;stroke-miterlimit:10;stroke-width:10px;fill:url(#radial-gradient);}.cls-2{fill:#ffb347;}.cls-3{fill:none;}.cls-4{fill:#e0864f;}.cls-5{fill:#fefefe;}</style><radialGradient id="radial-gradient" cx="223.5" cy="223.5" r="218.5" gradientUnits="userSpaceOnUse"><stop offset="0" stop-color="#9fc0de"/><stop offset="1" stop-color="#779ecc"/></radialGradient></defs><g id="Layer_2" data-name="Layer 2"><g id="Layer_1-2" data-name="Layer 1"><circle class="cls-1" cx="223.5" cy="223.5" r="218.5"/><path class="cls-2" d="M249,234.64c-.79,12.94-1.56,25.78-2.4,39.54,31.17-5.65,52.18-32,49-58.51-1.8-15-5-29.82-7.89-44.66-8.63-44.18,25.71-93.18,73.05-101.89-10.08,55.89,7.52,98.24,62.43,122.59-38.75,30.92-53.34,68.73-36.21,118.14-53.08-9.8-85.86,12.35-101.62,62.93-30.68-4.3-50.23,10.37-61.74,41.34C212,385,194,368.64,167.75,372.53c-15-18.94-26.49-37.81-42.18-52-17.25-15.65-40.26-15.76-65.12-9.37C75,263,65,223.61,23.83,192.6c52.55-25.47,73.23-66,61.94-122,36.37.12,77.6,47.39,74.73,86.93-1.46,20-6.95,39.73-8.78,59.75-2.47,27,17.06,50.73,46.52,56.83.9-6.67,2.68-13.26,2.4-19.76-.28-6.34-2.68-12.59-4.86-21.92C215.82,248.25,229.73,248.19,249,234.64Z"/><path class="cls-3" d="M150.57,236.27A51.81,51.81,0,0,1,148.73,217c.58-6.31,1.52-12.63,2.58-18.86-50.3-9.93-101.73-5.61-120-3.51,31.32,26,43.42,58.14,36.7,97.76C85.2,268.51,113.33,249.34,150.57,236.27Z"/><path class="cls-3" d="M96.65,186.07a349.11,349.11,0,0,1,55.69,6.18c.23-1.31.46-2.61.7-3.91,1.82-10.16,3.71-20.66,4.46-31,1.36-18.59-8-41.09-24.31-58.73-13.3-14.36-29.39-23.41-43.77-24.8,8.93,50.07-8,88.35-50.5,114A459,459,0,0,1,96.65,186.07Z"/><path class="cls-3" d="M179.33,270.53a58.19,58.19,0,0,1-26.76-28.59C122.35,252.55,84.91,272.09,66,306.72c26.92-5.75,46.59-2,61.55,11.55,11,10,19.87,22.05,29.26,34.83,2.35,3.2,4.76,6.47,7.23,9.75C162.7,335.5,165.08,301.22,179.33,270.53Z"/><path class="cls-3" d="M294.67,241.23A60,60,0,0,1,271,268c14.83,27.83,18.92,58.8,18.76,85.07,7.81-16.52,18.13-28.91,30.81-36.94,16.17-10.24,36.59-13.66,60.77-10.24C370,285.06,345.87,258.83,294.67,241.23Z"/><path class="cls-3" d="M408,187.41c-20-11.41-34.49-26.12-43.1-43.86C355.41,124,352.78,100.3,357.05,73c-20.76,5-39.71,18.36-52.49,37.13s-17.77,40.64-13.92,60.33c.48,2.48,1,4.95,1.47,7.43.94,4.75,1.9,9.57,2.8,14.42a339.89,339.89,0,0,1,55.91-6.45A451.74,451.74,0,0,1,408,187.41Z"/><path class="cls-3" d="M296,198.23c1,5.68,1.88,11.38,2.57,17.08a49.35,49.35,0,0,1-1.83,20.28c36.79,12.67,64.7,31.47,82,55.06-6.88-37.2,5.25-68.94,36.77-96.43C397.37,192.19,346.15,188,296,198.23Z"/><path class="cls-4" d="M424.39,189c-51.23-22.72-71.08-61.75-60.7-119.32l.77-4.27-4.26.79c-24,4.41-46.06,19.19-60.6,40.56-13.59,20-19,43.6-14.85,64.86l1.47,7.44c.95,4.79,1.92,9.65,2.83,14.54.37,2,.72,4,1.07,5.93,1,5.51,1.82,11,2.48,16.53a43.37,43.37,0,0,1-1.55,17.67,46.63,46.63,0,0,1-2.11,5.63A54,54,0,0,1,268,262.79a59.29,59.29,0,0,1-5.25,2.92,62.65,62.65,0,0,1-13,4.72l1.28-21.19.51-8.46.64-10.56.1-1.62-1.86,1.31-3.24,2.28c-.88.62-1.74,1.19-2.59,1.75q-2.81,1.83-5.44,3.23c-10.58,5.56-19.54,5.84-29.76.7a57.67,57.67,0,0,1-5.42-3.14c-2.06-1.34-4.18-2.88-6.39-4.62h0l-6.22-4.9-.5-.4.11.48,1.36,5.84.47,2c.73,3.13,1.5,6,2.17,8.44.23.84.44,1.65.65,2.44a68.1,68.1,0,0,1,1.69,7.65c.13,1,.23,1.9.27,2.84.18,4.19-.57,8.48-1.37,13-.17,1-.34,2-.51,3a62.77,62.77,0,0,1-8.34-2.79c-1.87-.77-3.69-1.62-5.44-2.55A52.3,52.3,0,0,1,158.29,240a45.22,45.22,0,0,1-2-5.65,45.78,45.78,0,0,1-1.56-16.77c.55-6,1.46-12.13,2.47-18.16.34-2,.68-4,1-5.93.25-1.37.49-2.73.73-4.09,1.86-10.31,3.77-21,4.55-31.62,1.49-20.5-8.19-44.15-25.9-63.25-15.79-17-34.68-26.84-51.81-26.9H82.1l.72,3.6c5.49,27.16,3.21,50.87-6.75,70.47s-28,35.82-53.55,48.21L18.1,192,22,195c38.62,29.07,50.25,66.77,35.55,115.26L56,315.35,61.19,314c28.07-7.21,47.88-4.45,62.36,8.69,10.55,9.57,19.25,21.41,28.47,34,4.24,5.78,8.64,11.75,13.37,17.73l1.08,1.36,1.72-.25c23-3.41,40.74,9.95,52.62,39.73l2.89,7.23,2.71-7.3c11.48-30.87,30.07-43.39,58.51-39.41l2.53.36.75-2.44.12-.34c.2-.66.42-1.3.64-1.95,15.91-48.57,47.81-67.75,97.46-58.58l5.06.93-1.68-4.87c-8.23-23.72-9.15-44.69-2.83-64.09,6-18.49,18.47-35.08,38.07-50.71l3.87-3.09ZM292.11,177.86c-.5-2.48-1-5-1.47-7.43-3.85-19.69,1.22-41.68,13.92-60.33S336.29,78,357.05,73c-4.27,27.33-1.64,51.06,7.83,70.58C373.49,161.29,388,176,408,187.41a451.74,451.74,0,0,0-57.16-1.58,339.89,339.89,0,0,0-55.91,6.45C294,187.43,293.05,182.61,292.11,177.86ZM89.42,73.81c14.38,1.39,30.47,10.44,43.77,24.8,16.35,17.64,25.67,40.14,24.31,58.73-.75,10.34-2.64,20.84-4.46,31-.24,1.3-.47,2.6-.7,3.91a349.11,349.11,0,0,0-55.69-6.18,459,459,0,0,0-57.73,1.76C81.37,162.16,98.35,123.88,89.42,73.81ZM31.27,194.67c18.31-2.1,69.74-6.42,120,3.51-1.06,6.23-2,12.55-2.58,18.86a51.81,51.81,0,0,0,1.84,19.23C113.33,249.34,85.2,268.51,68,292.43,74.69,252.81,62.59,220.64,31.27,194.67ZM156.85,353.1c-9.39-12.78-18.27-24.86-29.26-34.83C112.63,304.69,93,301,66,306.72c18.87-34.63,56.31-54.17,86.53-64.78a58.19,58.19,0,0,0,26.76,28.59c-14.25,30.69-16.63,65-15.25,92.32C161.61,359.57,159.2,356.3,156.85,353.1Zm66.67,53.25C212,381.49,195.8,369,175.33,369c-1.58,0-3.2.1-4.83.25-3.31-43.8,4.5-75,14.28-96.1a69.5,69.5,0,0,0,12.86,4l3.15.66.43-3.2c.26-2,.62-4,1-6,.82-4.66,1.67-9.48,1.45-14.33a44.7,44.7,0,0,0-1.38-8.73c-.42-1.77-.91-3.58-1.43-5.5,0-.09,0-.18-.07-.27q2.19,1.42,4.32,2.59c13.32,7.27,25,6.93,38.79-.87.58-.33,1.17-.67,1.76-1l-.16,2.63-2.1,34.75,3.76-.68a68.92,68.92,0,0,0,18.62-6.2c17.45,32.8,19.41,70.35,17.35,98.55C255.42,366.49,235.86,378.58,223.52,406.35Zm97-90.21c-12.68,8-23,20.42-30.81,36.94.16-26.27-3.93-57.24-18.76-85.07a60,60,0,0,0,23.69-26.78c51.2,17.6,75.31,43.83,86.65,64.67C357.14,302.48,336.72,305.9,320.55,316.14Zm58.18-25.49c-17.3-23.59-45.21-42.39-82-55.06a49.35,49.35,0,0,0,1.83-20.28c-.69-5.7-1.58-11.4-2.57-17.08,50.16-10.23,101.38-6,119.51-4C384,221.71,371.85,253.45,378.73,290.65Z"/><path class="cls-4" d="M325.15,283v10.54a1.77,1.77,0,0,1-1,1.77,25.05,25.05,0,0,1-9.84,2.59c-1.18.1-1.38.28-1,1.47a27.65,27.65,0,0,1,1.7,10.71,1.65,1.65,0,0,1-1.17,1.72c-10.11,3.88-19.08,9.74-27.83,16-7.24,5.17-13.88,11.13-21.12,16.31a88.7,88.7,0,0,1-24,12.61c-12.4,4.08-24.76,4.12-37.07-.55a92.75,92.75,0,0,1-20.52-11.22c-7.81-5.49-15.08-11.69-22.72-17.4-7.79-5.82-15.9-11.13-25-14.78-.83-.33-1.71-.54-2.57-.79a1.65,1.65,0,0,1-1.33-1.87,33.43,33.43,0,0,1,2-10.94c.46-1.15,0-1.2-.93-1.25-3.48-.15-6.91-.58-10-2.49a1.84,1.84,0,0,1-1-1.75c.11-6.64.12-13.29.7-19.91A159.71,159.71,0,0,1,125,256.17,116.83,116.83,0,0,1,133.7,229c1.11-2.32.39-4.4-.52-6.52a99.45,99.45,0,0,1-7.47-29.58,106.37,106.37,0,0,1,3.09-37.68A80.28,80.28,0,0,1,135,138.4c.87-1.67.87-1.63,2.65-1,12.66,4.45,24.08,11.16,34.78,19.19a121.25,121.25,0,0,1,19.34,17.93c.77.9,1.33,2,2.51,2.48a3.36,3.36,0,0,0,2.38,0,84.56,84.56,0,0,1,16.09-3.7,93.48,93.48,0,0,1,17.7-.36,76.14,76.14,0,0,1,19.41,3.92,3.74,3.74,0,0,0,4.52-1.32c9.26-11.28,20.56-20.12,33-27.67A118,118,0,0,1,310,137.13c.78-.27,1.14-.25,1.59.56a74.13,74.13,0,0,1,6.32,16.58A106.74,106.74,0,0,1,321,192.84a99.91,99.91,0,0,1-7,28.54,10.69,10.69,0,0,0,.26,9.35,97.28,97.28,0,0,1,9,30.07C324.26,268.15,324.86,275.53,325.15,283ZM275,192.13c-.53.46-1.09.29-1.69.12a33.37,33.37,0,0,1-4.39-2.1,125.14,125.14,0,0,0-16.61-6.4,103.22,103.22,0,0,0-24.33-4.15,93.43,93.43,0,0,0-17,.72,109.51,109.51,0,0,0-14.4,2.87,84.72,84.72,0,0,0-10.13,3.48c-3.91,1.63-7.8,3.29-11.58,5.2-.81.4-1.7.89-2.66.28l3.21-3.47a84,84,0,0,1,9.14-6.16,3.32,3.32,0,0,0,.88-5.26c-1.33-1.5-2.72-2.94-4.09-4.41a124.89,124.89,0,0,0-16.64-14.61,117.63,117.63,0,0,0-24.46-14.46c-.91-.38-1.26-.17-1.51.52A125.42,125.42,0,0,0,134,159.08a122.08,122.08,0,0,0-2.23,12.48,94.94,94.94,0,0,0-.51,17.43,87,87,0,0,0,3.18,18.79,83.28,83.28,0,0,0,5.92,15.41c.86,1.64,1.18,3.19.14,4.84a11.24,11.24,0,0,0-.58,1.15,98.54,98.54,0,0,0-8.22,23c-2.06,9.52-2.72,19.19-3.07,28.9a20,20,0,0,0,0,4.23,26.32,26.32,0,0,0-.26,4.86.63.63,0,0,0,.56.72c1.42.31,2.76.88,4.21,1.08a65.75,65.75,0,0,0,7.67.77c.83,0,1.24.15.79,1.17a42.31,42.31,0,0,0-1.74,4.68,29,29,0,0,0-1.52,7.26,1.18,1.18,0,0,0,.85,1.31,119.59,119.59,0,0,1,21,12c6.27,4.62,12.07,9.81,18.12,14.71,7.15,5.8,14.54,11.25,22.9,15.23a53,53,0,0,0,17.79,5c10.24,1,19.77-1.43,28.82-6.11,8.6-4.45,16.19-10.35,23.58-16.52,4.73-3.94,9.35-8,14.28-11.73a115,115,0,0,1,21.85-12.55,1.38,1.38,0,0,0,1-1.73,41.07,41.07,0,0,0-3.42-11.63c-.43-1-.36-1.39.88-1.39A39.37,39.37,0,0,0,317.66,291c.49-.15.89-.2.85-.86a43.74,43.74,0,0,0-.21-5c0-.6.11-1.19.1-1.79-.1-4.62-.39-9.23-.72-13.84A141.43,141.43,0,0,0,315,250.59,83,83,0,0,0,310.89,237a47.1,47.1,0,0,0-3.89-7.78c-1.13-1.8-1.66-3.61-.44-5.65a34.88,34.88,0,0,0,2.09-4.25A92.22,92.22,0,0,0,316,187.86a97.46,97.46,0,0,0-2-24.62,108.5,108.5,0,0,0-5.67-18.74c-.39-1-.83-1.06-1.72-.67a104,104,0,0,0-11.75,6,142.22,142.22,0,0,0-18.79,13.37A117.94,117.94,0,0,0,261.82,177c-1.73,2-1.43,4.07.87,5.46,2.12,1.28,4.16,2.69,6.24,4,1,.62,1.68,1.62,2.87,1.88C272.64,189.83,274,190.83,275,192.13Z"/><path class="cls-2" d="M128.67,285.32a20,20,0,0,1,0-4.23c.35-9.71,1-19.38,3.07-28.9a98.54,98.54,0,0,1,8.22-23,11.24,11.24,0,0,1,.58-1.15c1-1.65.72-3.2-.14-4.84a83.28,83.28,0,0,1-5.92-15.41A87,87,0,0,1,131.26,189a94.94,94.94,0,0,1,.51-17.43A122.08,122.08,0,0,1,134,159.08a125.42,125.42,0,0,1,4.66-14.78c.25-.69.6-.9,1.51-.52a117.63,117.63,0,0,1,24.46,14.46,124.89,124.89,0,0,1,16.64,14.61c1.37,1.47,2.76,2.91,4.09,4.41a3.32,3.32,0,0,1-.88,5.26,84,84,0,0,0-9.14,6.16c-1.39-1.5-2.69-3.09-4.18-4.49-3.89-3.65-7.83-7.24-12-10.53a132.57,132.57,0,0,0-11.7-8.26c-1.84-1.15-2.88-.72-3.64,1.31a23.8,23.8,0,0,0-.95,5.28,69.56,69.56,0,0,0,.88,21.45,84,84,0,0,0,3,11.65c.77,2.35,1.57,4.69,2.49,7,.37.92.64.78,1.15.08a66.22,66.22,0,0,1,6.65-7.74,95.13,95.13,0,0,1,9.51-8.33,30.14,30.14,0,0,1,5.64-3.93c1,.61,1.85.12,2.66-.28,3.78-1.91,7.67-3.57,11.58-5.2a84.72,84.72,0,0,1,10.13-3.48,109.51,109.51,0,0,1,14.4-2.87,93.43,93.43,0,0,1,17-.72,103.22,103.22,0,0,1,24.33,4.15,125.14,125.14,0,0,1,16.61,6.4,33.37,33.37,0,0,0,4.39,2.1c.6.17,1.16.34,1.69-.12a1.22,1.22,0,0,1,.49.11,131.27,131.27,0,0,1,11.24,8.85,70.7,70.7,0,0,1,10.19,11.12c.53.74.79.67,1.08-.1.57-1.52,1.17-3,1.7-4.56a94,94,0,0,0,4.74-21.09,57.44,57.44,0,0,0-1-19.52c-.52-2.15-1.77-2.69-3.67-1.49a138.17,138.17,0,0,0-24,19.12c-1.29,1.29-2.34,2.82-3.89,3.85-1.19-.26-1.91-1.26-2.87-1.88-2.08-1.35-4.12-2.76-6.24-4-2.3-1.39-2.6-3.42-.87-5.46a117.94,117.94,0,0,1,14.27-13.82,142.22,142.22,0,0,1,18.79-13.37,104,104,0,0,1,11.75-6c.89-.39,1.33-.31,1.72.67A108.5,108.5,0,0,1,314,163.24a97.46,97.46,0,0,1,2,24.62,92.22,92.22,0,0,1-7.37,31.43,34.88,34.88,0,0,1-2.09,4.25c-1.22,2-.69,3.85.44,5.65a47.1,47.1,0,0,1,3.89,7.78A83,83,0,0,1,315,250.59a141.43,141.43,0,0,1,2.64,18.89c.33,4.61.62,9.22.72,13.84,0,.6-.07,1.19-.1,1.79a2.76,2.76,0,0,1-1.52-.63,37.34,37.34,0,0,0-10.48-4.36,48.93,48.93,0,0,0-17.35-.95,69.65,69.65,0,0,0-14.12,3.15,93.66,93.66,0,0,0-11,4.45,104.86,104.86,0,0,0-18.05,10.92,43.21,43.21,0,0,1-4.19,3.31,8.8,8.8,0,0,0-4.75-2.81,39.57,39.57,0,0,0-9.39-1.08,120.17,120.17,0,0,0-12.3.25c-3.5.37-7,.82-9.68,3.42-.77.13-1-.58-1.43-.94A82.22,82.22,0,0,0,189.75,290a60.65,60.65,0,0,0-5.46-3c-1.95-.81-3.85-1.77-5.86-2.48-2.52-.9-5-2-7.53-2.82a75.58,75.58,0,0,0-13.16-2.73,44.81,44.81,0,0,0-21.19,2.47A66.37,66.37,0,0,0,128.67,285.32ZM247.42,268.9c0,3,1.48,4.41,3.91,4.36a5.07,5.07,0,0,0,3.31-1.5c1.39-1.21,2.71-2.49,4.14-3.64,6.79-5.52,14.15-6.66,22.12-2.76a5.83,5.83,0,0,0,3,.6,2.76,2.76,0,0,0,2.61-2.53,4,4,0,0,0-1.9-3.82,23.75,23.75,0,0,0-19.52-4.49,28,28,0,0,0-13.87,7.07A11,11,0,0,0,247.42,268.9ZM175,254.56c-2.1-.11-5.69,1.2-9.15,3a17.78,17.78,0,0,0-4.49,3.14,3.09,3.09,0,0,0-1,3.38,3.77,3.77,0,0,0,3.47,2,6.28,6.28,0,0,0,2.67-.83,17,17,0,0,1,14.7-1.15,26,26,0,0,1,9.39,6.08,12.65,12.65,0,0,0,3.59,3,3.46,3.46,0,0,0,4-.75,4.26,4.26,0,0,0,1.13-4.37,11,11,0,0,0-2.52-4.41C191.49,257.74,184.81,254.76,175,254.56Zm9.17-19.94c-5,.15-8.83,1.5-12.12,4.3-1.06.91-1.84,1.92-1.38,3.44.41,1.34,1.28,1.92,3.19,2a113,113,0,0,1,14,1.78c3.24.6,6.44,1.36,9.63,2.15,1.85.45,3.07,0,3.83-1.27s.22-2.52-.57-3.67C196.53,237.33,190.38,235.2,184.15,234.62Zm79.4,0a23.79,23.79,0,0,0-9.2,2.12,18.48,18.48,0,0,0-8.12,6.64,3.91,3.91,0,0,0-.81,2.89c.31,1.82,2.08,2.57,4.4,2a119.11,119.11,0,0,1,23.65-3.86,2.93,2.93,0,0,0,2.78-1.89,2.65,2.65,0,0,0-.93-3.2A17.61,17.61,0,0,0,263.55,234.64Z"/><path class="cls-5" d="M128.67,285.32a66.37,66.37,0,0,1,7.88-3.91,44.81,44.81,0,0,1,21.19-2.47,75.58,75.58,0,0,1,13.16,2.73c2.57.78,5,1.92,7.53,2.82,2,.71,3.91,1.67,5.86,2.48a60.65,60.65,0,0,1,5.46,3A82.22,82.22,0,0,1,204,299.84c.43.36.66,1.07,1.43.94-.19,1.25-.67,2.44-.32,3.78a14,14,0,0,0,3.87,6.53,25.8,25.8,0,0,0,10.15,5.79c.79.26,1.3.65,1.31,1.49,0,1.45,0,2.91,0,4.36a2.25,2.25,0,0,1-1.43,2,63.71,63.71,0,0,1-7.88,3c-6.08,1.52-11.35.39-15.52-4.56a7.56,7.56,0,0,0-1.89-1.72,3.27,3.27,0,0,0-3.42-.19,3.23,3.23,0,0,0-1.75,3.06,6.4,6.4,0,0,0,1.8,4c3.27,3.78,7.69,5.26,12.42,6,5.39.9,10.46-.34,15.28-2.67a12.19,12.19,0,0,1,11.31.1c8,3.88,16.06,4,23.86-.76a11,11,0,0,0,5-5.47,3.67,3.67,0,0,0-1.13-4,3.42,3.42,0,0,0-4,0,10.25,10.25,0,0,0-2.13,2,13.71,13.71,0,0,1-12.66,4.69c-3.73-.5-7.07-2.23-10.54-3.52a2.52,2.52,0,0,1-1.37-2.57c0-1.11,0-2.22,0-3.34a1.93,1.93,0,0,1,1.54-2,24.37,24.37,0,0,0,8.78-4.65c3.32-2.95,6.1-6.2,4.83-11.17a43.21,43.21,0,0,0,4.19-3.31,104.86,104.86,0,0,1,18.05-10.92,93.66,93.66,0,0,1,11-4.45A69.65,69.65,0,0,1,289,279.17a48.93,48.93,0,0,1,17.35.95,37.34,37.34,0,0,1,10.48,4.36,2.76,2.76,0,0,0,1.52.63,43.74,43.74,0,0,1,.21,5c0,.66-.36.71-.85.86A39.37,39.37,0,0,1,306,292.49c-1.24,0-1.31.4-.88,1.39a41.07,41.07,0,0,1,3.42,11.63,1.38,1.38,0,0,1-1,1.73,115,115,0,0,0-21.85,12.55c-4.93,3.7-9.55,7.79-14.28,11.73-7.39,6.17-15,12.07-23.58,16.52-9.05,4.68-18.58,7.1-28.82,6.11a53,53,0,0,1-17.79-5c-8.36-4-15.75-9.43-22.9-15.23-6-4.9-11.85-10.09-18.12-14.71a119.59,119.59,0,0,0-21-12,1.18,1.18,0,0,1-.85-1.31,29,29,0,0,1,1.52-7.26,42.31,42.31,0,0,1,1.74-4.68c.45-1,0-1.14-.79-1.17a65.75,65.75,0,0,1-7.67-.77c-1.45-.2-2.79-.77-4.21-1.08a.63.63,0,0,1-.56-.72A26.32,26.32,0,0,1,128.67,285.32Z"/><path class="cls-5" d="M172.13,192.15a30.14,30.14,0,0,0-5.64,3.93,95.13,95.13,0,0,0-9.51,8.33,66.22,66.22,0,0,0-6.65,7.74c-.51.7-.78.84-1.15-.08-.92-2.29-1.72-4.63-2.49-7a84,84,0,0,1-3-11.65,69.56,69.56,0,0,1-.88-21.45,23.8,23.8,0,0,1,.95-5.28c.76-2,1.8-2.46,3.64-1.31a132.57,132.57,0,0,1,11.7,8.26c4.21,3.29,8.15,6.88,12,10.53,1.49,1.4,2.79,3,4.18,4.49Z"/><path class="cls-5" d="M271.8,188.42c1.55-1,2.6-2.56,3.89-3.85a138.17,138.17,0,0,1,24-19.12c1.9-1.2,3.15-.66,3.67,1.49a57.44,57.44,0,0,1,1,19.52,94,94,0,0,1-4.74,21.09c-.53,1.53-1.13,3-1.7,4.56-.29.77-.55.84-1.08.1a70.7,70.7,0,0,0-10.19-11.12,131.27,131.27,0,0,0-11.24-8.85,1.22,1.22,0,0,0-.49-.11C274,190.83,272.64,189.83,271.8,188.42Z"/><path class="cls-4" d="M241.57,301c1.27,5-1.51,8.22-4.83,11.17a24.37,24.37,0,0,1-8.78,4.65,1.93,1.93,0,0,0-1.54,2c0,1.12,0,2.23,0,3.34a2.52,2.52,0,0,0,1.37,2.57c3.47,1.29,6.81,3,10.54,3.52A13.71,13.71,0,0,0,251,323.6a10.25,10.25,0,0,1,2.13-2,3.42,3.42,0,0,1,4,0,3.67,3.67,0,0,1,1.13,4,11,11,0,0,1-5,5.47c-7.8,4.75-15.82,4.64-23.86.76a12.19,12.19,0,0,0-11.31-.1c-4.82,2.33-9.89,3.57-15.28,2.67-4.73-.78-9.15-2.26-12.42-6a6.4,6.4,0,0,1-1.8-4,3.23,3.23,0,0,1,1.75-3.06,3.27,3.27,0,0,1,3.42.19,7.56,7.56,0,0,1,1.89,1.72c4.17,4.95,9.44,6.08,15.52,4.56a63.71,63.71,0,0,0,7.88-3,2.25,2.25,0,0,0,1.43-2c.09-1.45.07-2.91,0-4.36,0-.84-.52-1.23-1.31-1.49A25.8,25.8,0,0,1,209,311.09a14,14,0,0,1-3.87-6.53c-.35-1.34.13-2.53.32-3.78,2.71-2.6,6.18-3,9.68-3.42a120.17,120.17,0,0,1,12.3-.25,39.57,39.57,0,0,1,9.39,1.08A8.8,8.8,0,0,1,241.57,301Z"/><path class="cls-4" d="M247.42,268.9a11,11,0,0,1,3.79-6.71,28,28,0,0,1,13.87-7.07,23.75,23.75,0,0,1,19.52,4.49,4,4,0,0,1,1.9,3.82,2.76,2.76,0,0,1-2.61,2.53,5.83,5.83,0,0,1-3-.6c-8-3.9-15.33-2.76-22.12,2.76-1.43,1.15-2.75,2.43-4.14,3.64a5.07,5.07,0,0,1-3.31,1.5C248.9,273.31,247.38,271.85,247.42,268.9Z"/><path class="cls-4" d="M175,254.56c9.83.2,16.51,3.18,21.86,9.05a11,11,0,0,1,2.52,4.41,4.26,4.26,0,0,1-1.13,4.37,3.46,3.46,0,0,1-4,.75,12.65,12.65,0,0,1-3.59-3,26,26,0,0,0-9.39-6.08,17,17,0,0,0-14.7,1.15,6.28,6.28,0,0,1-2.67.83,3.77,3.77,0,0,1-3.47-2,3.09,3.09,0,0,1,1-3.38,17.78,17.78,0,0,1,4.49-3.14C169.29,255.76,172.88,254.45,175,254.56Z"/><path class="cls-5" d="M184.15,234.62c6.23.58,12.38,2.71,16.55,8.76.79,1.15,1.38,2.31.57,3.67s-2,1.72-3.83,1.27c-3.19-.79-6.39-1.55-9.63-2.15a113,113,0,0,0-14-1.78c-1.91-.11-2.78-.69-3.19-2-.46-1.52.32-2.53,1.38-3.44C175.32,236.12,179.14,234.77,184.15,234.62Z"/><path class="cls-5" d="M263.55,234.64a17.61,17.61,0,0,1,11.77,4.67,2.65,2.65,0,0,1,.93,3.2,2.93,2.93,0,0,1-2.78,1.89,119.11,119.11,0,0,0-23.65,3.86c-2.32.6-4.09-.15-4.4-2a3.91,3.91,0,0,1,.81-2.89,18.48,18.48,0,0,1,8.12-6.64A23.79,23.79,0,0,1,263.55,234.64Z"/></g></g></svg>