<svg xmlns="http://www.w3.org/2000/svg" viewBox="0 0 512 512"><defs><style>.a{fill:#fff;}</style></defs><title>c64ac8d6c55a26b4edc6c98bddc0efeba005a879689a907d4e6b0f88b26b8e36</title><circle cx="256" cy="256" r="256"/><path class="a" d="M74.28,206.56c5.69-1.35,14.83-2.24,23.82-2.24,13,0,21.42,2.24,27.56,7.34,5.25,3.89,8.54,9.88,8.54,17.82,0,9.89-6.59,18.43-17.08,22.18v.45c9.59,2.24,20.83,10.18,20.83,25.16a26.58,26.58,0,0,1-8.69,20.23c-6.89,6.44-18.28,9.44-34.76,9.44a152,152,0,0,1-20.22-1.2Zm13,41.35H99.15c13.63,0,21.72-7.34,21.72-17.08,0-11.68-8.84-16.48-22-16.48a55.86,55.86,0,0,0-11.54.9Zm0,48.24a70.82,70.82,0,0,0,10.94.6c13.48,0,25.91-4.95,25.91-19.63,0-13.63-11.83-19.47-26.06-19.47H87.31Z"/><path class="a" d="M163,272.18c.3,17.83,11.53,25.17,24.86,25.17,9.44,0,15.29-1.65,20.08-3.75l2.4,9.44c-4.65,2.1-12.74,4.64-24.27,4.64-22.32,0-35.66-14.83-35.66-36.7s12.89-39,34-39c23.82,0,30,20.67,30,34a32.13,32.13,0,0,1-.45,6.14Zm38.65-9.44c.15-8.24-3.45-21.27-18.28-21.27-13.48,0-19.18,12.13-20.22,21.27Z"/><path class="a" d="M222.44,298.4l32.66-42.7c3.3-4,6.29-7.49,9.59-11.39V244H225.44V233.53h55.13v8.24l-32.36,42.1c-3.15,4-6,7.79-9.29,11.38v.3h42.25V306H222.44Z"/><path class="a" d="M359.37,269.18c0,26.82-18.73,38.5-36.1,38.5-19.48,0-34.76-14.38-34.76-37.3,0-24.12,16-38.35,35.95-38.35C345.29,232,359.37,247.16,359.37,269.18Zm-57.38.75c0,15.88,9,27.87,21.87,27.87,12.59,0,22-11.84,22-28.17,0-12.28-6.14-27.71-21.72-27.71S302,256.3,302,269.93Z"/><path class="a" d="M376,253.15c0-7.64-.15-13.63-.6-19.62h11.69l.75,12h.3c3.59-6.74,12-13.48,24-13.48,10,0,25.61,6,25.61,30.86V306H424.54v-41.8c0-11.69-4.34-21.42-16.78-21.42-8.54,0-15.28,6.14-17.68,13.48a18.92,18.92,0,0,0-.9,6.14V306H376Z"/></svg>
