<?xml version="1.0" encoding="UTF-8"?>
<svg width="32px" height="32px" viewBox="0 0 32 32" version="1.1" xmlns="http://www.w3.org/2000/svg" xmlns:xlink="http://www.w3.org/1999/xlink">
    <!-- Generator: Sketch 63.1 (92452) - https://sketch.com -->
    <title>euro-icon 1 copy</title>
    <desc>Created with Sketch.</desc>
    <g id="Pay" stroke="none" stroke-width="1" fill="none" fill-rule="evenodd">
        <g id="0-Pay-select-currency-TRY" transform="translate(-32.000000, -634.000000)">
            <g id="SLP-icon" transform="translate(32.000000, 634.000000)">
                <g id="Group-11">
                    <path d="M3.6581,6.2249 L0.3611,14.1859 C-0.1199,15.3479 -0.1199,16.6539 0.3611,17.8159 L3.6581,25.7769 C4.1391,26.9389 5.0631,27.8619 6.2241,28.3429 L14.1861,31.6409 C15.3471,32.1219 16.6531,32.1219 17.8151,31.6409 L25.7761,28.3429 C26.9381,27.8619 27.8621,26.9389 28.3431,25.7769 L31.6401,17.8159 C32.1221,16.6539 32.1221,15.3479 31.6401,14.1859 L28.3431,6.2249 C27.8621,5.0629 26.9381,4.1399 25.7761,3.6589 L17.8151,0.3609 C16.6531,-0.1201 15.3471,-0.1201 14.1861,0.3609 L6.2241,3.6589 C5.0631,4.1399 4.1391,5.0629 3.6581,6.2249" id="Fill-1" fill="#3DB3C3"></path>
                    <path d="M13.3232,18.3362 C11.5852,18.3362 10.1712,19.7442 10.1712,21.4772 C10.1712,21.6482 10.1842,21.8152 10.2112,21.9772 L11.9422,21.9772 C11.8862,21.8192 11.8512,21.6522 11.8512,21.4772 C11.8512,20.6682 12.5122,20.0122 13.3232,20.0122 C14.1352,20.0122 14.7952,20.6682 14.7952,21.4772 C14.7952,21.6522 14.7622,21.8192 14.7042,21.9772 L16.4362,21.9772 C16.4632,21.8152 16.4762,21.6482 16.4762,21.4772 C16.4762,19.7442 15.0612,18.3362 13.3232,18.3362" id="Fill-3" fill="#FFFFFF"></path>
                    <path d="M20.3867,14.5735 C20.8517,14.5735 21.2277,14.1985 21.2277,13.7355 C21.2277,13.2735 20.8517,12.8985 20.3867,12.8985 C19.9217,12.8985 19.5457,13.2735 19.5457,13.7355 C19.5457,14.1985 19.9217,14.5735 20.3867,14.5735" id="Fill-5" fill="#FFFFFF"></path>
                    <path d="M28.3593,18.0647 C27.5803,18.4227 26.9513,18.6017 26.2533,18.7007 C26.2633,19.0577 26.2323,19.6077 26.1303,20.2977 C26.0453,20.8867 25.8853,21.5127 25.8023,21.7967 C25.6823,22.1767 25.3433,22.4167 24.9843,22.4167 C24.9043,22.4167 24.8243,22.3977 24.7443,22.3767 C24.3043,22.2567 24.0453,21.7787 24.1843,21.3377 C24.2453,21.0987 24.3043,20.8597 24.3653,20.5997 C24.3843,20.4807 24.4243,20.3207 24.4453,20.1607 C24.5053,19.7807 24.5453,19.3017 24.5453,18.8017 C23.5663,18.8017 22.5683,18.6437 21.6103,18.3637 C21.6893,19.4427 21.6103,20.5397 21.3703,21.5977 C21.3303,21.7177 21.3093,21.8587 21.2693,21.9787 L19.5123,21.9787 C19.5923,21.7177 19.6723,21.4787 19.7333,21.2187 C20.0323,19.9197 20.0513,18.5637 19.7523,17.2647 L19.7523,17.2057 C19.6533,16.7657 19.9523,16.3267 20.3903,16.2467 C20.5903,16.2067 20.7913,16.2467 20.9703,16.3267 C22.0483,16.9467 23.2663,17.3247 24.5453,17.4457 C24.2643,14.7497 22.9663,12.1327 21.0103,10.4367 C19.8913,9.4787 18.0753,8.4007 15.7583,8.7387 C13.6813,9.0387 12.7443,10.4967 12.7443,11.7137 C12.7443,13.0917 13.7023,14.2307 14.9803,14.5297 L13.7023,15.8467 C12.1443,15.1277 11.0473,13.5507 11.0473,11.7137 C11.0473,9.3767 12.8833,7.4607 15.5183,7.0817 C17.8163,6.7427 20.1523,7.4817 22.1093,9.1587 C24.4243,11.1747 25.9623,14.2707 26.2213,17.4647 C27.0213,17.3847 27.1803,17.3447 27.9783,17.1257 C28.2393,17.0267 28.5173,17.1657 28.6183,17.4247 C28.7173,17.6837 28.5973,17.9447 28.3593,18.0647" id="Fill-7" fill="#FFFFFF"></path>
                    <path d="M10.1396,12.1341 C10.2516,11.9071 10.3156,11.6641 10.3156,11.4091 C10.3156,10.9821 10.1626,10.5831 9.9046,10.2501 C6.9006,12.1691 5.0006,15.5171 5.0006,19.1731 C5.0006,20.1291 5.1306,21.0721 5.3806,21.9771 L7.1366,21.9771 C6.8386,21.0801 6.6816,20.1361 6.6816,19.1731 C6.6816,16.3761 8.0016,13.7951 10.1396,12.1341" id="Fill-9" fill="#FFFFFF"></path>
                </g>
            </g>
        </g>
    </g>
</svg>