<svg id="Layer_1" xmlns="http://www.w3.org/2000/svg" width="13.91mm" height="13.91mm" viewBox="0 0 39.42 39.42">
    <title>new_drop-01</title>
    <path d="M20,.2a19.71,19.71,0,1,0,19.7,19.72v0A19.71,19.71,0,0,0,20,.2ZM20,38A18.16,18.16,0,1,1,38.17,19.88v0A18.18,18.18,0,0,1,20,38.06Z" transform="translate(-0.3 -0.2)" style="fill: #FE4A3C"/>
    <path d="M23.09,6.31A11,11,0,0,0,9.65,14.16c-.06.24-.11.48-.16.73a11,11,0,0,0-.21,2.21,2.52,2.52,0,0,0,.31,1.13L16.26,30a2.86,2.86,0,1,0,3.81,1.36,2.65,2.65,0,0,0-.68-.91l.07-.06,10.33-8.31a2.35,2.35,0,0,0,.71-.94,11.28,11.28,0,0,0,.78-2.78A11,11,0,0,0,23.09,6.31ZM17.49,33.9v0a1.3,1.3,0,1,1,1.3-1.3A1.3,1.3,0,0,1,17.48,33.92Zm-.41-4.12s0,0,.05,0ZM18.6,30s.06,0,0,0Zm-.1,0a2.84,2.84,0,0,0-1.26-.17L10.12,17.28a3.29,3.29,0,0,1,4.09.76l.41.48.69-.36a3.31,3.31,0,0,1,4.09.78l.48.57,1-.43a3.31,3.31,0,0,1,4,1.19l.19.27.59-.31a3.3,3.3,0,0,1,4,.82Z" transform="translate(-0.3 -0.2)" style="fill: #FE4A3C"/>
</svg>