<?xml version="1.0" encoding="utf-8"?>
<!-- Generator: Adobe Illustrator 24.1.0, SVG Export Plug-In . SVG Version: 6.00 Build 0)  -->
<svg version="1.1" id="Layer_1" xmlns="http://www.w3.org/2000/svg" xmlns:xlink="http://www.w3.org/1999/xlink" x="0px" y="0px"
	 viewBox="0 0 500 500" style="enable-background:new 0 0 500 500;" xml:space="preserve">
<style type="text/css">
	.st0{fill:url(#SVGID_1_);}
	.st1{fill:url(#SVGID_2_);}
	.st2{fill:url(#SVGID_3_);}
	.st3{fill:url(#SVGID_4_);}
	.st4{fill:url(#SVGID_5_);}
	.st5{fill:url(#SVGID_6_);}
	.st6{fill:url(#SVGID_7_);}
	.st7{fill:url(#SVGID_8_);}
	.st8{fill:url(#SVGID_9_);}
	.st9{fill:#CFCFCF;}
	.st10{fill:url(#SVGID_10_);}
	.st11{fill:url(#SVGID_11_);}
	.st12{fill:url(#SVGID_12_);}
	.st13{fill:#FFFFFF;}
</style>
<g>
	<circle cx="250" cy="250" r="247.7"/>
	<g>
		
			<linearGradient id="SVGID_1_" gradientUnits="userSpaceOnUse" x1="76.3136" y1="161.3922" x2="343.0697" y2="273.4339" gradientTransform="matrix(1 0 0 -1 0 500)">
			<stop  offset="0" style="stop-color:#FF7A00"/>
			<stop  offset="0.4171" style="stop-color:#FF0092"/>
			<stop  offset="0.9388" style="stop-color:#A700E1"/>
		</linearGradient>
		<path class="st0" d="M147.7,105.7L147.7,105.7c28.1-11.3,67.8-11.9,103.3,2.5c35.5,14.5,66.9,44,78.6,86.9
			c10.5,38.6-3.1,70.4-25,95c0,0,15.1-17.4,7.6-52.5c-8.7-34.7-41.2-60.3-89.5-56c-24.2,2.1-51.5,21.1-68.9,49.3
			c-17.4,28.2-24.8,65.6-9.2,104.5c19.6,48.8,57.3,76.7,94.8,89.5c36,12.2,68.6,9.9,91.5,6.7c-27.3,17.7-54.7,25-86.5,26.9l0,0.4
			l0-0.4C140.2,464.6,51,384,45.2,278.6C42.5,209.4,74.1,135.2,147.7,105.7z"/>
		
			<linearGradient id="SVGID_2_" gradientUnits="userSpaceOnUse" x1="378.3729" y1="434.4644" x2="164.7621" y2="115.6002" gradientTransform="matrix(1 0 0 -1 0 500)">
			<stop  offset="0" style="stop-color:#FF7A00"/>
			<stop  offset="0.4171" style="stop-color:#FF0092"/>
			<stop  offset="0.9388" style="stop-color:#A700E1"/>
		</linearGradient>
		<path class="st1" d="M374.6,396.5L374.6,396.5c-27.3,17.2-68.9,23.9-108.7,15.7c-39.8-8.2-77.7-31.4-97.8-74
			c-9.6-20.3-12.4-39-10.4-56.4c4.7-37.1,29.8-53.4,29.8-53.4c-0.2,0.6-21.4,34.4-0.4,73.5c16.8,33.1,58.3,42,95.7,31.2
			c24.9-6.9,50.7-31.3,63.8-64c13.1-32.8,14.8-77.1-8.5-114.7c-29.2-47.1-74.1-69.7-115.6-75.7c-39.9-5.8-78.8,5.4-98.4,14.7
			c25.4-23.8,52.4-38.4,85.3-46.5l-0.1-0.4l0.1,0.4C317.3,20.4,425,87.2,450.1,196.2C465.4,267.9,446.1,351.6,374.6,396.5z"/>
		
			<radialGradient id="SVGID_3_" cx="-3.664118e-02" cy="499.3721" r="0.7447" gradientTransform="matrix(-83.1516 177.704 181.1969 91.0524 -90206.6484 -45269.6406)" gradientUnits="userSpaceOnUse">
			<stop  offset="2.083330e-02" style="stop-color:#64008D"/>
			<stop  offset="0.3021" style="stop-color:#800AB3"/>
			<stop  offset="0.6667" style="stop-color:#E2277E"/>
			<stop  offset="1" style="stop-color:#FF7408"/>
		</radialGradient>
		<path class="st2" d="M199.9,258.4c-0.8,27,11.6,43.6,33.5,51.3c27.2,9.6,54.1,0.5,70.1-18.8c-12.6,10.1-35.5,9.9-47.5-0.5
			c-8.9-7.7-12.1-16.8-11.9-27.4c0.3-22.4,23.6-45.7,49.6-25.1c0,0-12.4-24.2-44.7-25.6C220.5,211,201.7,238.3,199.9,258.4z"/>
	</g>
</g>
<g>
	<g>
		<circle cx="154.1" cy="-357.9" r="151.8"/>
		<g>
			
				<linearGradient id="SVGID_4_" gradientUnits="userSpaceOnUse" x1="47.6706" y1="803.5733" x2="211.1309" y2="872.2291" gradientTransform="matrix(1 0 0 -1 0 500)">
				<stop  offset="0" style="stop-color:#FF7A00"/>
				<stop  offset="0.4171" style="stop-color:#FF0092"/>
				<stop  offset="0.9388" style="stop-color:#A700E1"/>
			</linearGradient>
			<path class="st3" d="M91.4-446.3L91.4-446.3c17.2-6.9,41.5-7.3,63.3,1.6c21.8,8.9,41,27,48.2,53.3c6.4,23.7-1.9,43.2-15.3,58.2
				c0,0,9.3-10.7,4.7-32.1c-5.3-21.3-25.2-36.9-54.8-34.3c-14.8,1.3-31.6,13-42.2,30.2c-10.6,17.3-15.2,40.2-5.6,64
				c12,29.9,35.1,47,58.1,54.8c22.1,7.5,42,6.1,56.1,4.1c-16.8,10.9-33.5,15.3-53,16.5l0,0.2l0-0.2c-64,3.7-118.7-45.6-122.2-110.2
				C26.9-382.8,46.3-428.2,91.4-446.3z"/>
			
				<linearGradient id="SVGID_5_" gradientUnits="userSpaceOnUse" x1="232.7636" y1="970.9039" x2="101.8692" y2="775.5132" gradientTransform="matrix(1 0 0 -1 0 500)">
				<stop  offset="0" style="stop-color:#FF7A00"/>
				<stop  offset="0.4171" style="stop-color:#FF0092"/>
				<stop  offset="0.9388" style="stop-color:#A700E1"/>
			</linearGradient>
			<path class="st4" d="M230.5-268.1L230.5-268.1c-16.7,10.5-42.2,14.7-66.6,9.6c-24.4-5-47.6-19.2-59.9-45.3
				c-5.9-12.5-7.6-23.9-6.4-34.6c2.9-22.7,18.3-32.7,18.3-32.7c-0.1,0.4-13.1,21.1-0.3,45.1c10.3,20.3,35.7,25.7,58.7,19.1
				c15.2-4.2,31.1-19.2,39.1-39.2c8-20.1,9.1-47.2-5.2-70.3c-17.9-28.9-45.4-42.7-70.8-46.4c-24.4-3.5-48.3,3.3-60.3,9
				c15.6-14.6,32.1-23.5,52.3-28.5l-0.1-0.2l0.1,0.2c66.1-16.3,132.1,24.7,147.4,91.5C286.1-346.9,274.3-295.6,230.5-268.1z"/>
			
				<radialGradient id="SVGID_6_" cx="-2.4583" cy="497.6651" r="0.4563" gradientTransform="matrix(-83.1516 177.704 181.1969 91.0524 -90206.6484 -45269.6406)" gradientUnits="userSpaceOnUse">
				<stop  offset="2.083330e-02" style="stop-color:#64008D"/>
				<stop  offset="0.3021" style="stop-color:#800AB3"/>
				<stop  offset="0.6667" style="stop-color:#E2277E"/>
				<stop  offset="1" style="stop-color:#FF7408"/>
			</radialGradient>
			<path class="st5" d="M123.4-352.7c-0.5,16.5,7.1,26.7,20.5,31.4c16.7,5.9,33.1,0.3,43-11.5c-7.7,6.2-21.7,6.1-29.1-0.3
				c-5.5-4.7-7.4-10.3-7.3-16.8c0.2-13.8,14.4-28,30.4-15.4c0,0-7.6-14.8-27.4-15.7C136-381.8,124.5-365,123.4-352.7z"/>
		</g>
	</g>
	<g>
		<path d="M592.5-256.7c-13.3,17.9-28.6,30.8-46,38.6c-17.4,7.8-36.3,11.7-56.6,11.7c-21.1,0-40.4-3.5-58.1-10.5
			c-17.4-7.3-32.4-17.3-44.9-30c-12.5-13-22.2-28.3-29.3-46c-7-17.9-10.5-37.5-10.5-58.5c0-21.1,3.5-40.4,10.5-58.1
			c7-17.7,16.8-32.9,29.3-45.6c12.5-13,27.4-23.1,44.9-30.4c17.7-7.3,37.1-10.9,58.1-10.9c18.7,0,36.2,3.4,52.3,10.1
			c16.4,6.5,30.7,17.6,42.9,33.2l-21.1,17.6c-8.6-13-19.6-22.5-33.2-28.5c-13.3-6-26.9-9-41-9c-17.9,0-34.2,3.1-48.8,9.4
			c-14.3,6.2-26.5,14.8-36.7,25.7s-17.9,23.8-23.4,38.6c-5.5,14.8-8.2,30.8-8.2,48c0,17.2,2.7,33.2,8.2,48
			c5.5,14.8,13.3,27.7,23.4,38.6c10.1,10.9,22.4,19.5,36.7,25.7c14.6,6.2,30.8,9.4,48.8,9.4c7,0,14.3-0.8,21.8-2.3
			c7.5-1.8,14.8-4.4,21.8-7.8c7.3-3.6,14.2-8.1,20.7-13.3c6.5-5.5,12.2-12,17.2-19.5L592.5-256.7z M621.8-351.5
			c0-21.1,3.5-40.4,10.5-58.1c7-17.7,16.8-32.9,29.3-45.6c12.5-13,27.4-23.1,44.9-30.4c17.7-7.3,37.1-10.9,58.1-10.9
			s40.3,3.6,57.7,10.9c17.7,7.3,32.8,17.4,45.3,30.4c12.5,12.7,22.2,28,29.3,45.6c7,17.7,10.5,37.1,10.5,58.1
			c0,21.1-3.5,40.6-10.5,58.5c-7,17.7-16.8,33-29.3,46c-12.5,12.7-27.6,22.8-45.3,30c-17.4,7-36.7,10.5-57.7,10.5
			s-40.4-3.5-58.1-10.5c-17.4-7.3-32.4-17.3-44.9-30c-12.5-13-22.2-28.3-29.3-46C625.3-310.9,621.8-330.4,621.8-351.5z M647.6-351.5
			c0,17.2,2.7,33.2,8.2,48c5.5,14.8,13.3,27.7,23.4,38.6c10.1,10.9,22.4,19.5,36.7,25.7c14.6,6.2,30.8,9.4,48.8,9.4
			c17.9,0,34.1-3.1,48.4-9.4c14.6-6.2,26.9-14.8,37.1-25.7c10.1-10.9,17.9-23.8,23.4-38.6c5.5-14.8,8.2-30.8,8.2-48
			c0-17.2-2.7-33.2-8.2-48c-5.5-14.8-13.3-27.7-23.4-38.6s-22.5-19.5-37.1-25.7c-14.3-6.2-30.4-9.4-48.4-9.4
			c-17.9,0-34.2,3.1-48.8,9.4c-14.3,6.2-26.5,14.8-36.7,25.7c-10.1,10.9-17.9,23.8-23.4,38.6C650.3-384.7,647.6-368.7,647.6-351.5z
			 M1192.6-256.7c-13.3,17.9-28.6,30.8-46,38.6c-17.4,7.8-36.3,11.7-56.6,11.7c-21.1,0-40.4-3.5-58.1-10.5
			c-17.4-7.3-32.4-17.3-44.9-30c-12.5-13-22.2-28.3-29.3-46c-7-17.9-10.5-37.5-10.5-58.5c0-21.1,3.5-40.4,10.5-58.1
			c7-17.7,16.8-32.9,29.3-45.6c12.5-13,27.4-23.1,44.9-30.4c17.7-7.3,37.1-10.9,58.1-10.9c18.7,0,36.2,3.4,52.3,10.1
			c16.4,6.5,30.7,17.6,42.9,33.2l-21.1,17.6c-8.6-13-19.6-22.5-33.2-28.5c-13.3-6-26.9-9-41-9c-17.9,0-34.2,3.1-48.8,9.4
			c-14.3,6.2-26.5,14.8-36.7,25.7c-10.1,10.9-17.9,23.8-23.4,38.6s-8.2,30.8-8.2,48c0,17.2,2.7,33.2,8.2,48s13.3,27.7,23.4,38.6
			c10.1,10.9,22.4,19.5,36.7,25.7c14.6,6.2,30.8,9.4,48.8,9.4c7,0,14.3-0.8,21.8-2.3c7.5-1.8,14.8-4.4,21.8-7.8
			c7.3-3.6,14.2-8.1,20.7-13.3c6.5-5.5,12.2-12,17.2-19.5L1192.6-256.7z M1221.9-351.5c0-21.1,3.5-40.4,10.5-58.1
			c7-17.7,16.8-32.9,29.3-45.6c12.5-13,27.4-23.1,44.9-30.4c17.7-7.3,37.1-10.9,58.1-10.9s40.3,3.6,57.7,10.9
			c17.7,7.3,32.8,17.4,45.3,30.4c12.5,12.7,22.2,28,29.3,45.6c7,17.7,10.5,37.1,10.5,58.1c0,21.1-3.5,40.6-10.5,58.5
			c-7,17.7-16.8,33-29.3,46c-12.5,12.7-27.6,22.8-45.3,30c-17.4,7-36.7,10.5-57.7,10.5s-40.4-3.5-58.1-10.5
			c-17.4-7.3-32.4-17.3-44.9-30c-12.5-13-22.2-28.3-29.3-46C1225.4-310.9,1221.9-330.4,1221.9-351.5z M1247.6-351.5
			c0,17.2,2.7,33.2,8.2,48c5.5,14.8,13.3,27.7,23.4,38.6c10.1,10.9,22.4,19.5,36.7,25.7c14.6,6.2,30.8,9.4,48.8,9.4
			c17.9,0,34.1-3.1,48.4-9.4c14.6-6.2,26.9-14.8,37.1-25.7c10.1-10.9,17.9-23.8,23.4-38.6s8.2-30.8,8.2-48c0-17.2-2.7-33.2-8.2-48
			s-13.3-27.7-23.4-38.6c-10.1-10.9-22.5-19.5-37.1-25.7c-14.3-6.2-30.4-9.4-48.4-9.4c-17.9,0-34.2,3.1-48.8,9.4
			c-14.3,6.2-26.5,14.8-36.7,25.7s-17.9,23.8-23.4,38.6C1250.4-384.7,1247.6-368.7,1247.6-351.5z"/>
	</g>
</g>
<g>
	<g>
		<circle cx="154.1" cy="-828.1" r="151.8"/>
		<g>
			
				<linearGradient id="SVGID_7_" gradientUnits="userSpaceOnUse" x1="47.6706" y1="1273.79" x2="211.1309" y2="1342.4459" gradientTransform="matrix(1 0 0 -1 0 500)">
				<stop  offset="0" style="stop-color:#FF7A00"/>
				<stop  offset="0.4171" style="stop-color:#FF0092"/>
				<stop  offset="0.9388" style="stop-color:#A700E1"/>
			</linearGradient>
			<path class="st6" d="M91.4-916.5L91.4-916.5c17.2-6.9,41.5-7.3,63.3,1.6c21.8,8.9,41,27,48.2,53.3c6.4,23.7-1.9,43.2-15.3,58.2
				c0,0,9.3-10.7,4.7-32.1c-5.3-21.3-25.2-36.9-54.8-34.3c-14.8,1.3-31.6,13-42.2,30.2c-10.6,17.3-15.2,40.2-5.6,64
				c12,29.9,35.1,47,58.1,54.8c22.1,7.5,42,6.1,56.1,4.1c-16.8,10.9-33.5,15.3-53,16.5l0,0.2l0-0.2c-64,3.7-118.7-45.6-122.2-110.2
				C26.9-853,46.3-898.4,91.4-916.5z"/>
			
				<linearGradient id="SVGID_8_" gradientUnits="userSpaceOnUse" x1="232.7636" y1="1441.1207" x2="101.8692" y2="1245.7301" gradientTransform="matrix(1 0 0 -1 0 500)">
				<stop  offset="0" style="stop-color:#FF7A00"/>
				<stop  offset="0.4171" style="stop-color:#FF0092"/>
				<stop  offset="0.9388" style="stop-color:#A700E1"/>
			</linearGradient>
			<path class="st7" d="M230.5-738.3L230.5-738.3c-16.7,10.5-42.2,14.7-66.6,9.6c-24.4-5-47.6-19.2-59.9-45.3
				c-5.9-12.5-7.6-23.9-6.4-34.6c2.9-22.7,18.3-32.7,18.3-32.7c-0.1,0.4-13.1,21.1-0.3,45.1c10.3,20.3,35.7,25.7,58.7,19.1
				c15.2-4.2,31.1-19.2,39.1-39.2c8-20.1,9.1-47.2-5.2-70.3c-17.9-28.9-45.4-42.7-70.8-46.4c-24.4-3.5-48.3,3.3-60.3,9
				c15.6-14.6,32.1-23.5,52.3-28.5l-0.1-0.2l0.1,0.2c66.1-16.3,132.1,24.7,147.4,91.5C286.1-817.1,274.3-765.9,230.5-738.3z"/>
			
				<radialGradient id="SVGID_9_" cx="-4.6006" cy="496.682" r="0.4563" gradientTransform="matrix(-83.1516 177.704 181.1969 91.0524 -90206.6484 -45269.6406)" gradientUnits="userSpaceOnUse">
				<stop  offset="2.083330e-02" style="stop-color:#64008D"/>
				<stop  offset="0.3021" style="stop-color:#800AB3"/>
				<stop  offset="0.6667" style="stop-color:#E2277E"/>
				<stop  offset="1" style="stop-color:#FF7408"/>
			</radialGradient>
			<path class="st8" d="M123.4-823c-0.5,16.5,7.1,26.7,20.5,31.4c16.7,5.9,33.1,0.3,43-11.5c-7.7,6.2-21.7,6.1-29.1-0.3
				c-5.5-4.7-7.4-10.3-7.3-16.8c0.2-13.8,14.4-28,30.4-15.4c0,0-7.6-14.8-27.4-15.7C136-852,124.5-835.3,123.4-823z"/>
		</g>
	</g>
	<g>
		<path class="st9" d="M592.5-726.9c-13.3,17.9-28.6,30.8-46,38.6s-36.3,11.7-56.6,11.7c-21.1,0-40.4-3.5-58.1-10.5
			c-17.4-7.3-32.4-17.3-44.9-30c-12.5-13-22.2-28.3-29.3-46c-7-17.9-10.5-37.5-10.5-58.5c0-21.1,3.5-40.4,10.5-58.1
			c7-17.7,16.8-32.9,29.3-45.6c12.5-13,27.4-23.1,44.9-30.4c17.7-7.3,37.1-10.9,58.1-10.9c18.7,0,36.2,3.4,52.3,10.1
			c16.4,6.5,30.7,17.6,42.9,33.2L564.1-906c-8.6-13-19.6-22.5-33.2-28.5c-13.3-6-26.9-9-41-9c-17.9,0-34.2,3.1-48.8,9.4
			c-14.3,6.2-26.5,14.8-36.7,25.7c-10.1,10.9-17.9,23.8-23.4,38.6c-5.5,14.8-8.2,30.8-8.2,48c0,17.2,2.7,33.2,8.2,48
			c5.5,14.8,13.3,27.7,23.4,38.6c10.1,10.9,22.4,19.5,36.7,25.7c14.6,6.2,30.8,9.4,48.8,9.4c7,0,14.3-0.8,21.8-2.3
			c7.5-1.8,14.8-4.4,21.8-7.8c7.3-3.6,14.2-8.1,20.7-13.3c6.5-5.5,12.2-12,17.2-19.5L592.5-726.9z M621.8-821.7
			c0-21.1,3.5-40.4,10.5-58.1c7-17.7,16.8-32.9,29.3-45.6c12.5-13,27.4-23.1,44.9-30.4c17.7-7.3,37.1-10.9,58.1-10.9
			s40.3,3.6,57.7,10.9c17.7,7.3,32.8,17.4,45.3,30.4c12.5,12.7,22.2,28,29.3,45.6c7,17.7,10.5,37.1,10.5,58.1
			c0,21.1-3.5,40.6-10.5,58.5c-7,17.7-16.8,33-29.3,46c-12.5,12.7-27.6,22.8-45.3,30c-17.4,7-36.7,10.5-57.7,10.5
			s-40.4-3.5-58.1-10.5c-17.4-7.3-32.4-17.3-44.9-30c-12.5-13-22.2-28.3-29.3-46C625.3-781.1,621.8-800.6,621.8-821.7z M647.6-821.7
			c0,17.2,2.7,33.2,8.2,48c5.5,14.8,13.3,27.7,23.4,38.6c10.1,10.9,22.4,19.5,36.7,25.7c14.6,6.2,30.8,9.4,48.8,9.4
			c17.9,0,34.1-3.1,48.4-9.4c14.6-6.2,26.9-14.8,37.1-25.7c10.1-10.9,17.9-23.8,23.4-38.6c5.5-14.8,8.2-30.8,8.2-48
			c0-17.2-2.7-33.2-8.2-48c-5.5-14.8-13.3-27.7-23.4-38.6c-10.1-10.9-22.5-19.5-37.1-25.7c-14.3-6.2-30.4-9.4-48.4-9.4
			c-17.9,0-34.2,3.1-48.8,9.4c-14.3,6.2-26.5,14.8-36.7,25.7c-10.1,10.9-17.9,23.8-23.4,38.6C650.3-854.9,647.6-838.9,647.6-821.7z
			 M1192.6-726.9c-13.3,17.9-28.6,30.8-46,38.6s-36.3,11.7-56.6,11.7c-21.1,0-40.4-3.5-58.1-10.5c-17.4-7.3-32.4-17.3-44.9-30
			c-12.5-13-22.2-28.3-29.3-46c-7-17.9-10.5-37.5-10.5-58.5c0-21.1,3.5-40.4,10.5-58.1c7-17.7,16.8-32.9,29.3-45.6
			c12.5-13,27.4-23.1,44.9-30.4c17.7-7.3,37.1-10.9,58.1-10.9c18.7,0,36.2,3.4,52.3,10.1c16.4,6.5,30.7,17.6,42.9,33.2l-21.1,17.6
			c-8.6-13-19.6-22.5-33.2-28.5c-13.3-6-26.9-9-41-9c-17.9,0-34.2,3.1-48.8,9.4c-14.3,6.2-26.5,14.8-36.7,25.7
			c-10.1,10.9-17.9,23.8-23.4,38.6c-5.5,14.8-8.2,30.8-8.2,48c0,17.2,2.7,33.2,8.2,48s13.3,27.7,23.4,38.6
			c10.1,10.9,22.4,19.5,36.7,25.7c14.6,6.2,30.8,9.4,48.8,9.4c7,0,14.3-0.8,21.8-2.3c7.5-1.8,14.8-4.4,21.8-7.8
			c7.3-3.6,14.2-8.1,20.7-13.3c6.5-5.5,12.2-12,17.2-19.5L1192.6-726.9z M1221.9-821.7c0-21.1,3.5-40.4,10.5-58.1
			c7-17.7,16.8-32.9,29.3-45.6c12.5-13,27.4-23.1,44.9-30.4c17.7-7.3,37.1-10.9,58.1-10.9s40.3,3.6,57.7,10.9
			c17.7,7.3,32.8,17.4,45.3,30.4c12.5,12.7,22.2,28,29.3,45.6c7,17.7,10.5,37.1,10.5,58.1c0,21.1-3.5,40.6-10.5,58.5
			c-7,17.7-16.8,33-29.3,46c-12.5,12.7-27.6,22.8-45.3,30c-17.4,7-36.7,10.5-57.7,10.5s-40.4-3.5-58.1-10.5
			c-17.4-7.3-32.4-17.3-44.9-30c-12.5-13-22.2-28.3-29.3-46C1225.4-781.1,1221.9-800.6,1221.9-821.7z M1247.6-821.7
			c0,17.2,2.7,33.2,8.2,48c5.5,14.8,13.3,27.7,23.4,38.6c10.1,10.9,22.4,19.5,36.7,25.7c14.6,6.2,30.8,9.4,48.8,9.4
			c17.9,0,34.1-3.1,48.4-9.4c14.6-6.2,26.9-14.8,37.1-25.7c10.1-10.9,17.9-23.8,23.4-38.6s8.2-30.8,8.2-48c0-17.2-2.7-33.2-8.2-48
			c-5.5-14.8-13.3-27.7-23.4-38.6c-10.1-10.9-22.5-19.5-37.1-25.7c-14.3-6.2-30.4-9.4-48.4-9.4c-17.9,0-34.2,3.1-48.8,9.4
			c-14.3,6.2-26.5,14.8-36.7,25.7c-10.1,10.9-17.9,23.8-23.4,38.6C1250.4-854.9,1247.6-838.9,1247.6-821.7z"/>
	</g>
</g>
<g>
	<g>
		<circle cx="154.1" cy="-1285.3" r="151.8"/>
		<g>
			
				<linearGradient id="SVGID_10_" gradientUnits="userSpaceOnUse" x1="47.6706" y1="1730.9727" x2="211.1309" y2="1799.6285" gradientTransform="matrix(1 0 0 -1 0 500)">
				<stop  offset="0" style="stop-color:#FF7A00"/>
				<stop  offset="0.4171" style="stop-color:#FF0092"/>
				<stop  offset="0.9388" style="stop-color:#A700E1"/>
			</linearGradient>
			<path class="st10" d="M91.4-1373.7L91.4-1373.7c17.2-6.9,41.5-7.3,63.3,1.6c21.8,8.9,41,27,48.2,53.3
				c6.4,23.7-1.9,43.2-15.3,58.2c0,0,9.3-10.7,4.7-32.1c-5.3-21.3-25.2-36.9-54.8-34.3c-14.8,1.3-31.6,13-42.2,30.2
				c-10.6,17.3-15.2,40.2-5.6,64c12,29.9,35.1,47,58.1,54.8c22.1,7.5,42,6.1,56.1,4.1c-16.8,10.9-33.5,15.3-53,16.5l0,0.2l0-0.2
				c-64,3.7-118.7-45.6-122.2-110.2C26.9-1310.2,46.3-1355.6,91.4-1373.7z"/>
			
				<linearGradient id="SVGID_11_" gradientUnits="userSpaceOnUse" x1="232.7636" y1="1898.3033" x2="101.8692" y2="1702.9126" gradientTransform="matrix(1 0 0 -1 0 500)">
				<stop  offset="0" style="stop-color:#FF7A00"/>
				<stop  offset="0.4171" style="stop-color:#FF0092"/>
				<stop  offset="0.9388" style="stop-color:#A700E1"/>
			</linearGradient>
			<path class="st11" d="M230.5-1195.5L230.5-1195.5c-16.7,10.5-42.2,14.7-66.6,9.6c-24.4-5-47.6-19.2-59.9-45.3
				c-5.9-12.5-7.6-23.9-6.4-34.6c2.9-22.7,18.3-32.7,18.3-32.7c-0.1,0.4-13.1,21.1-0.3,45.1c10.3,20.3,35.7,25.7,58.7,19.1
				c15.2-4.2,31.1-19.2,39.1-39.2c8-20.1,9.1-47.2-5.2-70.3c-17.9-28.9-45.4-42.7-70.8-46.4c-24.4-3.5-48.3,3.3-60.3,9
				c15.6-14.6,32.1-23.5,52.3-28.5l-0.1-0.2l0.1,0.2c66.1-16.3,132.1,24.7,147.4,91.5C286.1-1274.3,274.3-1223,230.5-1195.5z"/>
			
				<radialGradient id="SVGID_12_" cx="-6.6835" cy="495.7261" r="0.4563" gradientTransform="matrix(-83.1516 177.704 181.1969 91.0524 -90206.6484 -45269.6406)" gradientUnits="userSpaceOnUse">
				<stop  offset="2.083330e-02" style="stop-color:#64008D"/>
				<stop  offset="0.3021" style="stop-color:#800AB3"/>
				<stop  offset="0.6667" style="stop-color:#E2277E"/>
				<stop  offset="1" style="stop-color:#FF7408"/>
			</radialGradient>
			<path class="st12" d="M123.4-1280.1c-0.5,16.5,7.1,26.7,20.5,31.4c16.7,5.9,33.1,0.3,43-11.5c-7.7,6.2-21.7,6.1-29.1-0.3
				c-5.5-4.7-7.4-10.3-7.3-16.8c0.2-13.8,14.4-28,30.4-15.4c0,0-7.6-14.8-27.4-15.7C136-1309.2,124.5-1292.4,123.4-1280.1z"/>
		</g>
	</g>
	<g>
		<path class="st13" d="M592.5-1184.1c-13.3,17.9-28.6,30.8-46,38.6c-17.4,7.8-36.3,11.7-56.6,11.7c-21.1,0-40.4-3.5-58.1-10.5
			c-17.4-7.3-32.4-17.3-44.9-30c-12.5-13-22.2-28.3-29.3-46c-7-17.9-10.5-37.5-10.5-58.5c0-21.1,3.5-40.4,10.5-58.1
			c7-17.7,16.8-32.9,29.3-45.6c12.5-13,27.4-23.1,44.9-30.4c17.7-7.3,37.1-10.9,58.1-10.9c18.7,0,36.2,3.4,52.3,10.1
			c16.4,6.5,30.7,17.6,42.9,33.2l-21.1,17.6c-8.6-13-19.6-22.5-33.2-28.5c-13.3-6-26.9-9-41-9c-17.9,0-34.2,3.1-48.8,9.4
			c-14.3,6.2-26.5,14.8-36.7,25.7c-10.1,10.9-17.9,23.8-23.4,38.6c-5.5,14.8-8.2,30.8-8.2,48c0,17.2,2.7,33.2,8.2,48
			c5.5,14.8,13.3,27.7,23.4,38.6c10.1,10.9,22.4,19.5,36.7,25.7c14.6,6.2,30.8,9.4,48.8,9.4c7,0,14.3-0.8,21.8-2.3
			c7.5-1.8,14.8-4.4,21.8-7.8c7.3-3.6,14.2-8.1,20.7-13.3c6.5-5.5,12.2-12,17.2-19.5L592.5-1184.1z M621.8-1278.9
			c0-21.1,3.5-40.4,10.5-58.1c7-17.7,16.8-32.9,29.3-45.6c12.5-13,27.4-23.1,44.9-30.4c17.7-7.3,37.1-10.9,58.1-10.9
			s40.3,3.6,57.7,10.9c17.7,7.3,32.8,17.4,45.3,30.4c12.5,12.7,22.2,28,29.3,45.6c7,17.7,10.5,37.1,10.5,58.1
			c0,21.1-3.5,40.6-10.5,58.5c-7,17.7-16.8,33-29.3,46c-12.5,12.7-27.6,22.8-45.3,30c-17.4,7-36.7,10.5-57.7,10.5
			s-40.4-3.5-58.1-10.5c-17.4-7.3-32.4-17.3-44.9-30c-12.5-13-22.2-28.3-29.3-46C625.3-1238.3,621.8-1257.8,621.8-1278.9z
			 M647.6-1278.9c0,17.2,2.7,33.2,8.2,48c5.5,14.8,13.3,27.7,23.4,38.6c10.1,10.9,22.4,19.5,36.7,25.7c14.6,6.2,30.8,9.4,48.8,9.4
			c17.9,0,34.1-3.1,48.4-9.4c14.6-6.2,26.9-14.8,37.1-25.7c10.1-10.9,17.9-23.8,23.4-38.6c5.5-14.8,8.2-30.8,8.2-48
			c0-17.2-2.7-33.2-8.2-48c-5.5-14.8-13.3-27.7-23.4-38.6c-10.1-10.9-22.5-19.5-37.1-25.7c-14.3-6.2-30.4-9.4-48.4-9.4
			c-17.9,0-34.2,3.1-48.8,9.4c-14.3,6.2-26.5,14.8-36.7,25.7c-10.1,10.9-17.9,23.8-23.4,38.6
			C650.3-1312.1,647.6-1296.1,647.6-1278.9z M1192.6-1184.1c-13.3,17.9-28.6,30.8-46,38.6c-17.4,7.8-36.3,11.7-56.6,11.7
			c-21.1,0-40.4-3.5-58.1-10.5c-17.4-7.3-32.4-17.3-44.9-30c-12.5-13-22.2-28.3-29.3-46c-7-17.9-10.5-37.5-10.5-58.5
			c0-21.1,3.5-40.4,10.5-58.1c7-17.7,16.8-32.9,29.3-45.6c12.5-13,27.4-23.1,44.9-30.4c17.7-7.3,37.1-10.9,58.1-10.9
			c18.7,0,36.2,3.4,52.3,10.1c16.4,6.5,30.7,17.6,42.9,33.2l-21.1,17.6c-8.6-13-19.6-22.5-33.2-28.5c-13.3-6-26.9-9-41-9
			c-17.9,0-34.2,3.1-48.8,9.4c-14.3,6.2-26.5,14.8-36.7,25.7c-10.1,10.9-17.9,23.8-23.4,38.6s-8.2,30.8-8.2,48
			c0,17.2,2.7,33.2,8.2,48c5.5,14.8,13.3,27.7,23.4,38.6c10.1,10.9,22.4,19.5,36.7,25.7c14.6,6.2,30.8,9.4,48.8,9.4
			c7,0,14.3-0.8,21.8-2.3c7.5-1.8,14.8-4.4,21.8-7.8c7.3-3.6,14.2-8.1,20.7-13.3c6.5-5.5,12.2-12,17.2-19.5L1192.6-1184.1z
			 M1221.9-1278.9c0-21.1,3.5-40.4,10.5-58.1c7-17.7,16.8-32.9,29.3-45.6c12.5-13,27.4-23.1,44.9-30.4c17.7-7.3,37.1-10.9,58.1-10.9
			s40.3,3.6,57.7,10.9c17.7,7.3,32.8,17.4,45.3,30.4c12.5,12.7,22.2,28,29.3,45.6c7,17.7,10.5,37.1,10.5,58.1
			c0,21.1-3.5,40.6-10.5,58.5c-7,17.7-16.8,33-29.3,46c-12.5,12.7-27.6,22.8-45.3,30c-17.4,7-36.7,10.5-57.7,10.5
			s-40.4-3.5-58.1-10.5c-17.4-7.3-32.4-17.3-44.9-30c-12.5-13-22.2-28.3-29.3-46C1225.4-1238.3,1221.9-1257.8,1221.9-1278.9z
			 M1247.6-1278.9c0,17.2,2.7,33.2,8.2,48c5.5,14.8,13.3,27.7,23.4,38.6c10.1,10.9,22.4,19.5,36.7,25.7c14.6,6.2,30.8,9.4,48.8,9.4
			c17.9,0,34.1-3.1,48.4-9.4c14.6-6.2,26.9-14.8,37.1-25.7c10.1-10.9,17.9-23.8,23.4-38.6c5.5-14.8,8.2-30.8,8.2-48
			c0-17.2-2.7-33.2-8.2-48s-13.3-27.7-23.4-38.6c-10.1-10.9-22.5-19.5-37.1-25.7c-14.3-6.2-30.4-9.4-48.4-9.4
			c-17.9,0-34.2,3.1-48.8,9.4c-14.3,6.2-26.5,14.8-36.7,25.7c-10.1,10.9-17.9,23.8-23.4,38.6
			C1250.4-1312.1,1247.6-1296.1,1247.6-1278.9z"/>
	</g>
</g>
</svg>
