<?xml version="1.0" encoding="utf-8"?>
<!-- Generator: Adobe Illustrator 16.0.0, SVG Export Plug-In . SVG Version: 6.00 Build 0)  -->
<!DOCTYPE svg PUBLIC "-//W3C//DTD SVG 1.1//EN" "http://www.w3.org/Graphics/SVG/1.1/DTD/svg11.dtd">
<svg version="1.1" id="Layer_1" xmlns="http://www.w3.org/2000/svg" xmlns:xlink="http://www.w3.org/1999/xlink" x="0px" y="0px"
	 width="260px" height="260px" viewBox="0 0 260 260" enable-background="new 0 0 260 260" xml:space="preserve">
<path fill="#CF2744" d="M130.002,67.415c-12.894,0-24.875,3.912-34.832,10.596c0.614-0.062,1.213-0.189,1.842-0.189
	c10.594,0,19.184,8.59,19.184,19.189c0,10.593-8.59,19.185-19.184,19.185c-10.595,0-19.184-8.592-19.184-19.185
	c0-0.635,0.124-1.233,0.186-1.85c-6.687,9.956-10.598,21.94-10.598,34.837c0,34.567,28.02,62.589,62.586,62.589
	s62.587-28.022,62.587-62.589C192.59,95.437,164.568,67.415,130.002,67.415z"/>
<path fill="#1C1026" d="M81.483,245.224c-15.157-6.397-28.3-15.496-39.761-26.95c-11.45-11.456-20.548-24.603-26.949-39.762
	c-6.402-15.16-9.771-31.667-9.771-48.513c0-16.844,3.369-33.355,9.771-48.85c6.401-14.826,15.499-27.968,26.949-39.763
	c11.461-11.458,24.604-20.212,39.761-26.613c15.165-6.399,31.673-9.77,48.519-9.77c16.848,0,33.356,3.37,48.854,9.77
	c14.824,6.401,27.965,15.156,39.755,26.613c11.454,11.795,20.22,24.934,26.622,39.763c6.396,15.495,9.765,32.006,9.765,48.85
	c0,16.846-3.369,33.353-9.765,48.513c-6.405,15.159-15.168,28.303-26.622,39.762c-11.793,11.454-24.931,20.553-39.755,26.95
	c-15.498,6.402-32.006,9.772-48.854,9.772C113.157,254.996,96.648,251.626,81.483,245.224z M69.359,69.353
	c-16.175,16.17-25.274,37.734-25.274,60.646c0,22.913,9.099,44.474,25.274,60.639c16.172,16.177,37.732,25.271,60.644,25.271
	c22.912,0,44.473-9.095,60.65-25.271c16.169-16.165,25.268-37.727,25.268-60.639c0-22.916-9.099-44.476-25.268-60.646
	c-16.177-16.172-37.743-25.268-60.65-25.268C107.091,44.085,85.531,53.18,69.359,69.353z"/>
<g>
</g>
<g>
</g>
<g>
</g>
<g>
</g>
<g>
</g>
<g>
</g>
</svg>
