<?xml version="1.0" standalone="no"?>
<!DOCTYPE svg PUBLIC "-//W3C//DTD SVG 20010904//EN"
 "http://www.w3.org/TR/2001/REC-SVG-20010904/DTD/svg10.dtd">
<svg version="1.0" xmlns="http://www.w3.org/2000/svg"
 width="512.000000pt" height="512.000000pt" viewBox="0 0 512.000000 512.000000"
 preserveAspectRatio="xMidYMid meet">

<g transform="translate(0.000000,512.000000) scale(0.100000,-0.100000)"
fill="#000000" stroke="none">
<path d="M2557 4963 c-4 -3 -7 -40 -7 -81 0 -57 -4 -80 -17 -94 -13 -14 -14
-21 -5 -30 7 -7 12 -46 12 -99 l0 -87 35 -6 c20 -4 40 -4 45 -1 6 3 10 30 10
58 0 86 6 97 52 97 l40 0 -3 -77 -4 -78 45 0 45 0 3 80 c2 56 8 85 19 97 15
17 15 19 -1 37 -14 15 -16 31 -10 98 l7 80 -99 6 c-125 9 -159 9 -167 0z m163
-124 c0 -27 -3 -29 -40 -29 -38 0 -40 2 -40 29 0 33 10 39 52 33 23 -4 28 -9
28 -33z"/>
<path d="M2193 4943 c-25 -5 -27 -15 -14 -116 5 -40 3 -64 -5 -75 -10 -13 -9
-21 6 -39 11 -15 20 -50 25 -98 l7 -76 51 6 c29 3 81 9 117 13 43 5 65 11 64
20 -1 6 -2 26 -2 43 l-2 32 -74 -6 -74 -7 -4 38 c-3 20 0 45 6 54 7 11 6 21
-2 31 -7 8 -18 54 -24 101 -13 93 -11 91 -75 79z"/>
<path d="M2975 4900 c-8 -48 -7 -50 37 -59 31 -7 33 -10 32 -46 -1 -26 -8 -44
-22 -55 -15 -13 -17 -21 -10 -34 7 -13 5 -42 -7 -98 -9 -44 -15 -82 -12 -85 3
-2 23 -7 44 -10 l40 -5 17 80 c10 48 23 83 32 86 11 4 13 15 8 43 -3 21 -1 50
5 65 9 25 12 26 51 16 22 -6 43 -9 45 -6 2 2 7 22 11 44 l6 40 -124 29 c-67
15 -128 30 -135 32 -6 3 -14 -12 -18 -37z"/>
<path d="M1860 4873 c-47 -13 -86 -26 -88 -28 -2 -2 6 -38 18 -80 12 -44 19
-88 15 -102 -4 -17 -1 -29 10 -37 9 -7 25 -43 36 -81 10 -38 22 -72 27 -77 11
-11 82 13 82 28 0 7 -4 23 -9 36 -26 73 -25 76 31 93 94 27 102 49 68 170 -21
73 -47 106 -84 104 -11 0 -59 -12 -106 -26z m103 -116 c10 -43 4 -55 -32 -59
-20 -3 -25 4 -36 40 -13 41 -12 44 8 52 36 15 51 7 60 -33z"/>
<path d="M3366 4755 c-16 -43 -37 -80 -48 -86 -14 -8 -18 -17 -14 -34 4 -14
-4 -44 -18 -76 -42 -97 -42 -97 0 -115 20 -8 40 -12 44 -7 4 4 18 33 31 63 12
30 25 59 29 63 4 4 28 -2 55 -13 26 -11 49 -19 50 -18 2 2 10 20 19 41 l15 38
-47 20 c-57 25 -54 21 -46 53 8 32 15 32 92 1 34 -14 64 -25 67 -25 10 0 35
74 28 80 -10 9 -209 90 -220 90 -5 0 -21 -34 -37 -75z"/>
<path d="M1377 4683 c-14 -4 -162 -86 -175 -98 -1 -1 16 -34 38 -72 22 -39 40
-82 40 -96 0 -17 7 -28 20 -32 11 -3 38 -38 61 -76 l40 -70 71 38 c38 21 84
50 100 66 36 32 34 62 -7 127 -17 27 -24 48 -20 61 5 15 2 22 -13 26 -12 3
-35 29 -53 58 -18 29 -43 58 -56 64 -13 6 -25 10 -26 10 -1 -1 -10 -3 -20 -6z
m41 -147 c15 -24 39 -64 52 -90 25 -46 25 -47 6 -62 -11 -8 -25 -14 -32 -14
-6 0 -35 41 -64 91 -50 86 -51 91 -34 104 30 23 43 18 72 -29z"/>
<path d="M3720 4608 c-16 -24 -36 -53 -45 -65 -9 -13 -23 -23 -32 -23 -11 0
-14 -6 -10 -21 4 -13 -5 -43 -24 -77 -16 -30 -29 -60 -29 -67 0 -38 122 -125
175 -125 29 0 61 29 88 79 9 18 26 35 37 38 14 4 20 13 18 32 -1 14 10 47 25
72 31 53 35 99 10 121 -38 34 -125 78 -153 78 -24 0 -36 -9 -60 -42z m109 -77
l23 -18 -46 -80 c-26 -45 -52 -86 -60 -92 -18 -15 -60 15 -51 38 11 30 97 171
103 171 4 0 18 -9 31 -19z"/>
<path d="M1022 4463 l-34 -28 48 -65 c26 -36 48 -76 48 -90 1 -17 7 -26 21
-28 11 -2 41 -34 69 -73 l49 -69 31 24 c17 13 30 31 30 39 -1 8 -20 39 -43 69
-24 32 -41 66 -41 81 0 20 -5 27 -20 27 -12 0 -29 15 -44 38 -13 20 -37 52
-53 70 l-28 33 -33 -28z"/>
<path d="M4080 4371 c-29 -33 -61 -61 -73 -63 -13 -2 -21 -11 -22 -25 -1 -13
-26 -50 -55 -84 l-53 -61 31 -31 32 -31 40 39 c44 43 45 41 29 -37 l-12 -52
34 -28 c36 -30 49 -35 49 -17 0 6 7 35 16 65 15 51 17 54 49 54 28 0 42 10 94
66 84 92 83 107 -11 196 -40 37 -78 68 -85 68 -6 0 -35 -27 -63 -59z m104 -90
c17 -18 16 -21 -12 -52 -28 -32 -31 -33 -56 -20 -33 18 -33 28 1 63 32 33 44
35 67 9z"/>
<path d="M774 4256 l-99 -95 32 -32 33 -33 33 32 33 32 26 -27 c15 -16 28 -39
30 -53 2 -15 11 -26 23 -28 11 -2 46 -29 77 -59 l56 -56 31 24 c16 13 30 29
30 34 0 6 -24 36 -54 69 -30 32 -55 67 -55 77 0 12 -7 19 -18 19 -18 0 -72 48
-72 65 0 5 12 22 27 37 l27 28 -30 31 -31 30 -99 -95z"/>
<path d="M2400 4339 c-591 -54 -1116 -413 -1380 -944 -92 -185 -154 -376 -118
-363 7 3 96 27 197 54 l184 49 38 80 c141 296 405 550 706 679 433 185 918
141 1321 -120 45 -30 90 -54 99 -54 14 0 303 73 342 86 33 11 -169 186 -329
285 -225 140 -484 224 -766 248 -133 12 -158 12 -294 0z"/>
<path d="M4393 4100 c-38 -30 -72 -50 -88 -50 -18 0 -25 -5 -25 -19 0 -12 -26
-40 -65 -71 -36 -28 -65 -55 -65 -60 0 -5 12 -22 26 -39 l26 -31 63 50 c35 27
65 50 69 50 3 0 -13 -37 -34 -82 -22 -45 -38 -83 -37 -85 2 -1 43 5 90 16 48
10 87 15 87 12 -1 -3 -27 -26 -60 -51 -33 -25 -59 -49 -59 -55 0 -5 10 -23 24
-39 l24 -30 67 52 c37 29 77 52 90 52 17 0 24 6 24 19 0 12 26 40 65 71 36 28
65 55 65 59 0 4 -12 21 -27 39 l-28 32 -89 -20 c-49 -12 -91 -18 -94 -15 -3 3
11 39 31 81 20 41 37 82 37 92 -1 14 -43 73 -52 72 -2 -1 -31 -23 -65 -50z"/>
<path d="M552 4013 c-26 -24 -112 -139 -112 -151 0 -5 29 -30 64 -56 37 -27
67 -57 70 -71 4 -16 11 -22 23 -19 11 3 46 -17 86 -47 l69 -52 24 29 c13 16
23 34 24 40 0 6 -18 24 -40 39 -50 35 -51 45 -2 34 69 -16 96 -11 120 21 36
47 35 48 -70 66 -35 6 -38 9 -38 40 0 29 -9 41 -67 89 -73 60 -114 70 -151 38z
m88 -105 c34 -25 37 -43 14 -69 -16 -17 -18 -17 -50 8 -38 29 -41 39 -17 65
20 22 18 22 53 -4z"/>
<path d="M3795 3740 c-115 -32 -593 -162 -675 -184 -30 -8 -255 -69 -500 -136
-245 -67 -474 -130 -510 -139 -258 -69 -1416 -385 -1419 -388 -9 -6 12 -15
253 -107 201 -77 253 -93 274 -86 15 5 142 38 282 75 140 37 275 73 300 80 25
7 187 50 360 95 173 45 517 136 764 201 247 65 461 119 475 119 36 0 58 -18
64 -54 4 -24 -32 -97 -195 -400 -110 -204 -222 -411 -249 -461 -287 -535 -307
-570 -336 -587 -28 -17 -30 -17 -55 5 -29 24 -26 -5 -58 557 -15 262 -1 232
-133 273 -217 68 -231 71 -317 71 -78 0 -100 -5 -257 -58 -95 -33 -173 -62
-173 -66 0 -3 119 -46 264 -93 l264 -87 6 -68 c3 -37 8 -107 11 -157 3 -49 9
-157 15 -240 5 -82 21 -325 35 -540 38 -590 28 -526 85 -579 27 -25 52 -46 55
-46 14 0 102 50 114 64 7 9 348 638 757 1398 696 1292 744 1384 744 1430 0 63
-11 82 -64 113 -52 30 -56 30 -181 -5z"/>
<path d="M3974 3278 c-55 -110 -84 -179 -81 -192 3 -12 19 -75 37 -141 67
-257 50 -561 -47 -820 -127 -342 -406 -638 -741 -785 -59 -26 -136 -55 -172
-65 -36 -10 -70 -23 -77 -28 -7 -5 -34 -46 -60 -90 -26 -45 -69 -120 -95 -166
-27 -46 -47 -85 -44 -88 8 -8 170 17 276 43 652 161 1136 668 1282 1344 19 91
22 134 22 330 0 255 -12 336 -84 551 -35 105 -113 279 -125 279 -3 0 -44 -77
-91 -172z"/>
<path d="M2595 2848 c-115 -39 -211 -72 -213 -74 -2 -1 1 -11 6 -21 7 -13 62
-36 170 -72 l160 -53 6 -71 c4 -40 11 -118 15 -175 6 -84 12 -107 28 -124 l21
-20 15 23 c8 13 60 106 117 207 l103 183 -2 97 c-1 62 -6 99 -14 104 -13 9
-189 68 -197 67 -3 0 -99 -32 -215 -71z"/>
<path d="M1050 2599 c-58 -16 -129 -37 -159 -45 l-54 -15 6 -92 c16 -226 113
-514 247 -732 165 -269 426 -505 713 -645 105 -51 308 -122 386 -135 l44 -7
-6 43 c-3 24 -11 101 -18 171 l-12 126 -91 33 c-155 55 -313 148 -441 259 -71
61 -137 134 -127 138 5 1 129 -20 277 -48 148 -27 278 -50 289 -50 18 0 19 5
12 132 -5 107 -10 136 -24 150 -10 10 -93 36 -205 64 -104 26 -190 52 -192 58
-2 6 -10 76 -20 155 -9 81 -22 153 -30 164 -8 12 -76 44 -167 79 -145 56 -156
59 -214 53 -35 -4 -64 -2 -68 3 -3 5 -8 46 -12 90 -4 50 -11 82 -18 81 -6 0
-58 -14 -116 -30z m318 -531 c17 -168 16 -171 -13 -123 -33 53 -97 206 -89
214 7 7 65 29 80 30 7 1 15 -46 22 -121z"/>
<path d="M1345 555 c-14 -12 -21 -33 -26 -91 -4 -41 -12 -81 -18 -88 -8 -10
-7 -21 4 -42 8 -16 15 -54 15 -85 0 -80 13 -89 126 -89 49 0 94 4 100 8 22 14
34 52 34 103 0 35 6 59 17 71 15 17 15 19 0 36 -12 13 -17 37 -17 81 0 52 -4
66 -25 86 -22 23 -32 25 -107 25 -57 -1 -89 -5 -103 -15z m133 -87 c14 -14 17
-185 3 -206 -5 -8 -21 -12 -37 -10 l-29 3 -3 99 c-1 55 0 106 2 113 7 16 48
17 64 1z"/>
<path d="M1700 483 c0 -66 -4 -91 -17 -105 -15 -17 -15 -19 0 -36 13 -14 17
-38 17 -100 l0 -82 45 0 44 0 3 78 3 77 58 3 57 3 0 44 0 44 -57 3 c-57 3 -58
3 -58 33 l0 30 83 3 82 3 0 44 0 45 -130 0 -130 0 0 -87z"/>
<path d="M2050 481 c0 -66 -4 -92 -15 -101 -13 -11 -13 -15 0 -33 10 -15 15
-47 15 -105 l0 -83 48 3 47 3 -3 54 c-2 29 -1 64 2 77 6 22 12 24 61 24 l55 0
0 45 0 45 -54 0 c-44 0 -56 3 -61 19 -13 42 2 51 86 51 l79 0 0 45 0 45 -130
0 -130 0 0 -89z"/>
<path d="M2400 482 c0 -56 -4 -92 -12 -100 -10 -10 -10 -17 0 -32 7 -12 12
-55 12 -105 l0 -85 45 0 45 0 0 78 c0 52 5 84 15 99 13 19 13 24 0 50 -9 18
-15 57 -15 106 l0 77 -45 0 -45 0 0 -88z"/>
<path d="M2645 545 c-21 -20 -25 -34 -25 -86 0 -44 -5 -68 -17 -81 -15 -17
-15 -19 0 -36 12 -13 17 -37 17 -80 0 -91 14 -102 130 -102 112 0 130 13 130
90 l0 50 -44 0 c-39 0 -45 -3 -48 -22 -2 -18 -11 -24 -35 -26 -28 -3 -33 0
-39 24 -5 19 -2 38 9 57 15 26 15 31 2 50 -19 27 -19 71 -1 87 23 18 61 8 64
-17 3 -20 9 -23 48 -23 l44 0 0 49 c0 73 -27 91 -132 91 -70 0 -82 -3 -103
-25z"/>
<path d="M2977 563 c-4 -3 -7 -45 -7 -93 0 -52 -5 -91 -12 -98 -8 -8 -8 -15 0
-25 6 -7 12 -51 14 -97 l3 -85 48 -3 47 -3 0 89 c0 68 4 93 15 102 14 12 14
15 0 30 -11 12 -15 40 -15 103 l0 87 -43 0 c-24 0 -47 -3 -50 -7z"/>
<path d="M3190 482 c0 -56 -4 -92 -12 -100 -10 -10 -10 -17 0 -32 7 -12 12
-55 12 -105 l0 -85 50 0 50 0 0 80 0 80 40 0 40 0 0 -80 0 -80 50 0 50 0 0 89
c0 53 4 93 11 96 6 4 7 14 3 24 -5 9 -10 57 -14 106 l-5 90 -137 3 -138 3 0
-89z m180 -37 c0 -34 -1 -35 -40 -35 -39 0 -40 1 -40 35 0 34 1 35 40 35 39 0
40 -1 40 -35z"/>
<path d="M3590 483 c0 -57 -4 -93 -12 -101 -10 -10 -10 -17 0 -32 7 -12 12
-55 12 -105 l0 -85 125 0 125 0 0 29 c0 56 -6 61 -81 61 l-69 0 0 43 c0 24 5
48 12 55 8 8 8 15 0 25 -6 7 -12 53 -14 103 l-3 89 -47 3 -48 3 0 -88z"/>
</g>
</svg>
