<?xml version="1.0" encoding="UTF-8" standalone="no"?>
<!-- Created with Inkscape (http://www.inkscape.org/) -->

<svg
   xmlns:dc="http://purl.org/dc/elements/1.1/"
   xmlns:cc="http://creativecommons.org/ns#"
   xmlns:rdf="http://www.w3.org/1999/02/22-rdf-syntax-ns#"
   xmlns:svg="http://www.w3.org/2000/svg"
   xmlns="http://www.w3.org/2000/svg"
   xmlns:sodipodi="http://sodipodi.sourceforge.net/DTD/sodipodi-0.dtd"
   xmlns:inkscape="http://www.inkscape.org/namespaces/inkscape"
   width="78.581245mm"
   height="78.581245mm"
   viewBox="0 0 78.581245 78.581245"
   version="1.1"
   id="svg5971"
   inkscape:version="0.92.4 (5da689c313, 2019-01-14)"
   sodipodi:docname="f66c6d0ac6b8c5c4ed469234ec9734f6d3499b0351b22349f40e617d22254fec.svg">
  <defs
     id="defs5965">
    <clipPath
       id="clipPath2518">
      <path
         id="path2520"
         d="M 0,19.49762 V 0 h 88.08539 v 19.49762 z"
         inkscape:connector-curvature="0" />
    </clipPath>
    <clipPath
       id="clipPath2488">
      <path
         id="path2490"
         d="m 22.67717,-147.40158 v 19.4976 h 88.08549 v -19.4976 z"
         inkscape:connector-curvature="0" />
    </clipPath>
    <clipPath
       id="clipPath2474">
      <path
         id="path2476"
         d="M 4.56,61.67999 V 231.60001 H 360.72 V 61.67999 Z"
         inkscape:connector-curvature="0" />
    </clipPath>
    <clipPath
       id="clipPath2466">
      <path
         id="path2468"
         d="m -34.01575,-99.2126 v 246.61418 h 521.5748 V -99.2126 Z"
         inkscape:connector-curvature="0" />
    </clipPath>
    <clipPath
       id="clipPath2458">
      <path
         id="path2460"
         d="M 0,0 H 527.24409 V 357.16536 H 0 Z"
         inkscape:connector-curvature="0" />
    </clipPath>
  </defs>
  <sodipodi:namedview
     id="base"
     pagecolor="#ffffff"
     bordercolor="#666666"
     borderopacity="1.0"
     inkscape:pageopacity="0.0"
     inkscape:pageshadow="2"
     inkscape:zoom="0.7"
     inkscape:cx="149.36515"
     inkscape:cy="173.65905"
     inkscape:document-units="mm"
     inkscape:current-layer="layer1-0"
     showgrid="false"
     inkscape:window-width="1280"
     inkscape:window-height="961"
     inkscape:window-x="-8"
     inkscape:window-y="-8"
     inkscape:window-maximized="1"
     inkscape:pagecheckerboard="true"
     fit-margin-top="0"
     fit-margin-left="0"
     fit-margin-right="0"
     fit-margin-bottom="0" />
  <metadata
     id="metadata5968">
    <rdf:RDF>
      <cc:Work
         rdf:about="">
        <dc:format>image/svg+xml</dc:format>
        <dc:type
           rdf:resource="http://purl.org/dc/dcmitype/StillImage" />
        <dc:title></dc:title>
      </cc:Work>
    </rdf:RDF>
  </metadata>
  <g
     inkscape:label="Layer 1"
     inkscape:groupmode="layer"
     id="layer1"
     transform="translate(-65.030804,-106.5189)">
    <g
       id="layer1-0"
       transform="matrix(0.04649105,0,0,0.04649105,94.048014,146.40878)">
      <g
         id="g121">
        <g
           transform="matrix(5.6910595,0,0,5.6910595,-624.14615,-858.01203)"
           id="g6076"
           style="">
          <g
             id="g6005">
            <g
               id="g5977">
              <g
                 id="g5975">
                <circle
                   style="fill:#c63c22"
                   cx="148.5"
                   cy="148.5"
                   r="148.5"
                   id="circle5973" />
              </g>
            </g>
            <path
               inkscape:connector-curvature="0"
               style="fill:#9e231d"
               d="m 296.703,139.216 -96.66,-96.678 -104.931,199.82 54.626,54.626 C 231.181,296.318 297,230.1 297,148.5 c 0,-3.119 -0.108,-6.212 -0.297,-9.284 z"
               id="path5979" />
            <g
               id="g5983">
              <path
                 inkscape:connector-curvature="0"
                 style="fill:#ffffff"
                 d="m 207.444,99.107 c 9.143,0 16.556,-7.412 16.556,-16.556 0,-9.144 -7.412,-16.556 -16.556,-16.556 -0.233,0 -0.459,0.025 -0.689,0.035 0.446,-1.863 0.689,-3.805 0.689,-5.805 0,-13.715 -11.118,-24.833 -24.833,-24.833 -8.456,0 -15.919,4.23 -20.404,10.685 -2.92,-2.582 -6.747,-4.163 -10.951,-4.163 -3.669,0 -7.048,1.208 -9.793,3.228 -4.538,-5.926 -11.683,-9.751 -19.724,-9.751 -10.476,0 -19.43,6.491 -23.079,15.667 -2.156,-1.028 -4.559,-1.62 -7.106,-1.62 C 82.412,49.44 75,56.852 75,65.996 c 0,9.144 7.412,16.556 16.556,16.556 z"
                 id="path5981" />
            </g>
            <g
               id="g5987">
              <path
                 inkscape:connector-curvature="0"
                 style="fill:#d0d5d9"
                 d="m 207.444,65.996 c -0.233,0 -0.459,0.025 -0.689,0.035 0.446,-1.863 0.689,-3.805 0.689,-5.804 0,-13.715 -11.118,-24.833 -24.833,-24.833 -8.455,0 -15.919,4.23 -20.404,10.685 -2.92,-2.583 -6.747,-4.163 -10.951,-4.163 -0.882,0 -1.745,0.073 -2.589,0.208 V 90.71 l 58.777,8.397 c 9.143,0 16.556,-7.412 16.556,-16.556 0,-9.144 -7.412,-16.555 -16.556,-16.555 z"
                 id="path5985" />
            </g>
            <g
               id="g5991">
              <path
                 inkscape:connector-curvature="0"
                 style="fill:#f0deb4"
                 d="M 238.282,115.5 H 206.25 v -33 H 90.75 v 148.792 c 0,8.952 7.257,16.208 16.208,16.208 h 83.083 c 8.952,0 16.208,-7.257 16.208,-16.208 V 198 h 32.032 c 5.091,0 9.218,-4.127 9.218,-9.218 v -64.064 c 0.001,-5.091 -4.126,-9.218 -9.217,-9.218 z m -2.429,61.532 c 0,3.71 -3.008,6.718 -6.718,6.718 h -19.488 v -54 h 19.488 c 3.71,0 6.718,3.008 6.718,6.718 z"
                 id="path5989" />
            </g>
            <g
               id="g5995">
              <path
                 inkscape:connector-curvature="0"
                 style="fill:#d8c49c"
                 d="M 238.282,115.5 H 206.25 v -33 h -57.583 v 165 h 41.375 c 8.952,0 16.208,-7.257 16.208,-16.208 V 198 h 32.032 c 5.091,0 9.218,-4.127 9.218,-9.218 v -64.064 c 0,-5.091 -4.127,-9.218 -9.218,-9.218 z m -2.429,61.532 c 0,3.71 -3.008,6.718 -6.718,6.718 h -19.488 v -54 h 19.488 c 3.71,0 6.718,3.008 6.718,6.718 z"
                 id="path5993" />
            </g>
            <g
               id="g5999">
              <path
                 inkscape:connector-curvature="0"
                 style="fill:#ffa800"
                 d="m 111.814,237.857 h 73.372 c 7.905,0 14.314,-6.409 14.314,-14.314 v -92.4 h -102 v 92.4 c 0,7.906 6.409,14.314 14.314,14.314 z"
                 id="path5997" />
            </g>
            <g
               id="g6003">
              <path
                 inkscape:connector-curvature="0"
                 style="fill:#ce8400"
                 d="m 148.667,131.143 v 106.714 h 36.519 c 7.905,0 14.314,-6.409 14.314,-14.314 v -92.4 z"
                 id="path6001" />
            </g>
          </g>
          <g
             id="g6007" />
          <g
             id="g6009" />
          <g
             id="g6011" />
          <g
             id="g6013" />
          <g
             id="g6015" />
          <g
             id="g6017" />
          <g
             id="g6019" />
          <g
             id="g6021" />
          <g
             id="g6023" />
          <g
             id="g6025" />
          <g
             id="g6027" />
          <g
             id="g6029" />
          <g
             id="g6031" />
          <g
             id="g6033" />
          <g
             id="g6035" />
        </g>
        <g
           transform="matrix(14.4167,0,0,14.4167,-3787.8,-4695.59)"
           id="g2790">
          <path
             inkscape:connector-curvature="0"
             d="m 292.2366,339.06197 -0.50305,-1.93603 c -0.19398,-0.74581 0.0599,-1.47583 0.6995,-1.53565 0.509,-0.0476 0.91926,0.48954 0.91926,0.96437 0,0.9558 -0.55186,1.72976 -0.7666,2.03978 -0.0538,0.0782 -0.1844,0.25029 -0.34911,0.46753 z m -0.13928,8.44852 c 0.0196,0.0708 0.0196,0.15629 0.0196,0.183 0,0.32727 -0.24665,0.57865 -0.61779,0.57865 -0.36499,0 -0.5687,-0.33436 -0.5687,-0.57865 0,-0.32707 0.24899,-0.61272 0.6017,-0.60299 h 0.0354 l -0.33687,-0.51998 -0.0965,-0.15503 -0.94837,-1.48796 -0.19661,-0.30762 -0.61764,-0.96813 c 0,0 -0.10749,-0.17449 -0.15988,-0.33814 l -0.004,-0.0109 c -0.01,-0.0208 -0.0146,-0.0465 -0.0195,-0.0697 -0.002,-0.0171 -0.006,-0.0304 -0.011,-0.0415 -0.007,-0.0464 -0.011,-0.0953 -0.011,-0.14038 0,-0.45163 0.36502,-0.81173 0.81176,-0.81173 0.14901,0 0.28939,0.039 0.41135,0.10987 l -0.1,-0.22465 -2.35362,-5.116 1.17801,-0.87525 z m -5.55775,-0.42232 -0.0978,0.13912 -0.33935,0.47974 c 0,0 -0.25392,0.33561 -0.35889,0.42363 -0.10986,0.1025 -0.25388,0.16346 -0.40886,0.16346 -0.32479,0 -0.58712,-0.26612 -0.58712,-0.59198 0,-0.326 0.26233,-0.58964 0.58712,-0.58964 0.21488,0 0.37963,0.0769 0.48213,0.20513 l 0.0415,0.061 0.19535,-0.5566 0.022,-0.0635 c 0.52002,-1.48078 1.7944,-5.10501 1.85429,-5.2539 0.0684,-0.18436 0.23926,-0.49325 0.6176,-0.57141 0.24177,-0.0512 0.37243,-0.006 0.43701,0.0318 l 0.38826,0.83865 c -0.5701,0 -1.04011,0.47249 -1.04011,1.18046 0,0.30025 0.16601,0.653 0.39436,1.01799 z m 0.2721,-10.13924 -0.60172,0.4456 -0.98027,0.72876 c -0.10125,0.0684 -0.22701,0.11226 -0.37597,0.11226 -0.0488,0 -0.0976,-0.007 -0.14528,-0.0207 -0.2734,-0.0794 -0.51635,-0.35888 -0.52248,-0.60425 -0.01,-0.33938 0.19775,-0.66897 0.6446,-0.66166 l 0.009,0.002 c 0.17577,0.005 0.33812,0.072 0.45901,0.1831 l 0.60174,-0.44438 0.25639,-0.19042 2.53425,-1.87256 -0.18925,-0.80444 -1.3171,0.99487 c -0.14415,-0.64697 -0.12703,-1.51611 0.32833,-2.3877 0.18552,-0.33568 0.6726,-1.09131 1.57463,-1.55517 0.16487,-0.083 0.32352,-0.15015 0.46639,-0.20017 0.27336,0.01 0.56026,0.0158 0.79837,0.011 0.69699,-0.0159 0.9496,-0.44071 1.018,-0.71411 0.0451,-0.17338 0.10864,-0.58594 0.13313,-1.13772 0.007,-0.18795 0.009,-0.43458 0.007,-0.6836 0.92411,0.28931 1.76998,1.24271 1.85298,2.30225 0.0989,1.29886 -0.60787,2.08007 -1.12426,2.46459 z m -15.61154,-3.10912 0.23072,2.33765 c -0.12935,0.007 -0.25387,0.0366 -0.36987,0.0782 l -1.12545,-0.84843 2.42065,-5.19897 0.22217,2.66601 h 5.35035 0.4821 5.34553 l 0.22339,-2.66601 2.42061,5.19897 -1.12663,0.84843 c -0.11474,-0.0416 -0.24052,-0.0708 -0.3675,-0.0782 l 0.22822,-2.33765 z m 12.8138,2.51835 c -0.37486,0.25635 -0.62137,0.68355 -0.62137,1.17187 0,0.40283 0.16839,0.77145 0.44064,1.02539 l -0.0512,0.62988 -0.11478,1.41109 -0.23308,2.81865 c -0.0294,0.43087 -0.1099,0.84835 -0.238,1.2426 l -10.4383,-10.03532 h 11.4014 z m -10.55911,9.06486 c -0.0879,-0.21476 -0.17335,-0.44678 -0.24902,-0.70313 h 8.80366 l 0.72999,0.70313 z m 8.31176,1.49426 h -7.3352 c -0.20508,-0.20276 -0.39428,-0.43954 -0.56763,-0.70313 h 8.51558 c -0.16353,0.21599 -0.35511,0.45288 -0.61275,0.70313 z m -3.55587,1.57947 c -0.89115,0 -1.8494,-0.17822 -2.83699,-0.78736 h 5.54321 c -0.68721,0.47001 -1.81148,0.78736 -2.70622,0.78736 z m -5.326,-5.27099 h 7.5732 l 0.73129,0.70201 h -8.17872 c -0.0489,-0.2235 -0.0879,-0.46275 -0.12577,-0.70201 z m -0.18063,-1.49285 h 6.20235 l 0.72877,0.70061 h -6.85909 c -0.0269,-0.2306 -0.0537,-0.46261 -0.072,-0.70061 z m -0.11108,-1.49052 h 4.76445 l 0.72627,0.6995 h -5.43945 c -0.0159,-0.23437 -0.033,-0.46748 -0.0513,-0.6995 z m -0.1062,-1.49658 h 3.31538 l 0.73125,0.70312 h -3.99662 c -0.0158,-0.23802 -0.033,-0.47851 -0.05,-0.70312 z m 0.45898,-1.4941 h 1.30615 l 0.73003,0.70065 h -2.06063 c 0.0391,-0.12452 0.0659,-0.25147 0.0659,-0.39063 0,-0.10743 -0.0171,-0.21115 -0.0415,-0.31002 z m -0.62622,-0.8533 c -0.0928,-0.64084 -0.15015,-1.28297 -0.15015,-1.28297 l 1.25855,1.34399 h -1.03271 c -0.0244,-0.0183 -0.0489,-0.0452 -0.0757,-0.061 z m -0.69095,1.81643 c -0.0488,0.0134 -0.0976,0.0207 -0.14523,0.0207 -0.15141,0 -0.2771,-0.0439 -0.37846,-0.11226 l -0.97777,-0.72876 -0.603,-0.4456 -5.42603,-4.03198 c -0.51517,-0.38452 -1.22562,-1.16573 -1.12426,-2.46459 0.083,-1.05954 0.92895,-2.01294 1.85055,-2.30225 0,0.24902 0,0.49565 0.009,0.6836 0.0232,0.55178 0.0916,0.96434 0.13425,1.13772 0.0672,0.2734 0.32108,0.69821 1.01688,0.71411 0.23922,0.005 0.52612,-0.001 0.79952,-0.011 0.14043,0.05 0.30155,0.11719 0.46635,0.20017 0.90088,0.46386 1.38668,1.21949 1.57345,1.55517 0.45658,0.87159 0.47242,1.74073 0.32719,2.3877 l -1.31596,-0.99487 -0.19043,0.80444 2.53665,1.87256 0.25754,0.19042 0.60059,0.44438 c 0.1184,-0.11111 0.2808,-0.17827 0.45776,-0.1831 l 0.009,-0.002 c 0.44682,-0.007 0.65796,0.32228 0.64697,0.66166 -0.007,0.24537 -0.25142,0.52487 -0.52367,0.60425 z m -5.58224,3.90992 -0.0989,0.22465 c 0.12085,-0.0709 0.26,-0.10987 0.40892,-0.10987 0.45045,0 0.81295,0.3601 0.81295,0.81173 0,0.0451 -0.002,0.094 -0.0109,0.14038 -0.004,0.011 -0.009,0.0244 -0.011,0.0415 -0.005,0.0231 -0.01,0.0489 -0.0183,0.0697 l -0.002,0.0109 c -0.0538,0.16365 -0.16237,0.33814 -0.16237,0.33814 l -0.61648,0.96813 -0.19777,0.30762 -0.94966,1.48796 -0.0964,0.15503 -0.33451,0.51998 h 0.0342 c 0.35156,-0.01 0.6018,0.27592 0.6018,0.60299 0,0.24429 -0.20508,0.57865 -0.56763,0.57865 -0.37109,0 -0.61771,-0.25138 -0.61771,-0.57865 0,-0.0267 -0.002,-0.11224 0.0171,-0.183 l 2.9858,-11.37698 1.17554,0.87525 z m 1.74194,-1.19153 c 0.3796,0.0782 0.54806,0.38705 0.62012,0.57141 0.0574,0.14889 1.33053,3.77312 1.8518,5.2539 l 0.022,0.0635 0.19775,0.5566 0.0378,-0.061 c 0.10371,-0.12825 0.26851,-0.20513 0.48339,-0.20513 0.32345,0 0.58712,0.26364 0.58712,0.58964 0,0.32586 -0.26367,0.59198 -0.58712,0.59198 -0.15503,0 -0.2991,-0.061 -0.41015,-0.16346 -0.10377,-0.088 -0.35523,-0.42363 -0.35523,-0.42363 l -0.34305,-0.47974 -0.0976,-0.13912 -2.18507,-3.08605 c 0.22705,-0.36499 0.3967,-0.71774 0.3967,-1.01799 0,-0.70797 -0.4736,-1.18046 -1.0437,-1.18046 l 0.38944,-0.83865 c 0.0635,-0.0377 0.1965,-0.083 0.43579,-0.0318 z m 3.04561,-10.75431 c -0.17696,-0.10743 -0.29536,-0.3003 -0.29536,-0.52124 0,-0.3064 0.28439,-0.60669 0.59566,-0.60669 0.32959,0 0.59819,0.27099 0.59819,0.60669 0,0.1062 -0.0269,0.20389 -0.0696,0.29179 l -1.7664,3.84155 c -0.0134,-0.10254 -0.0378,-0.25517 -0.0756,-0.48222 -0.0379,-0.2295 -0.11478,-0.48339 -0.21732,-0.74093 z m 2.65138,-2.22413 0.0439,0.9668 h 0.55547 l -0.0452,-0.9668 h 0.5664 l 0.0695,1.49903 h -1.66863 l -0.094,-1.49903 z m 1.24877,2.82231 h -1.64062 l -0.05,-0.77885 h 1.65277 z m 0.93263,-2.82231 0.033,0.9668 h 0.54925 l -0.0318,-0.9668 h 0.53713 l 0.0305,1.49903 h -1.55747 l -0.0489,-1.49903 z m 1.1475,2.82231 h -1.5405 l -0.0269,-0.77885 h 1.55025 z m 1.05586,-2.82231 0.004,0.9668 h 0.59453 v -0.9668 h 0.51639 l -0.0195,1.49903 h -0.69825 -0.19539 -0.70063 l -0.0195,-1.49903 z m 1.66874,2.04346 h 1.55026 l -0.0256,0.77885 h -1.54305 z m 0.0428,-2.04346 h 0.53696 l -0.0328,0.9668 h 0.5505 l 0.033,-0.9668 h 0.4895 l -0.0513,1.49903 h -1.55763 z m -2.20589,2.04346 h 0.69572 0.19539 0.69336 l -0.011,0.77885 h -0.68238 -0.19539 -0.68347 z m 0.69572,1.32568 h 0.19539 4.94264 l -0.0599,0.95948 h -4.73876 -0.4821 -4.74244 l -0.0598,-0.95948 z m 3.56817,-1.32568 h 1.65282 l -0.0476,0.77885 h -1.643 z m 0.0904,-2.04346 h 0.56634 l -0.0439,0.9668 h 0.55416 l 0.0464,-0.9668 h 0.57014 l -0.094,1.49903 h -1.66874 z m 3.47161,1.0962 c 0.3125,0 0.59574,0.30029 0.59574,0.60669 0,0.22094 -0.11598,0.41381 -0.29538,0.52124 l 1.23165,2.38895 c -0.10376,0.25754 -0.17936,0.51143 -0.21961,0.74093 -0.0366,0.22705 -0.0612,0.37968 -0.077,0.48222 l -1.76389,-3.84155 c -0.0428,-0.0879 -0.0696,-0.18559 -0.0696,-0.29179 0,-0.3357 0.26866,-0.60669 0.59815,-0.60669 z m -20.5993,8.07495 -0.50296,1.93603 c -0.16354,-0.21724 -0.29538,-0.38937 -0.34909,-0.46753 -0.21366,-0.31002 -0.7642,-1.08398 -0.7642,-2.03978 0,-0.47483 0.40776,-1.01198 0.91801,-0.96437 0.63965,0.0598 0.89108,0.78984 0.69824,1.53565 z m 28.53516,4.34933 c -0.0793,0.003 -0.15747,0.0171 -0.22948,0.0366 l -0.38823,-1.3989 0.19775,-0.25382 c 0.5896,-0.76908 0.9436,-1.21345 1.2085,-1.72371 0.40898,-0.78003 0.35523,-1.55639 0.22335,-2.0459 -0.29537,-1.10103 -1.16325,-1.35987 -1.68087,-1.333 -0.77515,0.0366 -1.24874,0.46634 -1.44649,0.95947 -0.21238,0.52978 -0.17464,1.07665 -0.0781,1.46976 l 0.67985,2.70511 c -0.20873,0.27101 -0.38936,0.5566 -0.51261,0.71164 l -1.28662,-5.00858 2.87112,-2.1167 c 1.64788,-1.20968 1.63326,-3.15552 1.09613,-4.20654 -0.51263,-1.00583 -1.24024,-1.51368 -1.87013,-1.74439 -0.18802,-0.072 -0.31254,-0.10865 -0.42965,-0.1355 -0.005,-0.0854 -0.007,-0.14766 -0.01,-0.17456 -0.011,-0.13058 -0.16488,-0.18917 -0.29663,-0.21606 -0.29175,-0.0635 -0.37599,0.0586 -0.37599,0.10253 l -0.009,0.17457 c -0.70187,-0.0769 -2.1996,-0.0684 -2.1996,-0.0684 l 0.002,0.41142 v 1.02657 l 0.59451,0.0696 c 0.0573,0.002 0.1331,0.0611 0.1331,0.16727 -10e-4,0.11227 -0.0867,0.17452 -0.1685,0.19528 -0.072,0.0208 -0.10627,0.0256 -0.1355,0.0232 h -0.006 l -1.83708,-0.20385 0.22457,0.69949 c 0.71415,0.0806 1.27694,0.12936 1.69068,0.15256 0.0195,0.001 0.0366,0.001 0.0561,0.001 0.47978,0 0.86551,-0.38818 0.86551,-0.86792 0,-0.46268 -0.36376,-0.84111 -0.82271,-0.86552 v -0.16968 c 0.24784,0.006 0.55173,0.0183 0.88135,0.0476 0.0317,0.12451 0.0953,0.27587 0.22949,0.41263 0.14165,0.15133 0.29301,0.26852 0.42729,0.35397 l -0.006,0.21483 c 0,0 0.0183,0.35523 -0.0146,0.64942 -0.0317,0.2979 -0.20749,0.52002 -0.85324,0.54322 -0.61527,0.0207 -1.37085,-0.0989 -1.37085,-0.0989 l 0.0415,0.45411 c -0.24903,0.13915 -0.49688,0.34175 -0.81425,0.62495 -0.20874,0.18922 -0.415,0.4517 -0.59685,0.74708 l -0.77153,-1.4917 c 0.1611,-0.22216 0.25998,-0.49073 0.25998,-0.78246 0,-0.73609 -0.67624,-1.33424 -1.38424,-1.33424 -0.47486,0 -0.87525,0.21362 -1.12186,0.542 l 0.11726,-1.40138 h -5.94361 -0.22102 -5.94116 l 0.116,1.40138 c -0.24536,-0.32838 -0.64575,-0.542 -1.12182,-0.542 -0.70923,0 -1.38428,0.59815 -1.38428,1.33424 0,0.29173 0.0976,0.5603 0.26241,0.78246 l -0.77388,1.4917 c -0.18312,-0.29538 -0.38819,-0.55786 -0.59815,-0.74708 -0.31738,-0.2832 -0.56397,-0.4858 -0.81425,-0.62495 l 0.0428,-0.45411 c 0,0 -0.75688,0.1196 -1.37085,0.0989 -0.64579,-0.0232 -0.82275,-0.24532 -0.85453,-0.54322 -0.0317,-0.29419 -0.011,-0.64942 -0.011,-0.64942 l -0.01,-0.21483 c 0.13424,-0.0854 0.28686,-0.20264 0.43086,-0.35397 0.13184,-0.13676 0.19658,-0.28812 0.22707,-0.41263 0.33206,-0.0293 0.63236,-0.0415 0.88137,-0.0476 v 0.16968 c -0.45897,0.0244 -0.82397,0.40284 -0.82397,0.86552 0,0.47974 0.38818,0.86792 0.86792,0.86792 0.0183,0 0.0366,0 0.0537,-0.001 0.41504,-0.0232 0.97779,-0.072 1.69185,-0.15256 l 0.22344,-0.69949 -1.83472,0.20385 h -0.007 c -0.0293,0.002 -0.0647,-0.002 -0.13554,-0.0232 -0.083,-0.0208 -0.16718,-0.083 -0.16841,-0.19528 -10e-4,-0.1062 0.0756,-0.1648 0.13305,-0.16727 l 0.59571,-0.0696 v -1.02657 l 0.005,-0.41142 c 0,0 -1.50028,-0.009 -2.20459,0.0684 l -0.009,-0.17457 c 0,-0.0439 -0.0818,-0.16601 -0.37598,-0.10253 -0.13065,0.0269 -0.28447,0.0855 -0.29663,0.21606 -0.002,0.0269 -0.004,0.0892 -0.009,0.17456 -0.11719,0.0269 -0.2417,0.0635 -0.42972,0.1355 -0.63107,0.23071 -1.35617,0.73856 -1.86768,1.74439 -0.53832,1.05102 -0.55297,2.99686 1.09379,4.20654 l 2.8711,2.1167 -1.2854,5.00858 c -0.12451,-0.15504 -0.30151,-0.44063 -0.51151,-0.71164 l 0.67748,-2.70511 c 0.0952,-0.39311 0.1331,-0.93998 -0.0781,-1.46976 -0.19898,-0.49313 -0.66773,-0.92285 -1.44654,-0.95947 -0.51758,-0.0269 -1.3855,0.23197 -1.68213,1.333 -0.13061,0.48951 -0.18555,1.26587 0.22339,2.0459 0.26734,0.51026 0.6189,0.95463 1.20971,1.72371 l 0.19654,0.25382 -0.38452,1.3989 c -0.0732,-0.0195 -0.1514,-0.0341 -0.23197,-0.0366 -0.48092,-0.0147 -0.81906,0.36625 -0.81906,0.78125 0,0.45661 0.36744,0.81912 0.81906,0.81912 0.29297,0 0.54932,-0.15015 0.69214,-0.38211 0.12576,-0.18551 0.24051,-0.66651 0.37479,-1.13026 l 0.18066,-0.625 0.53219,0.68836 c -0.33076,1.23788 -1.53808,5.774 -1.55639,5.84351 -0.20749,0.88386 0.58349,1.64314 1.40019,1.63951 0.72997,-0.01 1.42944,-0.59577 1.40014,-1.41616 -0.0147,-0.38559 -0.16602,-0.66883 -0.40898,-0.8556 l 1.33428,-2.11186 2.5122,3.55347 c 0.19776,0.28328 0.35031,0.41012 0.3772,0.43213 0.25268,0.25639 0.60425,0.415 0.99483,0.415 0.69828,0 1.41724,-0.62496 1.41724,-1.40136 0,-0.77389 -0.61157,-1.42938 -1.41964,-1.28415 -0.0208,0.005 -0.0403,0.007 -0.0599,0.0134 l -1.77852,-5.08298 c -0.14287,-0.38452 -0.33818,-0.68115 -0.5188,-0.85078 -0.25757,-0.24411 -0.63237,-0.24174 -0.78125,-0.23438 -0.0672,0.002 -0.15747,0.0207 -0.24414,0.0415 l 1.33301,-2.87972 1.66991,1.25854 c 0.24289,0.19658 0.5505,0.31129 0.88502,0.31129 0.0586,0 0.11718,-10e-4 0.17086,-0.01 l 0.46142,4.73022 c 0.14897,1.58692 0.91919,2.97851 2.0557,3.96004 v 0.0109 h 0.0134 c 1.05718,0.90463 2.42554,1.46127 3.93193,1.46127 3.13838,0 5.71651,-2.36939 6.00101,-5.43217 l 0.46135,-4.73022 c 0.0562,0.009 0.11239,0.01 0.1685,0.01 0.33814,0 0.64579,-0.11471 0.88741,-0.31129 l 1.66874,-1.25854 1.33297,2.87972 c -0.0842,-0.0208 -0.17575,-0.0392 -0.24288,-0.0415 -0.14897,-0.007 -0.52375,-0.01 -0.78122,0.23438 -0.18077,0.16963 -0.37601,0.46626 -0.51765,0.85078 l -1.77975,5.08298 c -0.0195,-0.006 -0.0379,-0.009 -0.0599,-0.0134 -0.8081,-0.14523 -1.4196,0.51026 -1.4196,1.28415 0,0.7764 0.72025,1.40136 1.41852,1.40136 0.38934,0 0.74083,-0.15861 0.99484,-0.415 0.0244,-0.022 0.17811,-0.14885 0.37712,-0.43213 l 2.51462,-3.55347 1.33063,2.11186 c -0.2441,0.18677 -0.39546,0.47001 -0.40897,0.8556 -0.0293,0.82039 0.67135,1.40625 1.40022,1.41616 0.81777,0.004 1.61125,-0.75565 1.39889,-1.63951 -0.0135,-0.0695 -1.22314,-4.60563 -1.55399,-5.84351 l 0.52987,-0.68836 0.18187,0.625 c 0.1355,0.46375 0.25025,0.94475 0.37476,1.13026 0.14523,0.23196 0.40162,0.38211 0.6921,0.38211 0.45414,0 0.81913,-0.36251 0.81913,-0.81912 0,-0.415 -0.33935,-0.7959 -0.81913,-0.78125 z"
             id="path2524"
             style="fill:#231f20;fill-opacity:1;fill-rule:nonzero;stroke:none" />
        </g>
      </g>
    </g>
  </g>
</svg>
