<?xml version="1.0" standalone="no"?>
<!DOCTYPE svg PUBLIC "-//W3C//DTD SVG 20010904//EN"
 "http://www.w3.org/TR/2001/REC-SVG-20010904/DTD/svg10.dtd">
<svg version="1.0" xmlns="http://www.w3.org/2000/svg"
 width="300.000000pt" height="300.000000pt" viewBox="0 0 300.000000 300.000000"
 preserveAspectRatio="xMidYMid meet">
<metadata>
Created by potrace 1.10, written by Peter Selinger 2001-2011
</metadata>
<g transform="translate(0.000000,300.000000) scale(0.100000,-0.100000)"
fill="#000000" stroke="none">
<path d="M1388 2899 c-126 -10 -350 -62 -382 -88 -6 -5 -15 -10 -21 -10 -27
-3 -75 -24 -75 -33 0 -6 -3 -9 -6 -5 -20 20 -257 -137 -365 -243 -92 -89 -160
-170 -153 -182 3 -4 0 -8 -5 -8 -6 0 -23 -19 -38 -42 -16 -23 -42 -55 -60 -71
-34 -30 -67 -106 -78 -176 -3 -23 -16 -58 -28 -78 -24 -41 -29 -57 -28 -91 1
-13 -2 -21 -7 -19 -4 3 -7 -14 -8 -36 0 -23 -6 -73 -12 -112 -14 -86 -15 -276
-2 -368 12 -80 64 -273 79 -291 6 -7 9 -15 6 -18 -7 -7 101 -218 125 -243 11
-12 20 -25 20 -28 0 -9 91 -129 129 -171 14 -16 56 -54 92 -85 92 -78 104 -88
130 -102 13 -6 32 -20 43 -30 20 -19 215 -119 231 -119 5 0 39 -11 75 -24 36
-13 92 -32 125 -42 33 -9 71 -28 85 -41 13 -12 34 -24 45 -25 11 -1 38 -3 60
-6 22 -2 74 -4 116 -4 64 -1 81 3 115 25 21 14 62 28 89 31 47 7 74 13 213 52
97 28 293 123 327 158 6 6 26 19 45 29 19 10 53 34 76 55 22 20 58 53 80 73
65 59 184 197 184 213 0 3 16 28 35 55 65 89 149 294 184 442 6 26 16 102 23
169 38 389 -120 813 -406 1094 -81 80 -181 156 -204 156 -8 0 -12 3 -9 7 7 7
-13 20 -106 71 -214 117 -500 179 -739 161z m282 -54 c192 -28 326 -77 540
-200 84 -49 268 -221 336 -315 71 -99 82 -116 123 -198 137 -272 178 -545 128
-842 -2 -14 -14 -63 -27 -110 -98 -368 -350 -675 -696 -848 -148 -74 -386
-141 -479 -134 -76 6 -116 16 -124 31 -10 19 -5 111 6 121 4 4 60 12 123 18
272 26 505 136 701 331 342 340 441 839 255 1280 -28 66 -32 83 -20 87 48 14
46 12 31 40 -20 39 -149 200 -170 214 -14 8 -22 8 -33 -1 -13 -10 -25 -3 -72
43 -462 447 -1194 435 -1640 -26 -70 -72 -148 -173 -188 -244 -1 -2 -24 3 -50
11 -47 14 -49 16 -47 48 1 20 -5 37 -14 44 -14 10 -12 17 12 56 162 260 455
475 765 560 25 7 47 13 50 14 68 20 275 43 340 38 30 -3 98 -11 150 -18z m40
-219 c211 -45 401 -147 567 -303 47 -44 51 -52 52 -93 0 -53 -14 -74 -85 -122
-28 -19 -57 -40 -65 -46 -31 -26 -76 -59 -101 -75 -28 -17 -28 -17 -67 23 -21
22 -43 40 -47 40 -5 0 -15 9 -22 21 -7 12 -16 19 -18 16 -3 -3 -16 6 -30 20
-13 13 -37 29 -54 34 -16 6 -32 19 -35 30 -4 10 -10 19 -15 19 -6 0 -19 31
-24 60 -5 23 -31 70 -39 70 -6 0 -8 3 -5 6 9 8 -20 72 -50 112 -22 29 -30 33
-56 28 -77 -13 -95 -19 -90 -27 7 -13 0 -12 -75 11 -75 22 -100 21 -115 -5 -6
-10 -19 -27 -29 -37 -10 -10 -20 -32 -24 -48 -3 -17 -9 -30 -13 -30 -7 0 -16
-22 -18 -44 0 -5 -4 -12 -9 -15 -4 -3 -21 -24 -37 -46 -36 -48 -54 -65 -126
-112 -30 -20 -68 -50 -84 -67 -69 -74 -105 -119 -101 -126 2 -4 -9 -22 -24
-39 -24 -27 -31 -30 -38 -17 -9 17 -181 96 -207 96 -10 0 -15 4 -12 9 5 8 -79
36 -97 32 -5 -1 -6 3 -2 8 3 6 -5 13 -19 17 -28 7 -25 25 7 59 10 11 26 33 34
49 17 34 14 29 92 121 165 195 414 337 651 373 41 7 86 14 100 16 46 8 264 -4
330 -18z m-287 -206 c63 -22 119 -20 174 8 26 13 34 13 47 3 9 -8 16 -18 16
-25 0 -6 13 -38 29 -71 30 -64 66 -150 74 -176 3 -9 34 -32 69 -52 64 -36 152
-113 183 -161 10 -14 21 -26 26 -26 4 0 54 35 111 78 137 102 235 172 244 172
4 0 13 -8 21 -17 13 -17 14 -17 11 2 -2 14 -12 21 -35 23 -17 2 -34 10 -37 18
-7 17 15 19 32 2 6 -6 15 -9 19 -5 4 4 -8 13 -25 19 -30 11 -45 38 -22 38 14
0 90 -70 90 -82 0 -6 14 -26 30 -45 17 -18 30 -38 30 -43 0 -12 -49 6 -72 27
-15 13 -22 14 -48 3 -16 -7 -30 -16 -30 -20 0 -5 -24 -25 -52 -46 -29 -21 -55
-41 -58 -44 -4 -5 -81 -60 -157 -114 l-22 -16 31 -67 c76 -168 77 -388 3 -551
-60 -132 -174 -257 -294 -321 -70 -37 -95 -75 -141 -216 l-26 -80 -52 -5 c-29
-3 -56 -2 -61 3 -11 11 -118 20 -148 12 -13 -3 -23 -13 -23 -21 0 -14 -3 -14
-15 -4 -8 7 -15 9 -15 4 0 -36 -128 191 -154 274 -4 12 -26 35 -49 49 -64 40
-185 162 -221 223 -68 112 -88 183 -94 319 l-5 123 29 -6 c27 -6 30 -4 32 21
2 26 12 58 63 190 21 53 19 73 -7 73 -9 0 -3 15 20 48 47 64 87 101 178 161
88 58 115 94 189 241 27 55 51 100 52 100 2 0 28 -9 60 -20z m1095 -283 c14
-20 22 -40 19 -44 -8 -7 -34 22 -86 97 -21 30 -48 64 -60 74 -22 20 -22 20
-15 0 5 -14 4 -16 -5 -8 -7 6 -9 19 -5 29 7 16 16 9 67 -46 33 -35 71 -81 85
-102z m-2174 14 c-4 -22 -2 -41 4 -45 18 -11 2 -47 -18 -41 -14 4 -19 0 -22
-17 -2 -18 -10 -24 -37 -26 l-34 -3 6 38 c3 21 14 59 26 86 18 41 24 47 51 47
30 0 30 -1 24 -39z m2119 -103 c35 -22 44 -42 97 -199 75 -224 58 -538 -41
-756 -15 -35 -26 -63 -23 -63 3 0 0 -6 -6 -12 -6 -7 -32 -48 -57 -92 -83 -140
-255 -303 -414 -390 -129 -71 -309 -123 -444 -128 l-60 -3 -5 80 c-3 49 -8 70
-11 55 -5 -21 -7 -18 -8 13 -1 35 1 37 32 38 17 0 43 2 57 3 14 1 37 3 53 4
16 1 27 8 27 16 0 8 6 21 14 28 8 8 22 41 32 74 10 32 21 61 24 64 4 3 12 19
19 36 16 39 54 76 104 99 22 10 54 33 73 51 19 18 42 35 50 38 8 3 19 16 24
28 5 13 9 19 9 15 1 -14 71 82 108 149 19 35 32 68 29 73 -4 5 -2 11 4 13 17
6 43 132 43 213 0 122 -11 202 -38 270 -38 93 -35 103 46 155 38 25 69 51 69
58 0 7 4 11 9 8 4 -3 19 6 31 19 13 14 29 25 35 25 7 0 20 9 30 20 23 26 47
25 88 -2z m-2110 -4 c13 -5 12 -13 -8 -57 -12 -29 -25 -60 -28 -69 -5 -13 -17
-18 -40 -18 -43 0 -64 33 -50 77 9 26 14 28 52 25 38 -3 41 -2 41 22 0 26 7
30 33 20z m107 -24 c0 -5 -7 -28 -16 -50 -9 -22 -14 -57 -12 -80 4 -42 -9 -53
-31 -26 -9 11 -10 29 -2 72 6 32 11 59 11 60 0 1 7 10 16 18 17 18 34 21 34 6z
m178 -96 c86 -36 160 -68 164 -70 5 -3 -17 -67 -38 -112 -2 -4 -84 26 -129 47
-22 10 -74 33 -116 50 l-75 31 6 48 c5 44 15 72 26 72 2 0 75 -30 162 -66z
m-413 -4 c11 -17 -24 -120 -40 -120 -20 0 -20 62 0 100 16 31 29 37 40 20z
m701 -77 c-16 -29 -64 -161 -73 -200 -6 -26 -33 -31 -33 -7 0 9 16 51 35 94
19 43 35 83 35 89 0 22 20 51 36 51 13 0 13 -3 0 -27z m-533 -8 c9 -4 26 -5
37 -2 11 3 20 1 20 -3 0 -9 57 -30 89 -33 11 0 18 -4 16 -8 -4 -6 68 -38 103
-44 9 -2 19 -4 22 -5 3 -1 8 -2 13 -1 4 0 7 -3 7 -9 0 -5 18 -13 40 -16 55 -9
62 -27 44 -105 -20 -83 -9 -231 23 -309 4 -8 7 -17 8 -20 6 -26 30 -80 35 -80
4 0 12 -16 20 -35 8 -19 17 -35 21 -35 4 0 10 -8 13 -18 4 -10 31 -43 62 -73
31 -29 67 -65 80 -77 13 -14 28 -21 35 -16 8 4 9 3 5 -4 -4 -7 3 -17 18 -24
19 -8 42 -44 87 -137 58 -122 102 -179 138 -182 9 -1 25 -2 36 -3 21 -1 21 -1
9 -106 -9 -73 -18 -84 -69 -77 -75 11 -220 58 -310 102 -156 75 -269 163 -377
293 -70 85 -81 102 -141 223 -60 122 -65 134 -92 255 -26 115 -33 278 -15 394
5 40 4 63 -6 85 -15 34 -14 84 1 80 6 -1 18 -5 28 -10z m-119 -11 c9 -3 16
-17 16 -30 0 -19 5 -24 26 -24 24 0 26 -3 20 -32 -3 -18 -8 -87 -12 -153 -7
-132 5 -253 38 -375 26 -99 124 -299 187 -380 68 -90 207 -221 292 -276 144
-93 335 -166 479 -182 l65 -7 1 -50 c2 -66 -24 -98 -73 -89 -19 4 -39 2 -47
-5 -18 -15 -167 24 -299 78 -224 91 -433 259 -575 461 -72 103 -161 286 -188
390 -47 181 -47 185 -48 360 -1 216 6 268 40 280 13 5 24 16 24 25 0 15 26 20
54 9z m556 -4 c0 -20 -33 -90 -42 -90 -6 0 -8 6 -5 13 2 6 10 29 18 50 12 34
29 50 29 27z m25 -54 c-10 -26 -22 -49 -27 -52 -18 -11 -20 6 -5 38 8 18 18
44 22 57 5 15 10 20 17 13 7 -7 5 -25 -7 -56z m580 -1219 c-1 -15 3 -27 7 -27
4 0 8 14 8 30 0 17 5 30 10 30 6 0 10 -37 10 -90 l0 -90 -34 0 -33 0 1 69 c0
38 5 67 10 64 5 -3 7 6 4 21 -4 17 -1 25 6 23 6 -2 11 -16 11 -30z m25 -177
c0 -16 -7 -20 -30 -20 -18 0 -30 5 -30 13 0 20 10 27 37 27 16 0 23 -6 23 -20z
m-10 -49 c0 -9 -24 -21 -41 -21 -5 0 -9 7 -9 15 0 9 9 15 25 15 14 0 25 -4 25
-9z m0 -47 c0 -10 -7 -14 -22 -12 -32 5 -35 28 -4 28 17 0 26 -5 26 -16z m6
-53 c21 -24 34 -30 66 -29 44 0 62 -11 53 -34 -6 -15 -82 -32 -107 -23 -7 2
-42 6 -78 9 -97 7 -132 16 -126 33 4 8 6 19 6 24 0 5 20 9 43 9 31 0 49 6 62
20 25 28 50 25 81 -9z"/>
<path d="M1568 2208 l-3 -123 -55 -2 c-99 -5 -95 -10 -92 115 l3 110 -30 4
c-24 3 -31 0 -35 -16 -2 -12 -5 -120 -5 -241 l-1 -221 35 -2 c38 -3 35 -10 40
100 1 15 3 29 6 31 2 2 34 7 71 10 l67 6 3 -77 3 -77 33 -3 32 -3 -2 253 -3
253 -32 3 -32 3 -3 -123z m32 -168 c0 -50 0 -50 -27 -43 -41 12 -132 8 -145
-5 -24 -24 -38 -13 -38 28 0 42 24 66 40 40 12 -19 126 -9 147 13 10 9 19 17
20 17 2 0 3 -23 3 -50z"/>
<path d="M1720 1891 l-35 -6 0 -218 c0 -203 -4 -246 -20 -197 -9 28 -308 330
-327 330 -9 0 -22 9 -29 21 -12 17 -25 20 -84 21 -38 0 -82 -4 -96 -10 -24
-10 -26 -16 -29 -79 -5 -100 -5 -148 0 -350 l5 -183 85 0 c47 0 91 4 98 8 19
13 5 332 -15 325 -11 -4 -13 -34 -12 -145 1 -76 -2 -142 -7 -147 -5 -5 -31 -6
-59 -2 l-50 6 -8 155 c-12 236 -7 350 16 379 19 22 118 10 155 -20 17 -13 49
-37 71 -54 22 -16 40 -36 41 -42 0 -7 4 -13 8 -13 4 0 38 -29 74 -65 36 -36
63 -65 60 -65 -3 0 9 -16 28 -35 19 -19 40 -35 47 -35 7 0 13 -7 13 -16 0 -24
42 -13 58 16 10 19 11 63 6 192 -7 183 -4 198 45 198 51 0 51 -1 52 -233 1
-120 4 -219 8 -222 8 -4 -5 -125 -15 -134 -3 -3 -41 -4 -86 -2 -77 2 -137 21
-148 46 -8 18 -245 250 -257 253 -34 6 0 -37 138 -176 l151 -152 66 -1 c37 0
88 -4 114 -8 26 -4 53 -4 59 0 8 4 12 34 11 86 -4 241 -10 569 -11 573 -1 8
-79 8 -121 1z"/>
<path d="M1403 1229 c-24 -11 -54 -34 -67 -50 -29 -35 -49 -119 -37 -152 14
-36 77 -84 127 -96 68 -17 104 -67 76 -107 -16 -23 -58 -44 -88 -44 -44 0 -83
-33 -68 -56 6 -10 24 -24 40 -30 26 -11 37 -10 73 7 24 10 52 19 62 19 10 0
19 4 19 9 0 5 9 13 20 16 11 3 20 14 20 24 0 9 7 26 15 37 20 26 19 64 -4 116
-25 57 -45 72 -116 87 -76 17 -96 33 -88 75 8 43 27 62 79 76 34 10 48 10 57
1 23 -23 45 -12 52 25 9 49 4 52 -85 61 -33 3 -57 -2 -87 -18z m-4 -67 c-9 -1
-22 -14 -29 -27 -7 -13 -17 -22 -23 -18 -5 3 -2 10 7 15 9 5 16 15 16 23 0 15
20 25 35 16 6 -3 3 -7 -6 -9z m-33 -129 c22 -30 17 -50 -6 -25 -20 21 -26 42
-14 42 4 0 13 -8 20 -17z m205 -157 c1 -12 0 -28 -1 -36 -3 -24 -47 -77 -64
-77 -9 0 -16 2 -16 4 0 8 41 43 52 43 9 0 9 3 0 12 -6 6 -8 17 -3 27 12 22 -3
57 -33 77 -24 15 -39 43 -16 29 6 -3 10 0 10 7 1 21 70 -63 71 -86z m-71 -133
c0 -3 -9 -3 -20 0 -11 3 -23 1 -26 -4 -7 -12 -54 -12 -54 0 0 6 15 11 33 13
34 3 67 -1 67 -9z"/>
</g>
</svg>
