<?xml version="1.0" standalone="no"?>
<!DOCTYPE svg PUBLIC "-//W3C//DTD SVG 20010904//EN"
 "http://www.w3.org/TR/2001/REC-SVG-20010904/DTD/svg10.dtd">
<svg version="1.0" xmlns="http://www.w3.org/2000/svg"
 width="1211.000000pt" height="1211.000000pt" viewBox="0 0 1211.000000 1211.000000"
 preserveAspectRatio="xMidYMid meet">

<g transform="translate(0.000000,1211.000000) scale(0.100000,-0.100000)"
fill="#000000" stroke="none">
<path d="M5685 11863 c-210 -7 -635 -48 -645 -63 -3 -3 -50 -11 -105 -17 -113
-12 -415 -77 -459 -99 -16 -8 -38 -14 -49 -14 -10 0 -65 -13 -121 -30 -660
-193 -1319 -534 -1881 -974 -383 -299 -791 -709 -1061 -1066 -96 -127 -172
-234 -179 -252 -4 -11 827 -13 4697 -10 2587 1 4709 2 4717 2 7 0 11 6 8 14
-5 12 19 14 136 15 78 1 146 6 150 10 5 5 -7 25 -26 45 l-34 36 -142 0 c-111
0 -141 -3 -135 -12 5 -9 3 -9 -9 1 -9 7 -15 17 -12 21 3 5 -1 11 -7 14 -7 3
56 4 140 3 83 -1 152 0 152 3 0 3 -15 22 -32 43 l-33 37 -146 0 c-126 0 -149
2 -160 17 -10 11 -10 14 -1 9 6 -4 12 -2 12 3 0 6 -5 11 -11 11 -5 0 -7 5 -4
11 5 6 11 5 19 -6 9 -13 32 -15 143 -13 l131 3 -40 45 c-22 25 -36 38 -32 30
7 -13 5 -13 -8 -2 -16 13 -197 17 -246 5 -22 -5 -22 -6 -6 -24 9 -11 15 -19
11 -19 -3 0 -20 19 -38 43 -18 23 -29 39 -25 35 5 -4 23 2 40 14 22 16 27 17
17 5 -12 -16 -7 -17 78 -17 82 0 109 8 81 25 -5 3 -10 12 -10 18 0 7 8 0 17
-15 10 -15 28 -28 45 -30 l28 -4 -34 40 -34 41 -97 3 c-88 2 -97 0 -91 -15 6
-16 6 -16 -12 0 -18 17 -32 14 -32 -7 0 -6 5 -4 11 4 9 13 10 12 5 -2 -3 -10
0 -20 6 -24 7 -4 5 -10 -7 -16 -12 -8 -23 -4 -41 13 -13 12 -24 27 -24 33 0 6
-9 17 -20 24 -12 7 -17 18 -13 29 4 10 2 14 -4 10 -13 -8 -46 27 -36 38 5 4 3
5 -4 1 -6 -3 -14 -2 -18 4 -3 5 0 10 7 10 7 0 2 6 -12 13 -14 8 -24 19 -22 26
1 7 -2 10 -7 7 -10 -7 -53 47 -46 58 3 3 2 4 -2 1 -9 -7 -62 45 -59 59 2 6 1
8 -1 4 -3 -4 -57 45 -121 110 -64 64 -144 141 -177 171 -33 30 -59 58 -58 63
2 4 -1 7 -6 5 -5 -1 -58 40 -119 91 -874 733 -1988 1205 -3132 1327 -154 16
-525 36 -625 33 -33 -1 -96 -3 -140 -5z m220 -603 l46 -140 162 -2 162 -3
-127 -90 c-70 -49 -128 -95 -128 -100 0 -6 20 -71 45 -145 25 -73 43 -135 41
-137 -2 -2 -58 35 -125 82 -69 49 -128 84 -136 81 -8 -3 -66 -41 -128 -86 -63
-44 -117 -80 -120 -80 -3 0 16 64 43 143 29 86 45 146 39 153 -4 6 -60 46
-124 90 -63 43 -115 82 -115 87 0 4 71 7 158 7 l158 0 23 75 c14 43 28 72 34
68 6 -3 7 -1 3 5 -9 15 25 132 39 132 2 0 24 -63 50 -140z m-1362 -360 c98 0
146 -3 142 -10 -4 -6 -56 -44 -116 -86 -60 -41 -109 -81 -109 -89 0 -7 18 -66
40 -130 23 -65 40 -121 38 -125 -2 -4 -52 28 -113 71 -60 43 -114 79 -120 79
-6 0 -62 -36 -125 -80 -62 -44 -115 -78 -116 -77 -7 6 20 76 27 72 4 -3 5 5 1
17 -4 16 -2 19 8 13 9 -5 11 -4 6 3 -8 13 24 123 33 118 3 -2 6 9 6 24 0 26
-14 39 -119 112 l-119 83 153 5 153 5 45 135 45 135 46 -137 45 -138 149 0z
m2908 130 l43 -130 151 -2 150 -3 -117 -83 c-65 -46 -118 -89 -118 -96 0 -6
18 -66 40 -131 22 -66 39 -123 38 -126 -2 -4 -52 28 -113 71 -60 44 -116 79
-123 79 -7 1 -52 -27 -100 -62 -48 -35 -100 -72 -116 -82 l-29 -19 8 24 c4 14
10 27 14 30 3 3 6 10 6 15 0 26 28 104 36 99 5 -3 6 1 4 8 -3 8 1 34 10 58 8
23 14 44 13 45 -2 1 -57 40 -123 86 l-119 84 152 3 152 3 6 25 c5 20 9 23 16
12 7 -9 8 -8 4 6 -7 20 53 216 65 216 4 0 27 -58 50 -130z m-4170 -570 l104
-5 -82 -58 c-46 -32 -83 -59 -83 -61 0 -1 14 -42 30 -91 17 -49 30 -92 30 -97
0 -4 -38 20 -85 53 l-85 61 -82 -60 c-46 -33 -84 -57 -86 -53 -1 4 11 47 28
96 35 102 40 89 -69 164 l-74 50 109 3 109 3 25 75 c43 127 39 126 74 20 l33
-95 104 -5z m5349 95 l31 -94 104 -3 104 -3 -83 -58 -84 -58 30 -90 c17 -50
28 -92 25 -95 -3 -3 -36 17 -74 43 -37 27 -73 52 -80 56 -7 5 -46 -17 -95 -52
-46 -32 -84 -58 -85 -57 -8 7 22 74 30 69 6 -3 7 -1 3 6 -4 6 0 34 9 61 9 27
14 54 10 59 -3 6 -40 34 -82 63 l-77 53 105 3 105 3 23 72 c30 92 39 117 45
117 2 0 19 -43 36 -95z m-6310 -577 l13 -48 66 0 66 -1 -25 -22 c-14 -12 -37
-29 -50 -38 l-25 -16 18 -55 c9 -30 17 -58 17 -62 0 -4 -22 8 -49 28 -27 20
-52 36 -56 36 -4 0 -29 -16 -56 -36 -27 -20 -49 -34 -49 -31 0 2 9 29 20 61
l19 57 -52 37 -52 37 66 3 66 3 17 56 c20 62 27 60 46 -9z m7111 4 l16 -47 69
-5 69 -5 -53 -34 c-28 -18 -52 -39 -52 -47 0 -7 7 -32 16 -54 9 -23 14 -43 11
-47 -3 -3 -25 9 -49 26 -23 17 -46 31 -50 31 -4 0 -30 -16 -58 -36 l-49 -35
21 61 c11 34 19 62 17 64 -2 1 -26 18 -54 37 l-50 34 67 3 67 3 17 54 c10 30
20 52 23 49 3 -3 13 -26 22 -52z m1089 -464 c0 -4 -4 -8 -9 -8 -6 0 -12 4 -15
8 -3 5 1 9 9 9 8 0 15 -4 15 -9z m69 -122 c-3 -3 -11 5 -18 17 -13 21 -12 21
5 5 10 -10 16 -20 13 -22z"/>
<path d="M4136 10643 c-6 -14 -5 -15 5 -6 7 7 10 15 7 18 -3 3 -9 -2 -12 -12z"/>
<path d="M10225 10140 c-16 -7 -17 -9 -3 -9 9 -1 20 4 23 9 7 11 7 11 -20 0z"/>
<path d="M10168 10133 c6 -2 18 -2 25 0 6 3 1 5 -13 5 -14 0 -19 -2 -12 -5z"/>
<path d="M10255 10130 c-4 -6 1 -7 11 -3 10 4 15 2 11 -4 -3 -5 0 -10 8 -10
11 0 12 4 4 14 -14 15 -26 17 -34 3z"/>
<path d="M10326 10013 c-6 -14 -5 -15 5 -6 7 7 10 15 7 18 -3 3 -9 -2 -12 -12z"/>
<path d="M10365 10020 c-3 -5 -1 -10 4 -10 6 0 11 5 11 10 0 6 -2 10 -4 10 -3
0 -8 -4 -11 -10z"/>
<path d="M10394 10002 c3 -6 -2 -15 -11 -21 -10 -6 -13 -11 -7 -11 20 0 37 27
23 36 -7 4 -9 3 -5 -4z"/>
<path d="M10331 9979 c-13 -10 -18 -19 -11 -19 12 0 45 29 39 35 -2 2 -15 -5
-28 -16z"/>
<path d="M10425 9960 c-3 -5 -1 -10 4 -10 6 0 11 5 11 10 0 6 -2 10 -4 10 -3
0 -8 -4 -11 -10z"/>
<path d="M10358 9953 c6 -2 18 -2 25 0 6 3 1 5 -13 5 -14 0 -19 -2 -12 -5z"/>
<path d="M10235 9910 c-8 -13 18 -23 47 -17 17 3 15 5 -10 6 -19 0 -31 5 -27
11 3 6 4 10 1 10 -3 0 -8 -5 -11 -10z"/>
<path d="M10428 9915 c-6 -6 -46 -13 -88 -16 -30 -2 -28 -3 15 -8 34 -4 54 -2
63 7 8 7 19 9 25 5 6 -4 1 -10 -12 -15 -12 -4 -20 -12 -17 -16 3 -5 -21 -9
-52 -9 l-57 0 50 7 50 8 -59 -2 c-43 -1 -60 -5 -63 -16 -4 -13 -3 -13 6 0 9
13 14 9 13 -10 0 -3 23 -4 51 -3 l52 1 -45 -7 c-39 -7 -33 -8 43 -9 64 -2 87
1 87 11 0 8 4 7 10 -3 9 -13 11 -13 20 0 16 24 12 30 -20 26 -16 -2 -27 1 -24
6 3 5 -7 6 -23 3 l-28 -6 30 14 c26 12 32 12 42 -2 7 -9 13 -11 13 -5 0 6 -7
17 -15 24 -8 7 -15 10 -15 6 0 -3 -11 -1 -24 4 -13 5 -26 7 -28 5z"/>
<path d="M10530 9840 c0 -5 5 -10 11 -10 5 0 7 5 4 10 -3 6 -8 10 -11 10 -2 0
-4 -4 -4 -10z"/>
<path d="M10275 9830 c-3 -5 -1 -10 4 -10 6 0 11 5 11 10 0 6 -2 10 -4 10 -3
0 -8 -4 -11 -10z"/>
<path d="M10310 9791 c1 -15 40 -55 47 -48 4 5 0 15 -11 22 -10 8 -16 18 -12
23 3 5 -1 9 -9 9 -8 0 -15 -3 -15 -6z"/>
<path d="M10630 9335 c0 -2 11 -20 24 -40 l25 -36 150 -5 c88 -4 151 -2 151 3
0 5 -8 18 -18 29 -10 10 -21 27 -25 37 -6 15 -23 17 -157 17 -82 0 -150 -2
-150 -5z"/>
<path d="M10712 9208 c8 -13 21 -33 29 -45 13 -22 19 -23 161 -23 82 0 148 3
148 8 0 4 -11 24 -25 44 l-24 36 -152 1 -152 2 15 -23z"/>
<path d="M10797 9067 l26 -43 148 -3 c82 -1 149 1 149 4 0 4 -10 25 -22 46
l-22 39 -153 0 -153 0 27 -43z"/>
<path d="M3800 9039 c-627 -81 -1122 -492 -1323 -1099 -81 -244 -116 -583 -81
-772 l6 -28 -1056 0 c-580 0 -1057 -4 -1060 -8 -8 -13 -44 -236 -60 -377 -56
-482 -51 -1020 15 -1500 85 -624 273 -1229 561 -1805 260 -521 584 -977 953
-1340 92 -91 97 -94 111 -75 8 11 94 168 191 350 204 382 1305 2439 1523 2845
187 349 538 1004 804 1502 114 213 205 392 201 398 -4 7 -353 10 -1041 10
l-1034 0 0 55 c0 91 19 242 46 364 121 543 473 938 966 1085 46 13 98 27 116
31 l32 7 0 -361 0 -361 -335 0 -335 0 0 -80 0 -80 500 0 500 0 0 459 0 460 38
3 37 3 3 163 2 162 -107 -1 c-60 -1 -137 -5 -173 -10z"/>
<path d="M10842 8993 c2 -4 12 -25 23 -45 l19 -38 153 0 154 0 -22 39 c-12 22
-31 41 -44 43 -42 9 -287 9 -283 1z"/>
<path d="M10910 8875 c0 -3 9 -24 20 -45 l20 -40 150 0 c83 0 150 2 150 5 0 3
-9 24 -20 45 l-20 40 -150 0 c-83 0 -150 -2 -150 -5z"/>
<path d="M836 8768 c-19 -28 -133 -269 -175 -367 l-31 -73 0 -264 0 -264 195
0 195 0 0 185 0 185 345 0 345 0 0 90 0 90 -337 1 c-186 1 -341 1 -345 0 -5 0
-8 57 -8 129 l0 130 643 2 642 3 0 85 0 85 -727 3 -727 2 -15 -22z"/>
<path d="M4570 8285 l0 -495 188 2 187 3 5 185 5 185 173 3 172 2 343 -190
343 -190 270 2 269 3 -310 154 c-170 84 -338 166 -372 182 -35 15 -63 30 -63
32 0 3 74 5 165 6 177 2 243 10 308 40 53 23 82 56 96 106 14 52 14 269 0 320
-15 53 -64 99 -130 121 -50 17 -110 19 -851 22 l-798 3 0 -496z m1383 302 c26
-17 27 -20 27 -111 0 -143 52 -130 -536 -134 l-494 -3 0 136 0 136 488 -3
c447 -3 490 -4 515 -21z"/>
<path d="M9327 8769 c-81 -12 -139 -40 -173 -85 l-29 -37 -3 -346 c-3 -343 -3
-346 20 -391 28 -54 75 -83 167 -102 93 -18 1557 -19 1645 0 86 18 142 48 168
90 22 35 23 51 29 252 3 118 6 207 7 198 2 -16 17 -18 158 -18 145 0 156 1
149 18 -4 9 -12 29 -17 45 l-10 27 -159 0 c-135 0 -159 2 -159 15 0 13 23 15
150 15 83 0 150 2 150 5 0 2 -8 20 -17 40 l-17 35 -90 1 c-81 1 -111 2 -203 8
-13 0 -23 6 -23 11 0 6 57 10 150 10 83 0 150 3 150 6 0 4 -10 24 -22 45 l-21
39 -155 2 c-113 2 -156 6 -160 16 -3 9 31 12 148 12 118 0 151 3 147 13 -27
62 -32 67 -72 68 -22 1 -94 4 -160 7 -214 9 -1688 10 -1748 1z m1443 -479 l0
-310 -635 0 -635 0 0 310 0 310 635 0 635 0 0 -310z"/>
<path d="M7032 8755 c-89 -16 -135 -45 -165 -105 -21 -44 -22 -54 -22 -375 l0
-330 25 -45 c30 -53 80 -84 164 -101 72 -14 1133 -22 1311 -9 244 17 305 68
305 258 l0 89 -177 21 c-98 12 -186 22 -195 22 -16 0 -18 -12 -18 -105 l0
-105 -515 0 -515 0 0 310 0 310 515 0 515 0 0 -90 c0 -79 2 -90 18 -90 9 0 97
7 196 17 l178 16 -4 91 c-5 106 -21 145 -76 181 -78 51 -136 55 -830 54 -482
-1 -655 -4 -710 -14z"/>
<path d="M11183 8295 c3 -5 10 -26 17 -45 l12 -35 153 3 153 3 -15 39 -16 39
-153 3 c-100 2 -153 -1 -151 -7z"/>
<path d="M11230 8184 c0 -4 5 -24 12 -45 l11 -39 154 0 c98 0 153 4 153 10 0
6 -7 26 -14 45 l-15 35 -150 0 c-83 0 -151 -3 -151 -6z"/>
<path d="M11274 8054 c3 -9 9 -27 12 -40 l6 -24 154 0 c85 0 154 4 154 9 0 4
-5 22 -11 40 l-11 31 -155 0 c-138 0 -154 -2 -149 -16z"/>
<path d="M11314 7943 c3 -10 8 -30 12 -45 l6 -28 154 0 c85 0 154 3 154 6 0 4
-5 24 -12 45 l-11 39 -154 0 c-142 0 -154 -1 -149 -17z"/>
<path d="M11350 7834 c0 -24 24 -93 30 -84 5 8 52 10 153 8 81 -2 147 -1 147
1 0 2 -5 21 -12 42 l-11 39 -154 0 c-84 0 -153 -3 -153 -6z"/>
<path d="M11383 7716 c3 -8 9 -30 12 -48 l6 -33 155 3 c167 3 163 2 143 61
l-11 31 -155 0 c-130 0 -154 -2 -150 -14z"/>
<path d="M11414 7603 c3 -6 8 -27 11 -45 l6 -33 155 0 c107 0 154 3 154 11 0
6 -3 25 -6 42 l-6 31 -159 3 c-119 2 -158 0 -155 -9z"/>
<path d="M11440 7498 c5 -28 29 -110 29 -100 1 9 38 12 152 12 l151 0 -7 37
c-4 21 -9 41 -11 45 -5 7 -315 12 -314 6z"/>
<path d="M11473 7374 c-2 -6 -1 -26 4 -43 l8 -31 158 -3 157 -3 -6 35 c-4 20
-9 39 -13 43 -11 13 -303 14 -308 2z"/>
<path d="M11494 7253 c2 -10 7 -34 11 -53 4 -19 9 -43 11 -52 5 -17 -107 -18
-2250 -18 -2403 0 -2287 2 -2241 -44 8 -8 15 -20 15 -26 0 -9 34 -64 50 -80 3
-3 14 -22 24 -42 l19 -38 2088 0 2087 0 6 -37 c37 -228 61 -645 53 -918 -6
-201 -22 -445 -32 -492 l-5 -23 -2495 0 -2494 0 -38 -22 c-21 -12 -44 -28 -51
-35 -7 -7 -18 -13 -24 -13 -6 0 -26 -11 -44 -25 -18 -14 -35 -25 -38 -25 -4 0
-41 -22 -84 -48 -42 -27 -84 -51 -92 -55 -8 -3 1242 -6 2778 -6 l2793 -1 -7
-45 -6 -45 166 0 c134 0 166 3 166 14 0 7 3 28 6 45 l7 31 -162 0 c-101 0
-161 4 -161 10 0 6 6 10 13 10 6 1 80 2 162 3 l150 2 3 43 3 42 -148 2 c-81 0
-154 1 -160 1 -7 -1 -13 5 -13 13 0 11 31 14 165 14 133 0 165 3 165 14 0 7 3
28 6 45 l7 31 -161 0 c-96 0 -163 4 -167 10 -4 7 51 10 158 10 l165 0 6 31
c12 61 19 58 -151 61 -114 2 -157 6 -161 16 -3 9 33 12 156 12 157 0 160 0
166 23 3 12 6 32 6 45 0 22 -1 22 -160 22 -100 0 -160 4 -160 10 0 6 60 10
159 10 l159 0 4 41 c2 22 2 42 -1 45 -2 2 -76 4 -163 4 -134 0 -158 2 -158 15
0 13 25 15 165 15 l165 0 0 45 0 45 -160 0 c-121 0 -160 3 -160 13 0 9 37 11
160 9 l160 -3 0 45 0 46 -160 0 c-136 0 -160 2 -160 15 0 13 24 15 160 15
l160 0 0 45 0 45 -160 0 c-100 0 -160 4 -160 10 0 6 60 10 160 10 l160 0 0 45
0 45 -160 0 c-136 0 -160 2 -160 15 0 13 24 15 160 15 l160 0 0 45 0 45 -166
0 c-120 0 -165 3 -162 12 3 8 50 10 161 9 l157 -2 0 45 0 46 -160 0 c-136 0
-160 2 -160 15 0 13 25 15 161 15 143 0 160 2 155 16 -3 9 -6 29 -6 45 l0 29
-160 0 c-123 0 -160 3 -160 13 0 10 34 12 158 9 l157 -4 -3 46 -4 46 -156 2
c-113 2 -156 6 -160 16 -3 9 32 12 153 12 l156 0 -3 43 -3 42 -155 3 c-85 1
-159 7 -164 12 -13 13 -6 13 173 10 l144 -2 -7 43 c-4 24 -8 44 -9 46 -2 1
-72 3 -156 5 -112 2 -155 6 -159 16 -3 9 32 12 152 12 155 0 156 0 156 23 0
12 -3 32 -6 45 -6 22 -9 22 -165 22 -125 0 -157 3 -153 13 3 10 40 12 154 10
l150 -2 0 29 c0 61 2 60 -166 60 -130 0 -154 2 -154 15 0 13 23 15 150 15 163
0 156 -3 144 59 l-6 31 -160 0 c-147 0 -159 -1 -154 -17z"/>
<path d="M11516 5056 c-14 -70 -23 -66 158 -66 l163 0 7 41 c4 23 5 43 4 44
-2 2 -76 5 -165 7 l-162 3 -5 -29z"/>
<path d="M11493 4928 l-9 -43 165 -3 c90 -1 165 -1 166 0 2 2 6 22 10 46 l7
42 -166 0 -165 0 -8 -42z"/>
<path d="M11487 4847 c-9 -6 -18 -28 -19 -47 l-3 -35 161 -3 161 -3 11 42 c6
24 10 44 9 45 -1 1 -70 4 -153 7 -112 5 -155 4 -167 -6z"/>
<path d="M11441 4703 c-6 -21 -11 -41 -11 -45 0 -10 327 -10 334 0 2 4 7 24
11 45 l7 37 -165 0 -166 0 -10 -37z"/>
<path d="M11422 4613 c-5 -10 -13 -31 -16 -48 l-6 -30 167 0 167 0 12 43 13
42 -82 1 c-45 0 -119 3 -164 5 -71 4 -83 2 -91 -13z"/>
<path d="M11376 4465 l-15 -45 172 2 171 3 12 43 13 42 -169 0 -168 0 -16 -45z"/>
<path d="M11352 4379 c-26 -69 -26 -69 15 -70 21 0 97 -3 169 -6 l130 -5 13
42 c7 23 11 44 8 46 -2 2 -76 7 -165 10 l-162 6 -8 -23z"/>
<path d="M11311 4258 c-5 -13 -11 -33 -15 -45 l-7 -23 169 0 c186 0 172 -4
192 63 l9 27 -170 0 c-167 0 -170 0 -178 -22z"/>
<path d="M11267 4126 l-16 -46 92 -1 c51 -1 127 -2 169 -4 82 -3 80 -5 98 57
10 34 12 33 -176 37 l-152 3 -15 -46z"/>
<path d="M11225 4014 c-8 -20 -15 -40 -15 -45 0 -5 76 -9 169 -9 l169 0 10 28
c5 15 13 35 17 45 7 16 -5 17 -164 17 l-171 0 -15 -36z"/>
<path d="M11180 3898 l-19 -43 152 -5 c84 -3 162 -3 173 -2 21 4 59 74 46 86
-3 3 -79 6 -169 6 l-164 0 -19 -42z"/>
<path d="M11129 3781 c-10 -24 -19 -45 -19 -47 0 -2 78 -4 173 -4 l173 0 14
38 c8 20 16 40 18 44 2 4 -74 8 -168 10 l-171 3 -20 -44z"/>
<path d="M11096 3705 c-2 -5 -25 -54 -50 -107 l-45 -98 174 0 174 0 20 43 19
42 -164 3 c-139 2 -164 5 -164 18 0 13 23 15 163 14 89 0 167 -1 173 0 10 0
44 67 44 85 0 9 -340 10 -344 0z"/>
<path d="M10929 3365 c-50 -93 -212 -371 -223 -382 -1 -1 -1333 -3 -2959 -4
-1723 -1 -2959 -5 -2963 -10 -3 -5 -2 -9 3 -9 4 0 19 -21 33 -47 13 -27 29
-51 34 -55 5 -3 11 -13 12 -22 1 -8 11 -25 23 -37 12 -13 21 -26 21 -31 0 -4
1202 -8 2670 -8 2410 0 2674 2 2701 16 17 8 33 13 36 11 2 -3 -5 -8 -16 -12
-12 -3 -26 -16 -33 -28 -13 -25 -153 -209 -188 -247 -8 -9 -33 -38 -55 -64
-108 -129 -364 -386 -469 -471 -21 -16 -51 -42 -67 -57 -16 -16 -32 -28 -35
-28 -2 0 -20 -14 -40 -32 -19 -18 -43 -38 -52 -45 -9 -7 -46 -36 -81 -64 -35
-27 -89 -66 -120 -86 -31 -20 -58 -39 -61 -43 -8 -12 -201 -140 -211 -140 -5
0 -9 -4 -9 -8 0 -5 -22 -19 -50 -32 -27 -13 -50 -27 -50 -32 0 -4 -4 -8 -9 -8
-5 0 -56 -29 -114 -63 -116 -71 -648 -337 -673 -337 -3 0 -20 -7 -37 -15 -52
-24 -181 -75 -190 -75 -5 0 -23 -6 -40 -14 -101 -46 -401 -136 -597 -180 -352
-78 -1011 -146 -1285 -133 -519 26 -891 69 -1220 142 -66 15 -127 28 -135 29
-9 1 -20 5 -25 8 -6 3 -28 9 -50 13 -22 5 -46 9 -53 11 -6 1 -10 -2 -6 -7 3
-5 15 -9 27 -10 12 0 16 -3 9 -6 -7 -3 -27 0 -44 6 -23 8 -35 8 -42 1 -8 -8
-6 -9 6 -5 12 5 17 1 17 -12 0 -10 1 -29 3 -43 3 -21 -1 -25 -24 -24 -15 0
-26 -2 -26 -5 0 -4 -1 -17 -2 -31 -2 -24 -3 -24 -10 5 -7 29 -8 29 -9 4 -1
-18 -7 -26 -18 -26 -49 0 -58 -3 -43 -13 8 -5 25 -7 38 -3 18 4 21 2 16 -13
-3 -12 -3 -15 3 -8 4 6 16 10 27 8 12 -2 15 1 9 7 -10 10 -6 59 6 59 3 0 6
-16 6 -37 -1 -26 -6 -39 -20 -45 -16 -7 -16 -8 5 -3 14 2 29 5 34 5 4 0 6 7 2
15 -3 8 0 15 6 15 7 0 3 7 -8 15 -19 15 -19 15 1 8 17 -6 18 -5 7 9 -10 12 -9
18 3 28 8 7 13 16 10 19 -2 4 2 8 10 8 8 0 13 -3 10 -5 -3 -3 3 -15 12 -26 18
-21 18 -21 -3 -3 -21 17 -22 17 -27 -3 -4 -17 -2 -20 11 -16 16 6 16 5 0 -7
-12 -9 -14 -18 -7 -30 6 -9 6 -17 2 -18 -4 0 12 -9 37 -19 26 -11 37 -19 26
-19 -15 -1 -17 -4 -8 -13 8 -8 15 -8 26 1 8 7 20 10 27 6 8 -6 7 -10 -2 -17
-10 -7 -8 -8 8 -5 12 3 24 0 26 -6 2 -6 20 -11 40 -11 20 0 33 -4 30 -9 -4 -6
5 -8 21 -5 14 3 26 1 26 -3 0 -5 10 -8 23 -7 12 0 48 -7 80 -16 32 -10 67 -16
78 -13 10 3 19 2 19 -2 0 -11 227 -44 241 -36 7 5 10 4 6 -2 -8 -13 112 -27
474 -54 461 -34 907 -12 1407 72 68 11 130 18 138 15 9 -3 12 -1 9 4 -3 6 1
10 11 10 37 0 395 94 535 141 82 27 155 47 161 43 6 -4 8 -3 4 4 -3 6 4 13 16
17 47 14 318 126 443 183 218 99 446 219 617 323 53 32 100 59 105 59 4 0 1
-5 -7 -10 -10 -6 59 -10 203 -10 l218 0 60 42 61 43 -207 3 c-114 1 -213 -1
-220 -5 -6 -5 0 3 15 16 25 22 33 23 156 21 71 0 165 -3 210 -5 80 -4 81 -4
132 33 28 20 52 40 52 45 0 4 -89 7 -198 7 -109 0 -202 -3 -208 -7 -5 -5 2 3
16 16 26 23 29 23 233 22 l208 -2 49 38 c27 21 49 42 50 46 0 4 -87 7 -194 5
-184 -3 -194 -2 -179 14 9 10 20 15 24 12 5 -3 9 0 9 7 0 10 3 10 12 1 8 -8
65 -12 193 -12 l180 1 50 44 49 45 -190 0 c-111 0 -195 -4 -202 -10 -7 -5 -2
2 11 16 l24 26 194 -1 194 -1 43 37 c23 21 42 41 42 44 0 6 6 6 -205 8 -114 1
-156 4 -148 12 7 7 76 10 199 10 l189 -1 44 42 45 43 -183 3 c-160 2 -182 4
-171 17 10 12 47 15 199 15 198 1 192 -1 243 55 l27 30 -179 0 c-141 0 -176 3
-168 13 8 9 59 12 192 12 l182 0 44 45 44 45 -178 0 c-161 0 -177 2 -165 16
11 13 38 15 186 13 l173 -3 37 37 c20 20 35 38 32 41 -2 3 -61 5 -129 6 -145
2 -202 8 -194 21 3 5 86 9 184 9 l178 0 31 39 c17 21 31 42 31 45 0 3 -75 6
-166 6 -128 0 -165 3 -161 13 3 9 45 11 178 9 l174 -4 33 40 c17 23 32 43 32
46 0 3 -75 6 -166 6 -128 0 -165 3 -162 13 4 9 52 13 184 15 l179 3 32 42 32
42 -169 3 c-102 1 -170 6 -170 12 0 6 69 10 178 10 l178 0 32 45 32 45 -171 0
c-132 0 -170 3 -167 13 4 9 51 13 181 15 l176 2 31 45 31 45 -171 0 c-107 0
-170 4 -170 10 0 6 66 10 178 10 l177 0 28 39 c15 22 27 42 27 45 0 3 -74 7
-165 8 -228 4 -219 22 13 26 l179 2 21 39 c12 21 22 41 22 45 0 3 -74 6 -165
6 -103 0 -165 4 -165 10 0 6 65 10 175 10 l175 0 25 40 c14 22 25 42 25 45 0
3 -74 5 -165 5 -140 0 -165 2 -165 15 0 13 26 15 175 15 l175 0 20 33 c35 57
35 57 -145 57 -101 0 -165 4 -165 10 0 6 70 11 177 12 l178 3 23 43 23 42
-165 0 c-141 0 -166 2 -166 15 0 13 26 15 173 15 l173 0 17 35 c9 20 17 40 17
45 0 5 -75 10 -168 12 l-169 3 -64 -120z m-322 -421 c-27 -14 -51 -24 -53 -22
-5 5 78 48 91 47 6 0 -12 -11 -38 -25z m-5749 9 c-10 -2 -26 -2 -35 0 -10 3
-2 5 17 5 19 0 27 -2 18 -5z m335 0 c-56 -2 -151 -2 -210 0 -59 1 -13 3 102 3
116 0 164 -2 108 -3z m4324 0 c-587 -2 -1547 -2 -2135 0 -587 1 -106 2 1068 2
1174 0 1655 -1 1067 -2z m1013 -53 c-8 -5 -19 -10 -25 -10 -5 0 -3 5 5 10 8 5
20 10 25 10 6 0 3 -5 -5 -10z m-5593 -96 c-3 -3 -12 -4 -19 -1 -8 3 -5 6 6 6
11 1 17 -2 13 -5z m4563 -1208 c0 -2 -7 -7 -16 -10 -8 -3 -12 -2 -9 4 6 10 25
14 25 6z m-330 -240 c0 -2 -7 -7 -16 -10 -8 -3 -12 -2 -9 4 6 10 25 14 25 6z
m-121 -79 c-2 -2 -20 -14 -39 -26 l-35 -23 30 26 c17 14 34 26 39 26 5 0 7 -1
5 -3z m-4709 -549 c0 -18 -2 -20 -9 -8 -6 8 -7 18 -5 22 9 14 14 9 14 -14z
m43 -23 c4 -8 3 -16 -1 -19 -4 -3 -9 4 -9 15 -2 23 3 25 10 4z m-11 -77 c-9
-9 -9 -15 1 -27 11 -14 10 -14 -6 -2 -13 10 -15 17 -6 27 6 8 14 14 17 14 3 0
1 -5 -6 -12z m43 -7 c3 -5 2 -12 -3 -15 -5 -3 -9 1 -9 9 0 17 3 19 12 6z m58
-38 c-7 -2 -19 -2 -25 0 -7 3 -2 5 12 5 14 0 19 -2 13 -5z m2 -24 c13 -13 -3
-10 -45 7 l-35 14 35 -6 c19 -3 39 -10 45 -15z m302 -95 c-3 -3 -12 -4 -19 -1
-8 3 -5 6 6 6 11 1 17 -2 13 -5z"/>
<path d="M8865 1160 c-16 -12 -46 -28 -65 -38 -34 -17 -31 -17 188 -20 l224
-2 61 40 62 40 -220 0 c-204 0 -222 -2 -250 -20z"/>
<path d="M8625 1025 l-80 -45 240 0 240 1 70 44 70 45 -230 0 -230 -1 -80 -44z"/>
<path d="M8416 916 l-81 -41 240 -3 240 -3 72 37 c40 21 72 39 70 40 -1 1
-105 4 -231 7 l-228 4 -82 -41z"/>
<path d="M8195 813 c-49 -25 -74 -36 -105 -47 -8 -3 19 -5 60 -5 41 0 154 -3
250 -7 l175 -7 67 31 c140 63 142 62 -142 61 -252 -1 -256 -1 -305 -26z"/>
<path d="M4280 789 c0 -5 5 -7 10 -4 6 3 10 8 10 11 0 2 -4 4 -10 4 -5 0 -10
-5 -10 -11z"/>
<path d="M4250 780 c-12 -7 -12 -11 -2 -20 6 -5 10 -7 7 -4 -3 4 0 13 6 21 13
15 10 16 -11 3z"/>
<path d="M7958 711 c-21 -11 -62 -27 -93 -36 -30 -10 -55 -22 -55 -26 0 -5
125 -8 278 -6 l277 2 85 42 85 42 -270 0 c-243 0 -274 -2 -307 -18z"/>
<path d="M3900 716 c0 -2 7 -7 16 -10 8 -3 12 -2 9 4 -6 10 -25 14 -25 6z"/>
<path d="M3950 716 c0 -2 7 -7 16 -10 8 -3 12 -2 9 4 -6 10 -25 14 -25 6z"/>
<path d="M4158 663 c7 -3 16 -2 19 1 4 3 -2 6 -13 5 -11 0 -14 -3 -6 -6z"/>
<path d="M4225 660 c-3 -5 -1 -10 4 -10 6 0 11 5 11 10 0 6 -2 10 -4 10 -3 0
-8 -4 -11 -10z"/>
<path d="M4184 645 c-18 -14 -18 -14 4 -8 12 3 22 9 22 14 0 12 -3 11 -26 -6z"/>
<path d="M7636 589 c-20 -10 -38 -19 -41 -19 -3 0 -14 0 -26 0 -11 0 -18 -4
-15 -9 3 -5 16 -7 29 -5 20 4 20 4 2 -4 -11 -5 -29 -6 -40 -2 -11 4 -38 2 -60
-4 -33 -10 16 -12 270 -15 338 -2 312 -6 475 67 19 8 -44 11 -266 11 -270 0
-294 -2 -328 -20z m39 -17 c-3 -3 -11 0 -18 7 -9 10 -8 11 6 5 10 -3 15 -9 12
-12z m-25 -16 c0 -2 -7 -6 -15 -10 -8 -3 -15 -1 -15 4 0 6 7 10 15 10 8 0 15
-2 15 -4z"/>
<path d="M4310 570 c-12 -8 -12 -10 5 -10 11 0 31 -3 45 -6 23 -5 23 -5 -4 10
-33 19 -27 18 -46 6z"/>
<path d="M7316 491 c-3 -5 6 -8 20 -8 19 0 22 2 13 8 -18 11 -26 11 -33 0z"/>
<path d="M7540 490 c19 -6 10 -9 -40 -11 -59 -2 -61 -3 -17 -6 27 -2 45 -8 42
-14 -4 -5 -12 -6 -18 -3 -7 4 -9 3 -4 -1 4 -5 32 -7 63 -6 42 2 55 -1 52 -10
-2 -7 -11 -14 -19 -17 -11 -3 -11 -2 1 8 11 8 0 10 -47 8 -35 -2 -63 -7 -63
-12 0 -4 -11 -6 -25 -3 -14 2 -23 2 -20 -2 10 -9 255 -8 255 2 0 4 4 6 10 2
15 -9 61 6 53 18 -3 6 -1 7 5 3 11 -7 182 39 182 49 0 2 -98 4 -217 4 -125 -1
-207 -4 -193 -9z m263 -7 c-7 -2 -19 -2 -25 0 -7 3 -2 5 12 5 14 0 19 -2 13
-5z m4 -19 c-3 -3 -12 -4 -19 -1 -8 3 -5 6 6 6 11 1 17 -2 13 -5z"/>
<path d="M7255 480 c-3 -5 0 -7 9 -4 11 4 14 0 11 -15 -3 -14 0 -18 12 -14 12
5 12 7 1 14 -10 7 -10 9 2 9 13 0 13 1 0 10 -19 12 -27 12 -35 0z"/>
<path d="M7328 463 c7 -3 16 -2 19 1 4 3 -2 6 -13 5 -11 0 -14 -3 -6 -6z"/>
<path d="M7310 446 c0 -2 11 -6 25 -8 13 -3 22 -1 19 3 -5 9 -44 13 -44 5z"/>
<path d="M7476 365 c-5 -13 -2 -14 17 -4 32 17 33 19 10 19 -12 0 -23 -7 -27
-15z"/>
<path d="M7438 363 c7 -3 16 -2 19 1 4 3 -2 6 -13 5 -11 0 -14 -3 -6 -6z"/>
<path d="M7258 313 c7 -3 16 -2 19 1 4 3 -2 6 -13 5 -11 0 -14 -3 -6 -6z"/>
</g>
</svg>
