<svg width="982" height="954" viewBox="0 0 982 954" fill="none" xmlns="http://www.w3.org/2000/svg">
<path fill-rule="evenodd" clip-rule="evenodd" d="M74.737 400.5C34.7046 631.208 184.654 851.333 405.755 900.564C409.767 901.444 413.794 902.258 417.806 903.011C451.191 909.272 471.57 872.915 452.36 844.902L382.562 747.348C255.621 696.644 177.02 562.524 201.323 422.466C223.874 292.504 341.395 219.196 397.337 198.787L556.011 424.089C570.791 445.076 574.543 470.52 568.462 493.536C563.356 518.854 546.972 539.183 525.489 550.172C512.116 567.01 510.786 591.277 523.795 609.748L529.733 618.179C548.833 645.299 586.301 651.801 613.421 632.701L623.501 625.602C705.218 568.051 724.808 455.152 667.257 373.435L440.91 52.0445C260.184 74.1126 117.79 213.824 74.737 400.5Z" fill="#333333"/>
<path fill-rule="evenodd" clip-rule="evenodd" d="M907.38 553.128C947.412 322.42 797.463 102.295 576.362 53.0636C572.35 52.1838 568.323 51.3697 564.311 50.6172C530.926 44.3555 510.547 80.7129 529.757 108.726L599.555 206.28C726.495 256.984 805.097 391.104 780.794 531.162C758.243 661.124 640.722 734.432 584.78 754.841L429.101 533.792C411.847 515.673 403.099 489.899 407.705 463.354C412.762 434.211 432.661 411.366 458.293 401.234C470.089 384.533 470.769 361.554 458.322 343.88L452.384 335.449C433.284 308.329 395.816 301.827 368.696 320.927L358.616 328.026C276.899 385.577 257.309 498.476 314.86 580.193L541.207 901.583C721.933 879.515 864.327 739.804 907.38 553.128Z" fill="#333333"/>
</svg>
