<svg id="svg" version="1.1" xmlns="http://www.w3.org/2000/svg" xmlns:xlink="http://www.w3.org/1999/xlink" width="400" height="400" viewBox="0, 0, 400,400"><g id="svgg"><path id="path0" d="M184.600 0.460 C 70.238 9.503,-13.023 112.133,1.624 226.000 C 13.206 316.038,85.370 387.621,175.600 398.574 C 294.977 413.066,400.000 320.130,400.000 200.000 C 400.000 83.611,300.358 -8.694,184.600 0.460 M216.000 20.820 C 324.393 30.638,399.641 134.147,375.337 240.000 C 350.990 346.037,238.550 406.640,137.000 368.457 C 15.188 322.657,-19.325 166.866,71.783 74.063 C 104.060 41.185,144.313 23.193,192.200 20.239 C 196.050 20.002,210.990 20.366,216.000 20.820 M166.800 41.600 C 165.955 43.179,166.918 44.000,169.614 44.000 L 172.000 44.000 172.000 50.200 L 172.000 56.400 169.614 56.400 C 167.365 56.400,166.400 56.924,166.400 58.145 C 166.400 59.842,179.514 60.456,180.400 58.800 C 181.245 57.221,180.282 56.400,177.586 56.400 L 175.200 56.400 175.200 50.200 L 175.200 44.000 177.586 44.000 C 180.282 44.000,181.245 43.179,180.400 41.600 C 179.999 40.851,179.562 40.800,173.600 40.800 C 167.638 40.800,167.201 40.851,166.800 41.600 M186.000 41.600 C 185.155 43.179,186.118 44.000,188.814 44.000 L 191.200 44.000 191.200 50.200 L 191.200 56.400 188.814 56.400 C 186.565 56.400,185.600 56.924,185.600 58.145 C 185.600 59.842,198.714 60.456,199.600 58.800 C 200.445 57.221,199.482 56.400,196.786 56.400 L 194.400 56.400 194.400 50.200 L 194.400 44.000 196.786 44.000 C 199.482 44.000,200.445 43.179,199.600 41.600 C 199.199 40.851,198.762 40.800,192.800 40.800 C 186.838 40.800,186.401 40.851,186.000 41.600 M205.200 41.600 C 204.355 43.179,205.318 44.000,208.014 44.000 L 210.400 44.000 210.400 50.200 L 210.400 56.400 208.014 56.400 C 205.765 56.400,204.800 56.924,204.800 58.145 C 204.800 59.842,217.914 60.456,218.800 58.800 C 219.645 57.221,218.682 56.400,215.986 56.400 L 213.600 56.400 213.600 50.200 L 213.600 44.000 215.986 44.000 C 218.682 44.000,219.645 43.179,218.800 41.600 C 218.399 40.851,217.962 40.800,212.000 40.800 C 206.038 40.800,205.601 40.851,205.200 41.600 M104.597 77.285 C 104.494 77.568,104.362 80.320,104.304 83.400 L 104.200 89.000 96.687 89.109 L 89.173 89.218 89.287 93.509 L 89.400 97.800 93.338 98.003 C 99.299 98.311,98.800 96.486,98.800 117.964 C 98.800 138.414,99.142 136.797,94.820 136.806 C 90.620 136.815,90.403 137.133,89.440 144.700 L 89.172 146.800 92.686 146.868 C 94.619 146.906,96.560 146.971,97.000 147.012 C 97.440 147.053,99.279 147.112,101.088 147.143 L 104.375 147.200 104.488 152.100 L 104.600 157.000 108.600 157.000 L 112.600 157.000 112.712 152.100 L 112.825 147.200 115.400 147.200 L 117.975 147.200 118.088 152.100 L 118.200 157.000 122.300 157.114 L 126.400 157.228 126.400 152.201 C 126.400 148.521,126.534 147.137,126.900 147.035 C 127.175 146.958,129.110 146.700,131.200 146.461 C 143.705 145.032,149.652 138.775,149.115 127.617 C 148.824 121.569,146.075 117.454,141.159 115.708 C 139.437 115.096,138.572 114.400,139.533 114.400 C 141.997 114.400,144.958 108.137,144.713 103.446 C 144.297 95.505,139.819 91.261,130.198 89.688 L 126.400 89.068 126.400 83.141 C 126.400 76.235,126.758 76.683,121.399 76.881 L 118.200 77.000 118.089 82.900 L 117.979 88.800 115.400 88.800 L 112.821 88.800 112.711 82.900 L 112.600 77.000 108.693 76.885 C 105.789 76.800,104.738 76.903,104.597 77.285 M191.000 78.660 C 176.448 80.984,165.339 91.816,162.137 106.806 C 161.009 112.089,161.135 126.963,162.345 131.400 C 168.213 152.905,193.412 163.114,217.200 153.622 C 228.581 149.081,233.141 140.231,226.431 135.710 C 223.485 133.724,221.060 134.462,216.209 138.820 C 206.211 147.803,183.899 144.926,177.388 133.815 C 173.230 126.721,173.271 110.749,177.468 102.734 C 185.093 88.169,211.383 87.575,214.977 101.885 C 216.195 106.735,217.508 108.001,221.319 107.999 C 224.017 107.997,225.802 106.923,226.814 104.692 C 227.965 102.157,227.971 85.857,226.823 83.327 C 225.175 79.697,219.875 78.987,216.869 81.992 L 215.740 83.122 212.635 81.753 C 206.462 79.030,197.080 77.689,191.000 78.660 M242.931 81.175 C 237.651 83.573,238.787 91.330,244.648 92.897 L 246.400 93.366 246.400 117.658 L 246.400 141.951 244.500 142.209 C 238.386 143.041,235.279 147.844,237.984 152.281 C 239.589 154.913,240.075 155.000,253.200 155.000 C 268.265 155.000,269.600 154.463,269.598 148.400 C 269.596 144.277,267.617 142.594,262.235 142.139 L 259.200 141.883 259.200 133.141 L 259.200 124.400 272.800 124.400 L 286.400 124.400 286.400 133.143 L 286.400 141.885 283.507 142.154 C 278.267 142.641,276.332 144.291,276.294 148.304 C 276.237 154.415,277.661 155.000,292.600 155.000 C 306.591 155.000,307.964 154.581,308.636 150.102 C 309.315 145.568,306.978 143.116,301.100 142.198 L 299.600 141.964 299.600 117.665 L 299.600 93.366 301.440 92.874 C 307.001 91.386,308.093 83.665,303.085 81.241 C 300.500 79.990,281.980 79.951,279.418 81.192 C 277.219 82.256,276.320 83.875,276.320 86.772 C 276.320 91.211,278.078 92.809,283.300 93.119 L 286.400 93.303 286.400 102.251 L 286.400 111.200 272.792 111.200 L 259.185 111.200 259.292 102.300 L 259.400 93.400 262.400 93.159 C 267.776 92.728,269.301 91.467,269.509 87.281 C 269.674 83.969,268.807 82.327,266.292 81.186 C 263.749 80.031,245.469 80.023,242.931 81.175 M122.045 98.807 C 127.024 99.748,129.600 102.098,129.600 105.697 C 129.600 110.458,125.307 112.800,116.580 112.800 L 112.800 112.800 112.800 105.867 C 112.800 102.053,112.920 98.813,113.067 98.667 C 113.478 98.255,119.634 98.351,122.045 98.807 M124.084 121.640 C 130.213 122.591,133.000 124.890,133.000 128.993 C 133.000 134.612,127.614 137.165,115.700 137.193 L 112.800 137.200 112.800 129.467 C 112.800 125.213,112.920 121.613,113.067 121.467 C 113.493 121.041,120.980 121.159,124.084 121.640 M90.526 163.641 C 86.143 164.909,85.010 171.194,88.596 174.343 C 89.803 175.402,90.823 175.767,93.600 176.132 C 94.126 176.201,94.200 179.220,94.200 200.574 L 94.200 224.937 91.831 225.410 C 85.089 226.756,84.488 235.743,91.019 237.557 C 93.631 238.282,124.650 238.147,128.981 237.392 C 148.267 234.029,158.608 216.740,155.214 193.531 C 152.964 178.142,142.841 166.672,128.985 163.810 C 125.599 163.110,92.856 162.967,90.526 163.641 M166.808 164.100 C 164.257 165.404,163.520 166.612,163.520 169.491 C 163.520 174.070,165.682 175.974,170.900 175.991 L 173.600 176.000 173.600 200.600 L 173.600 225.200 170.900 225.209 C 164.728 225.229,161.446 230.038,164.286 234.900 C 166.078 237.969,163.903 237.787,200.122 237.909 L 232.444 238.018 232.322 226.109 C 232.168 211.086,231.727 210.005,225.754 210.001 C 221.103 209.999,219.894 211.885,219.603 219.600 L 219.400 225.000 203.200 225.000 L 187.000 225.000 187.000 216.000 L 187.000 207.000 192.200 207.000 L 197.400 207.000 197.518 208.400 C 198.248 217.086,207.870 219.510,210.014 211.549 C 210.967 208.007,210.343 189.655,209.199 187.613 C 205.728 181.413,197.600 185.032,197.600 192.777 L 197.600 194.000 192.192 194.000 L 186.785 194.000 186.892 185.100 L 187.000 176.200 201.800 176.200 L 216.600 176.200 216.806 181.600 C 217.093 189.124,218.969 191.646,223.873 191.093 C 228.957 190.520,229.600 188.660,229.600 174.515 L 229.600 163.200 199.085 163.200 L 168.570 163.200 166.808 164.100 M239.896 163.772 C 233.542 166.039,234.925 175.041,241.759 175.903 L 244.118 176.200 257.359 207.109 L 270.600 238.017 277.124 237.909 L 283.648 237.800 287.646 228.600 C 289.845 223.540,293.054 216.160,294.777 212.200 C 296.500 208.240,300.747 198.475,304.214 190.500 L 310.519 176.000 312.051 176.000 C 318.948 176.000,321.210 166.706,314.983 163.951 C 312.072 162.664,289.305 162.961,287.127 164.316 C 285.232 165.495,284.186 168.029,284.537 170.591 C 285.068 174.464,286.926 175.713,292.492 175.936 C 294.641 176.022,296.400 176.207,296.400 176.347 C 296.400 176.486,293.822 182.450,290.672 189.600 C 287.521 196.750,283.346 206.246,281.393 210.701 C 279.440 215.157,277.703 218.663,277.533 218.493 C 277.363 218.323,275.086 213.328,272.473 207.392 C 263.482 186.972,259.103 176.999,258.909 176.500 C 258.764 176.126,259.509 175.998,261.857 175.991 C 267.763 175.975,269.800 174.336,269.800 169.600 C 269.800 166.040,269.327 165.204,266.600 163.952 C 264.519 162.997,242.485 162.848,239.896 163.772 M128.000 177.199 C 137.930 180.506,142.408 188.087,142.393 201.564 C 142.373 219.621,136.612 224.845,116.600 224.951 L 107.400 225.000 107.296 201.000 C 107.239 187.800,107.288 176.749,107.406 176.442 C 107.781 175.461,124.641 176.081,128.000 177.199 M114.019 243.229 C 93.518 246.873,81.870 267.052,85.588 292.481 C 87.790 307.541,99.566 318.485,116.279 321.004 C 135.726 323.936,157.848 312.883,152.700 302.808 C 150.272 298.057,145.892 297.890,141.065 302.365 C 135.415 307.604,132.310 308.608,122.800 308.274 C 105.291 307.657,98.400 300.476,98.400 282.844 C 98.400 269.837,101.933 262.440,110.054 258.442 C 121.001 253.053,136.214 256.856,138.645 265.589 C 138.983 266.805,139.432 268.359,139.642 269.041 C 141.015 273.507,148.478 273.678,150.657 269.294 C 151.568 267.463,151.989 252.129,151.208 249.231 C 149.953 244.571,144.429 242.940,140.965 246.207 L 139.577 247.516 136.306 246.137 C 129.401 243.224,120.545 242.069,114.019 243.229 M190.000 243.394 C 156.818 250.857,149.902 299.216,179.506 316.769 C 209.262 334.411,242.800 300.602,229.364 266.506 C 222.884 250.063,205.564 239.894,190.000 243.394 M237.800 245.284 C 235.000 246.265,233.849 248.294,234.076 251.850 C 234.331 255.869,235.911 257.135,241.200 257.559 L 244.200 257.800 244.303 281.974 C 244.413 307.830,244.493 306.781,242.426 306.794 C 236.274 306.833,234.248 315.423,239.642 318.600 C 241.593 319.749,264.997 319.839,267.068 318.706 C 269.146 317.569,270.126 315.831,270.145 313.248 C 270.178 308.548,268.040 306.940,261.205 306.523 L 257.200 306.279 257.200 287.940 C 257.200 277.853,257.258 269.600,257.330 269.600 C 257.401 269.600,264.826 280.840,273.830 294.577 L 290.200 319.555 296.700 319.577 L 303.200 319.600 303.200 288.600 L 303.200 257.600 304.500 257.591 C 311.666 257.543,313.607 247.287,306.834 245.257 C 303.980 244.402,282.544 244.661,280.531 245.575 C 275.598 247.815,276.270 255.378,281.560 257.146 C 282.308 257.396,284.513 257.600,286.460 257.600 L 290.000 257.600 290.000 275.800 C 290.000 285.810,289.944 294.000,289.876 294.000 C 289.809 294.000,282.474 282.931,273.576 269.402 L 257.400 244.804 248.200 244.834 C 242.876 244.851,238.494 245.040,237.800 245.284 M202.487 256.794 C 220.335 262.307,225.138 289.740,210.534 302.756 C 192.326 318.984,167.082 297.341,175.381 272.618 C 179.533 260.250,191.347 253.353,202.487 256.794 M166.510 341.637 C 163.326 343.213,162.011 347.264,164.600 347.518 C 165.615 347.617,165.916 347.419,166.556 346.230 C 168.234 343.113,173.600 343.686,173.600 346.983 C 173.600 347.896,170.968 350.621,166.387 354.451 C 162.480 357.716,162.400 357.818,162.400 359.492 L 162.400 361.200 169.821 361.200 L 177.242 361.200 177.121 359.146 C 176.955 356.329,175.728 355.389,174.270 356.962 C 173.408 357.893,173.013 358.000,170.452 358.000 L 167.595 358.000 170.697 355.263 C 176.043 350.547,176.800 349.534,176.799 347.099 C 176.795 342.011,171.467 339.183,166.510 341.637 M186.978 341.184 C 180.119 343.962,181.407 360.690,188.542 361.495 C 193.800 362.087,196.609 358.493,196.590 351.200 C 196.569 343.326,192.404 338.986,186.978 341.184 M204.910 341.637 C 201.726 343.213,200.411 347.264,203.000 347.518 C 204.015 347.617,204.316 347.419,204.956 346.230 C 206.634 343.113,212.000 343.686,212.000 346.983 C 212.000 347.896,209.368 350.621,204.787 354.451 C 200.880 357.716,200.800 357.818,200.800 359.492 L 200.800 361.200 208.221 361.200 L 215.642 361.200 215.521 359.146 C 215.355 356.329,214.128 355.389,212.670 356.962 C 211.808 357.893,211.413 358.000,208.852 358.000 L 205.995 358.000 209.097 355.263 C 214.443 350.547,215.200 349.534,215.199 347.099 C 215.195 342.011,209.867 339.183,204.910 341.637 M225.378 341.184 C 218.519 343.962,219.807 360.690,226.942 361.495 C 232.200 362.087,235.009 358.493,234.990 351.200 C 234.969 343.326,230.804 338.986,225.378 341.184 M191.153 344.652 C 194.851 347.242,193.524 358.400,189.517 358.400 C 185.672 358.400,184.390 347.554,187.908 344.786 C 189.125 343.829,189.931 343.796,191.153 344.652 M229.553 344.652 C 233.251 347.242,231.924 358.400,227.917 358.400 C 224.072 358.400,222.790 347.554,226.308 344.786 C 227.525 343.829,228.331 343.796,229.553 344.652 " stroke="none" fill="#fafafa" fill-rule="evenodd"></path><path id="path1" d="M192.200 20.239 C 113.830 25.073,49.951 74.727,27.837 148.000 C -6.975 263.347,79.499 379.749,200.000 379.749 C 329.724 379.749,416.778 246.261,364.570 127.400 C 335.079 60.261,263.618 15.834,192.200 20.239 M180.400 41.600 C 181.245 43.179,180.282 44.000,177.586 44.000 L 175.200 44.000 175.200 50.200 L 175.200 56.400 177.586 56.400 C 180.282 56.400,181.245 57.221,180.400 58.800 C 179.514 60.456,166.400 59.842,166.400 58.145 C 166.400 56.924,167.365 56.400,169.614 56.400 L 172.000 56.400 172.000 50.200 L 172.000 44.000 169.614 44.000 C 166.918 44.000,165.955 43.179,166.800 41.600 C 167.201 40.851,167.638 40.800,173.600 40.800 C 179.562 40.800,179.999 40.851,180.400 41.600 M199.600 41.600 C 200.445 43.179,199.482 44.000,196.786 44.000 L 194.400 44.000 194.400 50.200 L 194.400 56.400 196.786 56.400 C 199.482 56.400,200.445 57.221,199.600 58.800 C 198.714 60.456,185.600 59.842,185.600 58.145 C 185.600 56.924,186.565 56.400,188.814 56.400 L 191.200 56.400 191.200 50.200 L 191.200 44.000 188.814 44.000 C 186.118 44.000,185.155 43.179,186.000 41.600 C 186.401 40.851,186.838 40.800,192.800 40.800 C 198.762 40.800,199.199 40.851,199.600 41.600 M218.800 41.600 C 219.645 43.179,218.682 44.000,215.986 44.000 L 213.600 44.000 213.600 50.200 L 213.600 56.400 215.986 56.400 C 218.682 56.400,219.645 57.221,218.800 58.800 C 217.914 60.456,204.800 59.842,204.800 58.145 C 204.800 56.924,205.765 56.400,208.014 56.400 L 210.400 56.400 210.400 50.200 L 210.400 44.000 208.014 44.000 C 205.318 44.000,204.355 43.179,205.200 41.600 C 205.601 40.851,206.038 40.800,212.000 40.800 C 217.962 40.800,218.399 40.851,218.800 41.600 M112.711 82.900 L 112.821 88.800 115.400 88.800 L 117.979 88.800 118.089 82.900 L 118.200 77.000 121.399 76.881 C 126.758 76.683,126.400 76.235,126.400 83.141 L 126.400 89.068 130.198 89.688 C 139.819 91.261,144.297 95.505,144.713 103.446 C 144.958 108.137,141.997 114.400,139.533 114.400 C 138.572 114.400,139.437 115.096,141.159 115.708 C 146.075 117.454,148.824 121.569,149.115 127.617 C 149.652 138.775,143.705 145.032,131.200 146.461 C 129.110 146.700,127.175 146.958,126.900 147.035 C 126.534 147.137,126.400 148.521,126.400 152.201 L 126.400 157.228 122.300 157.114 L 118.200 157.000 118.088 152.100 L 117.975 147.200 115.400 147.200 L 112.825 147.200 112.712 152.100 L 112.600 157.000 108.600 157.000 L 104.600 157.000 104.488 152.100 L 104.375 147.200 101.088 147.143 C 99.279 147.112,97.440 147.053,97.000 147.012 C 96.560 146.971,94.619 146.906,92.686 146.868 L 89.172 146.800 89.440 144.700 C 90.403 137.133,90.620 136.815,94.820 136.806 C 99.142 136.797,98.800 138.414,98.800 117.964 C 98.800 96.486,99.299 98.311,93.338 98.003 L 89.400 97.800 89.287 93.509 L 89.173 89.218 96.687 89.109 L 104.200 89.000 104.304 83.400 C 104.439 76.158,104.041 76.749,108.693 76.885 L 112.600 77.000 112.711 82.900 M206.665 79.557 C 208.241 80.011,210.927 81.000,212.635 81.753 L 215.740 83.122 216.869 81.992 C 219.875 78.987,225.175 79.697,226.823 83.327 C 227.971 85.857,227.965 102.157,226.814 104.692 C 225.802 106.923,224.017 107.997,221.319 107.999 C 217.508 108.001,216.195 106.735,214.977 101.885 C 211.383 87.575,185.093 88.169,177.468 102.734 C 173.271 110.749,173.230 126.721,177.388 133.815 C 183.899 144.926,206.211 147.803,216.209 138.820 C 221.060 134.462,223.485 133.724,226.431 135.710 C 233.141 140.231,228.581 149.081,217.200 153.622 C 193.412 163.114,168.213 152.905,162.345 131.400 C 161.135 126.963,161.009 112.089,162.137 106.806 C 165.339 91.816,176.448 80.984,191.000 78.660 C 194.027 78.177,203.825 78.738,206.665 79.557 M266.292 81.186 C 268.807 82.327,269.674 83.969,269.509 87.281 C 269.301 91.467,267.776 92.728,262.400 93.159 L 259.400 93.400 259.292 102.300 L 259.185 111.200 272.792 111.200 L 286.400 111.200 286.400 102.251 L 286.400 93.303 283.300 93.119 C 278.078 92.809,276.320 91.211,276.320 86.772 C 276.320 83.875,277.219 82.256,279.418 81.192 C 281.980 79.951,300.500 79.990,303.085 81.241 C 308.093 83.665,307.001 91.386,301.440 92.874 L 299.600 93.366 299.600 117.665 L 299.600 141.964 301.100 142.198 C 306.978 143.116,309.315 145.568,308.636 150.102 C 307.964 154.581,306.591 155.000,292.600 155.000 C 277.661 155.000,276.237 154.415,276.294 148.304 C 276.332 144.291,278.267 142.641,283.507 142.154 L 286.400 141.885 286.400 133.143 L 286.400 124.400 272.800 124.400 L 259.200 124.400 259.200 133.141 L 259.200 141.883 262.235 142.139 C 267.617 142.594,269.596 144.277,269.598 148.400 C 269.600 154.463,268.265 155.000,253.200 155.000 C 240.075 155.000,239.589 154.913,237.984 152.281 C 235.279 147.844,238.386 143.041,244.500 142.209 L 246.400 141.951 246.400 117.658 L 246.400 93.366 244.648 92.897 C 238.787 91.330,237.651 83.573,242.931 81.175 C 245.469 80.023,263.749 80.031,266.292 81.186 M113.067 98.667 C 112.920 98.813,112.800 102.053,112.800 105.867 L 112.800 112.800 116.580 112.800 C 125.307 112.800,129.600 110.458,129.600 105.697 C 129.600 100.910,125.132 98.400,116.612 98.400 C 114.809 98.400,113.213 98.520,113.067 98.667 M113.067 121.467 C 112.920 121.613,112.800 125.213,112.800 129.467 L 112.800 137.200 115.700 137.193 C 127.614 137.165,133.000 134.612,133.000 128.993 C 133.000 124.890,130.213 122.591,124.084 121.640 C 120.980 121.159,113.493 121.041,113.067 121.467 M128.985 163.810 C 142.841 166.672,152.964 178.142,155.214 193.531 C 158.608 216.740,148.267 234.029,128.981 237.392 C 124.650 238.147,93.631 238.282,91.019 237.557 C 84.488 235.743,85.089 226.756,91.831 225.410 L 94.200 224.937 94.200 200.574 C 94.200 179.220,94.126 176.201,93.600 176.132 C 90.823 175.767,89.803 175.402,88.596 174.343 C 85.010 171.194,86.143 164.909,90.526 163.641 C 92.856 162.967,125.599 163.110,128.985 163.810 M229.600 174.515 C 229.600 188.660,228.957 190.520,223.873 191.093 C 218.969 191.646,217.093 189.124,216.806 181.600 L 216.600 176.200 201.800 176.200 L 187.000 176.200 186.892 185.100 L 186.785 194.000 192.192 194.000 L 197.600 194.000 197.600 192.777 C 197.600 185.032,205.728 181.413,209.199 187.613 C 210.343 189.655,210.967 208.007,210.014 211.549 C 207.870 219.510,198.248 217.086,197.518 208.400 L 197.400 207.000 192.200 207.000 L 187.000 207.000 187.000 216.000 L 187.000 225.000 203.200 225.000 L 219.400 225.000 219.603 219.600 C 219.894 211.885,221.103 209.999,225.754 210.001 C 231.727 210.005,232.168 211.086,232.322 226.109 L 232.444 238.018 200.122 237.909 C 163.903 237.787,166.078 237.969,164.286 234.900 C 161.446 230.038,164.728 225.229,170.900 225.209 L 173.600 225.200 173.600 200.600 L 173.600 176.000 170.900 175.991 C 165.682 175.974,163.520 174.070,163.520 169.491 C 163.520 166.612,164.257 165.404,166.808 164.100 L 168.570 163.200 199.085 163.200 L 229.600 163.200 229.600 174.515 M266.600 163.952 C 269.327 165.204,269.800 166.040,269.800 169.600 C 269.800 174.336,267.763 175.975,261.857 175.991 C 259.509 175.998,258.764 176.126,258.909 176.500 C 259.103 176.999,263.482 186.972,272.473 207.392 C 275.086 213.328,277.363 218.323,277.533 218.493 C 277.703 218.663,279.440 215.157,281.393 210.701 C 283.346 206.246,287.521 196.750,290.672 189.600 C 293.822 182.450,296.400 176.486,296.400 176.347 C 296.400 176.207,294.641 176.022,292.492 175.936 C 286.926 175.713,285.068 174.464,284.537 170.591 C 284.186 168.029,285.232 165.495,287.127 164.316 C 289.305 162.961,312.072 162.664,314.983 163.951 C 321.210 166.706,318.948 176.000,312.051 176.000 L 310.519 176.000 304.214 190.500 C 300.747 198.475,296.500 208.240,294.777 212.200 C 293.054 216.160,289.845 223.540,287.646 228.600 L 283.648 237.800 277.124 237.909 L 270.600 238.017 257.359 207.109 L 244.118 176.200 241.759 175.903 C 234.925 175.041,233.542 166.039,239.896 163.772 C 242.485 162.848,264.519 162.997,266.600 163.952 M107.406 176.442 C 107.288 176.749,107.239 187.800,107.296 201.000 L 107.400 225.000 116.600 224.951 C 136.612 224.845,142.373 219.621,142.393 201.564 C 142.408 188.087,137.930 180.506,128.000 177.199 C 124.641 176.081,107.781 175.461,107.406 176.442 M130.217 243.945 C 131.767 244.392,134.507 245.378,136.306 246.137 L 139.577 247.516 140.965 246.207 C 144.429 242.940,149.953 244.571,151.208 249.231 C 151.989 252.129,151.568 267.463,150.657 269.294 C 148.478 273.678,141.015 273.507,139.642 269.041 C 139.432 268.359,138.983 266.805,138.645 265.589 C 136.214 256.856,121.001 253.053,110.054 258.442 C 101.933 262.440,98.400 269.837,98.400 282.844 C 98.400 300.476,105.291 307.657,122.800 308.274 C 132.310 308.608,135.415 307.604,141.065 302.365 C 150.050 294.035,158.574 304.153,149.730 312.650 C 134.003 327.762,100.381 322.907,89.447 303.946 C 83.772 294.105,83.551 273.266,89.005 262.372 C 96.645 247.114,114.109 239.305,130.217 243.945 M204.600 243.719 C 229.387 250.682,240.466 282.401,225.902 304.710 C 205.495 335.971,160.766 320.417,160.805 282.074 C 160.831 256.887,182.845 237.608,204.600 243.719 M273.576 269.402 C 282.474 282.931,289.809 294.000,289.876 294.000 C 289.944 294.000,290.000 285.810,290.000 275.800 L 290.000 257.600 286.460 257.600 C 284.513 257.600,282.308 257.396,281.560 257.146 C 276.270 255.378,275.598 247.815,280.531 245.575 C 282.544 244.661,303.980 244.402,306.834 245.257 C 313.607 247.287,311.666 257.543,304.500 257.591 L 303.200 257.600 303.200 288.600 L 303.200 319.600 296.700 319.577 L 290.200 319.555 273.830 294.577 C 264.826 280.840,257.401 269.600,257.330 269.600 C 257.258 269.600,257.200 277.853,257.200 287.940 L 257.200 306.279 261.205 306.523 C 268.040 306.940,270.178 308.548,270.145 313.248 C 270.126 315.831,269.146 317.569,267.068 318.706 C 264.997 319.839,241.593 319.749,239.642 318.600 C 234.248 315.423,236.274 306.833,242.426 306.794 C 244.493 306.781,244.413 307.830,244.303 281.974 L 244.200 257.800 241.200 257.559 C 235.911 257.135,234.331 255.869,234.076 251.850 C 233.686 245.731,235.409 244.875,248.200 244.834 L 257.400 244.804 273.576 269.402 M191.165 256.578 C 180.637 259.482,172.710 272.101,173.812 284.200 C 176.005 308.282,201.960 317.013,214.643 297.936 C 227.451 278.669,211.695 250.914,191.165 256.578 M173.632 341.616 C 179.039 344.375,178.103 348.730,170.697 355.263 L 167.595 358.000 170.452 358.000 C 173.013 358.000,173.408 357.893,174.270 356.962 C 175.728 355.389,176.955 356.329,177.121 359.146 L 177.242 361.200 169.821 361.200 L 162.400 361.200 162.400 359.492 C 162.400 357.818,162.480 357.716,166.387 354.451 C 170.968 350.621,173.600 347.896,173.600 346.983 C 173.600 343.686,168.234 343.113,166.556 346.230 C 165.561 348.080,163.483 348.119,163.273 346.292 C 162.816 342.316,169.282 339.397,173.632 341.616 M192.372 341.386 C 198.708 344.662,197.952 359.791,191.369 361.444 C 186.075 362.772,182.590 358.696,182.610 351.200 C 182.632 343.146,187.096 338.657,192.372 341.386 M212.032 341.616 C 217.439 344.375,216.503 348.730,209.097 355.263 L 205.995 358.000 208.852 358.000 C 211.413 358.000,211.808 357.893,212.670 356.962 C 214.128 355.389,215.355 356.329,215.521 359.146 L 215.642 361.200 208.221 361.200 L 200.800 361.200 200.800 359.492 C 200.800 357.818,200.880 357.716,204.787 354.451 C 209.368 350.621,212.000 347.896,212.000 346.983 C 212.000 343.686,206.634 343.113,204.956 346.230 C 203.961 348.080,201.883 348.119,201.673 346.292 C 201.216 342.316,207.682 339.397,212.032 341.616 M230.772 341.386 C 237.108 344.662,236.352 359.791,229.769 361.444 C 224.475 362.772,220.990 358.696,221.010 351.200 C 221.032 343.146,225.496 338.657,230.772 341.386 M187.908 344.786 C 185.388 346.769,185.119 355.102,187.506 357.233 C 190.647 360.038,193.200 357.333,193.200 351.200 C 193.200 345.432,190.794 342.516,187.908 344.786 M226.308 344.786 C 223.788 346.769,223.519 355.102,225.906 357.233 C 229.047 360.038,231.600 357.333,231.600 351.200 C 231.600 345.432,229.194 342.516,226.308 344.786 " stroke="none" fill="#040404" fill-rule="evenodd"></path></g></svg>