<?xml version="1.0" standalone="no"?>
<!DOCTYPE svg PUBLIC "-//W3C//DTD SVG 20010904//EN"
 "http://www.w3.org/TR/2001/REC-SVG-20010904/DTD/svg10.dtd">
<svg version="1.0" xmlns="http://www.w3.org/2000/svg"
 width="500.000000pt" height="500.000000pt" viewBox="0 0 500.000000 500.000000"
 preserveAspectRatio="xMidYMid meet">

<g transform="translate(0.000000,500.000000) scale(0.100000,-0.100000)"
fill="#000000" stroke="none">
<path d="M2225 4509 c-384 -48 -715 -194 -1014 -444 -118 -99 -324 -317 -310
-329 7 -6 387 -96 405 -96 9 0 44 26 78 57 232 215 532 362 851 418 120 21
379 24 504 6 686 -100 1224 -612 1368 -1300 22 -107 26 -152 26 -296 1 -180
-10 -266 -59 -452 -14 -53 -23 -102 -20 -109 7 -19 327 -177 336 -167 5 4 24
53 43 109 159 458 116 1037 -109 1487 -54 106 -191 311 -279 417 -89 107 -276
284 -373 353 -270 193 -557 305 -892 347 -99 12 -454 11 -555 -1z"/>
<path d="M640 3436 c305 -157 777 -399 1048 -538 270 -139 492 -256 492 -259
0 -4 -129 -130 -286 -280 -237 -226 -283 -274 -268 -281 11 -4 208 -52 439
-107 231 -55 600 -143 820 -196 220 -53 756 -181 1191 -285 435 -104 800 -192
810 -195 33 -11 -261 140 -1183 608 l-892 452 286 286 c229 230 282 288 267
292 -11 3 -359 87 -774 187 -415 100 -1137 273 -1605 385 -467 113 -861 208
-875 211 -14 3 225 -123 530 -280z"/>
<path d="M588 3148 c-66 -167 -98 -345 -105 -579 -8 -272 20 -475 99 -714 235
-714 878 -1247 1639 -1359 139 -21 404 -21 550 0 423 59 836 258 1125 541 80
79 200 220 193 227 -6 5 -386 96 -401 96 -7 0 -47 -30 -88 -66 -224 -195 -499
-333 -790 -395 -141 -31 -452 -33 -605 -5 -648 118 -1164 621 -1305 1272 -52
240 -41 532 30 790 11 38 20 73 20 77 0 5 -213 117 -331 175 -4 1 -18 -25 -31
-60z"/>
</g>
</svg>
