<svg xmlns="http://www.w3.org/2000/svg" viewBox="0 0 324.48 324.48"><defs><style>.a{isolation:isolate;}.b,.e,.q,.y{fill:#fff;}.c{fill:#231f20;}.d{fill:#00aeef;}.e,.f,.g,.j,.n,.q,.r,.s,.t,.u,.v,.w,.x,.y{stroke:#231f20;}.e,.f,.n,.x{stroke-width:2.55px;}.f,.p{fill:#ffe512;}.g,.r,.s{fill:#ef4135;}.g{stroke-width:6.37px;}.h{fill:#29b24b;}.i{fill:#4762ad;}.j,.n{fill:#0b8140;}.j,.q,.s{stroke-width:1.27px;}.k{fill:#e22027;}.l{fill:#a54399;}.m{fill:#fdbb30;}.o{fill:#c41230;}.r{stroke-width:3.32px;}.aa,.t,.u,.v,.w,.x{fill:none;}.t{stroke-width:2.22px;}.u{stroke-width:1.19px;}.v{stroke-linecap:round;stroke-linejoin:round;}.v,.w{stroke-width:1.91px;}.y{stroke-width:2.74px;}.z{fill:#333092;mix-blend-mode:multiply;}</style></defs><title>7f8889682d57369ed0e32336f8b7e0ffec625a35cca183f4e81fde4e71a538a1</title><g class="a"><circle class="b" cx="162.24" cy="162.24" r="162.24" transform="translate(-67.2 162.24) rotate(-45)"/><circle class="c" cx="162.24" cy="162.24" r="156.36" transform="translate(-67.2 162.24) rotate(-45)"/><circle class="d" cx="162.24" cy="162.24" r="147.74" transform="translate(-2.79 2.84) rotate(-0.99)"/><path class="e" d="M224.15,298.12,211.3,250.61s-5.74-25.48-20.39-42.05c-1.91,17.21-5.73,58.62-5.73,58.62-22.94-8.92-46.51-49.7-46.51-49.7l7.28,92.2a161.24,161.24,0,0,0,78.2-11.56Z"/><path class="e" d="M174.34,201.56l-15.29,9.55-9.55,18.48s22.3,19.11,24.21,23.57,12.1,23.58,12.1,23.58,10.83-19.12,11.47-22.3,3.82-49.7,3.82-49.7"/><path class="f" d="M224.15,298.12,211.3,250.61s-5.74-25.48-20.39-42.05c-1.91,17.21-10.19,57.35-10.19,57.35-5.74-21-16.49-42.53-25.49-54.8-6.95-9.48-16.56,6.37-16.56,6.37l7.28,92.2a161.24,161.24,0,0,0,78.2-11.56Z"/><path class="g" d="M154.59,206.65s-2.54-16.56-38.86-27.39S66.67,143.58,65.4,131.47s4.46-19.11,4.46-19.11l-1.28-7.65c.64-14.65,15.29-15.29,15.29-15.29,0-10.19,4.46-15.92,4.46-15.92,10.84-19.75,40.14-12.11,40.14-12.11s2.55-8.28,21-10.83,27.18,8.07,27.18,8.07,2.55-6,18.69-4.25,20.39,17,20.39,17,14.86-7.64,30.15,5.1,6.37,30.58,6.37,30.58c10.2,15.29-4.24,27.18-4.24,27.18"/><path class="h" d="M246.35,77.58c-15.29-12.74-30.15-5.1-30.15-5.1a25.24,25.24,0,0,0-2.91-6.09c-3.42,2.81-11.11,12-11.11,12L195.81,89.9l-4.46,17.2,1.28,8.28L234,98.82s-1.91-3.19,8.28-10.2a19.81,19.81,0,0,0,6.91-8.28A28.23,28.23,0,0,0,246.35,77.58Z"/><path class="i" d="M246.78,133.45c3.57-4,10-13.62,2.25-25.2,0,0,.1-.2.26-.56-11.75-1.06-13.85,5.23-13.85,5.23,1.28,3.72,1,12.75,1,12.75Z"/><path class="e" d="M117.64,304.77V299l-8.92-12.74L107.45,301,75.59,283.74c1.91-5.73,22.94-49.05,22.94-49.05l-1.91-15.93,26.76-12.11,6.37-5.73,10.19,2.55s14,72.63,10.19,107C120.83,307.32,117.64,304.77,117.64,304.77Z"/><path class="j" d="M109.57,124"/><path class="k" d="M244.38,87.12c-5.24,4.42-13.85,7.66-13.33,10.27l7.64,14.33s2.38-6.44,13.86-5.26c1.26-2.91,6.19-16.32-3.86-27.33C247.18,80.26,247.33,84.64,244.38,87.12Z"/><path class="l" d="M177.53,76.89s-.8.11-.8,2.82.86,3.56,2.18,5.68,3.4,3.72,3.4,5.15.16,5.26.16,5.26l-4.94,2.07s16.09-1,20.39.47c0,0,1-9.71,7.64-12.58s10-5.1,10.2-7l.16-1.91a8.8,8.8,0,0,1,.16-2.71,31.45,31.45,0,0,1,1-3.31c-.83.32-1.29.55-1.29.55s-4.25-15.29-20.39-17c-12.11-1.27-16.57,1.76-18,3.35a5.46,5.46,0,0,0-.12,2.23c.39,2.17-.47,3.6,0,4.93.71,2,2.7,3.42,2.76,3.93a18,18,0,0,1-1.17,6.43C178,76.68,177.53,76.89,177.53,76.89Z"/><path class="i" d="M164.47,98.82l11.63-.32,4.09-.58s3.82-5.2,3.39-6.48-3.39-4.14-4.67-6l-1.27-1.91c-.43-.64-3.93-2-.54-6.59s3.51-5,3.51-5,1.27-1.27-.64-3.08-3.5-3.5-3.18-5.73l.31-2.23-.2-2.6a2.36,2.36,0,0,0-.22.37S168,48,149.5,50.56s-21,10.83-21,10.83l-.16,0v.52s-3.42,4.94.64,5.73,3.66,3.35,3,4.94-.88,1.67-1,1.91-.88,6.21,2.71,6.93,8,3,8.28,4.06l.32,1L154.43,94Z"/><path class="h" d="M83.34,89.47c1.35,5.3,6.54,19.32,23.15,16.2,0,0,15.93-.64,21-7.64l5.09-7,6.06-2.55,2.86-1.28s1.81-2.54-5.09-5-7.54-4.77-4.68-9.13-.95-4.88-3-5.73-3.82-1.06,0-6.27c0-.08,0-.15-.08-.22a2.42,2.42,0,0,0-.18.4h0l-.05.14h-.05l-.09,0-.05,0c-.35-.08-1.13-.26-2.25-.46l-.11,0v.21l-.11-.23h0l-.41-.07-.43-.07-.43-.07-.52-.07-.45-.07-.66-.08-.39,0-1.12-.13-.23,0-1-.08-.42,0-.89-.06-.44,0-1,0-.4,0c-.45,0-.91,0-1.38,0h0l-1.48,0h-.34l-1.15.06-.46,0c-.37,0-.73,0-1.1.09l-.46,0-1.26.15-.29,0c-.53.07-1.06.16-1.59.25l-.18,0L106,61l-.45.11-1.12.29-.49.14-1.14.35-.43.14c-1,.36-2,.77-3,1.24l-.4.2L97.82,64l-.49.28c-.33.19-.65.39-1,.6l-.47.3-1,.76-.31.24c-.45.35-.89.71-1.31,1.1l-.27.26c-.33.31-.65.63-1,1l-.4.45c-.27.29-.53.59-.78.91-.14.16-.27.33-.4.51-.26.33-.51.67-.75,1l-.33.48c-.34.53-.67,1.07-1,1.64,0,0-4.46,5.73-4.46,15.92Z"/><path class="m" d="M112.54,104.5C87.06,112.15,84.67,90,84.67,90a2,2,0,0,1-1-.54c-1.76.14-14.49,1.63-15.09,15.27l1.28,7.65-.29.38a28.87,28.87,0,0,0,3.05,6.42c8.07,12.74,27.61,9.13,27.61,9.13a39.15,39.15,0,0,1,5.94-3.82c3.61-1.92,16.57-2.77,16.57-2.77l11.89-3.61L141,100.25S138,96.86,112.54,104.5Z"/><path class="k" d="M107.2,125c1.46-.57,2.37-1,2.37-1Q108.34,124.52,107.2,125Zm22.55,52.1c-7.86-7-16.78-9.55-27-17C92.91,153,84.44,135.21,107.2,125c-3.66,1.44-10.85,3.86-16.32,3.26-6.58-.73-17.42-3.84-21.11-15.82-.69.91-5.56,7.75-4.37,19,1.27,12.11,14,37,50.33,47.79a104.05,104.05,0,0,1,19.08,7.58C134.81,184.29,133.83,180.77,129.75,177.13Z"/><path class="n" d="M201.74,202.19c4.5-2.71,5.1-8.92,5.1-8.92,22.93-6.79,32.28-24.21,32.28-24.21,13-1.88,13.16-12.31,13.16-12.31,3-.43,9.78-7.22,5.1-15.72s-18.69-18.69-18.69-18.69c.86-9.34-2.79-27.75-15.71-30.58-13.59-3-18.27,7.65-18.27,7.65-18.79-6.06-37.37-.11-37.37-.11s-7.93-13.64-23.58-13.06c-17.2.64-27.71,11.79-25.8,35.68l-4.14,1s-23.25,3.19-21,22.61c1.72,15,18.42,18.85,29.07,25.87,8.66,5.7,20.84,17.26,6.4,24.47C127.41,196.25,153.75,231.07,201.74,202.19Z"/><path class="o" d="M243.63,150.35c-9.34-6.58-23-5.34-23-5.34l8.09-9.45,3.4-2.55,5.1,3.19s15.23,6.66,20.12,14.94a22.72,22.72,0,0,1-5.58,4.62Z"/><path class="p" d="M251,156.53c-15.32-14.57-38-13.17-64.35-5.09-3.6,1.1-8.33,1.8-12.1,3.18-31.44,11.47-51.4,2.13-51.4,2.13s-.42,4.67,18.69,18.68c7.71,5.66,11.89,20-3.26,30.28,11.76,7.74,33.25,14.48,63.15-3.52a9,9,0,0,0,2.62-2.43A13.31,13.31,0,0,1,204,193a93.23,93.23,0,0,1-17.1.75c38.13,1.8,51.19-24.64,51.19-24.64l-6.14-3.29s6.16,1.62,11.36,0C252.14,163,251,156.53,251,156.53Z"/><path class="n" d="M197,109.49S202.06,91.65,217,90.7s26.44,13.38,22,41.09"/><path class="q" d="M203,114.48s4.28-14.33,13.8-15.5c12.1-1.49,17.41,10.41,15.93,22.09C232.75,121.07,231.47,114.48,203,114.48Z"/><path class="c" d="M227.77,109c1.1,4.47-1.89,9.06-6.69,10.25s-9.58-1.5-10.68-6,1.89-9.06,6.68-10.24S226.67,104.54,227.77,109Z"/><path class="b" d="M222,110.75a2.28,2.28,0,1,1-2.71-1.51A2.21,2.21,0,0,1,222,110.75Z"/><path class="o" d="M203.23,133.39s-9.56.74-29.31,9.34-38.92,14.73-47.78,8.92c0,0,9.74,15.55,52.61,1.94,0,0,19.59-6.61,26.6-8.53"/><path class="r" d="M235.63,131.37a18.18,18.18,0,1,1-18.18-18.18A18.17,18.17,0,0,1,235.63,131.37Z"/><path class="s" d="M235.63,131.37a18.18,18.18,0,1,1-18.18-18.18A18.17,18.17,0,0,1,235.63,131.37Z"/><path class="b" d="M230.55,125.32c-1.14,2.11-4.6,2.44-7.72.75s-4.75-4.78-3.61-6.88,4.6-2.44,7.73-.75S231.69,123.21,230.55,125.32Z"/><path class="t" d="M205.56,145.7s-21.23,6.8-41.2,11.9-48.84,4.24-51.82-17"/><path class="u" d="M106.6,141.88s3.82-3.82,14,.85"/><path class="c" d="M156.29,115.12"/><path class="c" d="M157.36,115.12"/><path class="b" d="M228.62,104.33a3.41,3.41,0,1,1-4.06-2.28A3.3,3.3,0,0,1,228.62,104.33Z"/><path class="u" d="M123.16,156.75"/><path class="t" d="M228.82,146.13s8.39-.64,23.46,11.25"/><path class="t" d="M199.19,133.7s-8.55.1-35.36,12.43c-27.71,12.74-46.35,5.25-50.49-2.07"/><path class="t" d="M234.71,134.18s19,6.85,23.1,18.64"/><path class="p" d="M123.16,156.75"/><path class="p" d="M123.16,156.75"/><path class="u" d="M68.69,111s5.63,22.41,33.66,16"/><path class="v" d="M82.76,86.08S84.19,116,119.39,102.8"/><path class="w" d="M128.63,59.64s-4,7.17-.16,8.12S133.57,70,132,71.9s-3.35,8.92,3.34,9.88,6.85,4.14,6.85,4.14"/><path class="w" d="M181.14,96.86c-.21-.64,4.89-4.67.21-8.92s-7.22-6.59-3.82-11,4.67-5.52,2.76-8.49-4.88-1.91-3.4-6-.63-5.31-.63-5.31"/><path class="x" d="M198.34,97.28s3-10.62,9.35-13.17,8.49-4.67,8.07-6.37-1.28-4.25,0-6.37L217,69.25"/><path class="i" d="M203.33,99.78"/><path class="w" d="M232.32,97.39s-.32-4.14,5.74-7,10.44-7.53,10.63-11.25"/><path class="w" d="M238.37,110.13s7.65-4.46,16.25-3.19"/><path class="u" d="M168,115.77A65.7,65.7,0,0,0,128,123"/><path class="n" d="M171.16,106.63s-5.1-19.75-26.12-21-39.5,23.15-20.39,49.06"/><path class="q" d="M163.94,115.12c2.25.16-6.8-24.74-24-20-18,5-9.88,26.44-9.88,26.44S146.31,113.85,163.94,115.12Z"/><path class="c" d="M154.47,108.66c-1.29-5.23-6.87-8.35-12.47-7s-9.1,6.73-7.81,12a9.21,9.21,0,0,0,3.34,5.1,79.17,79.17,0,0,1,16.07-3.44A9.31,9.31,0,0,0,154.47,108.66Z"/><path class="b" d="M153.86,102.41a3.41,3.41,0,1,1-4.06-2.27A3.29,3.29,0,0,1,153.86,102.41Z"/><path class="b" d="M146.82,109.9a2.28,2.28,0,1,1-2.72-1.51A2.21,2.21,0,0,1,146.82,109.9Z"/><path class="c" d="M175.46,117.3c-25-9.24-49.22,5.41-49.22,5.41L124,124s30.11-11.15,55.91-5.74"/><path class="c" d="M198.24,114.91a126.39,126.39,0,0,1,19.21-1.72l-9.34,3Z"/><path class="e" d="M183.9,216.85c-38.55-.59-58-14-58-14,1.7-10.19,4-7.86,4-7.86s54.58,21.24,74.4,4.79c0,0,4.07,4.66,6,15.49C210.34,215.25,204.93,217.17,183.9,216.85Z"/><path class="e" d="M224,246.15l14.65,45.24-20.38,8.92s-2.55-33.77-3.19-35.68"/><path class="e" d="M216.6,225.73l1.07,8.32L224,236.6l-8.28,63.71S203,229.16,190.27,211.54"/><path class="y" d="M192.76,206.56s22.37-12.2,25.12-11.59c0,0,3.17,19-1.28,30.76,0,0-15.2-5.75-26.32-10.19C190.28,215.54,184.73,213,192.76,206.56Z"/><path class="y" d="M186.62,206.06s-22.51-14.4-25.23-13.64c0,0-8.49,18.69-1.7,34.41,0,0,19.08-6.88,29.92-12C189.61,214.88,195,212,186.62,206.06Z"/><path class="e" d="M179.76,201.56"/><path class="y" d="M198.77,211.54a8.5,8.5,0,1,1-8.5-8.5A8.5,8.5,0,0,1,198.77,211.54Z"/><path class="z" d="M171.59,198.37s-11.9,14.87-14.45,18.69l2.55,8.07,4.88-.42,15.19-23.15Z"/><path class="z" d="M216.19,194.83l-9.57,5.24s-6.37,13.38-8.92,17.2c.23.71.41,1.31.57,1.87l6.06,2.34.81-.17,11.34-24.4C216.34,195.79,216.23,195.05,216.19,194.83Z"/><path class="z" d="M199.62,214.93l-.22-4.67s-1.27-4.46-2.12-4.88-3.18-1.49-3.18-1.49l-3.83-.85-4.46,1.7,10.41,11.68"/><path class="z" d="M157.78,203.15l-7-2.23L139,208.56l18.16,4.78a14.86,14.86,0,0,1,1.28-8.92"/><path class="x" d="M96.62,218.76s8.92,1.27,10.83,3.82,22.3,51.61,28.67,85.37"/><path class="x" d="M108.72,286.29s4.46-41.41,5.1-47.14"/><polygon class="x" points="125.92 205.38 111.27 216.85 146.31 239.78 142.49 211.11 125.92 205.38"/><path class="aa" d="M216.6,225.73"/><path class="c" d="M241.65,168.18c-7.75,4.5-18.21-6.43-18.21-6.43,21.61,12.19,27.7-4.71,27.7-4.71l1.51,1.14s-3.75,8.5-10.63,10.5-5.5,2.25-6.87,2"/><path class="f" d="M180.69,264.08s5,26.59,3.32,36"/></g></svg>