<?xml version="1.0" standalone="no"?>
<!DOCTYPE svg PUBLIC "-//W3C//DTD SVG 20010904//EN"
 "http://www.w3.org/TR/2001/REC-SVG-20010904/DTD/svg10.dtd">
<svg version="1.0" xmlns="http://www.w3.org/2000/svg"
 width="128.000000pt" height="128.000000pt" viewBox="0 0 128.000000 128.000000"
 preserveAspectRatio="xMidYMid meet">
<metadata>
Created by potrace 1.15, written by Peter Selinger 2001-2017
</metadata>
<g transform="translate(0.000000,128.000000) scale(0.100000,-0.100000)"
fill="#000000" stroke="none">
<path d="M81 1228 c-24 -122 -29 -152 -24 -163 2 -7 0 -16 -6 -20 -6 -3 -11
-21 -11 -38 0 -18 -9 -67 -20 -111 -18 -72 -20 -113 -20 -487 l0 -409 154 0
154 0 6 25 c7 29 26 24 26 -6 0 -19 11 -19 470 -19 l470 0 0 279 c0 235 -2
280 -15 291 -16 14 -20 40 -6 40 5 0 12 -6 14 -12 3 -7 6 13 6 45 1 36 -3 56
-9 52 -5 -3 -10 -12 -10 -18 0 -7 -9 -18 -21 -25 -11 -7 -19 -21 -18 -30 3
-37 -2 -51 -23 -58 -13 -4 -29 -7 -36 -5 -7 1 -15 -5 -18 -14 -9 -23 -32 -18
-66 15 -16 17 -33 30 -38 30 -13 0 -20 -42 -9 -62 15 -27 7 -31 -43 -24 -61 9
-73 18 -58 45 14 27 7 104 -13 134 -8 12 -27 35 -43 50 -25 25 -34 28 -69 23
-54 -9 -77 -37 -69 -85 10 -53 44 -100 90 -127 10 -6 20 -21 22 -33 2 -12 10
-25 18 -28 8 -3 14 -12 14 -20 0 -12 -8 -14 -37 -8 -21 4 -41 12 -44 17 -4 6
-18 8 -32 4 -17 -4 -33 1 -51 15 -14 11 -30 18 -35 15 -5 -3 -11 1 -15 9 -7
19 -26 19 -55 -1 -18 -13 -20 -18 -10 -26 10 -7 5 -8 -14 -4 -22 5 -29 2 -39
-19 -8 -18 -9 -34 -2 -53 9 -26 8 -27 -40 -37 -51 -10 -76 -35 -36 -35 13 0
41 -16 62 -36 l40 -36 -31 7 c-36 8 -71 -1 -71 -18 0 -18 -43 -43 -48 -28 -2
6 -8 11 -13 11 -12 0 -12 -27 1 -32 19 -6 -2 -48 -29 -55 -14 -3 -39 -12 -54
-20 -23 -11 -26 -17 -17 -28 6 -8 10 -21 8 -30 -3 -15 -6 -15 -29 3 -22 18
-28 34 -38 109 -7 48 -15 93 -16 100 -2 6 3 41 10 78 14 65 14 68 -9 99 -53
71 -72 157 -46 207 9 15 7 26 -8 47 -17 23 -18 35 -11 77 5 28 12 77 15 110 3
33 9 69 14 80 5 11 11 33 14 48 4 16 17 32 31 39 14 6 31 21 39 33 11 17 21
21 41 17 15 -2 30 0 34 7 4 6 28 12 53 13 35 2 47 7 54 23 6 13 17 19 32 17
16 -2 22 2 22 17 0 26 15 34 30 16 14 -17 40 -3 40 21 0 8 7 14 15 14 11 0 13
-7 9 -29 -9 -45 40 -121 78 -121 10 0 21 -6 24 -14 3 -8 25 -19 48 -26 37 -10
48 -9 74 4 17 9 40 16 52 16 24 0 80 27 95 46 6 7 39 24 74 38 36 14 72 32 80
40 9 9 42 16 76 18 57 3 60 4 63 31 l3 27 -109 0 c-88 0 -111 -3 -116 -15 -7
-19 -46 -20 -46 0 0 12 -63 14 -459 15 l-459 0 -11 -52z"/>
<path d="M1229 1204 c-1 -5 -1 -11 -1 -14 0 -3 -9 -7 -20 -7 -11 -1 -28 -9
-37 -17 -10 -9 -25 -16 -34 -16 -9 0 -17 -4 -17 -10 0 -5 10 -10 23 -10 23 0
83 -19 105 -33 42 -28 -40 -41 -89 -15 -19 10 -49 18 -68 18 -33 0 -34 0 -16
-20 11 -12 15 -28 12 -41 -7 -26 56 -94 79 -85 9 3 18 6 20 6 2 0 4 7 4 15 0
9 9 15 23 15 65 1 67 4 67 111 0 55 -4 99 -9 99 -5 0 -16 3 -25 6 -9 3 -17 2
-17 -2z"/>
<path d="M482 784 c-35 -24 -27 -82 14 -106 29 -17 33 -17 72 -2 46 19 55 37
35 76 -23 48 -78 62 -121 32z"/>
</g>
</svg>
