<svg id="Layer_1" data-name="Layer 1" xmlns="http://www.w3.org/2000/svg" width="96.91" height="96.91" viewBox="0 0 96.91 96.91">
    <title>CIRCLE_PARA</title>
    <g>
        <path d="M48.61,64.35c3.54,0,3.82,2.41,3.4,5.08v0L75.22,49.89a8,8,0,0,0-9.87-1.67l-1.42.8-.47-.65a8,8,0,0,0-9.74-2.58l-2.41,1.1-1.2-1.32A7.88,7.88,0,0,0,40.31,44l-1.61.9-1-1.14a7.93,7.93,0,0,0-9.89-1.52l16,26.06A4.79,4.79,0,0,1,48.61,64.35Z" transform="translate(-2 -1)" style="fill: #292D5C"/>
        <path d="M50.46,1A48.46,48.46,0,1,0,98.91,49.46,48.45,48.45,0,0,0,50.46,1ZM78.74,43.38a26.34,26.34,0,0,1-1.58,6.75l-.51,1.37L51.46,73v.09H48.78l.6-3.91c.22-1.42.06-2.4-1.17-2.4s-1.72.91-2,2.43l-2,12.47c-.25,1.6-.07,2.7,1.2,2.7s1.71-1.1,2-2.69l.8-4H51l-.73,3.66C49.84,83.79,49,86.78,45,86.78c-3.57,0-3.89-2.34-3.42-5.31l1.52-9.69,0,0L25.9,43.3l0-1.46a26.52,26.52,0,1,1,52.89,1.54Z" transform="translate(-2 -1)" style="fill: #292D5C"/>
    </g>
</svg>