<svg id="Layer_1" data-name="Layer 1" xmlns="http://www.w3.org/2000/svg" width="100" height="100" viewBox="0 0 100 100">
  <title>DROP Parachute Red</title>
  <path d="M57.22,3.9a34.46,34.46,0,0,0-27.2,5A34.82,34.82,0,0,0,15.15,32.18a33.91,33.91,0,0,0-.42,7l.07,1.92L37.3,78.34l.05,0L35.37,91c-.62,3.89-.19,7,4.47,7,5.13,0,6.29-3.92,6.78-7l1-4.78H44.07l-1,5.18c-.38,2.09-.94,3.53-2.61,3.53s-1.9-1.44-1.58-3.54L41.43,75c.31-2,1-3.17,2.56-3.17s1.82,1.28,1.53,3.14l-.79,5.12h3.49l0-.13L81.19,51.79l.68-1.8A34.71,34.71,0,0,0,57.22,3.9ZM49,75.29v0c.55-3.51.18-6.65-4.45-6.65-3.37,0-5.49,1.93-6.37,5.16L17.24,39.65a10.39,10.39,0,0,1,13,2l1.35,1.5L33.65,42A10.35,10.35,0,0,1,46.48,44L48,45.75l3.15-1.43A10.43,10.43,0,0,1,63.94,47.7l.62.84,1.85-1a10.41,10.41,0,0,1,12.92,2.19Z" style="fill: #fa4c43"/>
</svg>
