<svg data-v-fde0c5aa="" xmlns="http://www.w3.org/2000/svg" viewBox="0 0 300 300" class="iconAboveSlogan"><!----><defs data-v-fde0c5aa=""><!----></defs><defs data-v-fde0c5aa=""><!----></defs><g data-v-fde0c5aa="" id="bce34950-ce39-4e15-be65-3bd3b1f51ea7" fill="#000000" transform="matrix(8.284629798294613,0,0,8.284629798294613,-2.105806178016177,101.33257332390937)"><path d="M7.63 17.18L6.10 17.18L4.65 14.08L2.66 14.08L2.66 17.18L1.26 17.18L1.26 8.43L4.76 8.43L4.76 8.43Q5.70 8.43 6.22 8.71L6.22 8.71L6.22 8.71Q6.75 8.99 6.98 9.63L6.98 9.63L6.98 9.63Q7.21 10.26 7.21 11.38L7.21 11.38L7.21 11.38Q7.21 12.46 6.94 13.07L6.94 13.07L6.94 13.07Q6.66 13.68 6.05 13.92L6.05 13.92L7.63 17.18ZM2.66 9.59L2.66 12.98L4.77 12.98L4.77 12.98Q5.32 12.98 5.53 12.85L5.53 12.85L5.53 12.85Q5.74 12.73 5.74 12.39L5.74 12.39L5.74 10.18L5.74 10.18Q5.74 9.84 5.53 9.72L5.53 9.72L5.53 9.72Q5.32 9.59 4.77 9.59L4.77 9.59L2.66 9.59ZM9.45 17.18L9.45 8.43L10.81 8.43L14.20 13.89L14.20 13.89Q14.41 14.25 14.48 14.40L14.48 14.40L14.48 14.40Q14.55 14.55 14.56 14.76L14.56 14.76L14.64 14.76L14.64 8.43L16.04 8.43L16.04 17.18L14.69 17.18L11.30 11.72L11.30 11.72Q11.09 11.35 11.02 11.21L11.02 11.21L11.02 11.21Q10.95 11.06 10.93 10.85L10.93 10.85L10.85 10.85L10.85 17.18L9.45 17.18ZM20.03 13.36L20.03 16.02L23.88 16.02L23.88 17.18L18.63 17.18L18.63 8.43L23.84 8.43L23.67 9.59L20.03 9.59L20.03 12.25L23.35 12.25L23.35 13.36L20.03 13.36ZM34.06 8.43L35.46 8.43L33.99 17.18L31.81 17.18L30.20 10.23L28.59 17.18L26.40 17.18L24.93 8.43L26.33 8.43L27.54 15.89L27.66 15.89L29.46 8.43L30.94 8.43L32.73 15.89L32.86 15.89L34.06 8.43Z"></path></g><defs data-v-fde0c5aa=""><linearGradient data-v-fde0c5aa="" gradientTransform="rotate(25)" id="8a53bae0-bc9a-485c-a66c-b055629a736d" x1="0%" y1="0%" x2="100%" y2="0%"><stop data-v-fde0c5aa="" offset="0%" stop-color="#01648B" stop-opacity="1"></stop><stop data-v-fde0c5aa="" offset="100%" stop-color="#5BD0A4" stop-opacity="1"></stop></linearGradient></defs><g data-v-fde0c5aa="" id="54e493ef-bfd9-4d07-9f0b-72993e759e2a" stroke="none" fill="url(#8a53bae0-bc9a-485c-a66c-b055629a736d)" transform="matrix(1.7411077700277133,0,0,1.7411077700277133,55.24996110560616,9.530614024515003)"><path d="M87.071 59.394l-4.571 4.57V20a2.5 2.5 0 0 0-2.5-2.5H20a2.5 2.5 0 0 0-2.5 2.5v60a2.5 2.5 0 0 0 2.5 2.5h60a2.5 2.5 0 1 0 0-5H22.5v-55h55v41.464l-4.571-4.571a2.498 2.498 0 0 0-3.535 0 2.498 2.498 0 0 0 0 3.535l8.836 8.836c.117.117.246.222.384.314.06.04.124.067.186.101.081.044.158.093.244.128.082.034.166.053.25.078.072.021.142.049.217.064a2.367 2.367 0 0 0 .978.002c.075-.015.145-.043.217-.064.083-.024.168-.044.25-.077.086-.036.164-.084.245-.129.062-.034.126-.061.185-.101.139-.092.268-.197.384-.314l8.836-8.836a2.498 2.498 0 0 0 0-3.535 2.497 2.497 0 0 0-3.535-.001z"></path></g><defs data-v-fde0c5aa=""><!----></defs><g data-v-fde0c5aa="" id="c27db158-d407-4433-a66d-27f21aafe3a3" fill="#000000" transform="matrix(0.6395039667710761,0,0,0.6395039667710761,43.621719671359905,252.5881490800123)"><path d="M7.71 2.21L0.20 2.21L0.20 3.22L3.43 3.22L3.43 11.48L4.48 11.48L4.48 3.22L7.71 3.22ZM15.82 1.68L15.82 11.48L16.87 11.48L16.87 7.45C16.87 6.19 17.82 5.32 18.98 5.32C20.13 5.32 20.94 6.16 20.94 7.43L20.94 11.48L21.99 11.48L21.99 7.41C21.99 5.42 20.64 4.37 19.19 4.37C18.06 4.37 17.37 4.90 16.87 5.57L16.87 1.68ZM33.87 10.64C32.45 10.64 31.54 9.65 31.39 8.40L37.25 8.40L37.25 7.98C37.25 5.98 35.92 4.37 33.78 4.37C31.64 4.37 30.31 5.98 30.31 7.98C30.31 9.98 31.71 11.59 33.85 11.59C35.52 11.59 36.55 10.72 37.04 9.46L35.90 9.46C35.52 10.16 34.85 10.64 33.87 10.64ZM33.78 5.32C35.13 5.32 35.97 6.23 36.16 7.42L31.40 7.42C31.60 6.23 32.44 5.32 33.78 5.32ZM56.80 7.92L60.02 7.92L62.26 11.48L63.50 11.48L61.07 7.74C62.10 7.50 63.31 6.90 63.31 5.11C63.31 3.35 62.09 2.21 60.19 2.21L55.75 2.21L55.75 11.48L56.80 11.48ZM56.80 3.21L60.06 3.21C61.38 3.21 62.26 3.93 62.26 5.11C62.26 6.55 61.00 6.93 60.00 6.93L56.80 6.93ZM74.84 10.64C73.43 10.64 72.52 9.65 72.37 8.40L78.23 8.40L78.23 7.98C78.23 5.98 76.90 4.37 74.76 4.37C72.62 4.37 71.29 5.98 71.29 7.98C71.29 9.98 72.69 11.59 74.83 11.59C76.50 11.59 77.53 10.72 78.02 9.46L76.87 9.46C76.50 10.16 75.82 10.64 74.84 10.64ZM74.76 5.32C76.10 5.32 76.94 6.23 77.14 7.42L72.38 7.42C72.58 6.23 73.42 5.32 74.76 5.32ZM86.52 4.48L86.52 11.48L87.57 11.48L87.57 7.45C87.57 6.19 88.52 5.32 89.68 5.32C90.83 5.32 91.64 6.16 91.64 7.43L91.64 11.48L92.69 11.48L92.69 7.41C92.69 5.42 91.34 4.37 89.89 4.37C88.76 4.37 88.07 4.90 87.57 5.57L87.57 4.48ZM104.57 10.64C103.15 10.64 102.24 9.65 102.09 8.40L107.95 8.40L107.95 7.98C107.95 5.98 106.62 4.37 104.48 4.37C102.34 4.37 101.01 5.98 101.01 7.98C101.01 9.98 102.41 11.59 104.55 11.59C106.22 11.59 107.25 10.72 107.74 9.46L106.60 9.46C106.22 10.16 105.55 10.64 104.57 10.64ZM104.48 5.32C105.83 5.32 106.67 6.23 106.86 7.42L102.10 7.42C102.30 6.23 103.14 5.32 104.48 5.32ZM122.36 11.48L123.56 11.48L125.76 4.48L124.64 4.48L122.96 10.18L121.18 4.48L120.04 4.48L118.26 10.18L116.58 4.48L115.46 4.48L117.66 11.48L118.86 11.48L120.61 5.89ZM136.70 4.37C134.65 4.37 133.31 5.98 133.31 7.98C133.31 9.98 134.65 11.59 136.70 11.59C137.86 11.59 138.68 11.12 139.20 10.36L139.20 11.48L140.25 11.48L140.25 4.48L139.20 4.48L139.20 5.61C138.68 4.86 137.86 4.37 136.70 4.37ZM136.84 10.64C135.28 10.64 134.36 9.42 134.36 7.98C134.36 6.54 135.28 5.32 136.84 5.32C138.39 5.32 139.26 6.54 139.26 7.98C139.26 9.42 138.39 10.64 136.84 10.64ZM152.63 4.37C151.47 4.37 150.64 4.86 150.12 5.61L150.12 1.68L149.07 1.68L149.07 11.48L150.12 11.48L150.12 10.36C150.64 11.12 151.47 11.59 152.63 11.59C154.67 11.59 156.02 9.98 156.02 7.98C156.02 5.98 154.67 4.37 152.63 4.37ZM152.49 10.64C150.93 10.64 150.07 9.42 150.07 7.98C150.07 6.54 150.93 5.32 152.49 5.32C154.04 5.32 154.97 6.54 154.97 7.98C154.97 9.42 154.04 10.64 152.49 10.64ZM165.44 1.68L164.39 1.68L164.39 11.48L165.44 11.48ZM177.38 10.64C175.97 10.64 175.06 9.65 174.90 8.40L180.77 8.40L180.77 7.98C180.77 5.98 179.44 4.37 177.30 4.37C175.15 4.37 173.82 5.98 173.82 7.98C173.82 9.98 175.22 11.59 177.37 11.59C179.03 11.59 180.07 10.72 180.56 9.46L179.41 9.46C179.03 10.16 178.36 10.64 177.38 10.64ZM177.30 5.32C178.64 5.32 179.48 6.23 179.68 7.42L174.92 7.42C175.11 6.23 175.95 5.32 177.30 5.32ZM188.89 10.05L188.89 11.48L190.25 11.48L190.25 10.05ZM202.96 10.57C200.70 10.57 199.44 8.93 199.44 6.85C199.44 4.76 200.70 3.12 202.96 3.12C204.48 3.12 205.49 3.85 205.97 4.98L207.07 4.98C206.49 3.29 204.97 2.10 202.87 2.10C200.09 2.10 198.39 4.21 198.39 6.85C198.39 9.48 200.09 11.59 202.87 11.59C204.97 11.59 206.49 10.40 207.07 8.71L205.97 8.71C205.49 9.84 204.48 10.57 202.96 10.57ZM218.37 4.37C216.33 4.37 214.98 5.98 214.98 7.98C214.98 9.98 216.33 11.59 218.37 11.59C219.53 11.59 220.36 11.12 220.88 10.36L220.88 11.48L221.93 11.48L221.93 4.48L220.88 4.48L220.88 5.61C220.36 4.86 219.53 4.37 218.37 4.37ZM218.51 10.64C216.96 10.64 216.03 9.42 216.03 7.98C216.03 6.54 216.96 5.32 218.51 5.32C220.07 5.32 220.93 6.54 220.93 7.98C220.93 9.42 220.07 10.64 218.51 10.64ZM233.18 4.37C231.38 4.37 230.44 5.11 230.44 6.37C230.44 8.93 235.10 7.84 235.10 9.59C235.10 10.54 233.88 10.70 233.31 10.70C231.95 10.70 231.42 10.00 231.35 9.28L230.26 9.28C230.33 10.51 231.35 11.59 233.30 11.59C235.03 11.59 236.15 10.85 236.15 9.49C236.15 6.86 231.49 7.95 231.49 6.27C231.49 5.59 232.06 5.26 233.16 5.26C234.33 5.26 234.78 5.75 234.86 6.36L235.93 6.36C235.80 5.33 235.03 4.37 233.18 4.37ZM244.50 1.68L244.50 11.48L245.55 11.48L245.55 7.45C245.55 6.19 246.50 5.32 247.66 5.32C248.81 5.32 249.62 6.16 249.62 7.43L249.62 11.48L250.67 11.48L250.67 7.41C250.67 5.42 249.31 4.37 247.87 4.37C246.74 4.37 246.05 4.90 245.55 5.57L245.55 1.68ZM276.21 2.21L268.69 2.21L268.69 3.22L271.92 3.22L271.92 11.48L272.97 11.48L272.97 3.22L276.21 3.22ZM285.98 4.37C283.84 4.37 282.51 5.98 282.51 7.98C282.51 9.98 283.84 11.59 285.98 11.59C288.12 11.59 289.45 9.98 289.45 7.98C289.45 5.98 288.12 4.37 285.98 4.37ZM285.98 10.64C284.42 10.64 283.56 9.42 283.56 7.98C283.56 6.54 284.42 5.32 285.98 5.32C287.53 5.32 288.40 6.54 288.40 7.98C288.40 9.42 287.53 10.64 285.98 10.64ZM303.73 4.48L302.26 4.48L298.89 7.95L298.89 1.68L297.84 1.68L297.84 11.48L298.89 11.48L298.89 9.27L300.20 7.97L302.65 11.48L303.94 11.48L300.92 7.24ZM314.64 10.64C313.22 10.64 312.31 9.65 312.16 8.40L318.02 8.40L318.02 7.98C318.02 5.98 316.69 4.37 314.55 4.37C312.41 4.37 311.08 5.98 311.08 7.98C311.08 9.98 312.48 11.59 314.62 11.59C316.29 11.59 317.32 10.72 317.81 9.46L316.67 9.46C316.29 10.16 315.62 10.64 314.64 10.64ZM314.55 5.32C315.90 5.32 316.74 6.23 316.93 7.42L312.17 7.42C312.37 6.23 313.21 5.32 314.55 5.32ZM326.31 4.48L326.31 11.48L327.36 11.48L327.36 7.45C327.36 6.19 328.31 5.32 329.48 5.32C330.62 5.32 331.44 6.16 331.44 7.43L331.44 11.48L332.49 11.48L332.49 7.41C332.49 5.42 331.13 4.37 329.69 4.37C328.55 4.37 327.87 4.90 327.36 5.57L327.36 4.48Z"></path></g></svg>