<svg id="svg" version="1.1" xmlns="http://www.w3.org/2000/svg" xmlns:xlink="http://www.w3.org/1999/xlink" width="400" height="400" viewBox="0, 0, 400,400"><g id="svgg"><path id="path0" d="M101.800 143.786 C 83.552 147.516,73.174 166.863,78.512 187.200 C 82.283 201.571,88.488 206.981,109.900 214.572 C 117.192 217.157,118.755 217.783,121.032 219.031 C 132.312 225.211,129.908 242.762,117.200 247.011 C 107.270 250.332,97.615 245.512,93.782 235.323 L 92.457 231.800 83.728 231.800 L 75.000 231.800 75.059 233.630 C 75.574 249.672,88.294 265.455,102.400 267.554 C 125.221 270.950,138.895 262.554,144.669 241.600 C 145.709 237.829,145.700 222.608,144.657 218.800 C 141.360 206.767,136.441 200.726,125.777 195.612 C 122.313 193.951,120.843 193.384,112.601 190.532 C 97.912 185.449,94.188 182.299,94.239 175.000 C 94.285 168.500,98.656 164.300,106.484 163.233 C 114.943 162.080,121.089 165.371,123.789 172.500 L 124.509 174.400 133.654 174.400 C 144.109 174.400,143.172 174.859,142.237 170.200 C 138.225 150.210,122.053 139.646,101.800 143.786 M261.712 143.790 C 246.633 146.786,237.198 159.470,237.201 176.744 C 237.203 193.095,245.204 205.252,259.600 210.778 C 260.810 211.242,262.160 211.791,262.600 211.997 C 263.040 212.204,264.480 212.730,265.800 213.166 C 268.339 214.006,271.980 215.298,276.600 216.997 C 284.767 220.001,288.000 224.022,288.000 231.173 C 288.000 242.394,279.331 249.341,267.452 247.640 C 260.989 246.715,256.271 242.451,253.588 235.112 C 252.198 231.309,252.973 231.571,243.445 231.692 L 235.000 231.800 235.086 234.000 C 235.134 235.210,235.381 237.010,235.635 238.000 C 240.668 257.581,249.430 266.249,265.958 267.996 C 290.244 270.562,305.597 256.001,305.597 230.400 C 305.597 213.176,299.638 202.481,286.415 195.969 C 282.510 194.046,281.270 193.565,271.400 190.140 C 258.855 185.788,254.593 182.351,254.099 176.192 C 252.926 161.582,276.610 157.523,283.085 171.225 L 284.586 174.400 293.728 174.400 L 302.870 174.400 302.617 172.700 C 299.395 151.112,283.039 139.552,261.712 143.790 " stroke="none" fill="#0e3c76" fill-rule="evenodd"></path><path id="path1" d="M155.200 179.150 L 155.200 213.100 176.700 213.314 C 202.239 213.568,202.938 213.668,206.779 217.627 C 211.775 222.774,212.436 234.836,208.050 240.800 C 204.228 245.997,201.761 246.363,170.600 246.364 C 153.667 246.365,149.344 246.469,149.122 246.882 C 148.969 247.167,148.459 248.660,147.988 250.200 C 146.336 255.606,142.869 261.869,140.032 264.575 C 139.354 265.221,138.800 265.908,138.800 266.101 C 138.800 267.137,204.861 265.895,209.400 264.774 C 232.523 259.063,236.417 214.519,214.793 203.084 C 212.515 201.879,212.503 201.643,214.640 200.070 C 227.486 190.611,228.073 164.087,215.708 151.817 C 209.588 145.744,206.323 145.200,176.016 145.200 L 155.200 145.200 155.200 179.150 M194.242 165.173 C 204.249 165.819,207.355 168.992,207.385 178.600 C 207.425 191.476,203.203 193.844,180.800 193.515 L 173.000 193.400 172.895 179.602 C 172.837 172.014,172.876 165.579,172.982 165.302 C 173.212 164.704,185.794 164.628,194.242 165.173 " stroke="none" fill="#fc073b" fill-rule="evenodd"></path><path id="path2" d="M0.000 200.000 L 0.000 400.000 200.000 400.000 L 400.000 400.000 400.000 200.000 L 400.000 0.000 200.000 0.000 L 0.000 0.000 0.000 200.000 M115.400 143.059 C 127.703 144.769,135.495 150.576,140.158 161.514 C 141.815 165.399,143.866 174.000,143.277 174.590 C 142.783 175.083,123.976 174.803,123.821 174.300 C 121.550 166.927,117.017 163.600,109.244 163.600 C 100.374 163.600,94.665 168.147,94.693 175.191 C 94.720 182.291,98.413 185.133,115.000 190.819 C 118.300 191.950,121.810 193.243,122.800 193.691 C 123.790 194.140,125.562 194.946,126.737 195.482 C 139.679 201.388,146.044 212.786,146.126 230.200 C 146.251 256.898,130.174 271.608,104.400 268.376 C 91.067 266.704,82.201 258.990,77.076 244.600 C 75.602 240.461,73.809 232.232,74.233 231.547 C 74.595 230.961,92.797 231.109,92.978 231.700 C 96.461 243.079,101.081 247.001,111.000 246.999 C 121.563 246.997,127.600 241.239,127.600 231.165 C 127.600 222.675,124.780 220.262,108.000 214.395 C 87.267 207.147,80.052 199.976,77.373 183.954 C 73.027 157.967,90.153 139.550,115.400 143.059 M275.076 143.016 C 289.338 144.978,298.671 153.248,301.919 166.800 C 302.948 171.091,303.200 172.426,303.200 173.577 L 303.200 174.800 293.660 174.800 L 284.120 174.800 282.998 172.161 C 276.958 157.949,252.360 162.150,254.666 177.000 C 255.561 182.763,259.645 185.625,273.800 190.407 C 290.886 196.178,298.013 201.281,302.316 210.822 C 310.565 229.112,305.554 253.731,291.664 263.155 C 280.769 270.547,260.997 270.696,250.400 263.466 C 241.984 257.724,235.205 244.881,234.319 233.000 L 234.200 231.400 243.448 231.293 L 252.697 231.186 253.116 232.293 C 253.346 232.902,253.852 234.300,254.239 235.400 C 257.142 243.648,262.826 247.437,271.800 247.108 C 281.744 246.743,287.389 240.981,287.383 231.200 C 287.380 224.517,284.962 221.039,278.497 218.415 C 276.794 217.723,275.040 217.002,274.600 216.811 C 273.650 216.399,269.445 214.901,265.000 213.391 C 263.240 212.793,260.810 211.860,259.600 211.317 C 258.390 210.775,256.770 210.048,256.000 209.702 C 238.134 201.670,231.219 177.202,241.332 157.800 C 245.582 149.646,253.276 144.556,263.600 143.068 C 268.795 142.320,269.978 142.314,275.076 143.016 M206.000 145.784 C 226.150 151.387,232.259 183.629,216.148 199.348 L 213.526 201.907 215.335 202.811 C 237.577 213.918,232.859 259.212,208.816 265.400 C 203.958 266.651,138.902 267.536,138.176 266.362 C 138.027 266.121,138.711 265.086,139.697 264.062 C 143.082 260.542,146.244 254.750,147.808 249.200 C 148.211 247.770,148.711 246.375,148.919 246.100 C 149.214 245.710,154.380 245.599,172.349 245.597 C 197.732 245.594,200.984 245.403,204.047 243.736 C 213.604 238.534,212.353 219.169,202.200 215.161 L 199.800 214.214 178.200 214.103 C 166.320 214.042,156.195 213.900,155.700 213.788 L 154.800 213.585 154.800 179.162 L 154.800 144.740 179.100 144.901 C 201.002 145.046,203.657 145.133,206.000 145.784 M173.295 179.100 L 173.400 192.600 185.600 192.600 C 199.141 192.600,200.035 192.474,202.704 190.189 C 208.415 185.301,208.679 172.462,203.159 168.062 C 200.322 165.801,198.882 165.600,185.500 165.600 L 173.189 165.600 173.295 179.100 " stroke="none" fill="#fbfbfb" fill-rule="evenodd"></path><path id="path3" d="M105.600 142.802 C 104.713 142.988,106.167 143.114,109.567 143.147 C 112.518 143.176,114.826 143.092,114.694 142.961 C 114.329 142.595,107.187 142.471,105.600 142.802 M265.600 142.831 C 264.830 142.976,266.630 143.096,269.600 143.097 C 273.609 143.099,274.536 143.015,273.200 142.771 C 271.191 142.404,267.727 142.431,265.600 142.831 M100.600 143.472 C 83.900 147.214,74.089 164.313,77.373 183.954 C 80.052 199.976,87.267 207.147,108.000 214.395 C 124.780 220.262,127.600 222.675,127.600 231.165 C 127.600 241.239,121.563 246.997,111.000 246.999 C 101.081 247.001,96.461 243.079,92.978 231.700 C 92.797 231.109,74.595 230.961,74.233 231.547 C 74.025 231.882,74.705 235.941,75.629 239.884 C 78.811 253.458,88.644 265.271,98.200 267.000 C 99.623 267.257,99.219 267.038,95.000 265.261 C 84.779 260.957,75.462 246.179,75.059 233.630 L 75.000 231.800 83.728 231.800 L 92.457 231.800 93.782 235.323 C 97.615 245.512,107.270 250.332,117.200 247.011 C 129.908 242.762,132.312 225.211,121.032 219.031 C 118.755 217.783,117.192 217.157,109.900 214.572 C 88.488 206.981,82.283 201.571,78.512 187.200 C 73.174 166.863,83.552 147.516,101.800 143.786 C 103.616 143.415,103.859 143.295,102.800 143.294 C 102.030 143.293,101.040 143.373,100.600 143.472 M117.400 143.744 C 131.282 146.724,139.223 155.183,142.237 170.200 C 143.172 174.859,144.109 174.400,133.654 174.400 L 124.509 174.400 123.789 172.500 C 118.409 158.296,94.342 160.332,94.239 175.000 C 94.188 182.299,97.912 185.449,112.601 190.532 C 120.843 193.384,122.313 193.951,125.777 195.612 C 136.441 200.726,141.360 206.767,144.657 218.800 C 145.700 222.608,145.709 237.829,144.669 241.600 C 138.770 263.007,124.594 271.294,100.626 267.348 C 99.742 267.203,99.567 267.255,100.000 267.534 C 100.330 267.746,102.220 268.118,104.200 268.359 C 130.281 271.537,146.252 257.001,146.126 230.200 C 146.044 212.786,139.679 201.388,126.737 195.482 C 125.562 194.946,123.790 194.140,122.800 193.691 C 121.810 193.243,118.300 191.950,115.000 190.819 C 98.413 185.133,94.720 182.291,94.693 175.191 C 94.665 168.147,100.374 163.600,109.244 163.600 C 117.017 163.600,121.550 166.927,123.821 174.300 C 123.976 174.803,142.783 175.083,143.277 174.590 C 143.866 174.000,141.815 165.399,140.158 161.514 C 135.805 151.303,126.875 144.217,117.365 143.425 L 115.000 143.229 117.400 143.744 M258.672 143.984 C 230.780 151.503,228.909 197.523,256.000 209.702 C 256.770 210.048,258.390 210.775,259.600 211.317 C 260.810 211.860,263.240 212.793,265.000 213.391 C 269.445 214.901,273.650 216.399,274.600 216.811 C 275.040 217.002,276.794 217.723,278.497 218.415 C 284.962 221.039,287.380 224.517,287.383 231.200 C 287.389 240.981,281.744 246.743,271.800 247.108 C 262.826 247.437,257.142 243.648,254.239 235.400 C 253.852 234.300,253.346 232.902,253.116 232.293 L 252.697 231.186 243.448 231.293 L 234.200 231.400 234.319 233.000 C 235.205 244.881,241.984 257.724,250.400 263.466 C 260.997 270.696,280.769 270.547,291.664 263.155 C 305.554 253.731,310.565 229.112,302.316 210.822 C 298.013 201.281,290.886 196.178,273.800 190.407 C 259.645 185.625,255.561 182.763,254.666 177.000 C 253.451 169.176,259.559 163.600,269.343 163.600 C 276.172 163.600,280.518 166.324,282.998 172.161 L 284.120 174.800 293.660 174.800 L 303.200 174.800 303.200 173.577 C 303.200 172.426,302.948 171.091,301.919 166.800 C 298.856 154.020,286.697 142.888,276.200 143.254 C 275.412 143.281,275.825 143.461,277.400 143.778 C 291.642 146.640,300.191 156.446,302.617 172.700 L 302.870 174.400 293.728 174.400 L 284.586 174.400 283.085 171.225 C 276.610 157.523,252.926 161.582,254.099 176.192 C 254.593 182.351,258.855 185.788,271.400 190.140 C 281.270 193.565,282.510 194.046,286.415 195.969 C 299.638 202.481,305.597 213.176,305.597 230.400 C 305.597 256.001,290.244 270.562,265.958 267.996 C 249.430 266.249,240.668 257.581,235.635 238.000 C 235.381 237.010,235.134 235.210,235.086 234.000 L 235.000 231.800 243.445 231.692 C 252.973 231.571,252.198 231.309,253.588 235.112 C 256.271 242.451,260.989 246.715,267.452 247.640 C 277.125 249.025,284.921 244.623,287.364 236.396 C 290.045 227.369,286.262 220.551,276.600 216.997 C 271.980 215.298,268.339 214.006,265.800 213.166 C 264.480 212.730,263.040 212.204,262.600 211.997 C 262.160 211.791,260.810 211.242,259.600 210.778 C 245.204 205.252,237.203 193.095,237.201 176.744 C 237.198 159.470,246.633 146.786,261.712 143.790 C 263.610 143.413,263.868 143.290,262.800 143.272 C 262.030 143.259,260.172 143.579,258.672 143.984 " stroke="none" fill="#97a7c2" fill-rule="evenodd"></path><path id="path4" d="M154.800 179.162 L 154.800 213.585 155.700 213.788 C 156.195 213.900,166.320 214.042,178.200 214.103 L 199.800 214.214 202.200 215.161 C 212.353 219.169,213.604 238.534,204.047 243.736 C 200.984 245.403,197.732 245.594,172.349 245.597 C 154.380 245.599,149.214 245.710,148.919 246.100 C 148.711 246.375,148.211 247.770,147.808 249.200 C 146.244 254.750,143.082 260.542,139.697 264.062 C 138.711 265.086,138.027 266.121,138.176 266.362 C 138.902 267.536,203.958 266.651,208.816 265.400 C 232.859 259.212,237.577 213.918,215.335 202.811 L 213.526 201.907 216.148 199.348 C 230.250 185.589,227.258 155.855,210.951 147.685 C 205.722 145.066,205.862 145.078,179.100 144.901 L 154.800 144.740 154.800 179.162 M200.716 145.605 C 212.080 146.792,218.185 151.565,222.453 162.600 C 227.452 175.527,223.730 193.376,214.640 200.070 C 212.503 201.643,212.515 201.879,214.793 203.084 C 236.417 214.519,232.523 259.063,209.400 264.774 C 204.861 265.895,138.800 267.137,138.800 266.101 C 138.800 265.908,139.354 265.221,140.032 264.575 C 142.869 261.869,146.336 255.606,147.988 250.200 C 148.459 248.660,148.969 247.167,149.122 246.882 C 149.344 246.469,153.667 246.365,170.600 246.364 C 201.761 246.363,204.228 245.997,208.050 240.800 C 212.436 234.836,211.775 222.774,206.779 217.627 C 202.938 213.668,202.239 213.568,176.700 213.314 L 155.200 213.100 155.200 179.150 L 155.200 145.200 176.016 145.200 C 187.464 145.200,198.579 145.382,200.716 145.605 M172.982 165.302 C 172.876 165.579,172.837 172.014,172.895 179.602 L 173.000 193.400 180.800 193.515 C 199.697 193.793,203.980 192.448,206.644 185.400 C 207.771 182.417,207.705 174.537,206.530 171.951 C 204.931 168.432,200.663 165.013,198.729 165.703 C 198.438 165.806,198.934 166.095,199.832 166.343 C 209.837 169.110,209.520 189.027,199.421 192.106 C 198.286 192.452,194.142 192.600,185.600 192.600 L 173.400 192.600 173.295 179.100 L 173.189 165.600 185.695 165.533 C 194.835 165.484,197.070 165.389,194.000 165.182 C 186.345 164.664,173.198 164.740,172.982 165.302 " stroke="none" fill="#fc97a2" fill-rule="evenodd"></path></g></svg>